<?xml version="1.0" standalone="no"?>
<!DOCTYPE svg PUBLIC "-//W3C//DTD SVG 1.1//EN" "http://www.w3.org/Graphics/SVG/1.1/DTD/svg11.dtd" >
<svg xmlns="http://www.w3.org/2000/svg" xmlns:xlink="http://www.w3.org/1999/xlink" version="1.1">
<metadata>
Created by FontForge 20170731 at Thu Oct 10 14:29:09 2013
 By Aleksey,,,
Copyright (c) 2013 by Rafa Goicoechea. All rights reserved.
</metadata>
<defs>
<font id="Sifonn-Pro" horiz-adv-x="851" >
  <font-face 
    font-family="Sifonn"
    font-weight="700"
    font-stretch="normal"
    units-per-em="1000"
    panose-1="0 0 0 0 0 0 0 0 0 0"
    ascent="750"
    descent="-250"
    x-height="505"
    cap-height="745"
    bbox="-182 -291 1843 1024"
    underline-thickness="58"
    underline-position="-233"
    unicode-range="U+0020-FB05"
  />
<missing-glyph 
d="M425 -13q-159 0 -272 113t-113 272q0 160 112.5 273t272.5 113q161 0 273.5 -113t112.5 -273q0 -159 -113 -272t-273 -113zM425 676q-124 0 -208.5 -88t-84.5 -216q0 -126 85 -213.5t208 -87.5q124 0 210 87.5t86 213.5q0 127 -86 215.5t-210 88.5zM292 528q27 0 44 -17
t17 -42t-17.5 -42t-43.5 -17t-42.5 17t-16.5 42t17 42t42 17zM624 199h-86v4q-2 39 -33 67.5t-73 28.5q-41 0 -72.5 -29t-35.5 -71h-87q5 75 61.5 128.5t133.5 53.5q81 0 135.5 -51.5t56.5 -126.5v-4zM569 528q27 0 44 -17t17 -42t-17 -42t-44 -17q-26 0 -42.5 17t-16.5 42
t17 42t42 17z" />
    <glyph glyph-name="f_f" unicode="ff" horiz-adv-x="680" 
d="M666 752v-146q-49 0 -79.5 -25.5t-30.5 -63.5v-12h100v-131h-100v-374h-141v374h-182v-374h-142v374h-69v131h69v7q0 103 73.5 171.5t177.5 68.5v-146q-48 0 -78.5 -26t-30.5 -63v-12h182v7q0 103 73.5 171.5t177.5 68.5z" />
    <glyph glyph-name="fi" unicode="fi" horiz-adv-x="603" 
d="M338 752v-146q-48 0 -78.5 -26t-30.5 -63v-12h323v-505h-141v374h-182v-374h-142v374h-69v131h69v7q0 103 73.5 171.5t177.5 68.5zM488 594q-33 0 -57.5 24t-24.5 57q0 30 24.5 54t57.5 24q35 0 59.5 -23.5t24.5 -54.5q0 -33 -24 -57t-60 -24z" />
    <glyph glyph-name="fl" unicode="fl" horiz-adv-x="612" 
d="M552 745v-745h-141v374h-182v-374h-142v374h-69v131h69v7q0 103 73.5 171.5t177.5 68.5v-146q-48 0 -78.5 -26t-30.5 -63v-12h182v240h141z" />
    <glyph glyph-name="f_f_i" unicode="ffi" horiz-adv-x="932" 
d="M881 505v-505h-142v374h-183v-374h-141v374h-182v-374h-142v374h-69v131h69v7q0 103 73.5 171.5t177.5 68.5v-146q-48 0 -78.5 -26t-30.5 -63v-12h182v7q0 103 73.5 171.5t177.5 68.5v-146q-49 0 -79.5 -25.5t-30.5 -63.5v-12h325zM816 594q-33 0 -57.5 24t-24.5 57
q0 30 24.5 54t57.5 24q35 0 59.5 -23.5t24.5 -54.5q0 -33 -24 -57t-60 -24z" />
    <glyph glyph-name="F_F" unicode="FF" horiz-adv-x="911" 
d="M226 0h-155v745h770v-140h-241v-139h281v-140h-281v-326h-154v326h-220v-326zM226 605v-139h220v139h-220z" />
    <glyph glyph-name="l_geminada" unicode="l&#x2022;l" horiz-adv-x="628" 
d="M315 447q28 0 46 -18.5t18 -45.5q0 -26 -18 -45t-46 -19t-46.5 19t-18.5 45q0 27 18 45.5t47 18.5zM50 745h142v-745h-142v745zM436 745h142v-745h-142v745z" />
    <glyph glyph-name="t_t" unicode="tt" horiz-adv-x="698" 
d="M683 374h-120v-161q0 -43 32.5 -65.5t84.5 -22.5v-136q-114 0 -186.5 61t-72.5 159v165h-195v-161q0 -43 32.5 -65.5t84.5 -22.5v-136q-114 0 -186.5 61t-72.5 159v165h-76v131h76v66l142 103v-169h195v66l142 103v-169h120v-131z" />
    <glyph glyph-name="f_b" unicode="fb" horiz-adv-x="968" 
d="M354 752v-146q-49 0 -79.5 -25.5t-30.5 -63.5v-12h183v240h141v-272q37 43 108 43q109 0 186 -77.5t77 -186.5q0 -108 -74 -185.5t-177 -77.5q-31 0 -66 13t-54 34v-36h-141v374h-183v-374h-141v374h-81v131h81v7q0 103 73.5 171.5t177.5 68.5zM677 130q50 0 84 34.5
t34 87.5t-34 87.5t-84 34.5q-52 0 -86 -34.5t-34 -87.5q0 -54 34 -88t86 -34z" />
    <glyph glyph-name="f_h" unicode="fh" horiz-adv-x="979" 
d="M936 252v-252h-142v252q0 53 -30.5 87.5t-73.5 34.5q-52 0 -87 -30.5t-35 -91.5v-252h-141v374h-183v-374h-141v374h-81v131h81v7q0 103 73.5 171.5t177.5 68.5v-146q-49 0 -79.5 -25.5t-30.5 -63.5v-12h183v240h141v-273q19 22 57 33t77 11q95 0 164.5 -77.5
t69.5 -186.5z" />
    <glyph glyph-name="f_f_h" unicode="ffh" horiz-adv-x="1302" 
d="M1259 252v-252h-142v252q0 53 -30.5 87.5t-73.5 34.5q-52 0 -87 -30.5t-35 -91.5v-252h-141v374h-182v-374h-141v374h-183v-374h-141v374h-81v131h81v7q0 103 73.5 171.5t177.5 68.5v-146q-49 0 -79.5 -25.5t-30.5 -63.5v-12h183v7q0 103 73.5 171.5t177.5 68.5v-146
q-49 0 -79.5 -25.5t-30.5 -63.5v-12h182v240h141v-273q19 22 57 33t77 11q95 0 164.5 -77.5t69.5 -186.5z" />
    <glyph glyph-name="f_f_j" unicode="ffj" horiz-adv-x="939" 
d="M646 -252v141q44 0 74 26.5t30 69.5v389h-182v-374h-141v374h-183v-374h-141v374h-81v131h81v7q0 103 73.5 171.5t177.5 68.5v-146q-49 0 -79.5 -25.5t-30.5 -63.5v-12h183v7q0 103 73.5 171.5t177.5 68.5v-146q-49 0 -79.5 -25.5t-30.5 -63.5v-12h323v-512
q0 -101 -72 -173t-173 -72zM818 594q-34 0 -58 24t-24 57q0 30 24.5 54t57.5 24q35 0 59.5 -23.5t24.5 -54.5q0 -33 -24 -57t-60 -24z" />
    <glyph glyph-name="f_k" unicode="fk" horiz-adv-x="965" 
d="M608 178l-40 -38v-140h-141v374h-183v-374h-141v374h-81v131h81v7q0 103 73.5 171.5t177.5 68.5v-146q-49 0 -79.5 -25.5t-30.5 -63.5v-12h183v240h141v-441l216 201h175l-254 -236l266 -269h-181z" />
    <glyph glyph-name="f_f_k" unicode="ffk" horiz-adv-x="1288" 
d="M931 178l-40 -38v-140h-141v374h-182v-374h-141v374h-183v-374h-141v374h-81v131h81v7q0 103 73.5 171.5t177.5 68.5v-146q-49 0 -79.5 -25.5t-30.5 -63.5v-12h183v7q0 103 73.5 171.5t177.5 68.5v-146q-49 0 -79.5 -25.5t-30.5 -63.5v-12h182v240h141v-441l216 201h175
l-254 -236l266 -269h-182z" />
    <glyph glyph-name="t_f" unicode="tf" horiz-adv-x="674" 
d="M660 752v-146q-49 0 -79.5 -25.5t-30.5 -63.5v-12h99v-131h-99v-374h-142v374h-182v-161q0 -40 33 -61.5t84 -21.5v-141q-114 0 -186.5 61t-72.5 159v165h-76v131h76v66l142 103v-169h182v7q0 103 73.5 171.5t178.5 68.5z" />
    <glyph glyph-name="t_i" unicode="ti" horiz-adv-x="600" 
d="M550 505v-505h-142v374h-182v-161q0 -40 33 -61.5t84 -21.5v-141q-114 0 -186.5 61t-72.5 159v165h-76v131h76v66l142 103v-169h324zM478 594q-33 0 -57.5 24t-24.5 57q0 30 24.5 54t57.5 24q35 0 60 -23.5t25 -54.5q0 -33 -24.5 -57t-60.5 -24z" />
    <glyph glyph-name="t_t_i" unicode="tti" horiz-adv-x="937" 
d="M887 505v-505h-142v372h-182v-159q0 -43 32.5 -65.5t84.5 -22.5v-136q-114 0 -186.5 61t-72.5 159v165h-195v-161q0 -40 33 -61.5t84 -21.5v-141q-114 0 -186.5 61t-72.5 159v165h-76v131h76v66l142 103v-169h195v66l142 103v-169h324zM815 594q-33 0 -57.5 24t-24.5 57
q0 30 24.5 54t57.5 24q35 0 60 -23.5t25 -54.5q0 -33 -24.5 -57t-60.5 -24z" />
    <glyph glyph-name="t_r" unicode="tr" horiz-adv-x="710" 
d="M697 514v-147q-20 7 -45 7q-44 0 -73 -32t-29 -90v-252h-142v374h-182v-161q0 -40 33 -61.5t84 -21.5v-141q-114 0 -186.5 61t-72.5 159v165h-76v131h76v66l142 103v-169h324v-35q43 46 112 46q22 0 35 -2z" />
    <glyph glyph-name="t_y" unicode="ty" horiz-adv-x="873" 
d="M519 48l-162 326h-131v-161q0 -41 32.5 -62t84.5 -21v-141q-103 0 -181 60.5t-78 159.5v165h-76v131h76v66l142 103v-169h222l146 -313l143 313h142l-348 -746h-146z" />
    <glyph glyph-name="f_j" unicode="fj" horiz-adv-x="621" 
d="M315 -252v141q44 0 74 26.5t30 69.5v389h-182v-374h-141v374h-81v131h81v7q0 103 73.5 171.5t177.5 68.5v-146q-49 0 -79.5 -25.5t-30.5 -63.5v-12h323v-512q0 -101 -72 -173t-173 -72zM487 594q-34 0 -58 24t-24 57q0 30 24.5 54t57.5 24q35 0 59.5 -23.5t24.5 -54.5
q0 -33 -24 -57t-60 -24z" />
    <glyph glyph-name=".notdef" 
d="M425 -13q-159 0 -272 113t-113 272q0 160 112.5 273t272.5 113q161 0 273.5 -113t112.5 -273q0 -159 -113 -272t-273 -113zM425 676q-124 0 -208.5 -88t-84.5 -216q0 -126 85 -213.5t208 -87.5q124 0 210 87.5t86 213.5q0 127 -86 215.5t-210 88.5zM292 528q27 0 44 -17
t17 -42t-17.5 -42t-43.5 -17t-42.5 17t-16.5 42t17 42t42 17zM624 199h-86v4q-2 39 -33 67.5t-73 28.5q-41 0 -72.5 -29t-35.5 -71h-87q5 75 61.5 128.5t133.5 53.5q81 0 135.5 -51.5t56.5 -126.5v-4zM569 528q27 0 44 -17t17 -42t-17 -42t-44 -17q-26 0 -42.5 17t-16.5 42
t17 42t42 17z" />
    <glyph glyph-name=".null" horiz-adv-x="0" 
 />
    <glyph glyph-name="nonmarkingreturn" horiz-adv-x="333" 
 />
    <glyph glyph-name="space" unicode=" " horiz-adv-x="421" 
 />
    <glyph glyph-name="exclam" unicode="!" horiz-adv-x="297" 
d="M214 745v-510h-131v510h131zM148 140q34 0 56 -22t22 -55q0 -31 -22 -53.5t-56 -22.5t-55.5 22t-21.5 54q0 33 22 55t55 22z" />
    <glyph glyph-name="quotedbl" unicode="&#x22;" horiz-adv-x="385" 
d="M118 531h-85v227h155zM303 531h-86v227h156z" />
    <glyph glyph-name="numbersign" unicode="#" horiz-adv-x="716" 
d="M209 0h-117l53 204h-102v112h131l32 122h-128v112h157l51 195h112l-49 -195h120l51 195h112l-49 -195h97v-112h-127l-30 -122h122v-112h-150l-52 -204h-117l53 204h-118zM319 438l-30 -122h119l32 122h-121z" />
    <glyph glyph-name="dollar" unicode="$" horiz-adv-x="568" 
d="M342 827v-76q108 -25 166 -124l-125 -91q-31 75 -102 75q-41 0 -69.5 -24.5t-28.5 -57.5q0 -63 105 -74q110 -12 178.5 -74t68.5 -153q0 -93 -52 -153.5t-141 -79.5v-80h-131v77q-125 20 -191 125l137 99q16 -40 48.5 -60t67.5 -20q51 0 77 22.5t26 57.5q0 33 -28.5 57.5
t-71.5 33.5q-251 45 -251 222q0 81 53.5 140t132.5 80v78h131z" />
    <glyph glyph-name="percent" unicode="%" horiz-adv-x="897" 
d="M340 0h-125l335 745h119zM697 35q-67 0 -116.5 49.5t-49.5 116.5q0 71 49 121t117 50q72 0 121.5 -50t49.5 -121q0 -68 -50 -117t-121 -49zM697 265q-24 0 -40.5 -18t-16.5 -46q0 -24 17 -41.5t40 -17.5q26 0 43 17t17 42q0 28 -17 46t-43 18zM195 372q-67 0 -116.5 49
t-49.5 117q0 71 49 121t117 50q72 0 121.5 -50t49.5 -121q0 -68 -50 -117t-121 -49zM195 602q-24 0 -40.5 -18t-16.5 -46q0 -24 17 -41.5t40 -17.5q27 0 43.5 17t16.5 42q0 28 -17 46t-43 18z" />
    <glyph glyph-name="ampersand" unicode="&#x26;" horiz-adv-x="661" 
d="M649 331v-122h-77q-12 -95 -84.5 -158.5t-170.5 -63.5q-119 0 -200 79t-81 198q0 82 45 147t122 93l-128 241h396v-131h-176l123 -237h-116q-50 0 -82.5 -34.5t-32.5 -89.5q0 -50 37.5 -86t92.5 -36q49 0 80.5 31.5t31.5 80.5v88h220z" />
    <glyph glyph-name="quotesingle" unicode="'" horiz-adv-x="200" 
d="M118 531h-85v227h155z" />
    <glyph glyph-name="parenleft" unicode="(" horiz-adv-x="314" 
d="M181 758l97 -67q-107 -177 -107 -384q0 -218 114 -398l-103 -72q-139 220 -139 470q0 252 138 451z" />
    <glyph glyph-name="parenright" unicode=")" horiz-adv-x="314" 
d="M36 691l97 67q138 -199 138 -451t-139 -470l-103 72q115 181 115 398q0 205 -108 384z" />
    <glyph glyph-name="asterisk" unicode="*" horiz-adv-x="372" 
d="M75 450l-46 62l91 67l-91 67l46 62l72 -53v90h77v-90l73 53l46 -62l-92 -67l92 -67l-46 -62l-73 53v-90h-77v90z" />
    <glyph glyph-name="plus" unicode="+" horiz-adv-x="578" 
d="M350 111h-122v186h-181v112h181v187h122v-187h181v-112h-181v-186z" />
    <glyph glyph-name="comma" unicode="," horiz-adv-x="282" 
d="M103 -163h-88l67 227h160z" />
    <glyph glyph-name="hyphen" unicode="-" horiz-adv-x="385" 
d="M338 363v-111h-291v111h291z" />
    <glyph glyph-name="period" unicode="." horiz-adv-x="274" 
d="M137 140q34 0 55.5 -22t21.5 -55q0 -32 -21.5 -54t-55.5 -22t-55.5 22t-21.5 54q0 33 21.5 55t55.5 22z" />
    <glyph glyph-name="slash" unicode="/" horiz-adv-x="560" 
d="M102 -163h-133l465 908h126z" />
    <glyph glyph-name="zero" unicode="0" horiz-adv-x="849" 
d="M426 -13q-160 0 -273 113t-113 272q0 160 112.5 273t272.5 113t272 -112.5t112 -273.5q0 -159 -112 -272t-271 -113zM425 619q-98 0 -167 -72t-69 -175q0 -102 69 -172t168 -70q98 0 166 70t68 172q0 103 -68.5 175t-166.5 72z" />
    <glyph glyph-name="one" unicode="1" horiz-adv-x="307" 
d="M261 745v-745h-145v614h-94v131h239z" />
    <glyph glyph-name="two" unicode="2" horiz-adv-x="520" 
d="M498 0h-472l204 333q-79 10 -132.5 70.5t-53.5 140.5q0 85 62 149.5t150 64.5t150.5 -63t62.5 -151q0 -60 -35 -118l-180 -295h244v-131zM178 542q0 -32 23 -54.5t54 -22.5t54 22.5t23 54.5t-23 54.5t-54 22.5t-54 -22.5t-23 -54.5z" />
    <glyph glyph-name="three" unicode="3" horiz-adv-x="519" 
d="M67 746h402l-138 -264q72 -27 114 -89t42 -139q0 -113 -74.5 -189.5t-183.5 -76.5q-62 0 -116.5 29.5t-90.5 79.5l119 87q32 -52 88 -52q45 0 76 32.5t31 77.5q0 50 -30.5 81.5t-76.5 31.5h-113l134 260h-183v131z" />
    <glyph glyph-name="four" unicode="4" horiz-adv-x="573" 
d="M458 383v-73h100v-131h-100v-179h-140v179h-310l286 566h147l-217 -435h94v73h140z" />
    <glyph glyph-name="five" unicode="5" horiz-adv-x="533" 
d="M81 745h332v-131h-199v-116h26q116 0 186.5 -67.5t70.5 -177.5q0 -114 -77.5 -190t-191.5 -76q-59 0 -114.5 28.5t-91.5 78.5l119 87q33 -50 87 -50q53 0 87 29t34 81q0 56 -29.5 84t-79.5 28h-159v392z" />
    <glyph glyph-name="six" unicode="6" horiz-adv-x="591" 
d="M285 745h155l-139 -247q103 -4 174.5 -78.5t71.5 -178.5q0 -105 -75 -179.5t-182 -74.5q-104 0 -179 75t-75 179q0 68 40 138zM290 353q-44 0 -74 -31.5t-30 -80.5q0 -45 30.5 -77.5t73.5 -32.5q45 0 75.5 32t30.5 78q0 50 -30 81t-76 31z" />
    <glyph glyph-name="seven" unicode="7" horiz-adv-x="522" 
d="M27 745h508l-380 -745h-154l311 614h-285v131z" />
    <glyph glyph-name="eight" unicode="8" horiz-adv-x="584" 
d="M290 -13q-104 0 -179 75t-75 179q0 108 79 185q-37 52 -37 118q0 88 62.5 151t149.5 63q89 0 151.5 -63t62.5 -151q0 -64 -36 -117q79 -76 79 -186q0 -105 -75 -179.5t-182 -74.5zM290 353q-44 0 -74 -31.5t-30 -80.5q0 -45 30.5 -77.5t73.5 -32.5q45 0 75.5 32t30.5 78
q0 49 -30.5 80.5t-75.5 31.5zM290 618q-29 0 -49 -21.5t-20 -52.5t20 -52.5t49 -21.5q31 0 51 21.5t20 52.5t-20.5 52.5t-50.5 21.5z" />
    <glyph glyph-name="nine" unicode="9" horiz-adv-x="591" 
d="M298 0h-152l139 247q-105 2 -177 77t-72 180t75 179.5t183 74.5q104 0 178.5 -75t74.5 -179q0 -66 -27 -113zM294 392q44 0 74 31.5t30 80.5q0 45 -30.5 77.5t-73.5 32.5q-45 0 -76 -32.5t-31 -77.5q0 -49 30.5 -80.5t76.5 -31.5z" />
    <glyph glyph-name="colon" unicode=":" horiz-adv-x="274" 
d="M137 140q34 0 55.5 -22t21.5 -55q0 -32 -21.5 -54t-55.5 -22t-55.5 22t-21.5 54q0 33 21.5 55t55.5 22zM137 526q34 0 55.5 -22t21.5 -55q0 -32 -21.5 -54t-55.5 -22t-55.5 22t-21.5 54q0 33 21.5 55t55.5 22z" />
    <glyph glyph-name="semicolon" unicode=";" horiz-adv-x="282" 
d="M103 -163h-88l67 227h160zM150 526q34 0 56 -22t22 -55q0 -32 -22 -54t-56 -22q-33 0 -55 22.5t-22 53.5q0 33 21.5 55t55.5 22z" />
    <glyph glyph-name="less" unicode="&#x3c;" horiz-adv-x="427" 
d="M29 352l351 363v-157l-201 -206l201 -194v-157z" />
    <glyph glyph-name="equal" unicode="=" horiz-adv-x="578" 
d="M513 292v-112h-449v112h449zM513 526v-112h-449v112h449z" />
    <glyph glyph-name="greater" unicode="&#x3e;" horiz-adv-x="427" 
d="M47 715l351 -363l-351 -351v157l201 194l-201 206v157z" />
    <glyph glyph-name="question" unicode="?" horiz-adv-x="441" 
d="M115 234v227h90q33 2 54.5 26.5t21.5 57.5q0 39 -23.5 63.5t-59.5 24.5q-47 0 -69 -41l-103 75q29 42 74.5 66.5t97.5 24.5q90 0 152 -62.5t62 -151.5q0 -74 -47 -131.5t-119 -73.5v-105h-131zM180 140q34 0 55.5 -22t21.5 -55q0 -32 -21.5 -54t-55.5 -22t-55.5 22
t-21.5 54q0 33 21.5 55t55.5 22z" />
    <glyph glyph-name="at" unicode="@" horiz-adv-x="944" 
d="M561 511h103v-351q60 31 93 88.5t33 134.5q0 115 -88.5 195.5t-216.5 80.5q-140 0 -235.5 -96t-95.5 -237q0 -136 95.5 -228.5t236.5 -92.5v-107q-95 0 -179 34.5t-142 93t-91.5 137t-33.5 163.5q0 182 129 307.5t316 125.5q175 0 297 -110t122 -266
q0 -141 -100.5 -248.5t-251.5 -129.5v168q-31 -22 -78 -22q-82 0 -136 54.5t-54 135.5q0 75 55 133.5t131 58.5q44 0 91 -22zM472 262q34 0 57.5 23t23.5 57q0 33 -23.5 56.5t-57.5 23.5q-32 0 -55.5 -23.5t-23.5 -56.5t23.5 -56.5t55.5 -23.5z" />
    <glyph glyph-name="A" unicode="A" horiz-adv-x="775" 
d="M612 0l-49 100h-361l-48 -100h-160l393 758l394 -758h-169zM381 472l-112 -232h226z" />
    <glyph glyph-name="B" unicode="B" horiz-adv-x="635" 
d="M331 0h-260v745h239q109 0 173 -48.5t64 -148.5q0 -77 -53 -126q101 -69 101 -182q0 -109 -78 -174.5t-186 -65.5zM226 140h110q47 0 73.5 25.5t26.5 69.5q0 45 -26 71t-74 26h-110v-192zM226 467h78q35 0 55 11.5t24.5 25t4.5 32.5q0 69 -84 69h-78v-138z" />
    <glyph glyph-name="C" unicode="C" horiz-adv-x="835" 
d="M650 329h157q-17 -144 -126.5 -243t-257.5 -99q-160 0 -271.5 112.5t-111.5 272.5t111.5 273t270.5 113q103 0 190.5 -49t138.5 -132l-121 -86q-40 59 -94 89t-113 30q-94 0 -159 -69.5t-65 -168.5q0 -98 65 -167t159 -69q84 0 147.5 54.5t79.5 138.5z" />
    <glyph glyph-name="D" unicode="D" horiz-adv-x="803" 
d="M71 745h302q163 0 276.5 -107t113.5 -265q0 -159 -113.5 -266t-275.5 -107h-303v745zM226 140h148q97 0 163.5 66.5t66.5 166.5t-66.5 166t-164.5 66h-147v-465z" />
    <glyph glyph-name="E" unicode="E" horiz-adv-x="573" 
d="M533 0h-462v745h396v-140h-241v-139h280v-140h-280v-186h307v-140z" />
    <glyph glyph-name="F" unicode="F" horiz-adv-x="536" 
d="M226 0h-155v745h396v-140h-241v-139h280v-140h-280v-326z" />
    <glyph glyph-name="G" unicode="G" horiz-adv-x="847" 
d="M809 407v-23q0 -165 -113 -281t-273 -116t-271.5 112.5t-111.5 272.5t111.5 273t270.5 113q103 0 190.5 -49t138.5 -132l-124 -90q-30 56 -84.5 89.5t-119.5 33.5q-94 0 -159 -69.5t-65 -168.5q0 -98 65 -167t159 -69q70 0 126 35t80 98h-202v138h382z" />
    <glyph glyph-name="H" unicode="H" horiz-adv-x="794" 
d="M71 745h155v-279h342v279h155v-745h-155v326h-342v-326h-155v745z" />
    <glyph glyph-name="I" unicode="I" horiz-adv-x="297" 
d="M226 745v-745h-155v745h155z" />
    <glyph glyph-name="J" unicode="J" horiz-adv-x="673" 
d="M322 745h287v-412q0 -96 -35.5 -173t-110.5 -125t-179 -48q-118 0 -199 60t-109 180l142 43q34 -134 167 -134q80 0 124.5 58.5t44.5 138.5v272h-132v140z" />
    <glyph glyph-name="K" unicode="K" horiz-adv-x="791" 
d="M226 745v-352l352 352h207l-366 -366l378 -379h-209l-279 280l-83 -83v-197h-155v745h155z" />
    <glyph glyph-name="L" unicode="L" horiz-adv-x="541" 
d="M71 745h155v-605h300v-140h-455v745z" />
    <glyph glyph-name="M" unicode="M" horiz-adv-x="936" 
d="M468 457l397 301v-758h-155v449l-242 -175l-242 175v-449h-155v758z" />
    <glyph glyph-name="N" unicode="N" horiz-adv-x="827" 
d="M601 314v431h155v-758l-530 441v-428h-155v759z" />
    <glyph glyph-name="O" unicode="O" 
d="M426 -13q-160 0 -273 113t-113 273t112.5 272.5t272.5 112.5t273 -112.5t113 -272.5t-112.5 -273t-272.5 -113zM425 610q-95 0 -160.5 -69t-65.5 -168q0 -100 65.5 -168.5t161.5 -68.5q95 0 160.5 68.5t65.5 168.5q0 98 -66.5 167.5t-160.5 69.5z" />
    <glyph glyph-name="P" unicode="P" horiz-adv-x="675" 
d="M226 0h-155v745h259q131 0 220 -85.5t89 -207.5q0 -144 -88.5 -233.5t-235.5 -89.5h-89v-129zM226 269h85q82 0 127 46t45 125q0 72 -42.5 118.5t-120.5 46.5h-94v-336z" />
    <glyph glyph-name="Q" unicode="Q" horiz-adv-x="850" 
d="M272 -144l91 137q-139 22 -231 129t-92 250q0 160 112.5 273t272.5 113q161 0 273.5 -113t112.5 -273q0 -132 -81 -235.5t-206 -136.5h206v-144h-458zM425 610q-95 0 -160.5 -69.5t-65.5 -168.5t65.5 -167.5t161.5 -68.5q95 0 160.5 68.5t65.5 167.5t-66.5 168.5
t-160.5 69.5z" />
    <glyph glyph-name="R" unicode="R" horiz-adv-x="675" 
d="M304 129h-78v-129h-155v745h259q131 0 220 -85.5t89 -207.5q0 -99 -44.5 -171t-123.5 -109l161 -172h-206zM226 269h85q82 0 127 46t45 125q0 72 -42.5 118.5t-120.5 46.5h-94v-336z" />
    <glyph glyph-name="S" unicode="S" horiz-adv-x="556" 
d="M250 330q-97 11 -155 68.5t-58 144.5q0 90 68.5 152.5t150.5 62.5q121 0 201 -96l-122 -89q-35 37 -79 37q-31 0 -50 -18t-19 -48q0 -63 104 -70q99 -6 165.5 -70t66.5 -168q0 -106 -75.5 -177.5t-176.5 -71.5q-142 0 -241 109l128 94q43 -54 113 -54q38 0 64.5 26.5
t26.5 62.5q0 45 -29 72t-83 33z" />
    <glyph glyph-name="T" unicode="T" horiz-adv-x="573" 
d="M358 0h-155v605h-184v140h535v-140h-196v-605z" />
    <glyph glyph-name="U" unicode="U" horiz-adv-x="770" 
d="M386 -13q-158 0 -240 98t-82 260v400h155v-426q0 -88 42.5 -135.5t124.5 -47.5q84 0 124.5 48t40.5 135v426h155v-413q0 -162 -85 -253.5t-235 -91.5z" />
    <glyph glyph-name="V" unicode="V" horiz-adv-x="753" 
d="M392 308l213 437h160l-379 -758l-398 758h178z" />
    <glyph glyph-name="W" unicode="W" horiz-adv-x="1063" 
d="M705 308l212 437h161l-379 -758l-163 307l-153 -307l-398 758h178l226 -437l70 135l-158 302h178z" />
    <glyph glyph-name="X" unicode="X" horiz-adv-x="694" 
d="M240 383l-237 362h175l161 -249l157 249h164l-223 -353l255 -392h-174l-180 277l-173 -277h-164z" />
    <glyph glyph-name="Y" unicode="Y" horiz-adv-x="764" 
d="M390 379l217 366h163l-305 -505v-240h-155v226l-316 519h178z" />
    <glyph glyph-name="Z" unicode="Z" horiz-adv-x="682" 
d="M263 140h404v-140h-662l386 605h-348v140h611z" />
    <glyph glyph-name="bracketleft" unicode="[" horiz-adv-x="323" 
d="M286 -163h-215v921h215v-100h-98v-720h98v-101z" />
    <glyph glyph-name="backslash" unicode="\" horiz-adv-x="560" 
d="M591 -163h-132l-459 908h127z" />
    <glyph glyph-name="bracketright" unicode="]" horiz-adv-x="323" 
d="M251 -163h-215v101h98v720h-98v100h215v-921z" />
    <glyph glyph-name="asciicircum" unicode="^" horiz-adv-x="529" 
d="M264 1014l165 -206h-133l-32 43l-31 -43h-134z" />
    <glyph glyph-name="underscore" unicode="_" horiz-adv-x="698" 
d="M718 -59v-104h-738v104h738z" />
    <glyph glyph-name="grave" unicode="`" horiz-adv-x="761" 
d="M275 927l93 67l119 -186h-134z" />
    <glyph glyph-name="a" unicode="a" horiz-adv-x="592" 
d="M400 505h142v-505h-142v36q-16 -21 -51.5 -34t-71.5 -13q-103 0 -175.5 77.5t-72.5 185.5q0 109 73 186.5t175 77.5q33 0 69.5 -14t53.5 -32v35zM291 130q50 0 82.5 34t32.5 88q0 53 -32.5 87.5t-82.5 34.5q-49 0 -83.5 -34.5t-34.5 -87.5t34 -87.5t84 -34.5z" />
    <glyph glyph-name="b" unicode="b" horiz-adv-x="592" 
d="M50 745h142v-275q17 18 53.5 32t69.5 14q102 0 175 -77.5t73 -186.5q0 -108 -72.5 -185.5t-175.5 -77.5q-36 0 -71.5 13t-51.5 34v-36h-142v745zM301 130q50 0 84 34.5t34 87.5t-34.5 87.5t-83.5 34.5q-50 0 -82.5 -34.5t-32.5 -87.5q0 -54 32.5 -88t82.5 -34z" />
    <glyph glyph-name="c" unicode="c" horiz-adv-x="577" 
d="M409 222h147q-11 -98 -87.5 -165.5t-177.5 -67.5q-108 0 -185 77.5t-77 185.5q0 110 76.5 187t185.5 77q61 0 115 -26.5t92 -72.5l-113 -88q-35 45 -94 45q-49 0 -83.5 -34.5t-34.5 -87.5t34 -87.5t84 -34.5q44 0 76 25t42 67z" />
    <glyph glyph-name="d" unicode="d" horiz-adv-x="592" 
d="M400 745h142v-745h-142v36q-16 -21 -51.5 -34t-71.5 -13q-103 0 -175.5 77.5t-72.5 185.5q0 109 73 186.5t175 77.5q33 0 69.5 -14t53.5 -32v275zM291 130q50 0 82.5 34t32.5 88q0 53 -32.5 87.5t-82.5 34.5q-49 0 -83.5 -34.5t-34.5 -87.5t34 -87.5t84 -34.5z" />
    <glyph glyph-name="e" unicode="e" horiz-adv-x="564" 
d="M412 181l113 -87q-32 -48 -93 -76.5t-129 -28.5q-114 0 -194 77.5t-80 185.5q0 110 76.5 187t185.5 77q90 0 158.5 -52t93.5 -126l-282 -202q16 -6 42 -6q76 0 109 51zM173 252q0 -20 4 -33l184 131q-32 24 -70 24q-49 0 -83.5 -34.5t-34.5 -87.5z" />
    <glyph glyph-name="f" unicode="f" horiz-adv-x="356" 
d="M342 752v-146q-48 0 -78.5 -25.5t-30.5 -63.5v-12h99v-131h-99v-374h-142v374h-69v131h69v7q0 103 73.5 171.5t177.5 68.5z" />
    <glyph glyph-name="g" unicode="g" horiz-adv-x="592" 
d="M284 -111q49 0 82.5 31t33.5 76v40q-16 -21 -51.5 -34t-71.5 -13q-103 0 -175.5 77.5t-72.5 185.5q0 109 73 186.5t175 77.5q33 0 69.5 -14t53.5 -32v35h142v-500q0 -106 -75.5 -181.5t-182.5 -75.5q-66 0 -122.5 31t-92.5 84l115 83q34 -57 100 -57zM291 130
q50 0 82.5 34t32.5 88q0 53 -32.5 87.5t-82.5 34.5q-49 0 -83.5 -34.5t-34.5 -87.5t34 -87.5t84 -34.5z" />
    <glyph glyph-name="h" unicode="h" horiz-adv-x="602" 
d="M559 252v-252h-141v252q0 58 -29.5 90t-75.5 32q-49 0 -85 -35t-36 -87v-252h-142v745h142v-276q19 23 57 35t76 12q102 0 168 -76.5t66 -187.5z" />
    <glyph glyph-name="i" unicode="i" horiz-adv-x="242" 
d="M120 594q-33 0 -57.5 24t-24.5 57q0 30 24.5 54t57.5 24q35 0 60 -23.5t25 -54.5q0 -33 -24.5 -57t-60.5 -24zM192 505v-505h-142v505h142z" />
    <glyph glyph-name="j" unicode="j" horiz-adv-x="242" 
d="M-54 -252v141q44 0 74 26.5t30 69.5v520h142v-512q0 -101 -72 -173t-174 -72zM120 594q-33 0 -57.5 24t-24.5 57q0 30 24.5 54t57.5 24q35 0 60 -23.5t25 -54.5q0 -33 -24.5 -57t-60.5 -24z" />
    <glyph glyph-name="k" unicode="k" horiz-adv-x="588" 
d="M232 178l-40 -38v-140h-142v745h142v-441l215 201h176l-254 -236l265 -269h-181z" />
    <glyph glyph-name="l" unicode="l" horiz-adv-x="242" 
d="M50 745h142v-745h-142v745z" />
    <glyph glyph-name="m" unicode="m" horiz-adv-x="940" 
d="M543 252v-252h-142v252q0 63 -29 92.5t-80 29.5q-40 0 -70 -36t-30 -86v-252h-142v505h142v-35q17 20 53 33t71 13q55 0 101.5 -22.5t69.5 -57.5q60 80 180 80q111 0 170.5 -74t59.5 -190v-252h-141v252q0 56 -30 89t-74 33q-46 0 -77.5 -35.5t-31.5 -86.5z" />
    <glyph glyph-name="n" unicode="n" horiz-adv-x="602" 
d="M559 252v-252h-141v252q0 58 -29.5 90t-75.5 32q-50 0 -85.5 -32t-35.5 -90v-252h-142v505h142v-35q20 22 57.5 34t75.5 12q102 0 168 -76.5t66 -187.5z" />
    <glyph glyph-name="o" unicode="o" horiz-adv-x="586" 
d="M291 516q109 0 187.5 -77.5t78.5 -186.5q0 -108 -78.5 -185.5t-187.5 -77.5q-108 0 -185 77.5t-77 185.5q0 110 76.5 187t185.5 77zM291 130q52 0 86.5 34t34.5 88q0 53 -34.5 87.5t-86.5 34.5q-49 0 -83.5 -34.5t-34.5 -87.5t34 -87.5t84 -34.5z" />
    <glyph glyph-name="p" unicode="p" horiz-adv-x="592" 
d="M192 -241h-142v746h142v-35q17 18 53 32t70 14q104 0 176 -77t72 -185q0 -109 -73.5 -187t-177.5 -78q-80 0 -120 47v-277zM301 374q-50 0 -82.5 -34t-32.5 -87q0 -54 32.5 -88.5t82.5 -34.5q49 0 83.5 35t34.5 88t-34.5 87t-83.5 34z" />
    <glyph glyph-name="q" unicode="q" horiz-adv-x="592" 
d="M542 -241h-142v277q-40 -47 -120 -47q-104 0 -177.5 78t-73.5 187q0 108 72 185t176 77q34 0 70 -14t53 -32v35h142v-746zM291 374q-49 0 -83.5 -34t-34.5 -87t34.5 -88t83.5 -35q50 0 82.5 34.5t32.5 88.5q0 53 -32.5 87t-82.5 34z" />
    <glyph glyph-name="r" unicode="r" horiz-adv-x="352" 
d="M339 514v-147q-20 7 -45 7q-44 0 -73 -32t-29 -90v-252h-142v505h142v-35q43 46 112 46q22 0 35 -2z" />
    <glyph glyph-name="s" unicode="s" horiz-adv-x="402" 
d="M180 203q-70 10 -113.5 53t-43.5 107q0 63 53 108t113 45q96 0 151 -79l-102 -74q-23 21 -46 21q-30 0 -30 -26t54 -32q75 -10 119.5 -50t44.5 -114q0 -76 -55.5 -124.5t-138.5 -48.5q-107 0 -174 76l120 87q21 -22 55 -22q38 0 38 34q0 32 -45 39z" />
    <glyph glyph-name="t" unicode="t" horiz-adv-x="361" 
d="M346 374h-120v-161q0 -41 32.5 -62t84.5 -21v-141q-114 0 -186.5 61t-72.5 159v165h-76v131h76v66l142 103v-169h120v-131z" />
    <glyph glyph-name="u" unicode="u" horiz-adv-x="602" 
d="M43 242v263h142v-251q0 -54 30.5 -89t73.5 -35q53 0 87.5 29.5t34.5 94.5v251h141v-505h-141v36q-20 -22 -60.5 -34.5t-80.5 -12.5q-98 0 -162.5 73.5t-64.5 179.5z" />
    <glyph glyph-name="v" unicode="v" horiz-adv-x="512" 
d="M272 262l108 243h138l-251 -518l-273 518h157z" />
    <glyph glyph-name="w" unicode="w" horiz-adv-x="741" 
d="M502 263l106 242h139l-251 -518l-114 238l-114 -238l-274 518h157l121 -243l46 98l-68 145h136z" />
    <glyph glyph-name="x" unicode="x" horiz-adv-x="519" 
d="M260 149l-96 -149h-166l183 269l-148 236h147l80 -132l79 132h148l-149 -236l184 -269h-166z" />
    <glyph glyph-name="y" unicode="y" horiz-adv-x="574" 
d="M221 48l-227 457h156l146 -313l143 313h141l-347 -746h-147z" />
    <glyph glyph-name="z" unicode="z" horiz-adv-x="469" 
d="M451 0h-443l225 374h-195v131h416l-210 -370h207v-135z" />
    <glyph glyph-name="braceleft" unicode="{" horiz-adv-x="354" 
d="M119 58v66q0 51 -28.5 88.5t-78.5 37.5v95q50 0 78.5 37.5t28.5 89.5v65q0 105 54 160q55 61 152 61v-106q-45 0 -70.5 -34.5t-25.5 -80.5v-65q0 -99 -54 -161l-14 -14l14 -13q54 -60 54 -160v-66q0 -46 25.5 -80t70.5 -34v-107q-97 0 -152 61q-54 57 -54 160z" />
    <glyph glyph-name="bar" unicode="|" horiz-adv-x="250" 
d="M179 744v-942h-108v942h108z" />
    <glyph glyph-name="braceright" unicode="}" horiz-adv-x="354" 
d="M235 58q0 -103 -54 -160q-55 -61 -152 -61v107q45 0 70.5 34t25.5 80v66q0 100 54 160l14 13l-5 5t-5.5 5t-3.5 4q-54 62 -54 161v65q0 46 -25.5 80.5t-70.5 34.5v106q97 0 152 -61q54 -55 54 -160v-65q0 -52 28.5 -89.5t79.5 -37.5v-95q-51 0 -79.5 -37.5t-28.5 -88.5
v-66z" />
    <glyph glyph-name="asciitilde" unicode="~" horiz-adv-x="841" 
d="M289 813l-100 74q65 79 160 79q28 0 71.5 -18t64.5 -18q29 0 60 36l100 -72q-65 -86 -143 -86q-29 0 -69.5 20.5t-62.5 20.5q-38 0 -81 -36z" />
    <glyph glyph-name="exclamdown" unicode="&#xa1;" horiz-adv-x="231" 
d="M181 510v-510h-131v510h131zM116 605q-34 0 -56 22t-22 55q0 32 22 54t56 22q33 0 55 -22.5t22 -53.5q0 -33 -22 -55t-55 -22z" />
    <glyph glyph-name="cent" unicode="&#xa2;" horiz-adv-x="835" 
d="M650 329h157q-15 -131 -108 -226t-224 -112v-76h-108v77q-140 20 -233.5 127.5t-93.5 252.5t93.5 253t233.5 128v73h108v-71q87 -13 159.5 -59.5t116.5 -118.5l-121 -86q-40 59 -94 89t-113 30q-94 0 -159 -69.5t-65 -168.5q0 -98 65 -167t159 -69q84 0 147.5 54.5
t79.5 138.5z" />
    <glyph glyph-name="sterling" unicode="&#xa3;" horiz-adv-x="630" 
d="M47 292v141h62v86q0 102 75 170t176 68q131 0 218 -109l-121 -88q-37 48 -97 48q-39 0 -68 -26.5t-29 -62.5v-86h121v-141h-121v-152h119q64 0 102 54l116 -85q-87 -109 -218 -109h-335v140h62v152h-62z" />
    <glyph glyph-name="currency" unicode="&#xa4;" horiz-adv-x="642" 
d="M321 92q-63 0 -117 28l-54 -54l-105 103l55 55q-28 54 -28 116q0 64 29 117l-56 56l105 105l56 -57q54 27 114 27q61 0 115 -28l58 58l104 -105l-57 -57q28 -54 28 -116q0 -61 -28 -114l57 -57l-104 -103l-56 55q-55 -29 -116 -29zM320 466q-49 0 -85 -37t-36 -89
t36 -88.5t86 -36.5q49 0 83.5 36.5t34.5 88.5t-35 89t-84 37z" />
    <glyph glyph-name="yen" unicode="&#xa5;" horiz-adv-x="764" 
d="M167 152v129h130l-303 464h178l221 -348l218 348h159l-302 -464h138v-129h-142v-152h-154v152h-143z" />
    <glyph glyph-name="brokenbar" unicode="&#xa6;" horiz-adv-x="250" 
d="M178 229v-407h-102v407h102zM178 724v-407h-102v407h102z" />
    <glyph glyph-name="section" unicode="&#xa7;" horiz-adv-x="550" 
d="M267 813q86 0 146 -63.5t60 -157.5h-119q0 41 -25.5 71t-61.5 30q-39 0 -62.5 -24t-23.5 -59q0 -34 26.5 -59.5t62.5 -25.5q91 0 154 -63t63 -152q0 -92 -66 -153q66 -64 66 -144q0 -85 -63 -145t-150 -60q-86 0 -145.5 63.5t-59.5 157.5h118q0 -39 26 -69.5t61 -30.5
q39 0 62.5 24t23.5 60q0 33 -27 58t-63 25q-88 0 -150.5 63t-62.5 151q0 90 62 154q-64 59 -64 146q0 84 62.5 143.5t149.5 59.5zM272 405q-35 0 -61.5 -28t-26.5 -67t26.5 -67.5t63.5 -28.5t62 29t25 67q0 39 -26 67t-63 28z" />
    <glyph glyph-name="dieresis" unicode="&#xa8;" horiz-adv-x="719" 
d="M284 869q0 -28 -18 -46t-45 -18q-26 0 -44 17.5t-18 46.5q0 27 18 44.5t44 17.5q27 0 45 -17.5t18 -44.5zM545 869q0 -28 -18.5 -46t-45.5 -18q-25 0 -43 17.5t-18 46.5q0 27 18 44.5t43 17.5q27 0 45.5 -17.5t18.5 -44.5z" />
    <glyph glyph-name="copyright" unicode="&#xa9;" 
d="M426 -13q-160 0 -273 113t-113 273t112.5 272.5t272.5 112.5t273 -112.5t113 -272.5t-112.5 -273t-272.5 -113zM425 663q-116 0 -196.5 -84.5t-80.5 -205.5q0 -122 80 -206t198 -84q116 0 196.5 84t80.5 206q0 120 -81.5 205t-196.5 85zM528 370h96q-5 -79 -61 -134.5
t-133 -55.5q-80 0 -136 55.5t-56 134.5q0 80 56 137.5t135 57.5q51 0 97 -27.5t72 -73.5l-75 -56q-36 65 -93 65q-40 0 -68 -30t-28 -73q0 -39 28.5 -69t67.5 -30q37 0 66.5 29.5t31.5 69.5z" />
    <glyph glyph-name="ordfeminine" unicode="&#xaa;" horiz-adv-x="495" 
d="M30 152v107h435v-107h-435zM351 340l-26 51h-162l-24 -51h-109l218 413l216 -413h-113zM244 556l-35 -70h69z" />
    <glyph glyph-name="guillemotleft" unicode="&#xab;" horiz-adv-x="719" 
d="M12 372l311 266l63 -92l-209 -174l209 -174l-63 -92zM316 372l311 266l63 -92l-209 -174l209 -174l-63 -92z" />
    <glyph glyph-name="logicalnot" unicode="&#xac;" horiz-adv-x="498" 
d="M480 460v-196h-101v95h-364v101h465z" />
    <glyph glyph-name="registered" unicode="&#xae;" 
d="M426 -13q-160 0 -273 113t-113 273t112.5 272.5t272.5 112.5t273 -112.5t113 -272.5t-112.5 -273t-272.5 -113zM425 663q-116 0 -196.5 -84.5t-80.5 -205.5q0 -122 80 -206t198 -84q116 0 196.5 84t80.5 206q0 120 -81.5 205t-196.5 85zM411 256h-21v-60h-94v371h130
q67 0 112.5 -42.5t45.5 -106.5q0 -42 -20.5 -78t-52.5 -55l85 -89h-127zM390 344h18q78 0 78 68q0 30 -17 49t-47 19h-32v-136z" />
    <glyph glyph-name="macron" unicode="&#xaf;" horiz-adv-x="837" 
d="M210 820v134h413v-134h-413z" />
    <glyph glyph-name="degree" unicode="&#xb0;" horiz-adv-x="338" 
d="M157 528q-47 0 -80.5 33.5t-33.5 79.5q0 49 33.5 83t80.5 34q49 0 83 -34t34 -83q0 -47 -34 -80t-83 -33zM157 674q-13 0 -21.5 -9t-8.5 -24q0 -12 8.5 -21t21.5 -9t21 9t8 21q0 33 -29 33z" />
    <glyph glyph-name="plusminus" unicode="&#xb1;" horiz-adv-x="613" 
d="M363 228h-113v186h-186v112h186v187h113v-187h186v-112h-186v-186zM549 152v-112h-485v112h485z" />
    <glyph glyph-name="twosuperior" unicode="&#xb2;" horiz-adv-x="278" 
d="M275 340h-273l111 179q-41 8 -67 39.5t-26 72.5q0 48 34.5 84.5t83.5 36.5q50 0 85 -35.5t35 -85.5q0 -32 -20 -65l-83 -138h120v-88zM107 629q0 -13 9.5 -23t23.5 -10t23.5 10t9.5 23t-9.5 23t-23.5 10t-23.5 -10t-9.5 -23z" />
    <glyph glyph-name="threesuperior" unicode="&#xb3;" horiz-adv-x="291" 
d="M35 745h234l-74 -141q36 -18 56.5 -50.5t20.5 -72.5q0 -63 -41 -104.5t-101 -41.5q-73 0 -122 67l77 55q17 -29 45 -29q18 0 31.5 14t13.5 34q0 21 -13.5 34t-31.5 13h-73l70 136h-92v86z" />
    <glyph glyph-name="acute" unicode="&#xb4;" horiz-adv-x="901" 
d="M464 994l94 -67l-78 -119h-134z" />
    <glyph glyph-name="mu" unicode="&#xb5;" horiz-adv-x="602" 
d="M55 -241v746h130v-269q0 -50 30.5 -83.5t73.5 -33.5q49 0 85.5 35.5t36.5 87.5v263h129v-505h-129v36q-20 -22 -60.5 -34.5t-80.5 -12.5q-45 0 -85 24v-254h-130z" />
    <glyph glyph-name="paragraph" unicode="&#xb6;" horiz-adv-x="681" 
d="M291 745h346v-87h-70v-658h-87v658h-101v-658h-88v219h-12q-104 0 -177 77.5t-73 186.5q0 108 76.5 185t185.5 77z" />
    <glyph glyph-name="periodcentered" unicode="&#xb7;" horiz-adv-x="201" 
d="M100 412q29 0 47 -18.5t18 -46.5q0 -26 -18.5 -44.5t-46.5 -18.5t-46 18.5t-18 44.5q0 28 18 46.5t46 18.5z" />
    <glyph glyph-name="cedilla" unicode="&#xb8;" horiz-adv-x="963" 
d="M338 -9h139l-20 -26h148v-121h-364z" />
    <glyph glyph-name="onesuperior" unicode="&#xb9;" horiz-adv-x="168" 
d="M150 745v-405h-94v319h-48v86h142z" />
    <glyph glyph-name="ordmasculine" unicode="&#xba;" horiz-adv-x="459" 
d="M30 152v107h399v-107h-399zM229 333q-86 0 -147.5 61.5t-61.5 147.5q0 88 61 149t148 61q88 0 149 -61t61 -149q0 -86 -61.5 -147.5t-148.5 -61.5zM231 643q-39 0 -67.5 -30t-28.5 -71q0 -40 28.5 -71t67.5 -31t67.5 31t28.5 71q0 41 -28.5 71t-67.5 30z" />
    <glyph glyph-name="guillemotright" unicode="&#xbb;" horiz-adv-x="719" 
d="M396 638l312 -266l-312 -266l-63 92l210 174l-210 174zM92 638l311 -266l-311 -266l-63 92l210 174l-210 174z" />
    <glyph glyph-name="onequarter" unicode="&#xbc;" horiz-adv-x="857" 
d="M299 0h-125l335 745h119zM232 745v-479h-112v376h-56v103h168zM757 256v-43h61v-103h-61v-110h-108v110h-196l161 370h116l-115 -267h34v43h108z" />
    <glyph glyph-name="onehalf" unicode="&#xbd;" horiz-adv-x="864" 
d="M299 0h-125l335 745h119zM232 745v-479h-112v376h-56v103h168zM818 0h-322l131 212q-47 9 -79 45.5t-32 87.5q0 57 41 100t99 43q60 0 101.5 -41.5t41.5 -101.5q0 -43 -22 -78l-101 -164h142v-103zM622 344q0 -15 11 -26t26 -11t26 11t11 26t-11 26t-26 11t-26 -11
t-11 -26z" />
    <glyph glyph-name="threequarters" unicode="&#xbe;" horiz-adv-x="977" 
d="M379 0h-125l334 745h120zM71 745h278l-88 -167q42 -21 66.5 -60t24.5 -87q0 -74 -49 -124t-121 -50q-83 0 -144 81l92 67q27 -36 52 -36q23 0 38.5 16t15.5 41t-15.5 40.5t-38.5 15.5h-82l84 160h-113v103zM765 -8q-69 0 -118 49t-49 119q0 62 45 115q-20 31 -20 70
q0 60 41.5 101.5t100.5 41.5q60 0 102 -41.5t42 -101.5q0 -39 -20 -70q45 -51 45 -115q0 -70 -49 -119t-120 -49zM765 216q-22 0 -37.5 -16t-15.5 -40q0 -23 15.5 -40t37.5 -17t38 17t16 40q0 24 -15.5 40t-38.5 16zM765 379q-12 0 -22 -10t-10 -24q0 -15 9.5 -24.5
t22.5 -9.5q14 0 23.5 9.5t9.5 24.5q0 14 -9.5 24t-23.5 10z" />
    <glyph glyph-name="questiondown" unicode="&#xbf;" horiz-adv-x="441" 
d="M326 511v-227h-83q-36 0 -59.5 -24.5t-23.5 -59.5q0 -39 23.5 -63.5t59.5 -24.5q46 0 69 41l103 -75q-29 -42 -74.5 -66.5t-97.5 -24.5q-90 0 -152 62.5t-62 151.5q0 74 46.5 131t119.5 73v106h131zM261 605q-34 0 -55.5 22t-21.5 55q0 32 21.5 54t55.5 22q33 0 55 -22.5
t22 -53.5q0 -33 -22 -55t-55 -22z" />
    <glyph glyph-name="Agrave" unicode="&#xc0;" horiz-adv-x="775" 
d="M234 927l93 67l119 -186h-134zM612 0l-49 100h-361l-48 -100h-160l393 758l394 -758h-169zM381 472l-112 -232h226z" />
    <glyph glyph-name="Aacute" unicode="&#xc1;" horiz-adv-x="775" 
d="M466 994l93 -67l-78 -119h-134zM612 0l-49 100h-361l-48 -100h-160l393 758l394 -758h-169zM381 472l-112 -232h226z" />
    <glyph glyph-name="Acircumflex" unicode="&#xc2;" horiz-adv-x="775" 
d="M385 1014l165 -206h-134l-31 43l-32 -43h-133zM612 0l-49 100h-361l-48 -100h-160l393 758l394 -758h-169zM381 472l-112 -232h226z" />
    <glyph glyph-name="Atilde" unicode="&#xc3;" horiz-adv-x="775" 
d="M270 813l-99 74q64 79 159 79q29 0 72.5 -18t64.5 -18q30 0 59 36l100 -72q-65 -86 -143 -86q-29 0 -69 20.5t-63 20.5t-39.5 -7.5t-41.5 -28.5zM612 0l-49 100h-361l-48 -100h-160l393 758l394 -758h-169zM381 472l-112 -232h226z" />
    <glyph glyph-name="Adieresis" unicode="&#xc4;" horiz-adv-x="775" 
d="M315 869q0 -28 -18 -46t-46 -18q-26 0 -44 17.5t-18 46.5q0 27 18 44.5t44 17.5q28 0 46 -17t18 -45zM575 869q0 -28 -18.5 -46t-45.5 -18q-25 0 -43 17.5t-18 46.5q0 27 18 44.5t43 17.5q27 0 45.5 -17.5t18.5 -44.5zM612 0l-49 100h-361l-48 -100h-160l393 758
l394 -758h-169zM381 472l-112 -232h226z" />
    <glyph glyph-name="Aring" unicode="&#xc5;" horiz-adv-x="775" 
d="M382 803q-44 0 -76 32t-32 76q0 48 31.5 80.5t76.5 32.5q48 0 80.5 -32.5t32.5 -80.5q0 -45 -32.5 -76.5t-80.5 -31.5zM382 943q-12 0 -20 -9t-8 -23q0 -11 8.5 -20t19.5 -9q13 0 21 8.5t8 20.5q0 32 -29 32zM612 0l-49 100h-361l-48 -100h-160l393 758l394 -758h-169z
M381 472l-112 -232h226z" />
    <glyph glyph-name="AE" unicode="&#xc6;" horiz-adv-x="1114" 
d="M1074 0h-462l-49 100h-361l-48 -100h-160l393 758l225 -432v419h395v-140h-241v-139h281v-139h-281v-187h308v-140zM381 472l-112 -232h226z" />
    <glyph glyph-name="Ccedilla" unicode="&#xc7;" horiz-adv-x="835" 
d="M650 329h157q-15 -131 -110 -227t-227 -112l-20 -25h148v-121h-364l102 154q-129 29 -212.5 133.5t-83.5 240.5q0 160 111.5 273t270.5 113q103 0 190.5 -49t138.5 -132l-121 -86q-40 59 -94 89t-113 30q-94 0 -159 -69.5t-65 -168.5q0 -98 65 -167t159 -69
q84 0 147.5 54.5t79.5 138.5z" />
    <glyph glyph-name="Egrave" unicode="&#xc8;" horiz-adv-x="573" 
d="M145 927l94 67l118 -186h-134zM533 0h-462v745h396v-140h-241v-139h280v-140h-280v-186h307v-140z" />
    <glyph glyph-name="Eacute" unicode="&#xc9;" horiz-adv-x="573" 
d="M329 994l93 -67l-78 -119h-134zM533 0h-462v745h396v-140h-241v-139h280v-140h-280v-186h307v-140z" />
    <glyph glyph-name="Ecircumflex" unicode="&#xca;" horiz-adv-x="573" 
d="M263 1014l165 -206h-133l-32 43l-31 -43h-134zM533 0h-462v745h396v-140h-241v-139h280v-140h-280v-186h307v-140z" />
    <glyph glyph-name="Edieresis" unicode="&#xcb;" horiz-adv-x="573" 
d="M214 869q0 -28 -18 -46t-45 -18q-26 0 -44 17.5t-18 46.5q0 27 18 44.5t44 17.5q27 0 45 -17.5t18 -44.5zM475 869q0 -28 -18.5 -46t-45.5 -18q-25 0 -43 17.5t-18 46.5q0 27 18 44.5t43 17.5q27 0 45.5 -17.5t18.5 -44.5zM533 0h-462v745h396v-140h-241v-139h280v-140
h-280v-186h307v-140z" />
    <glyph glyph-name="Igrave" unicode="&#xcc;" horiz-adv-x="297" 
d="M-7 927l93 67l119 -186h-134zM226 745v-745h-155v745h155z" />
    <glyph glyph-name="Iacute" unicode="&#xcd;" horiz-adv-x="297" 
d="M210 994l94 -67l-78 -119h-134zM226 745v-745h-155v745h155z" />
    <glyph glyph-name="Icircumflex" unicode="&#xce;" horiz-adv-x="297" 
d="M226 745v-745h-155v745h155zM147 1014l165 -206h-133l-32 43l-31 -43h-134z" />
    <glyph glyph-name="Idieresis" unicode="&#xcf;" horiz-adv-x="297" 
d="M75 869q0 -28 -18 -46t-45 -18q-26 0 -44 17.5t-18 46.5q0 27 18 44.5t44 17.5q27 0 45 -17.5t18 -44.5zM336 869q0 -28 -18.5 -46t-46.5 -18q-25 0 -43 18t-18 46q0 27 18 44.5t43 17.5q28 0 46.5 -17.5t18.5 -44.5zM226 745v-745h-155v745h155z" />
    <glyph glyph-name="Eth" unicode="&#xd0;" horiz-adv-x="803" 
d="M36 292v141h35v312h302q163 0 276.5 -107t113.5 -265q0 -159 -113.5 -266t-275.5 -107h-303v292h-35zM226 140h148q97 0 163.5 66.5t66.5 166.5t-66.5 166t-164.5 66h-147v-172h155v-141h-155v-152z" />
    <glyph glyph-name="Ntilde" unicode="&#xd1;" horiz-adv-x="827" 
d="M282 813l-100 74q65 79 159 79q29 0 72.5 -18t64.5 -18q29 0 60 36l99 -72q-63 -86 -142 -86q-29 0 -69.5 20.5t-62.5 20.5q-38 0 -81 -36zM601 314v431h155v-758l-530 441v-428h-155v759z" />
    <glyph glyph-name="Ograve" unicode="&#xd2;" 
d="M426 -13q-160 0 -273 113t-113 273t112.5 272.5t272.5 112.5t273 -112.5t113 -272.5t-112.5 -273t-272.5 -113zM425 610q-95 0 -160.5 -69t-65.5 -168q0 -100 65.5 -168.5t161.5 -68.5q95 0 160.5 68.5t65.5 168.5q0 98 -66.5 167.5t-160.5 69.5zM257 927l94 67l118 -186
h-133z" />
    <glyph glyph-name="Oacute" unicode="&#xd3;" 
d="M426 -13q-160 0 -273 113t-113 273t112.5 272.5t272.5 112.5t273 -112.5t113 -272.5t-112.5 -273t-272.5 -113zM425 610q-95 0 -160.5 -69t-65.5 -168q0 -100 65.5 -168.5t161.5 -68.5q95 0 160.5 68.5t65.5 168.5q0 98 -66.5 167.5t-160.5 69.5zM446 994l93 -67
l-78 -119h-134z" />
    <glyph glyph-name="Ocircumflex" unicode="&#xd4;" 
d="M426 -13q-160 0 -273 113t-113 273t112.5 272.5t272.5 112.5t273 -112.5t113 -272.5t-112.5 -273t-272.5 -113zM425 610q-95 0 -160.5 -69t-65.5 -168q0 -100 65.5 -168.5t161.5 -68.5q95 0 160.5 68.5t65.5 168.5q0 98 -66.5 167.5t-160.5 69.5zM425 1014l165 -206h-134
l-31 43l-32 -43h-133z" />
    <glyph glyph-name="Otilde" unicode="&#xd5;" 
d="M426 -13q-160 0 -273 113t-113 273t112.5 272.5t272.5 112.5t273 -112.5t113 -272.5t-112.5 -273t-272.5 -113zM425 610q-95 0 -160.5 -69t-65.5 -168q0 -100 65.5 -168.5t161.5 -68.5q95 0 160.5 68.5t65.5 168.5q0 98 -66.5 167.5t-160.5 69.5zM324 813l-100 74
q65 79 159 79q29 0 72.5 -18t64.5 -18q29 0 60 36l100 -72q-65 -86 -143 -86q-29 0 -69.5 20.5t-62.5 20.5q-38 0 -81 -36z" />
    <glyph glyph-name="Odieresis" unicode="&#xd6;" 
d="M426 -13q-160 0 -273 113t-113 273t112.5 272.5t272.5 112.5t273 -112.5t113 -272.5t-112.5 -273t-272.5 -113zM425 610q-95 0 -160.5 -69t-65.5 -168q0 -100 65.5 -168.5t161.5 -68.5q95 0 160.5 68.5t65.5 168.5q0 98 -66.5 167.5t-160.5 69.5zM359 869q0 -28 -18 -46
t-45 -18q-26 0 -44 17.5t-18 46.5q0 27 18 44.5t44 17.5q27 0 45 -17.5t18 -44.5zM620 869q0 -28 -18.5 -46t-45.5 -18q-26 0 -43.5 17.5t-17.5 46.5q0 27 18 44.5t43 17.5q27 0 45.5 -17.5t18.5 -44.5z" />
    <glyph glyph-name="multiply" unicode="&#xd7;" horiz-adv-x="507" 
d="M123 143l-80 79l131 131l-131 131l80 80l131 -131l131 131l79 -80l-131 -131l131 -131l-79 -79l-131 131z" />
    <glyph glyph-name="Oslash" unicode="&#xd8;" 
d="M240 -13h-173l83 116q-110 112 -110 270q0 160 112.5 272.5t272.5 112.5q89 0 168 -38l19 25h171l-78 -107q106 -111 106 -265q0 -160 -112.5 -273t-272.5 -113q-84 0 -162 35zM425 610q-95 0 -160.5 -69t-65.5 -168q0 -79 43 -143l261 364q-40 16 -78 16zM652 373
q0 71 -40 134l-258 -360q32 -11 72 -11q95 0 160.5 68.5t65.5 168.5z" />
    <glyph glyph-name="Ugrave" unicode="&#xd9;" horiz-adv-x="770" 
d="M250 927l94 67l118 -186h-133zM386 -13q-158 0 -240 98t-82 260v400h155v-426q0 -88 42.5 -135.5t124.5 -47.5q84 0 124.5 48t40.5 135v426h155v-413q0 -162 -85 -253.5t-235 -91.5z" />
    <glyph glyph-name="Uacute" unicode="&#xda;" horiz-adv-x="770" 
d="M429 994l94 -67l-79 -119h-133zM386 -13q-158 0 -240 98t-82 260v400h155v-426q0 -88 42.5 -135.5t124.5 -47.5q84 0 124.5 48t40.5 135v426h155v-413q0 -162 -85 -253.5t-235 -91.5z" />
    <glyph glyph-name="Ucircumflex" unicode="&#xdb;" horiz-adv-x="770" 
d="M388 1014l165 -206h-133l-32 43l-31 -43h-134zM386 -13q-158 0 -240 98t-82 260v400h155v-426q0 -88 42.5 -135.5t124.5 -47.5q84 0 124.5 48t40.5 135v426h155v-413q0 -162 -85 -253.5t-235 -91.5z" />
    <glyph glyph-name="Udieresis" unicode="&#xdc;" horiz-adv-x="769" 
d="M386 -13q-158 0 -240 98t-82 260v400h155v-426q0 -88 42.5 -135.5t124.5 -47.5q84 0 125 48t41 135v426h153v-413q0 -162 -85 -253.5t-234 -91.5zM323 869q0 -28 -18 -46t-45 -18q-26 0 -44 17.5t-18 46.5q0 27 18 44.5t44 17.5q27 0 45 -17.5t18 -44.5zM584 869
q0 -28 -18.5 -46t-46.5 -18q-25 0 -43 18t-18 46q0 27 18 44.5t43 17.5q28 0 46.5 -17.5t18.5 -44.5z" />
    <glyph glyph-name="Yacute" unicode="&#xdd;" horiz-adv-x="764" 
d="M468 994l93 -67l-78 -119h-133zM389 379l218 366h163l-306 -505v-240h-154v226l-316 519h178z" />
    <glyph glyph-name="Thorn" unicode="&#xde;" horiz-adv-x="671" 
d="M230 0h-159v745h159v-71h100q132 0 222 -88t90 -201q0 -138 -91.5 -228.5t-231.5 -90.5h-89v-66zM230 206h86q78 0 122.5 47t44.5 117q0 65 -43 114.5t-115 49.5h-95v-328z" />
    <glyph glyph-name="germandbls" unicode="&#xdf;" horiz-adv-x="985" 
d="M47 292v141h58v86q0 102 75.5 170t176.5 68q113 0 189 -74q65 49 137 49q112 0 186 -84l-119 -86q-32 27 -67 27q-29 0 -47 -16t-18 -49q0 -60 100 -67q95 -6 159.5 -67.5t64.5 -161.5q0 -103 -73 -172t-172 -69q-138 0 -231 105l121 91q44 -53 110 -53q39 0 65 25.5
t26 60.5q0 90 -111 102q-97 11 -155.5 66.5t-58.5 140.5q0 35 -30 59t-68 24q-40 0 -72.5 -24t-32.5 -65v-519h-155v292h-58z" />
    <glyph glyph-name="agrave" unicode="&#xe0;" horiz-adv-x="592" 
d="M182 693l94 67l118 -186h-133zM400 505h142v-505h-142v36q-16 -21 -51.5 -34t-71.5 -13q-103 0 -175.5 77.5t-72.5 185.5q0 109 73 186.5t175 77.5q33 0 69.5 -14t53.5 -32v35zM291 130q50 0 82.5 34t32.5 88q0 53 -32.5 87.5t-82.5 34.5q-49 0 -83.5 -34.5t-34.5 -87.5
t34 -87.5t84 -34.5z" />
    <glyph glyph-name="aacute" unicode="&#xe1;" horiz-adv-x="592" 
d="M356 760l93 -67l-78 -119h-134zM400 505h142v-505h-142v36q-16 -21 -51.5 -34t-71.5 -13q-103 0 -175.5 77.5t-72.5 185.5q0 109 73 186.5t175 77.5q33 0 69.5 -14t53.5 -32v35zM291 130q50 0 82.5 34t32.5 88q0 53 -32.5 87.5t-82.5 34.5q-49 0 -83.5 -34.5t-34.5 -87.5
t34 -87.5t84 -34.5z" />
    <glyph glyph-name="acircumflex" unicode="&#xe2;" horiz-adv-x="592" 
d="M299 780l165 -206h-133l-32 43l-31 -43h-134zM400 505h142v-505h-142v36q-16 -21 -51.5 -34t-71.5 -13q-103 0 -175.5 77.5t-72.5 185.5q0 109 73 186.5t175 77.5q33 0 69.5 -14t53.5 -32v35zM291 130q50 0 82.5 34t32.5 88q0 53 -32.5 87.5t-82.5 34.5
q-49 0 -83.5 -34.5t-34.5 -87.5t34 -87.5t84 -34.5z" />
    <glyph glyph-name="atilde" unicode="&#xe3;" horiz-adv-x="592" 
d="M184 579l-100 74q65 79 159 79q29 0 72.5 -18t64.5 -18q29 0 60 36l99 -72q-65 -86 -143 -86q-28 0 -69 20.5t-63 20.5q-37 0 -80 -36zM400 505h142v-505h-142v36q-16 -21 -51.5 -34t-71.5 -13q-103 0 -175.5 77.5t-72.5 185.5q0 109 73 186.5t175 77.5q33 0 69.5 -14
t53.5 -32v35zM291 130q50 0 82.5 34t32.5 88q0 53 -32.5 87.5t-82.5 34.5q-49 0 -83.5 -34.5t-34.5 -87.5t34 -87.5t84 -34.5z" />
    <glyph glyph-name="adieresis" unicode="&#xe4;" horiz-adv-x="592" 
d="M236 635q0 -28 -18 -46t-45 -18q-26 0 -44 17.5t-18 46.5q0 27 18 44.5t44 17.5q27 0 45 -17.5t18 -44.5zM497 635q0 -28 -18.5 -46t-45.5 -18q-25 0 -43 17.5t-18 46.5q0 27 18 44.5t43 17.5q27 0 45.5 -17.5t18.5 -44.5zM400 505h142v-505h-142v36q-16 -21 -51.5 -34
t-71.5 -13q-103 0 -175.5 77.5t-72.5 185.5q0 109 73 186.5t175 77.5q33 0 69.5 -14t53.5 -32v35zM291 130q50 0 82.5 34t32.5 88q0 53 -32.5 87.5t-82.5 34.5q-49 0 -83.5 -34.5t-34.5 -87.5t34 -87.5t84 -34.5z" />
    <glyph glyph-name="aring" unicode="&#xe5;" horiz-adv-x="592" 
d="M296 569q-45 0 -77 32t-32 76q0 48 32 80.5t77 32.5q47 0 79.5 -32.5t32.5 -80.5q0 -45 -32.5 -76.5t-79.5 -31.5zM296 709q-12 0 -20 -9t-8 -23q0 -11 8.5 -20t19.5 -9q12 0 20 8.5t8 20.5q0 14 -7.5 23t-20.5 9zM400 505h142v-505h-142v36q-16 -21 -51.5 -34t-71.5 -13
q-103 0 -175.5 77.5t-72.5 185.5q0 109 73 186.5t175 77.5q33 0 69.5 -14t53.5 -32v35zM291 130q50 0 82.5 34t32.5 88q0 53 -32.5 87.5t-82.5 34.5q-49 0 -83.5 -34.5t-34.5 -87.5t34 -87.5t84 -34.5z" />
    <glyph glyph-name="ae" unicode="&#xe6;" horiz-adv-x="954" 
d="M400 505h142v-32q19 20 56.5 31.5t75.5 11.5q90 0 158.5 -52t92.5 -126l-282 -202q16 -6 42 -6q78 0 109 51l114 -87q-33 -48 -94 -76.5t-129 -28.5q-41 0 -81.5 12.5t-61.5 33.5v-35h-142v36q-19 -21 -55.5 -34t-68.5 -13q-102 0 -174.5 77.5t-72.5 185.5
q0 110 76.5 187t185.5 77q29 0 60 -11t49 -32v32zM291 130q50 0 84.5 32.5t36.5 83.5v6q0 53 -34.5 87.5t-86.5 34.5q-49 0 -83.5 -34.5t-34.5 -87.5t34 -87.5t84 -34.5zM556 252q0 -9 2 -23l178 127q-29 18 -62 18q-50 0 -84 -34.5t-34 -87.5z" />
    <glyph glyph-name="ccedilla" unicode="&#xe7;" horiz-adv-x="578" 
d="M411 232h146q-7 -89 -69 -156t-150 -82l-21 -29h147v-121h-364l106 160q-78 27 -127.5 95t-49.5 153q0 110 76.5 187t185.5 77q61 0 115 -26.5t92 -72.5l-114 -89q-31 46 -93 46q-49 0 -83.5 -34.5t-34.5 -87.5t34 -87.5t84 -34.5q47 0 80 28t40 74z" />
    <glyph glyph-name="egrave" unicode="&#xe8;" horiz-adv-x="572" 
d="M412 181l113 -87q-32 -48 -93 -76.5t-129 -28.5q-114 0 -194 77.5t-80 185.5q0 110 76.5 187t185.5 77q90 0 158.5 -52t93.5 -126l-282 -202q16 -6 42 -6q76 0 109 51zM147 693l94 67l118 -186h-133zM173 252q0 -9 2 -23l178 127q-28 18 -62 18q-49 0 -83.5 -34.5
t-34.5 -87.5z" />
    <glyph glyph-name="eacute" unicode="&#xe9;" horiz-adv-x="572" 
d="M412 181l113 -87q-32 -48 -93 -76.5t-129 -28.5q-114 0 -194 77.5t-80 185.5q0 110 76.5 187t185.5 77q90 0 158.5 -52t93.5 -126l-282 -202q16 -6 42 -6q76 0 109 51zM301 760l93 -67l-78 -119h-134zM173 252q0 -9 2 -23l178 127q-28 18 -62 18q-49 0 -83.5 -34.5
t-34.5 -87.5z" />
    <glyph glyph-name="ecircumflex" unicode="&#xea;" horiz-adv-x="572" 
d="M412 181l113 -87q-32 -48 -93 -76.5t-129 -28.5q-114 0 -194 77.5t-80 185.5q0 110 76.5 187t185.5 77q90 0 158.5 -52t93.5 -126l-282 -202q16 -6 42 -6q76 0 109 51zM276 780l165 -206h-133l-32 43l-32 -43h-133zM173 252q0 -9 2 -23l178 127q-28 18 -62 18
q-49 0 -83.5 -34.5t-34.5 -87.5z" />
    <glyph glyph-name="edieresis" unicode="&#xeb;" horiz-adv-x="572" 
d="M412 181l113 -87q-32 -48 -93 -76.5t-129 -28.5q-114 0 -194 77.5t-80 185.5q0 110 76.5 187t185.5 77q90 0 158.5 -52t93.5 -126l-282 -202q16 -6 42 -6q76 0 109 51zM210 635q0 -28 -17.5 -46t-45.5 -18q-26 0 -44 17.5t-18 46.5q0 27 18 44.5t44 17.5q28 0 45.5 -17
t17.5 -45zM471 635q0 -28 -18.5 -46t-45.5 -18q-25 0 -43 17.5t-18 46.5q0 27 18 44.5t43 17.5q27 0 45.5 -17.5t18.5 -44.5zM173 252q0 -9 2 -23l178 127q-28 18 -62 18q-49 0 -83.5 -34.5t-34.5 -87.5z" />
    <glyph glyph-name="igrave" unicode="&#xec;" horiz-adv-x="242" 
d="M192 505v-505h-142v505h142zM-20 693l94 67l118 -186h-133z" />
    <glyph glyph-name="iacute" unicode="&#xed;" horiz-adv-x="242" 
d="M168 760l94 -67l-78 -119h-134zM192 505v-505h-142v505h142z" />
    <glyph glyph-name="icircumflex" unicode="&#xee;" horiz-adv-x="242" 
d="M192 505v-505h-142v505h142zM123 780l165 -206h-134l-31 43l-32 -43h-133z" />
    <glyph glyph-name="idieresis" unicode="&#xef;" horiz-adv-x="242" 
d="M192 505v-505h-142v505h142zM54 635q0 -28 -18 -46t-45 -18q-26 0 -44 17.5t-18 46.5q0 27 18 44.5t44 17.5q27 0 45 -17.5t18 -44.5zM315 635q0 -28 -18.5 -46t-46.5 -18q-25 0 -42.5 18t-17.5 46q0 27 17.5 44.5t42.5 17.5q28 0 46.5 -17.5t18.5 -44.5z" />
    <glyph glyph-name="eth" unicode="&#xf0;" horiz-adv-x="603" 
d="M374 541l-83 21l13 46q-20 3 -40 3v117q30 0 70 -7l16 55l83 -23l-18 -63q60 -33 95 -91q47 -80 47 -257v-90q0 -108 -78.5 -185.5t-187.5 -77.5q-108 0 -185 77.5t-77 185.5q0 110 76.5 187t185.5 77q82 0 155 -50v4q0 69 -61 109zM291 130q52 0 86.5 34t34.5 88
q0 53 -34.5 87.5t-86.5 34.5q-49 0 -83.5 -34.5t-34.5 -87.5t34 -87.5t84 -34.5z" />
    <glyph glyph-name="ntilde" unicode="&#xf1;" horiz-adv-x="602" 
d="M160 579l-99 74q64 79 159 79q29 0 72.5 -18t64.5 -18q30 0 59 36l100 -72q-65 -86 -143 -86q-29 0 -69 20.5t-63 20.5t-39.5 -7.5t-41.5 -28.5zM559 252v-252h-141v252q0 58 -29.5 90t-75.5 32q-50 0 -85.5 -32t-35.5 -90v-252h-142v505h142v-35q20 22 57.5 34t75.5 12
q102 0 168 -76.5t66 -187.5z" />
    <glyph glyph-name="ograve" unicode="&#xf2;" horiz-adv-x="586" 
d="M291 516q109 0 187.5 -77.5t78.5 -186.5q0 -108 -78.5 -185.5t-187.5 -77.5q-108 0 -185 77.5t-77 185.5q0 110 76.5 187t185.5 77zM291 130q52 0 86.5 34t34.5 88q0 53 -34.5 87.5t-86.5 34.5q-49 0 -83.5 -34.5t-34.5 -87.5t34 -87.5t84 -34.5zM136 693l93 67l118 -186
h-133z" />
    <glyph glyph-name="oacute" unicode="&#xf3;" horiz-adv-x="586" 
d="M291 516q109 0 187.5 -77.5t78.5 -186.5q0 -108 -78.5 -185.5t-187.5 -77.5q-108 0 -185 77.5t-77 185.5q0 110 76.5 187t185.5 77zM291 130q52 0 86.5 34t34.5 88q0 53 -34.5 87.5t-86.5 34.5q-49 0 -83.5 -34.5t-34.5 -87.5t34 -87.5t84 -34.5zM344 760l93 -67
l-78 -119h-133z" />
    <glyph glyph-name="ocircumflex" unicode="&#xf4;" horiz-adv-x="586" 
d="M291 516q109 0 187.5 -77.5t78.5 -186.5q0 -108 -78.5 -185.5t-187.5 -77.5q-108 0 -185 77.5t-77 185.5q0 110 76.5 187t185.5 77zM291 130q52 0 86.5 34t34.5 88q0 53 -34.5 87.5t-86.5 34.5q-49 0 -83.5 -34.5t-34.5 -87.5t34 -87.5t84 -34.5zM288 780l165 -206h-134
l-31 43l-32 -43h-133z" />
    <glyph glyph-name="otilde" unicode="&#xf5;" horiz-adv-x="586" 
d="M291 516q109 0 187.5 -77.5t78.5 -186.5q0 -108 -78.5 -185.5t-187.5 -77.5q-108 0 -185 77.5t-77 185.5q0 110 76.5 187t185.5 77zM291 130q52 0 86.5 34t34.5 88q0 53 -34.5 87.5t-86.5 34.5q-49 0 -83.5 -34.5t-34.5 -87.5t34 -87.5t84 -34.5zM172 579l-100 74
q65 79 160 79q28 0 71.5 -18t64.5 -18q29 0 60 36l100 -72q-65 -86 -143 -86q-29 0 -69.5 20.5t-62.5 20.5q-38 0 -81 -36z" />
    <glyph glyph-name="odieresis" unicode="&#xf6;" horiz-adv-x="586" 
d="M291 516q109 0 187.5 -77.5t78.5 -186.5q0 -108 -78.5 -185.5t-187.5 -77.5q-108 0 -185 77.5t-77 185.5q0 110 76.5 187t185.5 77zM291 130q52 0 86.5 34t34.5 88q0 53 -34.5 87.5t-86.5 34.5q-49 0 -83.5 -34.5t-34.5 -87.5t34 -87.5t84 -34.5zM222 635q0 -28 -18 -46
t-45 -18q-26 0 -44 17.5t-18 46.5q0 27 18 44.5t44 17.5q27 0 45 -17.5t18 -44.5zM483 635q0 -28 -18.5 -46t-45.5 -18q-25 0 -43 17.5t-18 46.5q0 27 18 44.5t43 17.5q27 0 45.5 -17.5t18.5 -44.5z" />
    <glyph glyph-name="divide" unicode="&#xf7;" horiz-adv-x="578" 
d="M531 409v-112h-484v112h484zM296 239q34 0 55 -21.5t21 -53.5q0 -31 -21 -52t-55 -21q-31 0 -52 21.5t-21 51.5q0 32 21 53.5t52 21.5zM296 615q34 0 55 -21.5t21 -54.5q0 -30 -21 -50.5t-55 -20.5q-31 0 -52 21t-21 50q0 33 20.5 54.5t52.5 21.5z" />
    <glyph glyph-name="oslash" unicode="&#xf8;" horiz-adv-x="586" 
d="M291 516q39 0 81 -13l8 13h126l-38 -68q89 -81 89 -196q0 -108 -78.5 -185.5t-187.5 -77.5q-37 0 -78 12l-6 -12h-132l40 68q-86 78 -86 195q0 110 76.5 187t185.5 77zM291 130q52 0 86.5 34t34.5 88q0 38 -19 66l-107 -188h5zM173 252q0 -36 16 -65l109 187h-7
q-49 0 -83.5 -34.5t-34.5 -87.5z" />
    <glyph glyph-name="ugrave" unicode="&#xf9;" horiz-adv-x="602" 
d="M159 693l94 67l118 -186h-134zM43 242v263h142v-251q0 -54 30.5 -89t73.5 -35q53 0 87.5 29.5t34.5 94.5v251h141v-505h-141v36q-20 -22 -60.5 -34.5t-80.5 -12.5q-98 0 -162.5 73.5t-64.5 179.5z" />
    <glyph glyph-name="uacute" unicode="&#xfa;" horiz-adv-x="602" 
d="M347 760l94 -67l-78 -119h-134zM43 242v263h142v-251q0 -54 30.5 -89t73.5 -35q53 0 87.5 29.5t34.5 94.5v251h141v-505h-141v36q-20 -22 -60.5 -34.5t-80.5 -12.5q-98 0 -162.5 73.5t-64.5 179.5z" />
    <glyph glyph-name="ucircumflex" unicode="&#xfb;" horiz-adv-x="602" 
d="M299 780l165 -206h-133l-32 43l-31 -43h-134zM43 242v263h142v-251q0 -54 30.5 -89t73.5 -35q53 0 87.5 29.5t34.5 94.5v251h141v-505h-141v36q-20 -22 -60.5 -34.5t-80.5 -12.5q-98 0 -162.5 73.5t-64.5 179.5z" />
    <glyph glyph-name="udieresis" unicode="&#xfc;" horiz-adv-x="602" 
d="M229 635q0 -28 -18 -46t-45 -18q-26 0 -44 17.5t-18 46.5q0 27 18 44.5t44 17.5q27 0 45 -17.5t18 -44.5zM490 635q0 -28 -18.5 -46t-45.5 -18q-26 0 -43.5 17.5t-17.5 46.5q0 27 18 44.5t43 17.5q27 0 45.5 -17.5t18.5 -44.5zM43 242v263h142v-251q0 -54 30.5 -89
t73.5 -35q53 0 87.5 29.5t34.5 94.5v251h141v-505h-141v36q-20 -22 -60.5 -34.5t-80.5 -12.5q-98 0 -162.5 73.5t-64.5 179.5z" />
    <glyph glyph-name="yacute" unicode="&#xfd;" horiz-adv-x="574" 
d="M336 760l93 -67l-78 -119h-134zM221 48l-227 457h156l146 -313l143 313h141l-347 -746h-147z" />
    <glyph glyph-name="thorn" unicode="&#xfe;" horiz-adv-x="592" 
d="M192 -241h-142v986h142v-275q20 20 55 33t68 13q107 0 177.5 -76t70.5 -186t-72.5 -187.5t-175.5 -77.5q-33 0 -68 12t-55 35v-277zM301 374q-50 0 -82.5 -34t-32.5 -87q0 -54 32.5 -88.5t82.5 -34.5q49 0 83.5 35t34.5 88t-34.5 87t-83.5 34z" />
    <glyph glyph-name="ydieresis" unicode="&#xff;" horiz-adv-x="574" 
d="M224 635q0 -28 -17.5 -46t-45.5 -18q-26 0 -44 17.5t-18 46.5q0 27 18 44.5t44 17.5q28 0 45.5 -17t17.5 -45zM485 635q0 -28 -18.5 -46t-45.5 -18q-25 0 -43 17.5t-18 46.5q0 27 18 44.5t43 17.5q27 0 45.5 -17.5t18.5 -44.5zM221 48l-227 457h156l146 -313l143 313h141
l-347 -746h-147z" />
    <glyph glyph-name="Amacron" unicode="&#x100;" horiz-adv-x="775" 
d="M178 820v134h413v-134h-413zM612 0l-49 100h-361l-48 -100h-160l393 758l394 -758h-169zM381 472l-112 -232h226z" />
    <glyph glyph-name="amacron" unicode="&#x101;" horiz-adv-x="592" 
d="M93 574v134h413v-134h-413zM400 505h142v-505h-142v36q-16 -21 -51.5 -34t-71.5 -13q-103 0 -175.5 77.5t-72.5 185.5q0 109 73 186.5t175 77.5q33 0 69.5 -14t53.5 -32v35zM291 130q50 0 82.5 34t32.5 88q0 53 -32.5 87.5t-82.5 34.5q-49 0 -83.5 -34.5t-34.5 -87.5
t34 -87.5t84 -34.5z" />
    <glyph glyph-name="Abreve" unicode="&#x102;" horiz-adv-x="775" 
d="M457 977h102q0 -73 -51.5 -124.5t-126.5 -51.5q-72 0 -123.5 52t-51.5 124h103q0 -31 22.5 -54.5t52.5 -23.5t51.5 23.5t21.5 54.5zM612 0l-49 100h-361l-48 -100h-160l393 758l394 -758h-169zM381 472l-112 -232h226z" />
    <glyph glyph-name="abreve" unicode="&#x103;" horiz-adv-x="592" 
d="M387 743h102q0 -73 -51.5 -124.5t-126.5 -51.5q-72 0 -123.5 52t-51.5 124h103q0 -31 22 -54.5t52 -23.5t52 23.5t22 54.5zM400 505h142v-505h-142v36q-16 -21 -51.5 -34t-71.5 -13q-103 0 -175.5 77.5t-72.5 185.5q0 109 73 186.5t175 77.5q33 0 69.5 -14t53.5 -32v35z
M291 130q50 0 82.5 34t32.5 88q0 53 -32.5 87.5t-82.5 34.5q-49 0 -83.5 -34.5t-34.5 -87.5t34 -87.5t84 -34.5z" />
    <glyph glyph-name="Aogonek" unicode="&#x104;" horiz-adv-x="773" 
d="M612 0l-49 100h-361l-48 -100h-160l393 758l394 -758h-64q0 -32 19 -52.5t49 -20.5q35 0 55 33l83 -59q-53 -74 -138 -74q-73 0 -123 50t-50 123zM381 472l-112 -232h226z" />
    <glyph glyph-name="aogonek" unicode="&#x105;" horiz-adv-x="592" 
d="M400 0v36q-16 -21 -51.5 -34t-71.5 -13q-102 0 -175 77.5t-73 185.5q0 109 73.5 186.5t175.5 77.5q33 0 69 -14t53 -32v35h142v-505h-37q0 -32 19 -52.5t49 -20.5q35 0 55 33l83 -59q-51 -74 -138 -74q-73 0 -123 50t-50 123zM291 130q50 0 82.5 34t32.5 88
q0 53 -32.5 87.5t-82.5 34.5q-49 0 -83.5 -34.5t-34.5 -87.5t34 -87.5t84 -34.5z" />
    <glyph glyph-name="Cacute" unicode="&#x106;" horiz-adv-x="835" 
d="M481 994l93 -67l-78 -119h-133zM650 329h157q-17 -144 -126.5 -243t-257.5 -99q-160 0 -271.5 112.5t-111.5 272.5t111.5 273t270.5 113q103 0 190.5 -49t138.5 -132l-121 -86q-40 59 -94 89t-113 30q-94 0 -159 -69.5t-65 -168.5q0 -98 65 -167t159 -69q84 0 147.5 54.5
t79.5 138.5z" />
    <glyph glyph-name="cacute" unicode="&#x107;" horiz-adv-x="577" 
d="M324 760l94 -67l-79 -119h-133zM409 222h147q-11 -98 -87.5 -165.5t-177.5 -67.5q-108 0 -185 77.5t-77 185.5q0 110 76.5 187t185.5 77q61 0 115 -26.5t92 -72.5l-113 -88q-35 45 -94 45q-49 0 -83.5 -34.5t-34.5 -87.5t34 -87.5t84 -34.5q44 0 76 25t42 67z" />
    <glyph glyph-name="Cdotaccent" unicode="&#x10a;" horiz-adv-x="835" 
d="M419 983q36 0 62 -26t26 -64q0 -37 -26 -63.5t-62 -26.5t-62.5 26.5t-26.5 63.5q0 38 26.5 64t62.5 26zM650 329h157q-17 -144 -126.5 -243t-257.5 -99q-160 0 -271.5 112.5t-111.5 272.5t111.5 273t270.5 113q103 0 190.5 -49t138.5 -132l-121 -86q-40 59 -94 89
t-113 30q-94 0 -159 -69.5t-65 -168.5q0 -98 65 -167t159 -69q84 0 147.5 54.5t79.5 138.5z" />
    <glyph glyph-name="cdotaccent" unicode="&#x10b;" horiz-adv-x="577" 
d="M290 749q36 0 62 -26t26 -64q0 -37 -26 -63.5t-62 -26.5t-62.5 26.5t-26.5 63.5q0 38 26.5 64t62.5 26zM409 222h147q-11 -98 -87.5 -165.5t-177.5 -67.5q-108 0 -185 77.5t-77 185.5q0 110 76.5 187t185.5 77q61 0 115 -26.5t92 -72.5l-113 -88q-35 45 -94 45
q-49 0 -83.5 -34.5t-34.5 -87.5t34 -87.5t84 -34.5q44 0 76 25t42 67z" />
    <glyph glyph-name="Ccaron" unicode="&#x10c;" horiz-adv-x="835" 
d="M586 991l-165 -206l-165 206h133l32 -43l32 43h133zM650 329h157q-17 -144 -126.5 -243t-257.5 -99q-160 0 -271.5 112.5t-111.5 272.5t111.5 273t270.5 113q103 0 190.5 -49t138.5 -132l-121 -86q-40 59 -94 89t-113 30q-94 0 -159 -69.5t-65 -168.5q0 -98 65 -167
t159 -69q84 0 147.5 54.5t79.5 138.5z" />
    <glyph glyph-name="ccaron" unicode="&#x10d;" horiz-adv-x="577" 
d="M453 757l-165 -206l-165 206h133l32 -43l31 43h134zM409 222h147q-11 -98 -87.5 -165.5t-177.5 -67.5q-108 0 -185 77.5t-77 185.5q0 110 76.5 187t185.5 77q61 0 115 -26.5t92 -72.5l-113 -88q-35 45 -94 45q-49 0 -83.5 -34.5t-34.5 -87.5t34 -87.5t84 -34.5
q44 0 76 25t42 67z" />
    <glyph glyph-name="Dcaron" unicode="&#x10e;" horiz-adv-x="803" 
d="M71 745h302q163 0 276.5 -107t113.5 -265q0 -159 -113.5 -266t-275.5 -107h-303v745zM226 140h148q97 0 163.5 66.5t66.5 166.5t-66.5 166t-164.5 66h-147v-465zM499 991l-165 -206l-165 206h134l31 -43l32 43h133z" />
    <glyph glyph-name="dcaron" unicode="&#x10f;" horiz-adv-x="592" 
d="M382 757l-165 -206l-165 206h134l31 -43l32 43h133zM400 745h142v-745h-142v36q-16 -21 -51.5 -34t-71.5 -13q-103 0 -175.5 77.5t-72.5 185.5q0 109 73 186.5t175 77.5q33 0 69.5 -14t53.5 -32v275zM291 130q50 0 82.5 34t32.5 88q0 53 -32.5 87.5t-82.5 34.5
q-49 0 -83.5 -34.5t-34.5 -87.5t34 -87.5t84 -34.5z" />
    <glyph glyph-name="Dcroat" unicode="&#x110;" horiz-adv-x="803" 
d="M36 292v141h35v312h302q163 0 276.5 -107t113.5 -265q0 -159 -113.5 -266t-275.5 -107h-303v292h-35zM226 140h148q97 0 163.5 66.5t66.5 166.5t-66.5 166t-164.5 66h-147v-172h155v-141h-155v-152z" />
    <glyph glyph-name="dcroat" unicode="&#x111;" horiz-adv-x="592" 
d="M400 745h142v-61h56v-132h-56v-552h-142v36q-16 -21 -51.5 -34t-71.5 -13q-103 0 -175.5 77.5t-72.5 185.5q0 109 73 186.5t175 77.5q33 0 69.5 -14t53.5 -32v82h-114v132h114v61zM291 130q50 0 82.5 34t32.5 88q0 53 -32.5 87.5t-82.5 34.5q-49 0 -83.5 -34.5
t-34.5 -87.5t34 -87.5t84 -34.5z" />
    <glyph glyph-name="Emacron" unicode="&#x112;" horiz-adv-x="573" 
d="M60 820v134h413v-134h-413zM533 0h-462v745h396v-140h-241v-139h280v-140h-280v-186h307v-140z" />
    <glyph glyph-name="emacron" unicode="&#x113;" horiz-adv-x="572" 
d="M412 181l113 -87q-32 -48 -93 -76.5t-129 -28.5q-114 0 -194 77.5t-80 185.5q0 110 76.5 187t185.5 77q90 0 158.5 -52t93.5 -126l-282 -202q16 -6 42 -6q76 0 109 51zM58 574v134h413v-134h-413zM173 252q0 -20 4 -33l184 131q-32 24 -70 24q-49 0 -83.5 -34.5
t-34.5 -87.5z" />
    <glyph glyph-name="Edotaccent" unicode="&#x116;" horiz-adv-x="573" 
d="M269 983q36 0 62 -26t26 -64q0 -37 -26 -63.5t-62 -26.5t-62.5 26.5t-26.5 63.5q0 38 26.5 64t62.5 26zM533 0h-462v745h396v-140h-241v-139h280v-140h-280v-186h307v-140z" />
    <glyph glyph-name="edotaccent" unicode="&#x117;" horiz-adv-x="572" 
d="M412 181l113 -87q-32 -48 -93 -76.5t-129 -28.5q-114 0 -194 77.5t-80 185.5q0 110 76.5 187t185.5 77q90 0 158.5 -52t93.5 -126l-282 -202q16 -6 42 -6q76 0 109 51zM270 749q36 0 62 -26t26 -64q0 -37 -26 -63.5t-62 -26.5t-62.5 26.5t-26.5 63.5q0 38 26.5 64
t62.5 26zM173 252q0 -20 4 -33l184 131q-32 24 -70 24q-49 0 -83.5 -34.5t-34.5 -87.5z" />
    <glyph glyph-name="Eogonek" unicode="&#x118;" horiz-adv-x="573" 
d="M533 0h-462v745h396v-140h-241v-139h280v-140h-280v-186h307v-140zM177 0h105q0 -32 19 -52.5t49 -20.5q35 0 55 33l83 -59q-53 -74 -138 -74q-74 0 -123.5 50t-49.5 123z" />
    <glyph glyph-name="eogonek" unicode="&#x119;" horiz-adv-x="572" 
d="M412 181l113 -87q-28 -42 -80 -69t-112 -33q3 -29 21.5 -47t46.5 -18q35 0 55 33l83 -59q-51 -74 -138 -74q-73 0 -123 50t-50 123q-88 23 -143.5 93t-55.5 159q0 110 76.5 187t185.5 77q90 0 158.5 -52t93.5 -126l-282 -202q16 -6 42 -6q76 0 109 51zM173 252
q0 -20 4 -33l184 131q-32 24 -70 24q-49 0 -83.5 -34.5t-34.5 -87.5z" />
    <glyph glyph-name="Ecaron" unicode="&#x11a;" horiz-adv-x="573" 
d="M441 991l-165 -206l-165 206h133l32 -43l32 43h133zM533 0h-462v745h396v-140h-241v-139h280v-140h-280v-186h307v-140z" />
    <glyph glyph-name="ecaron" unicode="&#x11b;" horiz-adv-x="572" 
d="M412 181l113 -87q-32 -48 -93 -76.5t-129 -28.5q-114 0 -194 77.5t-80 185.5q0 110 76.5 187t185.5 77q90 0 158.5 -52t93.5 -126l-282 -202q16 -6 42 -6q76 0 109 51zM173 252q0 -20 4 -33l184 131q-32 24 -70 24q-49 0 -83.5 -34.5t-34.5 -87.5zM450 757l-165 -206
l-165 206h134l31 -43l32 43h133z" />
    <glyph glyph-name="Gdotaccent" unicode="&#x120;" horiz-adv-x="835" 
d="M423 983q36 0 62 -26t26 -64q0 -37 -26 -63.5t-62 -26.5t-62.5 26.5t-26.5 63.5q0 38 26.5 64t62.5 26zM809 407v-23q0 -165 -113 -281t-273 -116t-271.5 112.5t-111.5 272.5t111.5 273t270.5 113q103 0 190.5 -49t138.5 -132l-124 -90q-30 56 -84.5 89.5t-119.5 33.5
q-94 0 -159 -69.5t-65 -168.5q0 -98 65 -167t159 -69q70 0 126 35t80 98h-202v138h382z" />
    <glyph glyph-name="gdotaccent" unicode="&#x121;" horiz-adv-x="592" 
d="M284 -111q49 0 82.5 31t33.5 76v40q-16 -21 -51.5 -34t-71.5 -13q-103 0 -175.5 77.5t-72.5 185.5q0 109 73 186.5t175 77.5q33 0 69.5 -14t53.5 -32v35h142v-500q0 -106 -75.5 -181.5t-182.5 -75.5q-66 0 -122.5 31t-92.5 84l115 83q34 -57 100 -57zM291 130
q50 0 82.5 34t32.5 88q0 53 -32.5 87.5t-82.5 34.5q-49 0 -83.5 -34.5t-34.5 -87.5t34 -87.5t84 -34.5zM282 749q36 0 62 -26t26 -64q0 -37 -26 -63.5t-62 -26.5t-62.5 26.5t-26.5 63.5q0 38 26.5 64t62.5 26z" />
    <glyph glyph-name="uni0122" unicode="&#x122;" horiz-adv-x="835" 
d="M390 -253h-81l53 181h138zM809 407v-23q0 -165 -113 -281t-273 -116t-271.5 112.5t-111.5 272.5t111.5 273t270.5 113q103 0 190.5 -49t138.5 -132l-124 -90q-30 56 -84.5 89.5t-119.5 33.5q-94 0 -159 -69.5t-65 -168.5q0 -98 65 -167t159 -69q70 0 126 35t80 98h-202
v138h382z" />
    <glyph glyph-name="uni0123" unicode="&#x123;" horiz-adv-x="592" 
d="M284 -111q49 0 82.5 31t33.5 76v40q-16 -21 -51.5 -34t-71.5 -13q-103 0 -175.5 77.5t-72.5 185.5q0 109 73 186.5t175 77.5q33 0 69.5 -14t53.5 -32v35h142v-500q0 -106 -75.5 -181.5t-182.5 -75.5q-66 0 -122.5 31t-92.5 84l115 83q34 -57 100 -57zM291 130
q50 0 82.5 34t32.5 88q0 53 -32.5 87.5t-82.5 34.5q-49 0 -83.5 -34.5t-34.5 -87.5t34 -87.5t84 -34.5zM309 758h81l-53 -181h-138z" />
    <glyph glyph-name="Itilde" unicode="&#x128;" horiz-adv-x="297" 
d="M226 745v-745h-155v745h155zM29 813l-100 74q65 79 160 79q28 0 71.5 -18t64.5 -18q29 0 60 36q64 -48 100 -72q-65 -86 -143 -86q-29 0 -69.5 20.5t-62.5 20.5q-38 0 -81 -36z" />
    <glyph glyph-name="itilde" unicode="&#x129;" horiz-adv-x="242" 
d="M192 505v-505h-142v505h142zM20 579l-99 74q64 79 159 79q29 0 72.5 -18t64.5 -18q30 0 59 36l100 -72q-65 -86 -143 -86q-29 0 -69 20.5t-63 20.5t-39.5 -7.5t-41.5 -28.5z" />
    <glyph glyph-name="Imacron" unicode="&#x12a;" horiz-adv-x="297" 
d="M226 745v-745h-155v745h155zM-55 820v134h413v-134h-413z" />
    <glyph glyph-name="imacron" unicode="&#x12b;" horiz-adv-x="245" 
d="M193 505v-505h-142v505h142zM-83 574v134h413v-134h-413z" />
    <glyph glyph-name="Iogonek" unicode="&#x12e;" horiz-adv-x="297" 
d="M71 0v745h155v-745h-49q0 -32 19 -52.5t48 -20.5q37 0 55 33l83 -59q-51 -74 -138 -74q-73 0 -123 50t-50 123z" />
    <glyph glyph-name="iogonek" unicode="&#x12f;" horiz-adv-x="242" 
d="M50 0v505h142v-505h-37q0 -32 19.5 -52.5t48.5 -20.5q37 0 55 33l83 -59q-51 -74 -138 -74q-73 0 -123 50t-50 123zM120 594q-33 0 -57.5 24t-24.5 57q0 30 24.5 54t57.5 24q35 0 60 -23.5t25 -54.5q0 -33 -24.5 -57t-60.5 -24z" />
    <glyph glyph-name="dotlessi" unicode="&#x131;" horiz-adv-x="242" 
d="M192 505v-505h-142v505h142z" />
    <glyph glyph-name="uni0136" unicode="&#x136;" horiz-adv-x="791" 
d="M226 745v-352l352 352h207l-366 -366l378 -379h-209l-279 280l-83 -83v-197h-155v745h155zM320 -253h-81l53 181h138z" />
    <glyph glyph-name="uni0137" unicode="&#x137;" horiz-adv-x="588" 
d="M232 178l-40 -38v-140h-142v745h142v-441l215 201h176l-254 -236l265 -269h-181zM220 -253h-81l53 181h138z" />
    <glyph glyph-name="Lacute" unicode="&#x139;" horiz-adv-x="541" 
d="M71 745h155v-605h300v-140h-455v745zM202 994l94 -67l-79 -119h-133z" />
    <glyph glyph-name="lacute" unicode="&#x13a;" horiz-adv-x="284" 
d="M189 994l94 -67l-78 -119h-134zM226 745v-745h-155v745h155z" />
    <glyph glyph-name="uni013B" unicode="&#x13b;" horiz-adv-x="541" 
d="M71 745h155v-605h300v-140h-455v745zM194 -253h-81l53 181h138z" />
    <glyph glyph-name="uni013C" unicode="&#x13c;" horiz-adv-x="242" 
d="M50 745h142v-745h-142v745zM78 -253h-81l53 181h138z" />
    <glyph glyph-name="Lcaron" unicode="&#x13d;" horiz-adv-x="541" 
d="M71 745h155v-605h300v-140h-455v745zM317 991l-165 -206l-165 206h133l32 -43l32 43h133z" />
    <glyph glyph-name="lcaron" unicode="&#x13e;" horiz-adv-x="284" 
d="M317 991l-165 -206l-165 206h133l32 -43l31 43h134zM226 745v-745h-155v745h155z" />
    <glyph glyph-name="Lslash" unicode="&#x141;" horiz-adv-x="558" 
d="M81 745h154v-290l109 62v-138l-109 -62v-177h301v-140h-455v229l-76 -43v138l76 43v378z" />
    <glyph glyph-name="lslash" unicode="&#x142;" horiz-adv-x="324" 
d="M229 745v-293l115 65v-138l-115 -65v-314h-154v226l-70 -40v138l70 40v381h154z" />
    <glyph glyph-name="Nacute" unicode="&#x143;" horiz-adv-x="827" 
d="M601 314v431h155v-758l-530 441v-428h-155v759zM464 994l94 -67l-78 -119h-134z" />
    <glyph glyph-name="nacute" unicode="&#x144;" horiz-adv-x="602" 
d="M324 760l94 -67l-79 -119h-133zM559 252v-252h-141v252q0 58 -29.5 90t-75.5 32q-50 0 -85.5 -32t-35.5 -90v-252h-142v505h142v-35q20 22 57.5 34t75.5 12q102 0 168 -76.5t66 -187.5z" />
    <glyph glyph-name="uni0145" unicode="&#x145;" horiz-adv-x="827" 
d="M601 314v431h155v-758l-530 441v-428h-155v759zM330 -253h-81l53 181h138z" />
    <glyph glyph-name="uni0146" unicode="&#x146;" horiz-adv-x="602" 
d="M559 252v-252h-141v252q0 58 -29.5 90t-75.5 32q-50 0 -85.5 -32t-35.5 -90v-252h-142v505h142v-35q20 22 57.5 34t75.5 12q102 0 168 -76.5t66 -187.5zM250 -253h-81l53 181h138z" />
    <glyph glyph-name="Ncaron" unicode="&#x147;" horiz-adv-x="827" 
d="M601 314v431h155v-758l-530 441v-428h-155v759zM570 991l-165 -206l-165 206h133l32 -43l31 43h134z" />
    <glyph glyph-name="ncaron" unicode="&#x148;" horiz-adv-x="602" 
d="M453 757l-165 -206l-165 206h133l32 -43l31 43h134zM559 252v-252h-141v252q0 58 -29.5 90t-75.5 32q-50 0 -85.5 -32t-35.5 -90v-252h-142v505h142v-35q20 22 57.5 34t75.5 12q102 0 168 -76.5t66 -187.5z" />
    <glyph glyph-name="Omacron" unicode="&#x14c;" 
d="M426 -13q-160 0 -273 113t-113 273t112.5 272.5t272.5 112.5t273 -112.5t113 -272.5t-112.5 -273t-272.5 -113zM425 610q-95 0 -160.5 -69t-65.5 -168q0 -100 65.5 -168.5t161.5 -68.5q95 0 160.5 68.5t65.5 168.5q0 98 -66.5 167.5t-160.5 69.5zM215 820v134h413v-134
h-413z" />
    <glyph glyph-name="omacron" unicode="&#x14d;" horiz-adv-x="586" 
d="M291 516q109 0 187.5 -77.5t78.5 -186.5q0 -108 -78.5 -185.5t-187.5 -77.5q-108 0 -185 77.5t-77 185.5q0 110 76.5 187t185.5 77zM291 130q52 0 86.5 34t34.5 88q0 53 -34.5 87.5t-86.5 34.5q-49 0 -83.5 -34.5t-34.5 -87.5t34 -87.5t84 -34.5zM84 574v134h413v-134
h-413z" />
    <glyph glyph-name="Ohungarumlaut" unicode="&#x150;" 
d="M426 -13q-160 0 -273 113t-113 273t112.5 272.5t272.5 112.5t273 -112.5t113 -272.5t-112.5 -273t-272.5 -113zM425 610q-95 0 -160.5 -69t-65.5 -168q0 -100 65.5 -168.5t161.5 -68.5q95 0 160.5 68.5t65.5 168.5q0 98 -66.5 167.5t-160.5 69.5zM363 811h-89l49 164h159
zM550 811h-89l72 164h159z" />
    <glyph glyph-name="ohungarumlaut" unicode="&#x151;" horiz-adv-x="586" 
d="M291 516q109 0 187.5 -77.5t78.5 -186.5q0 -108 -78.5 -185.5t-187.5 -77.5q-108 0 -185 77.5t-77 185.5q0 110 76.5 187t185.5 77zM291 130q52 0 86.5 34t34.5 88q0 53 -34.5 87.5t-86.5 34.5q-49 0 -83.5 -34.5t-34.5 -87.5t34 -87.5t84 -34.5zM227 577h-89l49 164h159
zM414 577h-89l73 164h159z" />
    <glyph glyph-name="OE" unicode="&#x152;" horiz-adv-x="1153" 
d="M1114 0h-462v66q-101 -79 -226 -79q-160 0 -273 113t-113 273t112.5 272.5t272.5 112.5q124 0 227 -79v66h395v-140h-241v-139h281v-140h-281v-186h308v-140zM425 610q-95 0 -160.5 -69t-65.5 -168q0 -100 65.5 -168.5t161.5 -68.5q95 0 160.5 68.5t65.5 168.5v10
q-4 95 -70 161t-157 66z" />
    <glyph glyph-name="oe" unicode="&#x153;" horiz-adv-x="956" 
d="M795 181l114 -87q-32 -48 -93 -76.5t-129 -28.5q-120 0 -202 85q-80 -85 -194 -85q-108 0 -185 77.5t-77 185.5q0 110 76.5 187t185.5 77q112 0 192 -83q78 83 192 83q90 0 158.5 -52t92.5 -126l-281 -202q14 -6 42 -6q77 0 108 51zM291 130q52 0 86.5 34t34.5 88
q0 53 -34.5 87.5t-86.5 34.5q-49 0 -83.5 -34.5t-34.5 -87.5t34 -87.5t84 -34.5zM557 252v-6q0 -5 2 -17l178 127q-29 18 -62 18q-50 0 -84 -34.5t-34 -87.5z" />
    <glyph glyph-name="Racute" unicode="&#x154;" horiz-adv-x="675" 
d="M347 994l94 -67l-78 -119h-134zM304 129h-78v-129h-155v745h259q131 0 220 -85.5t89 -207.5q0 -99 -44.5 -171t-123.5 -109l161 -172h-206zM226 269h85q82 0 127 46t45 125q0 72 -42.5 118.5t-120.5 46.5h-94v-336z" />
    <glyph glyph-name="racute" unicode="&#x155;" horiz-adv-x="352" 
d="M230 760l94 -67l-78 -119h-134zM339 514v-147q-20 7 -45 7q-44 0 -73 -32t-29 -90v-252h-142v505h142v-35q43 46 112 46q22 0 35 -2z" />
    <glyph glyph-name="uni0156" unicode="&#x156;" horiz-adv-x="675" 
d="M270 -253h-81l53 181h138zM304 129h-78v-129h-155v745h259q131 0 220 -85.5t89 -207.5q0 -99 -44.5 -171t-123.5 -109l161 -172h-206zM226 269h85q82 0 127 46t45 125q0 72 -42.5 118.5t-120.5 46.5h-94v-336z" />
    <glyph glyph-name="uni0157" unicode="&#x157;" horiz-adv-x="352" 
d="M78 -253h-81l53 181h138zM339 514v-147q-20 7 -45 7q-44 0 -73 -32t-29 -90v-252h-142v505h142v-35q43 46 112 46q22 0 35 -2z" />
    <glyph glyph-name="Rcaron" unicode="&#x158;" horiz-adv-x="675" 
d="M469 991l-165 -206l-165 206h133l32 -43l32 43h133zM304 129h-78v-129h-155v745h259q131 0 220 -85.5t89 -207.5q0 -99 -44.5 -171t-123.5 -109l161 -172h-206zM226 269h85q82 0 127 46t45 125q0 72 -42.5 118.5t-120.5 46.5h-94v-336z" />
    <glyph glyph-name="rcaron" unicode="&#x159;" horiz-adv-x="352" 
d="M358 757l-165 -206l-165 206h133l32 -43l31 43h134zM339 514v-147q-20 7 -45 7q-44 0 -73 -32t-29 -90v-252h-142v505h142v-35q43 46 112 46q22 0 35 -2z" />
    <glyph glyph-name="Sacute" unicode="&#x15a;" horiz-adv-x="556" 
d="M312 994l94 -67l-78 -119h-134zM250 330q-97 11 -155 68.5t-58 144.5q0 90 68.5 152.5t150.5 62.5q121 0 201 -96l-122 -89q-35 37 -79 37q-31 0 -50 -18t-19 -48q0 -63 104 -70q99 -6 165.5 -70t66.5 -168q0 -106 -75.5 -177.5t-176.5 -71.5q-142 0 -241 109l128 94
q43 -54 113 -54q38 0 64.5 26.5t26.5 62.5q0 45 -29 72t-83 33z" />
    <glyph glyph-name="sacute" unicode="&#x15b;" horiz-adv-x="402" 
d="M220 760l93 -67l-78 -119h-133zM180 203q-70 10 -113.5 53t-43.5 107q0 63 53 108t113 45q96 0 151 -79l-102 -74q-23 21 -46 21q-30 0 -30 -26t54 -32q75 -10 119.5 -50t44.5 -114q0 -76 -55.5 -124.5t-138.5 -48.5q-107 0 -174 76l120 87q21 -22 55 -22q38 0 38 34
q0 32 -45 39z" />
    <glyph glyph-name="Scedilla" unicode="&#x15e;" horiz-adv-x="556" 
d="M89 -156l101 153q-92 23 -160 99l128 94q43 -54 113 -54q38 0 64.5 26.5t26.5 62.5q0 45 -29 72t-83 33q-97 11 -155 68.5t-58 144.5q0 90 68.5 152.5t150.5 62.5q121 0 201 -96l-122 -89q-35 37 -79 37q-31 0 -50 -18t-19 -48q0 -63 104 -70q99 -6 165.5 -70t66.5 -168
q0 -90 -56.5 -156.5t-140.5 -85.5l-20 -29h147v-121h-364z" />
    <glyph glyph-name="scedilla" unicode="&#x15f;" horiz-adv-x="402" 
d="M180 203q-70 10 -113.5 53t-43.5 107q0 63 53 108t113 45q96 0 151 -79l-102 -74q-23 21 -46 21q-30 0 -30 -26t54 -32q75 -10 119.5 -50t44.5 -114q0 -67 -44 -113.5t-113 -56.5l-10 -27h147v-121h-324l65 158q-52 20 -89 63l120 87q21 -22 55 -22q38 0 38 34
q0 32 -45 39z" />
    <glyph glyph-name="Scaron" unicode="&#x160;" horiz-adv-x="556" 
d="M427 991l-165 -206l-165 206h133l32 -43l32 43h133zM250 330q-97 11 -155 68.5t-58 144.5q0 90 68.5 152.5t150.5 62.5q121 0 201 -96l-122 -89q-35 37 -79 37q-31 0 -50 -18t-19 -48q0 -63 104 -70q99 -6 165.5 -70t66.5 -168q0 -106 -75.5 -177.5t-176.5 -71.5
q-142 0 -241 109l128 94q43 -54 113 -54q38 0 64.5 26.5t26.5 62.5q0 45 -29 72t-83 33z" />
    <glyph glyph-name="scaron" unicode="&#x161;" horiz-adv-x="402" 
d="M343 757l-165 -206l-165 206h133l32 -43l31 43h134zM180 203q-70 10 -113.5 53t-43.5 107q0 63 53 108t113 45q96 0 151 -79l-102 -74q-23 21 -46 21q-30 0 -30 -26t54 -32q75 -10 119.5 -50t44.5 -114q0 -76 -55.5 -124.5t-138.5 -48.5q-107 0 -174 76l120 87
q21 -22 55 -22q38 0 38 34q0 32 -45 39z" />
    <glyph glyph-name="Tcaron" unicode="&#x164;" horiz-adv-x="573" 
d="M358 0h-155v600h-184v145h535v-145h-196v-600zM446 991l-165 -206l-165 206h133l32 -43l31 43h134z" />
    <glyph glyph-name="tcaron" unicode="&#x165;" horiz-adv-x="358" 
d="M346 374h-120v-161q0 -43 32.5 -65.5t84.5 -22.5v-136q-114 0 -186.5 61t-72.5 159v165h-76v131h76v66l142 103v-169h120v-131zM329 897l-165 -206l-165 206h133l32 -43l31 43h134z" />
    <glyph glyph-name="Utilde" unicode="&#x168;" horiz-adv-x="770" 
d="M279 813l-100 74q65 79 160 79q28 0 71.5 -18t64.5 -18q29 0 60 36l100 -72q-65 -86 -143 -86q-29 0 -69.5 20.5t-62.5 20.5q-38 0 -81 -36zM386 -13q-158 0 -240 98t-82 260v400h155v-426q0 -88 42.5 -135.5t124.5 -47.5q84 0 124.5 48t40.5 135v426h155v-413
q0 -162 -85 -253.5t-235 -91.5z" />
    <glyph glyph-name="utilde" unicode="&#x169;" horiz-adv-x="602" 
d="M43 242v263h142v-251q0 -54 30.5 -89t73.5 -35q53 0 87.5 29.5t34.5 94.5v251h141v-505h-141v36q-20 -22 -60.5 -34.5t-80.5 -12.5q-98 0 -162.5 73.5t-64.5 179.5zM170 579l-99 74q64 79 159 79q29 0 72.5 -18t64.5 -18q30 0 59 36l100 -72q-65 -86 -143 -86
q-29 0 -69 20.5t-63 20.5t-39.5 -7.5t-41.5 -28.5z" />
    <glyph glyph-name="Umacron" unicode="&#x16a;" horiz-adv-x="770" 
d="M175 820v134h413v-134h-413zM386 -13q-158 0 -240 98t-82 260v400h155v-426q0 -88 42.5 -135.5t124.5 -47.5q84 0 124.5 48t40.5 135v426h155v-413q0 -162 -85 -253.5t-235 -91.5z" />
    <glyph glyph-name="umacron" unicode="&#x16b;" horiz-adv-x="602" 
d="M82 574v134h413v-134h-413zM43 242v263h142v-251q0 -54 30.5 -89t73.5 -35q53 0 87.5 29.5t34.5 94.5v251h141v-505h-141v36q-20 -22 -60.5 -34.5t-80.5 -12.5q-98 0 -162.5 73.5t-64.5 179.5z" />
    <glyph glyph-name="Uring" unicode="&#x16e;" horiz-adv-x="770" 
d="M382 803q-44 0 -76 32t-32 76q0 48 31.5 80.5t76.5 32.5q48 0 80.5 -32.5t32.5 -80.5q0 -45 -32.5 -76.5t-80.5 -31.5zM382 943q-12 0 -20 -9t-8 -23q0 -11 8.5 -20t19.5 -9q13 0 21 8.5t8 20.5q0 32 -29 32zM386 -13q-158 0 -240 98t-82 260v400h155v-426
q0 -88 42.5 -135.5t124.5 -47.5q84 0 124.5 48t40.5 135v426h155v-413q0 -162 -85 -253.5t-235 -91.5z" />
    <glyph glyph-name="uring" unicode="&#x16f;" horiz-adv-x="602" 
d="M290 569q-45 0 -77 32t-32 76q0 48 32 80.5t77 32.5q47 0 79.5 -32.5t32.5 -80.5q0 -45 -32.5 -76.5t-79.5 -31.5zM290 709q-12 0 -20 -9t-8 -23q0 -11 8.5 -20t19.5 -9q13 0 20.5 8.5t7.5 20.5q0 32 -28 32zM43 242v263h142v-251q0 -54 30.5 -89t73.5 -35
q53 0 87.5 29.5t34.5 94.5v251h141v-505h-141v36q-20 -22 -60.5 -34.5t-80.5 -12.5q-98 0 -162.5 73.5t-64.5 179.5z" />
    <glyph glyph-name="Uhungarumlaut" unicode="&#x170;" horiz-adv-x="770" 
d="M323 811h-89l49 164h159zM510 811h-89l73 164h159zM386 -13q-158 0 -240 98t-82 260v400h155v-426q0 -88 42.5 -135.5t124.5 -47.5q84 0 124.5 48t40.5 135v426h155v-413q0 -162 -85 -253.5t-235 -91.5z" />
    <glyph glyph-name="uhungarumlaut" unicode="&#x171;" horiz-adv-x="602" 
d="M229 574h-89l49 164h160zM416 574h-89l73 164h159zM43 242v263h142v-251q0 -54 30.5 -89t73.5 -35q53 0 87.5 29.5t34.5 94.5v251h141v-505h-141v36q-20 -22 -60.5 -34.5t-80.5 -12.5q-98 0 -162.5 73.5t-64.5 179.5z" />
    <glyph glyph-name="Uogonek" unicode="&#x172;" horiz-adv-x="770" 
d="M706 346v-14q-1 -148 -72 -237t-198 -104q4 -29 22.5 -46.5t45.5 -17.5q35 0 55 33l83 -59q-51 -74 -138 -74q-71 0 -120 47t-53 117q-131 17 -199 112t-68 242v400h155v-426q0 -88 42.5 -135.5t124.5 -47.5q84 0 124.5 48t40.5 135v426h155v-399z" />
    <glyph glyph-name="uogonek" unicode="&#x173;" horiz-adv-x="602" 
d="M411 0v36q-20 -22 -60.5 -34.5t-80.5 -12.5q-98 0 -162.5 73.5t-64.5 179.5v263h142v-251q0 -54 30.5 -89t73.5 -35q53 0 87.5 29.5t34.5 94.5v251h141v-505h-36q0 -32 19 -52.5t49 -20.5q35 0 55 33l83 -59q-53 -74 -138 -74q-74 0 -123.5 50t-49.5 123z" />
    <glyph glyph-name="Wcircumflex" unicode="&#x174;" horiz-adv-x="1081" 
d="M714 308l212 437h161l-379 -758l-163 307l-153 -307l-398 758h178l226 -437l70 135l-158 302h178zM541 1014l165 -206h-133l-32 43l-31 -43h-134z" />
    <glyph glyph-name="wcircumflex" unicode="&#x175;" horiz-adv-x="741" 
d="M502 263l106 242h139l-251 -518l-114 238l-114 -238l-274 518h157l121 -243l46 98l-68 145h136zM379 780l165 -206h-133l-32 43l-31 -43h-134z" />
    <glyph glyph-name="Ycircumflex" unicode="&#x176;" horiz-adv-x="764" 
d="M389 379l218 366h163l-306 -505v-240h-154v226l-316 519h178zM391 1014l165 -206h-133l-32 43l-31 -43h-134z" />
    <glyph glyph-name="ycircumflex" unicode="&#x177;" horiz-adv-x="574" 
d="M221 48l-227 457h156l146 -313l143 313h141l-347 -746h-147zM297 780l165 -206h-133l-32 43l-31 -43h-134z" />
    <glyph glyph-name="Ydieresis" unicode="&#x178;" horiz-adv-x="764" 
d="M322 869q0 -28 -18 -46t-46 -18q-26 0 -44 17.5t-18 46.5q0 27 18 44.5t44 17.5q28 0 46 -17t18 -45zM583 869q0 -28 -19 -46t-46 -18q-26 0 -43.5 17.5t-17.5 46.5q0 27 18 44.5t43 17.5q27 0 46 -17.5t19 -44.5zM390 379l217 366h163l-305 -505v-240h-155v226l-316 519
h178z" />
    <glyph glyph-name="Zacute" unicode="&#x179;" horiz-adv-x="682" 
d="M263 140h404v-140h-662l386 605h-348v140h611zM434 994l94 -67l-79 -119h-133z" />
    <glyph glyph-name="zacute" unicode="&#x17a;" horiz-adv-x="469" 
d="M451 0h-443l225 374h-195v131h416l-210 -370h207v-135zM324 760l94 -67l-79 -119h-133z" />
    <glyph glyph-name="Zdotaccent" unicode="&#x17b;" horiz-adv-x="682" 
d="M263 140h404v-140h-662l386 605h-348v140h611zM326 983q36 0 62 -26t26 -64q0 -37 -26 -63.5t-62 -26.5t-62.5 26.5t-26.5 63.5q0 38 26.5 64t62.5 26z" />
    <glyph glyph-name="zdotaccent" unicode="&#x17c;" horiz-adv-x="469" 
d="M451 0h-443l225 376h-195v129h416l-210 -370h207v-135zM258 749q36 0 62 -26t26 -64q0 -37 -26 -63.5t-62 -26.5t-62.5 26.5t-26.5 63.5q0 38 26.5 64t62.5 26z" />
    <glyph glyph-name="Zcaron" unicode="&#x17d;" horiz-adv-x="682" 
d="M263 140h404v-140h-662l386 605h-348v140h611zM509 991l-165 -206l-165 206h133l32 -43l31 43h134z" />
    <glyph glyph-name="zcaron" unicode="&#x17e;" horiz-adv-x="469" 
d="M451 0h-443l225 376h-195v129h416l-210 -370h207v-135zM422 757l-165 -206l-165 206h134l31 -43l32 43h133z" />
    <glyph glyph-name="florin" unicode="&#x192;" horiz-adv-x="418" 
d="M117 4v360h-62v141h62v14q0 102 75 170t176 68v-149q-39 0 -68 -26.5t-29 -62.5v-14h91v-141h-91v-360q0 -102 -75 -170t-176 -68v149q39 0 68 26.5t29 62.5z" />
    <glyph glyph-name="uni0218" unicode="&#x218;" horiz-adv-x="546" 
d="M230 -253h-81l53 181h138zM240 330q-97 11 -155 68.5t-58 144.5q0 90 68.5 152.5t150.5 62.5q121 0 201 -96l-122 -89q-35 37 -79 37q-31 0 -50 -18t-19 -48q0 -63 104 -70q99 -6 165.5 -70t66.5 -168q0 -106 -75.5 -177.5t-176.5 -71.5q-142 0 -241 109l128 94
q43 -54 113 -54q38 0 64.5 26.5t26.5 62.5q0 45 -29 72t-83 33z" />
    <glyph glyph-name="uni0219" unicode="&#x219;" horiz-adv-x="402" 
d="M180 203q-70 10 -113.5 53t-43.5 107q0 63 53 108t113 45q96 0 151 -79l-102 -74q-23 21 -46 21q-30 0 -30 -26t54 -32q75 -10 119.5 -50t44.5 -114q0 -76 -55.5 -124.5t-138.5 -48.5q-107 0 -174 76l120 87q21 -22 55 -22q38 0 38 34q0 32 -45 39zM160 -253h-81l53 181
h138z" />
    <glyph glyph-name="uni021A" unicode="&#x21a;" horiz-adv-x="573" 
d="M358 0h-155v605h-184v140h535v-140h-196v-605zM231 -253h-81l53 181h138z" />
    <glyph glyph-name="uni021B" unicode="&#x21b;" horiz-adv-x="361" 
d="M346 374h-120v-161q0 -41 32.5 -62t84.5 -21v-141q-114 0 -186.5 61t-72.5 159v165h-76v131h76v66l142 103v-169h120v-131zM215 -253h-81l53 181h138z" />
    <glyph glyph-name="circumflex" unicode="&#x2c6;" horiz-adv-x="903" 
d="M451 1014l165 -206h-133l-32 43l-31 -43h-134z" />
    <glyph glyph-name="caron" unicode="&#x2c7;" horiz-adv-x="903" 
d="M616 991l-165 -206l-165 206h134l31 -43l32 43h133z" />
    <glyph glyph-name="breve" unicode="&#x2d8;" horiz-adv-x="787" 
d="M457 977h102q0 -73 -51.5 -124.5t-126.5 -51.5q-72 0 -123.5 52t-51.5 124h103q0 -31 22.5 -54.5t52.5 -23.5t51.5 23.5t21.5 54.5z" />
    <glyph glyph-name="dotaccent" unicode="&#x2d9;" horiz-adv-x="750" 
d="M375 866q36 0 62 -26t26 -64q0 -37 -26 -63.5t-62 -26.5t-62.5 26.5t-26.5 63.5q0 38 26.5 64t62.5 26z" />
    <glyph glyph-name="ring" unicode="&#x2da;" horiz-adv-x="857" 
d="M415 803q-44 0 -76.5 32t-32.5 76q0 48 32 80.5t77 32.5q47 0 80 -32.5t33 -80.5q0 -44 -33 -76t-80 -32zM415 943q-12 0 -20 -9t-8 -23q0 -11 8.5 -20t19.5 -9q13 0 20.5 8.5t7.5 20.5q0 32 -28 32z" />
    <glyph glyph-name="ogonek" unicode="&#x2db;" horiz-adv-x="756" 
d="M267 0h105q0 -32 19 -52.5t49 -20.5q35 0 55 33l83 -59q-53 -74 -138 -74q-74 0 -123.5 50t-49.5 123z" />
    <glyph glyph-name="tilde" unicode="&#x2dc;" horiz-adv-x="837" 
d="M289 813l-100 74q65 79 160 79q28 0 71.5 -18t64.5 -18q29 0 60 36l100 -72q-65 -86 -143 -86q-29 0 -69.5 20.5t-62.5 20.5q-38 0 -81 -36z" />
    <glyph glyph-name="hungarumlaut" unicode="&#x2dd;" horiz-adv-x="450" 
d="M112 811h-89l49 164h160zM299 811h-89l73 164h159z" />
    <glyph glyph-name="uni03A9" unicode="&#x3a9;" horiz-adv-x="827" 
d="M495 0v108q72 28 116.5 103t44.5 173q0 106 -71 181t-172 75t-172.5 -75t-71.5 -181q0 -97 45 -172.5t117 -103.5v-108h-268v108h91q-114 117 -114 276q0 155 109 264.5t264 109.5t264.5 -109.5t109.5 -264.5q0 -160 -116 -276h92v-108h-268z" />
    <glyph glyph-name="pi" unicode="&#x3c0;" horiz-adv-x="848" 
d="M272 0h-142v612h-90v133h768v-133h-91v-612h-143v612h-302v-612z" />
    <glyph glyph-name="Bdotaccent" unicode="&#x1e02;" horiz-adv-x="635" 
d="M331 0h-260v745h239q109 0 173 -48.5t64 -148.5q0 -77 -53 -126q101 -69 101 -182q0 -109 -78 -174.5t-186 -65.5zM226 140h110q47 0 73.5 25.5t26.5 69.5q0 45 -26 71t-74 26h-110v-192zM226 467h78q35 0 55 11.5t24.5 25t4.5 32.5q0 69 -84 69h-78v-138zM269 983
q36 0 62 -26t26 -64q0 -37 -26 -63.5t-62 -26.5t-62.5 26.5t-26.5 63.5q0 38 26.5 64t62.5 26z" />
    <glyph glyph-name="bdotaccent" unicode="&#x1e03;" horiz-adv-x="592" 
d="M50 745h142v-275q17 18 53.5 32t69.5 14q102 0 175 -77.5t73 -186.5q0 -108 -72.5 -185.5t-175.5 -77.5q-36 0 -71.5 13t-51.5 34v-36h-142v745zM301 130q50 0 84 34.5t34 87.5t-34.5 87.5t-83.5 34.5q-50 0 -82.5 -34.5t-32.5 -87.5q0 -54 32.5 -88t82.5 -34zM330 749
q36 0 62 -26t26 -64q0 -37 -26 -63.5t-62 -26.5t-62.5 26.5t-26.5 63.5q0 38 26.5 64t62.5 26z" />
    <glyph glyph-name="Ddotaccent" unicode="&#x1e0a;" horiz-adv-x="803" 
d="M71 745h302q163 0 276.5 -107t113.5 -265q0 -159 -113.5 -266t-275.5 -107h-303v745zM226 140h148q97 0 163.5 66.5t66.5 166.5t-66.5 166t-164.5 66h-147v-465zM339 983q36 0 62 -26t26 -64q0 -37 -26 -63.5t-62 -26.5t-62.5 26.5t-26.5 63.5q0 38 26.5 64t62.5 26z" />
    <glyph glyph-name="ddotaccent" unicode="&#x1e0b;" horiz-adv-x="592" 
d="M400 745h142v-745h-142v36q-16 -21 -51.5 -34t-71.5 -13q-103 0 -175.5 77.5t-72.5 185.5q0 109 73 186.5t175 77.5q33 0 69.5 -14t53.5 -32v275zM291 130q50 0 82.5 34t32.5 88q0 53 -32.5 87.5t-82.5 34.5q-49 0 -83.5 -34.5t-34.5 -87.5t34 -87.5t84 -34.5zM260 749
q36 0 62 -26t26 -64q0 -37 -26 -63.5t-62 -26.5t-62.5 26.5t-26.5 63.5q0 38 26.5 64t62.5 26z" />
    <glyph glyph-name="Fdotaccent" unicode="&#x1e1e;" horiz-adv-x="536" 
d="M226 0h-155v745h396v-140h-241v-139h280v-140h-280v-326zM259 983q36 0 62 -26t26 -64q0 -37 -26 -63.5t-62 -26.5t-62.5 26.5t-26.5 63.5q0 38 26.5 64t62.5 26z" />
    <glyph glyph-name="fdotaccent" unicode="&#x1e1f;" horiz-adv-x="356" 
d="M342 752v-146q-48 0 -78.5 -25.5t-30.5 -63.5v-12h99v-131h-99v-374h-142v374h-69v131h69v7q0 103 73.5 171.5t177.5 68.5zM229 983q36 0 62 -26t26 -64q0 -37 -26 -63.5t-62 -26.5t-62.5 26.5t-26.5 63.5q0 38 26.5 64t62.5 26z" />
    <glyph glyph-name="Mdotaccent" unicode="&#x1e40;" horiz-adv-x="936" 
d="M463 983q36 0 62 -26t26 -64q0 -37 -26 -63.5t-62 -26.5t-62.5 26.5t-26.5 63.5q0 38 26.5 64t62.5 26zM468 457l397 301v-758h-155v449l-242 -175l-242 175v-449h-155v758z" />
    <glyph glyph-name="mdotaccent" unicode="&#x1e41;" horiz-adv-x="940" 
d="M482 749q36 0 62 -26t26 -64q0 -37 -26 -63.5t-62 -26.5t-62.5 26.5t-26.5 63.5q0 38 26.5 64t62.5 26zM543 252v-252h-142v252q0 63 -29 92.5t-80 29.5q-40 0 -70 -36t-30 -86v-252h-142v505h142v-35q17 20 53 33t71 13q55 0 101.5 -22.5t69.5 -57.5q60 80 180 80
q111 0 170.5 -74t59.5 -190v-252h-141v252q0 56 -30 89t-74 33q-46 0 -77.5 -35.5t-31.5 -86.5z" />
    <glyph glyph-name="Pdotaccent" unicode="&#x1e56;" horiz-adv-x="667" 
d="M263 983q36 0 62 -26t26 -64q0 -37 -26 -63.5t-62 -26.5t-62.5 26.5t-26.5 63.5q0 38 26.5 64t62.5 26zM226 0h-155v745h259q131 0 220 -85.5t89 -207.5q0 -144 -88.5 -233.5t-235.5 -89.5h-89v-129zM226 269h85q82 0 127 46t45 125q0 72 -42.5 118.5t-120.5 46.5h-94
v-336z" />
    <glyph glyph-name="pdotaccent" unicode="&#x1e57;" horiz-adv-x="592" 
d="M192 -241h-142v746h142v-35q17 18 53 32t70 14q104 0 176 -77t72 -185q0 -109 -73.5 -187t-177.5 -78q-80 0 -120 47v-277zM301 374q-50 0 -82.5 -34t-32.5 -87q0 -54 32.5 -88.5t82.5 -34.5q49 0 83.5 35t34.5 88t-34.5 87t-83.5 34zM292 749q36 0 62 -26t26 -64
q0 -37 -26 -63.5t-62 -26.5t-62.5 26.5t-26.5 63.5q0 38 26.5 64t62.5 26z" />
    <glyph glyph-name="Sdotaccent" unicode="&#x1e60;" horiz-adv-x="546" 
d="M240 330q-101 11 -161.5 68.5t-60.5 144.5q0 90 71.5 152.5t156.5 62.5q121 0 201 -96l-122 -89q-35 37 -79 37q-31 0 -50 -18t-19 -48q0 -63 104 -70q99 -6 165.5 -70t66.5 -168q0 -106 -75.5 -177.5t-176.5 -71.5q-142 0 -241 109l128 94q43 -54 113 -54
q39 0 66.5 26.5t27.5 62.5q0 45 -29.5 72t-85.5 33zM243 983q36 0 62 -26t26 -64q0 -37 -26 -63.5t-62 -26.5t-62.5 26.5t-26.5 63.5q0 38 26.5 64t62.5 26z" />
    <glyph glyph-name="sdotaccent" unicode="&#x1e61;" horiz-adv-x="402" 
d="M180 203q-70 10 -113.5 53t-43.5 107q0 63 53 108t113 45q96 0 151 -79l-102 -74q-23 21 -46 21q-30 0 -30 -26t54 -32q75 -10 119.5 -50t44.5 -114q0 -76 -55.5 -124.5t-138.5 -48.5q-107 0 -174 76l120 87q21 -22 55 -22q38 0 38 34q0 32 -45 39zM185 749q36 0 62 -26
t26 -64q0 -37 -26 -63.5t-62 -26.5t-62.5 26.5t-26.5 63.5q0 38 26.5 64t62.5 26z" />
    <glyph glyph-name="Tdotaccent" unicode="&#x1e6a;" horiz-adv-x="573" 
d="M358 0h-155v605h-184v140h535v-140h-196v-605zM286 983q36 0 62 -26t26 -64q0 -37 -26 -63.5t-62 -26.5t-62.5 26.5t-26.5 63.5q0 38 26.5 64t62.5 26z" />
    <glyph glyph-name="tdotaccent" unicode="&#x1e6b;" horiz-adv-x="361" 
d="M346 374h-120v-161q0 -41 32.5 -62t84.5 -21v-141q-114 0 -186.5 61t-72.5 159v165h-76v131h76v66l142 103v-169h120v-131zM162 876q36 0 62 -26t26 -64q0 -37 -26 -63.5t-62 -26.5t-62.5 26.5t-26.5 63.5q0 38 26.5 64t62.5 26z" />
    <glyph glyph-name="Wgrave" unicode="&#x1e80;" horiz-adv-x="1081" 
d="M714 308l212 437h161l-379 -758l-163 307l-153 -307l-398 758h178l226 -437l70 135l-158 302h178zM253 927l93 67l119 -186h-134z" />
    <glyph glyph-name="wgrave" unicode="&#x1e81;" horiz-adv-x="741" 
d="M502 263l106 242h139l-251 -518l-114 238l-114 -238l-274 518h157l121 -243l46 98l-68 145h136zM147 693l94 67l118 -186h-134z" />
    <glyph glyph-name="Wacute" unicode="&#x1e82;" horiz-adv-x="1081" 
d="M714 308l212 437h161l-379 -758l-163 307l-153 -307l-398 758h178l226 -437l70 135l-158 302h178zM478 994l94 -67l-78 -119h-134z" />
    <glyph glyph-name="wacute" unicode="&#x1e83;" horiz-adv-x="741" 
d="M502 263l106 242h139l-251 -518l-114 238l-114 -238l-274 518h157l121 -243l46 98l-68 145h136zM364 760l94 -67l-78 -119h-134z" />
    <glyph glyph-name="Wdieresis" unicode="&#x1e84;" horiz-adv-x="1081" 
d="M714 308l212 437h161l-379 -758l-163 307l-153 -307l-398 758h178l226 -437l70 135l-158 302h178zM464 869q0 -28 -18 -46t-45 -18q-26 0 -44 17.5t-18 46.5q0 27 18 44.5t44 17.5q27 0 45 -17.5t18 -44.5zM725 869q0 -28 -18.5 -46t-45.5 -18q-25 0 -43 17.5t-18 46.5
q0 27 18 44.5t43 17.5q27 0 45.5 -17.5t18.5 -44.5z" />
    <glyph glyph-name="wdieresis" unicode="&#x1e85;" horiz-adv-x="741" 
d="M502 263l106 242h139l-251 -518l-114 238l-114 -238l-274 518h157l121 -243l46 98l-68 145h136zM306 635q0 -28 -18 -46t-45 -18q-26 0 -44 17.5t-18 46.5q0 27 18 44.5t44 17.5q27 0 45 -17.5t18 -44.5zM567 635q0 -28 -18.5 -46t-45.5 -18q-25 0 -43 17.5t-18 46.5
q0 27 18 44.5t43 17.5q27 0 45.5 -17.5t18.5 -44.5z" />
    <glyph glyph-name="Ygrave" unicode="&#x1ef2;" horiz-adv-x="764" 
d="M390 379l217 366h163l-305 -505v-240h-155v226l-316 519h178zM245 927l93 67l119 -186h-134z" />
    <glyph glyph-name="ygrave" unicode="&#x1ef3;" horiz-adv-x="574" 
d="M221 48l-227 457h156l146 -313l143 313h141l-347 -746h-147zM156 693l94 67l118 -186h-134z" />
    <glyph glyph-name="endash" unicode="&#x2013;" horiz-adv-x="705" 
d="M634 352v-100h-563v100h563z" />
    <glyph glyph-name="emdash" unicode="&#x2014;" horiz-adv-x="1080" 
d="M1008 352v-100h-937v100h937z" />
    <glyph glyph-name="quoteleft" unicode="&#x2018;" horiz-adv-x="210" 
d="M103 758h85v-227h-155z" />
    <glyph glyph-name="quoteright" unicode="&#x2019;" horiz-adv-x="200" 
d="M118 531h-85v227h155z" />
    <glyph glyph-name="quotesinglbase" unicode="&#x201a;" horiz-adv-x="282" 
d="M104 -163h-89l68 227h159z" />
    <glyph glyph-name="quotedblleft" unicode="&#x201c;" horiz-adv-x="426" 
d="M325 758h86v-227h-156zM138 758h97l-47 -227h-155z" />
    <glyph glyph-name="quotedblright" unicode="&#x201d;" horiz-adv-x="401" 
d="M115 531h-86v227h156zM302 531h-97l46 227h156z" />
    <glyph glyph-name="quotedblbase" unicode="&#x201e;" horiz-adv-x="469" 
d="M104 -163h-89l67 227h160zM291 -163h-89l68 227h159z" />
    <glyph glyph-name="dagger" unicode="&#x2020;" horiz-adv-x="510" 
d="M463 447h-143v-447h-131v447h-142v113h142v185h131v-185h143v-113z" />
    <glyph glyph-name="daggerdbl" unicode="&#x2021;" horiz-adv-x="510" 
d="M189 370v77h-142v113h142v185h131v-185h143v-113h-143v-77h143v-114h-143v-256h-131v256h-142v114h142z" />
    <glyph glyph-name="bullet" unicode="&#x2022;" horiz-adv-x="273" 
d="M137 448q44 0 72 -29t28 -72q0 -41 -28 -70t-72 -29t-72.5 29t-28.5 70q0 43 28.5 72t72.5 29z" />
    <glyph glyph-name="ellipsis" unicode="&#x2026;" horiz-adv-x="922" 
d="M152 140q34 0 55.5 -22t21.5 -55q0 -32 -21.5 -54t-55.5 -22t-55.5 22t-21.5 54q0 33 21.5 55t55.5 22zM461 140q33 0 55 -22t22 -55q0 -32 -21.5 -54t-55.5 -22t-55.5 22t-21.5 54q0 33 21.5 55t55.5 22zM770 140q33 0 55 -22t22 -55q0 -32 -21.5 -54t-55.5 -22
t-56 22.5t-22 53.5q0 33 22 55t56 22z" />
    <glyph glyph-name="perthousand" unicode="&#x2030;" horiz-adv-x="1307" 
d="M340 0h-125l335 745h119zM697 35q-67 0 -116.5 49.5t-49.5 116.5q0 71 49 121t117 50q72 0 121.5 -50t49.5 -121q0 -68 -50 -117t-121 -49zM697 266q-24 0 -40.5 -18t-16.5 -47q0 -25 17 -43t40 -18q26 0 43 18t17 43q0 29 -17 47t-43 18zM195 372q-67 0 -116.5 49
t-49.5 117q0 71 49 121t117 50q72 0 121.5 -50t49.5 -121q0 -68 -50 -117t-121 -49zM195 603q-24 0 -40.5 -18t-16.5 -47q0 -25 17 -43t40 -18q27 0 43.5 17.5t16.5 43.5q0 29 -17 47t-43 18zM1107 35q-67 0 -116.5 49.5t-49.5 116.5q0 71 49 121t117 50q72 0 121 -49.5
t49 -121.5q0 -68 -49.5 -117t-120.5 -49zM1107 266q-25 0 -41.5 -18t-16.5 -47q0 -25 17 -43t41 -18q26 0 42.5 17.5t16.5 43.5q0 29 -16.5 47t-42.5 18z" />
    <glyph glyph-name="guilsinglleft" unicode="&#x2039;" horiz-adv-x="415" 
d="M12 372l311 266l63 -92l-209 -174l209 -174l-63 -92z" />
    <glyph glyph-name="guilsinglright" unicode="&#x203a;" horiz-adv-x="415" 
d="M92 638l311 -266l-311 -266l-63 92l210 174l-210 174z" />
    <glyph glyph-name="fraction" unicode="&#x2044;" horiz-adv-x="217" 
d="M14 0h-125l334 745h120z" />
    <glyph glyph-name="zerosuperior" unicode="&#x2070;" horiz-adv-x="448" 
d="M224 335q-87 0 -148 61t-61 147q0 88 60.5 148.5t147.5 60.5q88 0 149 -60.5t61 -148.5q0 -86 -61 -147t-148 -61zM223 662q-46 0 -78.5 -35t-32.5 -84q0 -48 33 -82.5t79 -34.5t79 34.5t33 82.5q0 49 -33.5 84t-79.5 35z" />
    <glyph glyph-name="foursuperior" unicode="&#x2074;" horiz-adv-x="306" 
d="M255 558v-37h50v-88h-50v-93h-93v93h-164l134 312h101l-99 -224h28v37h93z" />
    <glyph glyph-name="fivesuperior" unicode="&#x2075;" horiz-adv-x="296" 
d="M45 745h191v-86h-103v-42h5q64 0 103.5 -37t39.5 -98q0 -63 -43 -105t-106 -42q-71 0 -120 65l76 57q7 -12 19.5 -20.5t24.5 -8.5q23 0 37.5 12.5t14.5 35.5q0 22 -13.5 34.5t-32.5 12.5h-93v222z" />
    <glyph glyph-name="sixsuperior" unicode="&#x2076;" horiz-adv-x="311" 
d="M145 745h104l-74 -130q54 -6 87.5 -45t33.5 -94q0 -59 -41 -100t-102 -41q-59 0 -100 41t-41 100q0 38 22 75zM153 523q-19 0 -32.5 -13.5t-13.5 -33.5t14 -34t32 -14q19 0 32.5 14t13.5 34q0 21 -13.5 34t-32.5 13z" />
    <glyph glyph-name="sevensuperior" unicode="&#x2077;" horiz-adv-x="278" 
d="M14 745h288l-206 -405h-102l161 319h-141v86z" />
    <glyph glyph-name="eightsuperior" unicode="&#x2078;" horiz-adv-x="314" 
d="M157 334q-59 0 -100.5 41t-41.5 101q0 51 39 97q-17 23 -17 58q0 50 35 85.5t85 35.5t85 -35.5t35 -85.5q0 -35 -15 -58q37 -43 37 -97q0 -60 -41.5 -101t-100.5 -41zM157 523q-20 0 -33 -13.5t-13 -33.5t13 -34t33 -14q19 0 32.5 14t13.5 34t-13 33.5t-33 13.5zM157 661
q-11 0 -19.5 -8.5t-8.5 -21.5q0 -12 8.5 -20.5t19.5 -8.5q12 0 20 8.5t8 20.5q0 13 -8.5 21.5t-19.5 8.5z" />
    <glyph glyph-name="ninesuperior" unicode="&#x2079;" horiz-adv-x="312" 
d="M164 340h-102l72 130q-54 8 -88 47.5t-34 93.5q0 59 41.5 100t100.5 41t101 -41.5t42 -99.5q0 -40 -19 -70zM154 563q19 0 32.5 13.5t13.5 34.5q0 20 -13.5 34t-32.5 14t-31.5 -14t-12.5 -34q0 -21 12.5 -34.5t31.5 -13.5z" />
    <glyph glyph-name="zeroinferior" unicode="&#x2080;" horiz-adv-x="448" 
d="M224 -16q-87 0 -148 61t-61 147q0 88 60.5 148.5t147.5 60.5q88 0 149 -60.5t61 -148.5q0 -86 -61 -147t-148 -61zM223 311q-46 0 -78.5 -35t-32.5 -84q0 -48 33 -82.5t79 -34.5t79 34.5t33 82.5q0 49 -33.5 84t-79.5 35z" />
    <glyph glyph-name="oneinferior" unicode="&#x2081;" horiz-adv-x="168" 
d="M150 405v-405h-94v318h-48v87h142z" />
    <glyph glyph-name="twoinferior" unicode="&#x2082;" horiz-adv-x="278" 
d="M274 0h-273l111 179q-41 8 -67 39.5t-26 72.5q0 48 34.5 84.5t83.5 36.5q50 0 85 -35.5t35 -85.5q0 -32 -20 -65l-83 -138h120v-88zM106 289q0 -13 10 -23t23 -10t23 10t10 23t-10 23t-23 10t-23 -10t-10 -23z" />
    <glyph glyph-name="threeinferior" unicode="&#x2083;" horiz-adv-x="288" 
d="M35 405h234l-74 -142q36 -17 56.5 -50t20.5 -73q0 -63 -41 -104.5t-101 -41.5q-74 0 -122 68l77 55q16 -29 45 -29q18 0 31.5 14t13.5 34q0 21 -13.5 34t-31.5 13h-73l70 135h-92v87z" />
    <glyph glyph-name="fourinferior" unicode="&#x2084;" horiz-adv-x="306" 
d="M255 218v-38h50v-88h-50v-92h-93v92h-164l134 313h101l-99 -225h28v38h93z" />
    <glyph glyph-name="fiveinferior" unicode="&#x2085;" horiz-adv-x="296" 
d="M45 405h191v-87h-103v-42h5q64 0 103.5 -36.5t39.5 -97.5q0 -64 -43 -106t-106 -42q-70 0 -120 66l76 57q7 -12 19.5 -20.5t24.5 -8.5q23 0 37.5 12.5t14.5 35.5q0 22 -13.5 34.5t-32.5 12.5h-93v222z" />
    <glyph glyph-name="sixinferior" unicode="&#x2086;" horiz-adv-x="311" 
d="M148 405h105l-74 -130q53 -6 86.5 -45.5t33.5 -93.5q0 -60 -41 -101t-101 -41q-59 0 -100.5 41t-41.5 101q0 36 22 75zM157 183q-19 0 -32.5 -13t-13.5 -34q0 -20 13.5 -34t32.5 -14q18 0 31.5 14t13.5 34t-13 33.5t-32 13.5z" />
    <glyph glyph-name="seveninferior" unicode="&#x2087;" horiz-adv-x="278" 
d="M14 405h288l-206 -405h-102l161 318h-141v87z" />
    <glyph glyph-name="eightinferior" unicode="&#x2088;" horiz-adv-x="314" 
d="M157 -6q-59 0 -100.5 41t-41.5 101q0 51 39 97q-17 23 -17 58q0 50 35 85.5t85 35.5t85 -35.5t35 -85.5q0 -36 -15 -58q37 -43 37 -97q0 -60 -41.5 -101t-100.5 -41zM157 183q-20 0 -33 -13.5t-13 -33.5t13 -34t33 -14q19 0 32.5 14t13.5 34t-13 33.5t-33 13.5zM157 321
q-11 0 -19.5 -8.5t-8.5 -21.5q0 -12 8.5 -20.5t19.5 -8.5q12 0 20 8.5t8 20.5q0 13 -8.5 21.5t-19.5 8.5z" />
    <glyph glyph-name="nineinferior" unicode="&#x2089;" horiz-adv-x="312" 
d="M164 0h-102l72 130q-53 8 -87.5 47t-34.5 93q0 59 41.5 100.5t100.5 41.5t101 -41.5t42 -100.5q0 -36 -19 -70zM154 222q19 0 32.5 13.5t13.5 34.5q0 20 -13.5 34t-32.5 14t-31.5 -14t-12.5 -34q0 -21 12.5 -34.5t31.5 -13.5z" />
    <glyph glyph-name="Euro" unicode="&#x20ac;" horiz-adv-x="760" 
d="M29 386v129h86q43 109 139.5 176t215.5 67q77 0 145.5 -33.5t119.5 -93.5l-123 -90q-57 69 -141 69q-112 0 -180 -95h177v-129h-221q-1 -10 -1 -21q0 -10 2 -26h220v-128h-162q65 -75 165 -75q83 0 140 68l124 -91q-107 -126 -264 -126q-115 0 -208.5 61.5t-139.5 162.5
h-94v128h59q-1 14 -1 27q0 9 1 20h-59z" />
    <glyph glyph-name="uni2116" unicode="&#x2116;" horiz-adv-x="1293" 
d="M601 314v431h155v-758l-530 441v-428h-155v759zM836 0v108h420v-108h-420zM1046 181q-86 0 -147 61.5t-61 147.5q0 88 61 149t147 61q88 0 149 -61t61 -149q0 -86 -61 -147.5t-149 -61.5zM1048 483q-36 0 -62.5 -27.5t-26.5 -65.5t26.5 -66t62.5 -28t62 28t26 66
t-26 65.5t-62 27.5z" />
    <glyph glyph-name="trademark" unicode="&#x2122;" 
d="M215 340h-103v309h-93v96h290v-96h-94v-309zM566 596l214 162v-418h-100v215l-114 -81l-112 81v-215h-104v418z" />
    <glyph glyph-name="onethird" unicode="&#x2153;" horiz-adv-x="909" 
d="M299 0h-125l335 745h119zM232 745v-479h-112v376h-56v103h168zM578 480h277l-88 -168q43 -21 67.5 -60t24.5 -87q0 -73 -49.5 -123t-120.5 -50q-40 0 -78.5 22t-65.5 59l91 66q29 -36 53 -36q22 0 38 16.5t16 40.5q0 25 -16 40.5t-38 15.5h-82l83 161h-112v103z" />
    <glyph glyph-name="twothirds" unicode="&#x2154;" horiz-adv-x="1039" 
d="M429 0h-125l335 745h119zM708 480h277l-88 -168q42 -21 66.5 -60t24.5 -87q0 -73 -49 -123t-120 -50q-40 0 -78.5 22t-65.5 59l91 66q27 -36 53 -36q22 0 38 16.5t16 40.5q0 25 -16 40.5t-38 15.5h-82l83 161h-112v103zM359 266h-322l131 212q-47 9 -79 45.5t-32 87.5
q0 57 41 100t99 43q60 0 101.5 -41.5t41.5 -101.5q0 -43 -22 -78l-101 -164h142v-103zM163 610q0 -15 11 -26t26 -11t26 11t11 26t-11 26t-26 11t-26 -11t-11 -26z" />
    <glyph glyph-name="oneeighth" unicode="&#x215b;" horiz-adv-x="894" 
d="M299 0h-125l335 745h119zM232 745v-479h-112v376h-56v103h168zM682 -8q-69 0 -118 49t-49 119q0 62 45 115q-20 31 -20 70q0 60 41.5 101.5t100.5 41.5q60 0 102 -41.5t42 -101.5q0 -39 -20 -70q44 -50 44 -115q0 -70 -48.5 -119t-119.5 -49zM682 216q-22 0 -37.5 -16
t-15.5 -40q0 -23 15.5 -40t37.5 -17t38 17t16 40q0 24 -15.5 40t-38.5 16zM682 379q-12 0 -22 -10t-10 -24q0 -15 10 -24.5t22 -9.5q14 0 23.5 9.5t9.5 24.5q0 14 -9.5 24t-23.5 10z" />
    <glyph glyph-name="threeeighths" unicode="&#x215c;" horiz-adv-x="937" 
d="M379 0h-125l334 745h120zM836 256v-43h61v-103h-61v-110h-107v110h-197l162 370h115l-114 -267h34v43h107zM71 745h278l-88 -167q42 -21 66.5 -60t24.5 -87q0 -74 -49 -124t-121 -50q-83 0 -144 81l92 67q27 -36 52 -36q23 0 38.5 16t15.5 41t-15.5 40.5t-38.5 15.5h-82
l84 160h-113v103z" />
    <glyph glyph-name="fiveeighths" unicode="&#x215d;" horiz-adv-x="972" 
d="M374 0h-125l335 745h119zM760 -8q-69 0 -118 49t-49 119q0 60 46 115q-20 31 -20 70q0 60 41 101.5t100 41.5q60 0 102 -41.5t42 -101.5q0 -39 -20 -70q45 -51 45 -115q0 -70 -49 -119t-120 -49zM760 216q-22 0 -37 -16t-15 -40q0 -23 15 -40t37 -17q23 0 38.5 16.5
t15.5 40.5t-15.5 40t-38.5 16zM760 379q-12 0 -21.5 -10t-9.5 -24q0 -15 9.5 -24.5t21.5 -9.5q14 0 23.5 9.5t9.5 24.5q0 14 -9.5 24t-23.5 10zM69 745h226v-103h-122v-49h5q76 0 122.5 -43.5t46.5 -116.5q0 -76 -50.5 -126t-125.5 -50q-39 0 -77.5 21.5t-64.5 57.5l90 68
q23 -35 52 -35q27 0 44.5 15t17.5 42q0 28 -15 42t-40 14h-109v263z" />
    <glyph glyph-name="seveneighths" unicode="&#x215e;" horiz-adv-x="904" 
d="M306 0h-125l335 745h119zM692 -8q-69 0 -118 49t-49 119q0 60 46 115q-20 31 -20 70q0 60 41 101.5t100 41.5q60 0 102 -41.5t42 -101.5q0 -38 -19 -70q44 -50 44 -115q0 -70 -49 -119t-120 -49zM692 216q-22 0 -37 -16t-15 -40q0 -23 15 -40t37 -17q23 0 38.5 16.5
t15.5 40.5t-15.5 40t-38.5 16zM692 379q-12 0 -21.5 -10t-9.5 -24q0 -15 9.5 -24.5t21.5 -9.5q14 0 23.5 9.5t9.5 24.5q0 14 -9.5 24t-23.5 10zM42 745h342l-245 -479h-120l190 376h-167v103z" />
    <glyph glyph-name="partialdiff" unicode="&#x2202;" horiz-adv-x="607" 
d="M427 466q0 70 -42.5 106t-108.5 42v114q70 0 133.5 -33.5t100.5 -95.5q47 -78 47 -257v-90q0 -108 -78.5 -185.5t-187.5 -77.5q-108 0 -185 77.5t-77 185.5q0 110 76.5 187t185.5 77q70 0 136 -50zM291 121q56 0 92.5 37t36.5 94t-36.5 94.5t-92.5 37.5q-53 0 -90 -38
t-37 -94q0 -57 37 -94t90 -37z" />
    <glyph glyph-name="Delta" unicode="&#x2206;" horiz-adv-x="757" 
d="M210 140h335l-166 343zM759 0h-761l381 758z" />
    <glyph glyph-name="product" unicode="&#x220f;" horiz-adv-x="730" 
d="M213 0h-142v745h587v-745h-142v612h-303v-612z" />
    <glyph glyph-name="summation" unicode="&#x2211;" horiz-adv-x="551" 
d="M388 374l-158 -257h295v-117h-513l234 376l-234 369h513v-117h-295z" />
    <glyph glyph-name="minus" unicode="&#x2212;" horiz-adv-x="613" 
d="M549 409v-112h-485v112h485z" />
    <glyph glyph-name="radical" unicode="&#x221a;" horiz-adv-x="764" 
d="M213 409l125 -246l342 679h114l-458 -909l-190 376h-95v100h162z" />
    <glyph glyph-name="infinity" unicode="&#x221e;" horiz-adv-x="965" 
d="M685 25q-62 0 -115 28t-88 76q-35 -48 -87 -76t-113 -28q-104 0 -176.5 73t-72.5 175q0 103 72.5 175.5t175.5 72.5q61 0 113.5 -27.5t87.5 -75.5q35 48 88 75.5t114 27.5q104 0 176 -72.5t72 -175.5q0 -102 -72.5 -175t-174.5 -73zM281 413q-55 0 -94.5 -41t-39.5 -99
t39.5 -99t95.5 -41q61 0 102.5 40.5t41.5 99.5q0 58 -42.5 99t-102.5 41zM684 413q-59 0 -102 -41.5t-43 -98.5q0 -58 43 -99t103 -41q56 0 94.5 41t38.5 99t-39.5 99t-94.5 41z" />
    <glyph glyph-name="integral" unicode="&#x222b;" horiz-adv-x="486" 
d="M89 -87v725q0 87 65 145.5t151 58.5q115 0 187 -93l-103 -76q-34 42 -84 42q-34 0 -58.5 -23t-24.5 -54v-725q0 -87 -65 -145.5t-151 -58.5q-114 0 -188 93l103 76q35 -42 85 -42q34 0 58.5 23t24.5 54z" />
    <glyph glyph-name="approxequal" unicode="&#x2248;" horiz-adv-x="584" 
d="M164 404l-100 73q65 80 159 80q29 0 72.5 -18t64.5 -18q29 0 60 36l99 -73q-66 -85 -142 -85q-29 0 -70 20.5t-63 20.5t-38.5 -8t-41.5 -28zM164 170l-100 73q65 80 159 80q29 0 72.5 -18t64.5 -18q29 0 60 36l99 -73q-66 -85 -142 -85q-29 0 -70 20.5t-63 20.5t-38.5 -8
t-41.5 -28z" />
    <glyph glyph-name="notequal" unicode="&#x2260;" horiz-adv-x="578" 
d="M235 103h-125l34 77h-80v112h131l55 122h-186v112h237l37 84h119l-36 -84h92v-112h-142l-53 -122h195v-112h-244z" />
    <glyph glyph-name="lessequal" unicode="&#x2264;" horiz-adv-x="417" 
d="M42 449l311 266v-132l-158 -134l158 -131v-134zM353 142v-102h-317v102h317z" />
    <glyph glyph-name="greaterequal" unicode="&#x2265;" horiz-adv-x="417" 
d="M64 715l311 -266l-311 -265v134l158 131l-158 134v132zM64 40v102h317v-102h-317z" />
    <glyph glyph-name="lozenge" unicode="&#x25ca;" horiz-adv-x="682" 
d="M137 374l204 -230l206 230l-206 226zM-6 374l349 384l345 -384l-345 -383z" />
    <glyph glyph-name="smileface" unicode="&#x263a;" 
d="M425 -13q-159 0 -272 113t-113 272q0 160 112.5 273t272.5 113q161 0 273.5 -113t112.5 -273q0 -159 -113 -272t-273 -113zM425 676q-124 0 -208.5 -88t-84.5 -216q0 -126 85 -213.5t208 -87.5q124 0 210 87.5t86 213.5q0 127 -86 215.5t-210 88.5zM292 528q27 0 44 -17
t17 -42t-17.5 -42t-43.5 -17t-42.5 17t-16.5 42t17 42t42 17zM238 331h86v-4q2 -39 33 -67.5t73 -28.5q41 0 72.5 29t35.5 71h87q-5 -75 -61.5 -128.5t-133.5 -53.5q-81 0 -135.5 51.5t-56.5 126.5v4zM569 528q27 0 44 -17t17 -42t-17 -42t-44 -17q-26 0 -42.5 17t-16.5 42
t17 42t42 17z" />
    <glyph glyph-name="invsmileface" unicode="&#x263b;" 
d="M425 -13q-159 0 -272 113t-113 272q0 160 112.5 273t272.5 113q161 0 273.5 -113t112.5 -273q0 -159 -113 -272t-273 -113zM292 528q-25 0 -42 -17t-17 -42t16.5 -42t42.5 -17t43.5 17t17.5 42t-17 42t-44 17zM324 331h-86v-4q2 -75 56.5 -126.5t135.5 -51.5
q77 0 133.5 53.5t61.5 128.5h-87q-4 -42 -35.5 -71t-72.5 -29q-42 0 -73 28.5t-33 67.5v4zM569 528q-25 0 -42 -17t-17 -42t16.5 -42t42.5 -17q27 0 44 17t17 42t-17 42t-44 17z" />
    <glyph glyph-name="longs_t" unicode="&#xfb05;" horiz-adv-x="769" 
d="M565 519v-167q0 -16 4 -22t15 -9q63 -7 108 -48.5t45 -111.5q0 -73 -54.5 -122.5t-132.5 -49.5q-103 0 -172 73l117 89q26 -21 59 -21q14 0 25 9t11 25q0 26 -35 33q-59 6 -95.5 49.5t-36.5 111.5v161q0 41 -24 65t-66 24q-46 0 -74.5 -24t-28.5 -65v-519h-142v292h-58
v141h58v86q0 102 72.5 170t170.5 68q100 0 167 -67.5t67 -170.5z" />
    <glyph glyph-name="NULL" horiz-adv-x="0" 
 />
    <glyph glyph-name="CR" horiz-adv-x="421" 
 />
    <glyph glyph-name="R2" horiz-adv-x="768" 
d="M226 0h-155v745h352q131 0 220 -85.5t89 -207.5q0 -99 -44 -171t-123 -109l160 -172h-194l-248 269h101q92 0 140.5 44t48.5 127q0 72 -41.5 118.5t-117.5 46.5h-188v-605z" />
    <glyph glyph-name="A3" horiz-adv-x="811" 
d="M647 0l-242 472l-251 -472h-160l417 758l406 -758h-170zM279 133h246l-120 -134z" />
    <glyph glyph-name="mn" horiz-adv-x="1467" 
d="M468 228l-242 176v-404h-155v745h155v-153l242 -180l242 180v152h154v-104l376 -291v396h156v-745h-156v153l-376 283v-436h-154v404z" />
    <glyph glyph-name="N_N" horiz-adv-x="1357" 
d="M1131 314v431h155v-758l-530 441v-441l-530 441v-428h-155v759l530 -445v445z" />
    <glyph glyph-name="ordST" horiz-adv-x="527" 
d="M418 340h-101v309h-160q-25 0 -25 -24q0 -23 43 -26q54 -5 90.5 -38t36.5 -89q0 -60 -42 -99.5t-98 -39.5q-82 0 -140 68l82 62q29 -31 58 -31q15 0 24.5 10t9.5 24q0 30 -46 36q-55 6 -87.5 39t-32.5 83q0 51 38.5 86t85.5 35h355v-96h-91v-309zM30 152v107h467v-107
h-467z" />
    <glyph glyph-name="ordTHE" horiz-adv-x="976" 
d="M30 152v107h916v-107h-916zM946 340h-259v405h227v-96h-126v-54h146v-94h-146v-66h158v-95zM201 340h-101v309h-82v96h390v-150h132v150h101v-405h-101v161h-132v-161h-101v309h-106v-309z" />
    <glyph glyph-name="ordND" horiz-adv-x="854" 
d="M30 152v107h794v-107h-794zM302 537v208h102v-410l-272 213v-208h-102v412zM458 745h167q87 0 148 -58.5t61 -144.5t-61 -144t-148 -58h-167v405zM559 435h66q43 0 74 30.5t31 74.5q0 47 -31 78t-74 31h-66v-214z" />
    <glyph glyph-name="ordRD" horiz-adv-x="785" 
d="M156 407h-25v-67h-101v405h143q73 0 122.5 -47t49.5 -115q0 -48 -22 -86.5t-59 -60.5l93 -96h-139zM131 502h21q41 0 63.5 19.5t22.5 55.5q0 32 -18 52t-52 20h-37v-147zM30 152v107h725v-107h-725zM389 745h167q87 0 148 -58.5t61 -144.5t-61 -144t-148 -58h-167v405z
M490 435h66q43 0 74 30.5t31 74.5q0 47 -31 78t-74 31h-66v-214z" />
    <glyph glyph-name="ordTH" horiz-adv-x="671" 
d="M30 152v107h611v-107h-611zM201 340h-101v309h-82v96h390v-150h132v150h101v-405h-101v161h-132v-161h-101v309h-106v-309z" />
    <glyph glyph-name="ST" horiz-adv-x="995" 
d="M802 0h-154v605h-399q-31 0 -49.5 -18.5t-18.5 -50.5q0 -29 24.5 -50.5t79.5 -24.5q99 -6 165.5 -66.5t66.5 -158.5q0 -106 -75.5 -177.5t-176.5 -71.5q-142 0 -241 109l128 94q43 -54 113 -54q39 0 66.5 26.5t27.5 62.5q0 39 -29.5 63t-85.5 30q-101 11 -161.5 67.5
t-60.5 144.5q0 90 71 152.5t156 62.5h727v-140h-174v-605z" />
    <glyph glyph-name="TH" horiz-adv-x="1288" 
d="M369 0h-154v605h-196v140h701v-279h343v279h154v-745h-154v326h-343v-326h-154v605h-197v-605z" />
    <glyph glyph-name="TT" horiz-adv-x="1017" 
d="M357 0h-155v605h-183v140h979v-140h-185v-605h-154v605h-302v-605z" />
    <glyph glyph-name="OO" horiz-adv-x="1213" 
d="M800 -13q-98 0 -188 48q-88 -48 -186 -48q-160 0 -273 113t-113 273t112.5 272.5t272.5 112.5q100 0 187 -48q85 48 187 48q160 0 273 -112.5t113 -272.5t-112.5 -273t-272.5 -113zM425 610q-95 0 -160.5 -69t-65.5 -168q0 -100 65.5 -168.5t161.5 -68.5q32 0 62 9
q-74 99 -74 228q0 126 74 227q-33 10 -63 10zM799 610q-30 0 -63 -10q75 -101 75 -227q0 -127 -75 -228q32 -9 64 -9q95 0 160.5 68.5t65.5 168.5q0 98 -66.5 167.5t-160.5 69.5zM652 373q0 69 -40 134q-39 -61 -39 -134q0 -77 39 -135q40 62 40 135z" />
    <glyph glyph-name="LTD" horiz-adv-x="1601" 
d="M687 0h-616v745h155v-605h307v465h-195v140h834q162 0 275.5 -107t113.5 -265q0 -159 -113 -266t-275 -107h-303v605h-183v-605zM1024 140h149q97 0 163 66.5t66 166.5q0 101 -66 166.5t-164 65.5h-148v-465z" />
    <glyph glyph-name="ordLTD" horiz-adv-x="887" 
d="M190 745h468q87 0 148 -58.5t61 -144.5t-61 -144t-148 -58h-167v309h-106v-309h-101v309h-94v96zM30 152v107h827v-107h-827zM30 745h101v-310h107v-95h-208v405zM592 435h66q43 0 74 30.5t31 74.5q0 47 -31 78t-74 31h-66v-214z" />
    <glyph glyph-name="ordOF" horiz-adv-x="755" 
d="M30 152v107h695v-107h-695zM228 333q-86 0 -147 61.5t-61 147.5q0 87 61 148.5t147 61.5q88 0 149.5 -61t61.5 -149q0 -86 -61.5 -147.5t-149.5 -61.5zM231 652q-42 0 -73 -32.5t-31 -77.5q0 -44 31.5 -77t72.5 -33q42 0 72.5 32.5t30.5 77.5q0 46 -30.5 78t-72.5 32z
M588 340h-101v405h227v-96h-126v-54h147v-94h-147v-161z" />
    <glyph glyph-name="ordAT" horiz-adv-x="710" 
d="M351 340l-26 51h-162l-24 -51h-109l218 413l216 -413h-113zM244 556l-35 -70h69zM30 152v107h650v-107h-650zM598 340h-101v309h-92v96h288v-96h-95v-309z" />
    <glyph glyph-name="ordAND" horiz-adv-x="1308" 
d="M351 340l-26 51h-162l-24 -51h-109l218 413l216 -413h-113zM244 556l-35 -70h69zM755 537v208h103v-410l-272 213v-208h-102v412zM30 152v107h1248v-107h-1248zM912 745h167q87 0 148 -58.5t61 -144.5t-61 -144t-148 -58h-167v405zM1012 435h67q43 0 74 30.5t31 74.5
q0 47 -31 78t-74 31h-67v-214z" />
    <glyph glyph-name="ordBY" horiz-adv-x="730" 
d="M176 340h-146v405h135q132 0 132 -112q0 -43 -20 -63q46 -41 46 -96q0 -62 -43.5 -98t-103.5 -36zM133 435h46q38 0 38 37q0 17 -10.5 27t-27.5 10h-46v-74zM133 605h34q26 0 26 22t-26 22h-34v-44zM511 567l103 178h110l-166 -275v-130h-102v122l-170 283h118zM30 152
v107h670v-107h-670z" />
    <glyph glyph-name="ordFROM" horiz-adv-x="1571" 
d="M440 407h-26v-67h-101v405h143q73 0 122.5 -47t49.5 -115q0 -48 -22 -86.5t-59 -60.5q58 -63 93 -96h-138zM414 502h23q40 0 62 19.5t22 55.5q0 32 -18 52t-52 20h-37v-147zM30 152v107h1511v-107h-1511zM1326 590l215 162v-412h-101v209l-114 -81l-112 81v-209h-104v412
zM860 333q-86 0 -147.5 61.5t-61.5 147.5q0 88 61.5 149t147.5 61q88 0 149 -61t61 -149q0 -86 -61 -147.5t-149 -61.5zM862 652q-42 0 -73 -32.5t-31 -77.5q0 -44 31.5 -77t72.5 -33q42 0 72.5 32.5t30.5 77.5q0 46 -30.5 78t-72.5 32zM131 340h-101v405h227v-96h-126v-54
h147v-94h-147v-161z" />
    <glyph glyph-name="ordFOR" horiz-adv-x="1097" 
d="M878 407h-25v-67h-101v405h143q73 0 122.5 -47t49.5 -115q0 -48 -22 -86.5t-59 -60.5l92 -96h-138zM853 502h23q40 0 62 19.5t22 55.5q0 32 -18 52t-52 20h-37v-147zM30 152v107h1037v-107h-1037zM511 333q-86 0 -147 61.5t-61 147.5q0 88 61 149t147 61q88 0 149.5 -61
t61.5 -149q0 -86 -61.5 -147.5t-149.5 -61.5zM513 652q-42 0 -73 -32.5t-31 -77.5q0 -44 31.5 -77t72.5 -33q43 0 73 32.5t30 77.5q0 46 -30.5 78t-72.5 32zM131 340h-101v405h227v-96h-126v-54h147v-94h-147v-161z" />
    <glyph glyph-name="ordBUT" horiz-adv-x="1036" 
d="M176 340h-146v405h135q132 0 132 -112q0 -43 -20 -63q46 -41 46 -96q0 -62 -43.5 -98t-103.5 -36zM131 435h48q38 0 38 37q0 17 -10.5 27t-27.5 10h-48v-74zM131 605h36q26 0 26 22t-26 22h-36v-44zM532 333q-87 0 -132.5 53.5t-45.5 142.5v216h103v-231q0 -82 75 -82
q73 0 73 82v231h101v-223q0 -89 -46 -139t-128 -50zM30 152v107h976v-107h-976zM922 340h-101v309h-92v96h288v-96h-95v-309z" />
    <glyph glyph-name="ordDE" horiz-adv-x="738" 
d="M30 152v107h678v-107h-678zM30 745h167q87 0 148 -58.5t61 -144.5t-61 -144t-148 -58h-167v405zM131 435h66q43 0 74 30.5t31 74.5q0 47 -31 78t-74 31h-66v-214zM708 340h-259v405h227v-96h-126v-54h146v-94h-146v-66h158v-95z" />
    <glyph glyph-name="ordY" horiz-adv-x="450" 
d="M231 567l103 178h110l-166 -275v-130h-102v122l-170 283h118zM30 152v107h390v-107h-390z" />
    <glyph glyph-name="ordVS" horiz-adv-x="721" 
d="M30 152v107h661v-107h-661zM233 535l102 210h110l-215 -412l-224 412h118zM549 508q-55 8 -87.5 40.5t-32.5 82.5t38.5 85.5t84.5 35.5q79 0 120 -65l-77 -53q-15 21 -37 21q-27 0 -27 -23q0 -25 42 -26q56 -2 92 -38.5t36 -95.5q0 -60 -42 -99.5t-98 -39.5
q-82 0 -140 68l82 62q28 -31 58 -31q14 0 24 10t10 24q0 36 -46 42z" />
    <glyph glyph-name="ordIN" horiz-adv-x="597" 
d="M30 152v107h537v-107h-537zM464 537v208h103v-410l-272 213v-208h-102v412zM30 340v405h101v-405h-101z" />
    <glyph glyph-name="ordON" horiz-adv-x="882" 
d="M30 152v107h822v-107h-822zM749 537v208h103v-410l-273 213v-208h-101v412zM228 333q-86 0 -147 61.5t-61 147.5q0 87 61 148.5t147 61.5q88 0 149.5 -61t61.5 -149q0 -86 -61.5 -147.5t-149.5 -61.5zM231 652q-42 0 -73 -32.5t-31 -77.5q0 -44 31.5 -77t72.5 -33
q42 0 72.5 32.5t30.5 77.5q0 46 -30.5 78t-72.5 32z" />
    <glyph glyph-name="apostrof_s" horiz-adv-x="503" 
d="M343 508q-58 8 -92 40.5t-34 82.5t40.5 85.5t88.5 35.5q73 0 123 -63l-80 -55q-15 21 -37 21q-27 0 -27 -23q0 -25 42 -26q56 -2 92 -38.5t36 -95.5q0 -60 -42 -99.5t-97 -39.5q-87 0 -141 68l82 62q27 -31 56 -31q16 0 26 10t10 24q0 36 -46 42zM115 531h-86v227h156z
" />
    <glyph glyph-name="zero.denominator" horiz-adv-x="547" 
d="M275 -8q-104 0 -176.5 73t-72.5 175q0 104 72 176t176 72t176 -72t72 -176q0 -102 -72.5 -175t-174.5 -73zM274 380q-55 0 -94.5 -41t-39.5 -99t39.5 -98.5t95.5 -40.5q55 0 93.5 40.5t38.5 98.5t-39 99t-94 41z" />
    <glyph glyph-name="one.denominator" horiz-adv-x="226" 
d="M186 480v-480h-111v377h-56v103h167z" />
    <glyph glyph-name="two.denominator" horiz-adv-x="345" 
d="M330 0h-322l131 212q-47 9 -79 45.5t-32 87.5q0 57 41 100t99 43q60 0 101.5 -41.5t41.5 -101.5q0 -43 -22 -78l-101 -164h142v-103zM134 344q0 -15 11 -26t26 -11t26 11t11 26t-11 26t-26 11t-26 -11t-11 -26z" />
    <glyph glyph-name="three.denominator" horiz-adv-x="361" 
d="M55 480h277l-88 -168q43 -21 67.5 -60t24.5 -87q0 -73 -49.5 -123t-120.5 -50q-40 0 -78.5 22t-65.5 59l91 66q29 -36 53 -36q22 0 38 16.5t16 40.5q0 25 -16 40.5t-38 15.5h-82l83 161h-112v103z" />
    <glyph glyph-name="four.denominator" horiz-adv-x="372" 
d="M306 257v-44h61v-103h-61v-110h-108v110h-197l160 370h120l-116 -267h33v44h108z" />
    <glyph glyph-name="five.denominator" horiz-adv-x="359" 
d="M58 480h226v-103h-122v-49h5q77 0 123.5 -44t46.5 -117q0 -75 -51 -125t-126 -50q-40 0 -77.5 21t-63.5 57l90 68q23 -35 51 -35q27 0 44.5 15t17.5 42q0 56 -55 56h-109v264z" />
    <glyph glyph-name="six.denominator" horiz-adv-x="385" 
d="M184 480h122l-86 -155q63 -7 103 -53.5t40 -111.5q0 -70 -49 -119t-120 -49q-70 0 -119 49t-49 119q0 41 26 89zM194 216q-22 0 -38 -16t-16 -40q0 -23 16 -40t38 -17t37.5 17t15.5 40q0 24 -15.5 40t-37.5 16z" />
    <glyph glyph-name="seven.denominator" horiz-adv-x="343" 
d="M21 480h342l-245 -480h-120l190 377h-167v103z" />
    <glyph glyph-name="eight.denominator" horiz-adv-x="387" 
d="M193 -8q-70 0 -118.5 49t-48.5 119q0 62 45 115q-20 31 -20 70q0 60 41.5 101.5t100.5 41.5q60 0 102 -41.5t42 -101.5q0 -39 -20 -70q44 -50 44 -115q0 -70 -48.5 -119t-119.5 -49zM193 216q-22 0 -37.5 -16t-15.5 -40q0 -23 15.5 -40t37.5 -17t38 17t16 40
q0 24 -15.5 40t-38.5 16zM193 379q-12 0 -22 -10t-10 -24q0 -15 9.5 -24.5t22.5 -9.5q14 0 23.5 9.5t9.5 24.5q0 14 -10 24t-23 10z" />
    <glyph glyph-name="nine.denominator" horiz-adv-x="385" 
d="M201 0h-120l86 153q-63 9 -104 55.5t-41 110.5q0 71 49 120t121 49q69 0 118 -49.5t49 -119.5q0 -46 -21 -81zM192 263q21 0 36.5 16t15.5 40t-15.5 41t-36.5 17q-23 0 -38.5 -16.5t-15.5 -41.5q0 -24 15.5 -40t38.5 -16z" />
    <glyph glyph-name="zero.numerator" horiz-adv-x="547" 
d="M275 257q-104 0 -176.5 73t-72.5 175q0 103 72 175.5t176 72.5t176 -72.5t72 -175.5q0 -102 -72.5 -175t-174.5 -73zM274 646q-55 0 -94.5 -41.5t-39.5 -99.5t39.5 -98.5t95.5 -40.5q55 0 93.5 40.5t38.5 98.5t-39 99.5t-94 41.5z" />
    <glyph glyph-name="one.numerator" horiz-adv-x="226" 
d="M186 745v-479h-111v376h-56v103h167z" />
    <glyph glyph-name="two.numerator" horiz-adv-x="345" 
d="M330 266h-322l131 212q-47 9 -79 45.5t-32 87.5q0 57 41 100t99 43q60 0 101.5 -41.5t41.5 -101.5q0 -43 -22 -78l-101 -164h142v-103zM134 610q0 -15 11 -26t26 -11t26 11t11 26t-11 26t-26 11t-26 -11t-11 -26z" />
    <glyph glyph-name="three.numerator" horiz-adv-x="361" 
d="M55 745h277l-88 -167q43 -21 67.5 -60t24.5 -87q0 -74 -49 -124t-121 -50q-40 0 -78.5 22t-65.5 59l91 67q29 -36 53 -36q22 0 38 16.5t16 40.5q0 25 -16 40.5t-38 15.5h-82l83 160h-112v103z" />
    <glyph glyph-name="four.numerator" horiz-adv-x="372" 
d="M306 523v-44h61v-103h-61v-110h-108v110h-197l160 369h120l-116 -266h33v44h108z" />
    <glyph glyph-name="five.numerator" horiz-adv-x="359" 
d="M58 745h226v-103h-122v-49h5q77 0 123.5 -43.5t46.5 -116.5q0 -76 -51 -126t-126 -50q-83 0 -141 79l90 68q23 -35 51 -35q27 0 44.5 15t17.5 42q0 56 -55 56h-109v263z" />
    <glyph glyph-name="six.numerator" horiz-adv-x="385" 
d="M184 745h122l-86 -154q63 -7 103 -54t40 -111q0 -71 -49 -120t-120 -49q-70 0 -119 49t-49 120q0 44 26 89zM194 482q-22 0 -38 -16t-16 -40t16 -40.5t38 -16.5t37.5 16.5t15.5 40.5t-15.5 40t-37.5 16z" />
    <glyph glyph-name="seven.numerator" horiz-adv-x="343" 
d="M21 745h342l-245 -479h-120l190 376h-167v103z" />
    <glyph glyph-name="eight.numerator" horiz-adv-x="387" 
d="M193 257q-70 0 -118.5 49t-48.5 120q0 62 45 115q-20 29 -20 70q0 59 41.5 100.5t100.5 41.5t101.5 -41.5t42.5 -100.5q0 -41 -20 -70q44 -50 44 -115q0 -71 -48.5 -120t-119.5 -49zM193 482q-22 0 -37.5 -16.5t-15.5 -39.5q0 -24 15.5 -40.5t37.5 -16.5q23 0 38.5 16.5
t15.5 40.5q0 23 -16 39.5t-38 16.5zM193 645q-12 0 -22 -10.5t-10 -23.5q0 -15 9.5 -24.5t22.5 -9.5q14 0 23.5 9.5t9.5 24.5q0 13 -10 23.5t-23 10.5z" />
    <glyph glyph-name="nine.numerator" horiz-adv-x="385" 
d="M201 266h-120l86 153q-63 9 -104 55.5t-41 110.5q0 71 49 119.5t121 48.5q69 0 118 -49t49 -119q0 -46 -21 -82zM192 529q21 0 36.5 16t15.5 40t-15.5 40.5t-36.5 16.5q-23 0 -38.5 -16t-15.5 -41t15.5 -40.5t38.5 -15.5z" />
    <glyph glyph-name="scalt.A" horiz-adv-x="422" 
d="M314 340l-26 51h-161l-25 -51h-108l217 419l217 -419h-114zM208 556l-35 -70h69z" />
    <glyph glyph-name="scalt.B" horiz-adv-x="356" 
d="M184 340h-146v405h134q132 0 132 -112q0 -42 -19 -63q45 -40 45 -96q0 -62 -43 -98t-103 -36zM139 432h51q43 0 43 40q0 41 -43 41h-51v-81zM139 605h39q28 0 28 24t-28 24h-39v-48z" />
    <glyph glyph-name="scalt.C" horiz-adv-x="465" 
d="M337 517h107q-12 -79 -69.5 -131.5t-140.5 -52.5q-87 0 -147.5 61t-60.5 148q0 86 61 148t147 62q53 0 101.5 -27t77.5 -73l-82 -59q-23 33 -45 46t-52 13q-43 0 -73.5 -32.5t-30.5 -77.5t30.5 -77.5t73.5 -32.5q35 0 64 24.5t39 60.5z" />
    <glyph glyph-name="scalt.D" horiz-adv-x="440" 
d="M38 745h167q87 0 148 -58.5t61 -144.5t-61 -144t-148 -58h-167v405zM139 435h66q43 0 74 30.5t31 74.5q0 47 -31 78t-74 31h-66v-214z" />
    <glyph glyph-name="scalt.E" horiz-adv-x="330" 
d="M297 340h-259v405h227v-96h-126v-54h146v-94h-146v-66h158v-95z" />
    <glyph glyph-name="scalt.F" horiz-adv-x="308" 
d="M139 340h-101v405h227v-96h-126v-54h147v-94h-147v-161z" />
    <glyph glyph-name="scalt.G" horiz-adv-x="471" 
d="M323 476h-98v85h220v-14q0 -89 -61.5 -151.5t-150.5 -62.5q-87 0 -147 60.5t-60 147.5t60 149t147 62q55 0 102.5 -26.5t76.5 -73.5l-82 -59q-37 59 -97 59q-45 0 -74.5 -32t-29.5 -79q0 -45 30 -77t74 -32q69 0 90 44z" />
    <glyph glyph-name="scalt.H" horiz-adv-x="410" 
d="M38 745h101v-150h132v150h101v-405h-101v161h-132v-161h-101v405z" />
    <glyph glyph-name="scalt.I" horiz-adv-x="177" 
d="M139 745v-405h-101v405h101z" />
    <glyph glyph-name="scalt.J" horiz-adv-x="369" 
d="M162 745h171v-222q0 -79 -48.5 -134.5t-129.5 -55.5q-65 0 -110.5 35.5t-61.5 107.5l95 29q19 -73 77 -73q37 0 57 27t20 64v126h-70v96z" />
    <glyph glyph-name="scalt.K" horiz-adv-x="442" 
d="M139 745v-165l164 165h139l-199 -200l205 -205h-139l-141 140l-29 -33v-107h-101v405h101z" />
    <glyph glyph-name="scalt.L" horiz-adv-x="310" 
d="M38 745h101v-310h156v-95h-257v405z" />
    <glyph glyph-name="scalt.M" horiz-adv-x="506" 
d="M254 590l214 162v-412h-101v209l-113 -81l-115 81v-209h-101v412z" />
    <glyph glyph-name="scalt.N" horiz-adv-x="450" 
d="M311 537v208h101v-410l-273 213v-208h-101v412z" />
    <glyph glyph-name="scalt.Ntilde" horiz-adv-x="450" 
d="M309 537v208h103v-410l-273 213v-208h-101v412zM143 753l-68 50q44 55 98 55q11 0 45 -12q10 -6 26 -6q10 0 29 21l68 -49q-44 -57 -88 -57q-19 0 -43 11q-22 9 -27 9q-14 0 -40 -22z" />
    <glyph glyph-name="scalt.O" horiz-adv-x="470" 
d="M234 333q-86 0 -147 61.5t-61 147.5q0 88 61 149t147 61q88 0 149 -61t61 -149q0 -86 -61 -147.5t-149 -61.5zM236 652q-42 0 -73 -32.5t-31 -77.5q0 -44 31.5 -77t72.5 -33q43 0 73 32.5t30 77.5q0 46 -30.5 78t-72.5 32z" />
    <glyph glyph-name="scalt.P" horiz-adv-x="377" 
d="M139 340h-101v405h145q73 0 122.5 -50.5t49.5 -115.5q0 -79 -50 -130.5t-128 -51.5h-38v-57zM139 491h37q35 0 55 23.5t20 56.5q0 31 -19.5 54.5t-52.5 23.5h-40v-158z" />
    <glyph glyph-name="scalt.Q" horiz-adv-x="470" 
d="M137 264l48 76q-70 17 -114.5 73.5t-44.5 128.5q0 85 62 147.5t147 62.5q88 0 148.5 -62t60.5 -148q0 -56 -26.5 -103.5t-72.5 -75.5h58v-99h-266zM236 652q-42 0 -73 -32.5t-31 -77.5q0 -44 31.5 -77t72.5 -33q43 0 73 32.5t30 77.5q0 46 -30.5 78t-72.5 32z" />
    <glyph glyph-name="scalt.R" horiz-adv-x="386" 
d="M164 407h-25v-67h-101v405h142q74 0 123 -46.5t49 -115.5q0 -48 -21.5 -87t-58.5 -60l92 -96h-138zM139 502h23q40 0 62 19.5t22 55.5q0 32 -18 52t-52 20h-37v-147z" />
    <glyph glyph-name="scalt.S" horiz-adv-x="310" 
d="M140 508q-55 8 -87.5 40.5t-32.5 82.5t38.5 85.5t84.5 35.5q79 0 120 -65l-77 -53q-15 21 -37 21q-27 0 -27 -23q0 -25 42 -26q56 -2 92 -38.5t36 -95.5q0 -60 -42 -99.5t-98 -39.5q-82 0 -140 68l82 62q28 -31 58 -31q14 0 24 10t10 24q0 36 -46 42z" />
    <glyph glyph-name="scalt.T" horiz-adv-x="304" 
d="M201 340h-101v309h-92v96h288v-96h-95v-309z" />
    <glyph glyph-name="scalt.U" horiz-adv-x="424" 
d="M213 333q-86 0 -131.5 53.5t-45.5 142.5v216h101v-231q0 -82 76 -82q74 0 74 82v231h101v-223q0 -88 -46.5 -138.5t-128.5 -50.5z" />
    <glyph glyph-name="scalt.V" horiz-adv-x="427" 
d="M221 535l102 210h110l-216 -412l-223 412h118z" />
    <glyph glyph-name="scalt.W" horiz-adv-x="589" 
d="M384 535l103 210h108l-214 -412l-84 144l-80 -144l-223 412h119l108 -211l23 43l-87 168h117z" />
    <glyph glyph-name="scalt.X" horiz-adv-x="389" 
d="M126 546l-128 199h115l78 -120l74 120h112l-126 -190l141 -215h-116l-84 132l-85 -132h-109z" />
    <glyph glyph-name="scalt.Y" horiz-adv-x="426" 
d="M219 567l103 178h110l-167 -275v-130h-101v122l-170 283h118z" />
    <glyph glyph-name="scalt.Z" horiz-adv-x="380" 
d="M177 435h196v-95h-372l199 309h-172v96h347z" />
    <glyph glyph-name="sc.A" horiz-adv-x="530" 
d="M392 0l-32 62h-198l-30 -62h-134l267 516l267 -516h-140zM262 266l-43 -87h84z" />
    <glyph glyph-name="sc.B" horiz-adv-x="437" 
d="M229 0h-182v505h168q77 0 121 -34t44 -106q0 -55 -26 -78q58 -51 58 -121q0 -76 -54 -121t-129 -45zM174 119h58q22 0 35.5 12.5t13.5 33.5q0 22 -13.5 34.5t-35.5 12.5h-58v-93zM174 331h43q32 0 32 28q0 27 -32 27h-43v-55z" />
    <glyph glyph-name="sc.C" horiz-adv-x="568" 
d="M414 222h133q-15 -98 -86.5 -163.5t-174.5 -65.5q-109 0 -184.5 76t-75.5 184t75.5 185.5t183.5 77.5q67 0 126.5 -33.5t96.5 -91.5l-102 -73q-28 41 -55.5 57t-64.5 16q-55 0 -93.5 -40t-38.5 -98q0 -56 38.5 -96.5t93.5 -40.5q43 0 79 30t49 76z" />
    <glyph glyph-name="sc.D" horiz-adv-x="543" 
d="M47 505h209q108 0 184.5 -73.5t76.5 -179.5q0 -108 -76 -180t-185 -72h-209v505zM174 119h82q54 0 92.5 37.5t38.5 94.5q0 58 -38.5 96.5t-92.5 38.5h-82v-267z" />
    <glyph glyph-name="sc.E" horiz-adv-x="403" 
d="M371 0h-324v505h282v-119h-155v-67h179v-117h-179v-83h197v-119z" />
    <glyph glyph-name="sc.F" horiz-adv-x="378" 
d="M174 0h-127v505h282v-119h-155v-67h182v-117h-182v-202z" />
    <glyph glyph-name="sc.G" horiz-adv-x="574" 
d="M397 171h-123v107h275v-18q0 -112 -76.5 -189.5t-187.5 -77.5q-109 0 -184 76t-75 184q0 109 75 186t184 77q67 0 126.5 -33.5t96.5 -91.5l-102 -73q-46 73 -121 73q-56 0 -93.5 -40t-37.5 -98q0 -56 37.5 -96.5t93.5 -40.5q85 0 112 55z" />
    <glyph glyph-name="sc.H" horiz-adv-x="511" 
d="M47 505h127v-186h163v186h127v-505h-127v202h-163v-202h-127v505z" />
    <glyph glyph-name="sc.I" horiz-adv-x="221" 
d="M174 505v-505h-127v505h127z" />
    <glyph glyph-name="sc.J" horiz-adv-x="457" 
d="M206 505h212v-277q0 -98 -61 -166.5t-161 -68.5q-81 0 -137.5 44t-75.5 133l119 36q22 -91 94 -91q45 0 70 33.5t25 79.5v158h-85v119z" />
    <glyph glyph-name="sc.K" horiz-adv-x="554" 
d="M174 505v-205l204 205h175l-248 -249l255 -256h-173l-177 173l-36 -41v-132h-127v505h127z" />
    <glyph glyph-name="sc.L" horiz-adv-x="387" 
d="M47 505h127v-386h194v-119h-321v505z" />
    <glyph glyph-name="sc.M" horiz-adv-x="633" 
d="M318 312l268 204v-516h-127v261l-141 -101l-144 101v-261h-127v516z" />
    <glyph glyph-name="sc.N" horiz-adv-x="560" 
d="M386 246v259h127v-512l-339 266v-259h-127v514z" />
    <glyph glyph-name="sc.Ntilde" horiz-adv-x="560" 
d="M178 515l-85 61q52 69 122 69q15 0 43.5 -11.5t44.5 -11.5q11 0 36 27l84 -62q-53 -70 -108 -70q-16 0 -44.5 12.5t-43.5 12.5q-16 0 -49 -27zM386 246v259h127v-512l-339 266v-259h-127v514z" />
    <glyph glyph-name="sc.O" horiz-adv-x="575" 
d="M285 -7q-107 0 -183 76.5t-76 183.5q0 109 76 186t183 77q110 0 187 -76.5t77 -186.5q0 -108 -77 -184t-187 -76zM285 391q-52 0 -91.5 -40.5t-39.5 -97.5q0 -54 40 -95.5t91 -41.5q55 0 92.5 40.5t37.5 96.5q0 58 -37.5 98t-92.5 40z" />
    <glyph glyph-name="sc.P" horiz-adv-x="463" 
d="M174 0h-127v505h180q91 0 152.5 -63t61.5 -144q0 -99 -62 -163t-159 -64h-46v-71zM174 190h45q43 0 68 28.5t25 70.5q0 37 -24.5 67t-64.5 30h-49v-196z" />
    <glyph glyph-name="sc.Q" horiz-adv-x="559" 
d="M160 -76l59 92q-84 20 -138.5 88.5t-54.5 156.5q0 103 75.5 179t177.5 76q107 0 180.5 -75t73.5 -180q0 -68 -32.5 -125.5t-87.5 -92.5h71v-119h-324zM279 394q-53 0 -89.5 -38.5t-36.5 -94.5q0 -55 37 -94t91 -39q53 0 90.5 39t37.5 94q0 56 -38 94.5t-92 38.5z" />
    <glyph glyph-name="sc.R" horiz-adv-x="479" 
d="M205 83h-31v-83h-127v505h177q92 0 154 -58.5t62 -144.5q0 -59 -27.5 -107.5t-73.5 -75.5l115 -119h-172zM174 201h27q51 0 78 24.5t27 69.5q0 39 -22.5 65t-64.5 26h-45v-185z" />
    <glyph glyph-name="sc.S" horiz-adv-x="393" 
d="M181 211q-66 9 -105.5 50t-39.5 103q0 63 47.5 107.5t102.5 44.5q96 0 150 -80l-100 -71q-21 26 -47 26q-30 0 -30 -26q0 -30 53 -33q69 -4 114 -48t45 -119t-52 -123.5t-127 -48.5q-110 0 -170 84l102 79q29 -40 65 -40q20 0 34 12.5t14 29.5q0 45 -56 53z" />
    <glyph glyph-name="sc.T" horiz-adv-x="375" 
d="M252 0h-127v386h-117v119h359v-119h-115v-386z" />
    <glyph glyph-name="sc.U" horiz-adv-x="518" 
d="M261 -7q-108 0 -164.5 66.5t-56.5 176.5v269h127v-287q0 -50 24 -76t70 -26q90 0 90 102v287h127v-278q0 -109 -58 -171.5t-159 -62.5z" />
    <glyph glyph-name="sc.V" horiz-adv-x="534" 
d="M276 243l127 262h137l-268 -512l-278 512h147z" />
    <glyph glyph-name="sc.W" horiz-adv-x="737" 
d="M478 243l129 262h136l-267 -512l-105 179l-99 -179l-278 512h149l133 -263l29 54l-109 209h145z" />
    <glyph glyph-name="sc.X" horiz-adv-x="488" 
d="M158 257l-160 248h145l96 -150l93 150h139l-156 -238l175 -267h-145l-105 164l-106 -164h-136z" />
    <glyph glyph-name="sc.Y" horiz-adv-x="534" 
d="M275 283l128 222h137l-207 -342v-163h-127v152l-212 353h147z" />
    <glyph glyph-name="sc.Z" horiz-adv-x="474" 
d="M219 119h247v-119h-465l250 386h-216v119h434z" />
    <glyph glyph-name="H_D" horiz-adv-x="1300" 
d="M71 745h155v-279h342v279h302q163 0 276.5 -107t113.5 -265q0 -159 -113 -266t-276 -107h-303v326h-342v-326h-155v745zM723 140h148q97 0 163.5 66.5t66.5 166.5t-66.5 166t-164.5 66h-147v-465z" />
    <glyph glyph-name="N_H" horiz-adv-x="1324" 
d="M601 314v431h155v-279h342v279h155v-745h-155v326h-342v-339l-530 441v-428h-155v759z" />
    <glyph glyph-name="N_M" horiz-adv-x="1465" 
d="M998 457l396 301v-758h-154v449l-242 -175l-242 175v-462l-530 441v-428h-155v759l530 -445v444z" />
    <glyph glyph-name="H_H" horiz-adv-x="1291" 
d="M71 745h155v-279h342v279h155v-279h342v279h155v-745h-155v326h-342v-326h-155v326h-342v-326h-155v745z" />
    <glyph glyph-name="N_K" horiz-adv-x="1321" 
d="M756 745v-352l352 352h207l-366 -366l378 -379h-209l-279 280l-83 -83v-210l-530 441v-428h-155v759l530 -445v431h155z" />
    <glyph glyph-name="N_R" horiz-adv-x="1204" 
d="M833 129h-77v-142l-530 441v-428h-155v759l530 -445v431h258q131 0 220 -85.5t89 -207.5q0 -99 -44.5 -171t-123.5 -109l160 -172h-205zM756 269h63q92 0 140.5 44t48.5 127q0 72 -41.5 118.5t-117.5 46.5h-93v-336z" />
    <glyph glyph-name="A_A" horiz-adv-x="422" 
d="M315 0l-26 50h-162l-24 -50h-109l202 391h-69l-24 -51h-109l218 419l216 -419h-113l-26 51h-63l202 -391h-113zM208 215l-35 -70h69zM208 556l-35 -70h69z" />
    <glyph glyph-name="ordEN" horiz-adv-x="740" 
d="M30 152v107h680v-107h-680zM607 537v208h103v-410l-273 213v-208h-102v412zM289 340h-259v405h227v-96h-126v-54h146v-94h-146v-66h158v-95z" />
    <glyph glyph-name="seventyfour" horiz-adv-x="807" 
d="M44 745h508l-379 -745h-154l311 614h-286v131zM684 204v-73h100v-131h-100v-179h-140v179h-310l285 566h148l-217 -435h94v73h140z" />
    <glyph glyph-name="seventysix" horiz-adv-x="833" 
d="M522 567h154l-119 -246q104 -5 175.5 -79.5t71.5 -178.5q0 -105 -75 -179.5t-183 -74.5q-104 0 -179 75t-75 179q0 60 40 138zM546 175q-44 0 -74 -31.5t-30 -80.5q0 -44 30.5 -77t73.5 -33q45 0 76 32.5t31 77.5q0 50 -30.5 81t-76.5 31zM44 745h508l-379 -745h-154
l311 614h-286v131z" />
    <glyph glyph-name="ninetysix" horiz-adv-x="974" 
d="M298 0h-152l139 247q-105 2 -177 77t-72 180t75 179.5t183 74.5q104 0 178.5 -75t74.5 -179q0 -66 -27 -113zM294 392q44 0 74 31.5t30 80.5q0 45 -30.5 77.5t-73.5 32.5q-45 0 -76 -32.5t-31 -77.5q0 -49 30.5 -80.5t76.5 -31.5zM683 569h155l-140 -247
q104 -5 175.5 -79t71.5 -179t-75 -179.5t-182 -74.5q-104 0 -179 75t-75 179q0 71 40 138zM688 177q-44 0 -74 -31.5t-30 -81.5q0 -45 30.5 -77.5t73.5 -32.5q45 0 75.5 32.5t30.5 77.5q0 50 -30.5 81.5t-75.5 31.5z" />
    <glyph glyph-name="sixtynine" horiz-adv-x="1001" 
d="M743 0h-152l139 247q-105 2 -177 77t-72 180t75 179.5t182 74.5q104 0 179 -75t75 -179q0 -66 -27 -113zM738 392q44 0 74 31.5t30 80.5q0 45 -30.5 77.5t-73.5 32.5q-45 0 -75.5 -32t-30.5 -78q0 -49 30.5 -80.5t75.5 -31.5zM285 569h155l-139 -247q104 -5 175 -79
t71 -179t-75 -179.5t-182 -74.5q-104 0 -179 75t-75 179q0 68 40 138zM290 177q-44 0 -74 -32t-30 -81q0 -44 30.5 -77t73.5 -33q45 0 75.5 32.5t30.5 77.5q0 50 -30 81.5t-76 31.5z" />
    <glyph glyph-name="H_N" horiz-adv-x="1324" 
d="M1098 314v431h155v-758l-530 441v-428h-155v326h-342v-326h-155v745h155v-279h342v293z" />
    <glyph glyph-name="ordLA" horiz-adv-x="716" 
d="M573 340l-26 51h-161l-25 -51h-109l218 413l216 -413h-113zM467 556l-36 -70h69zM30 152v107h656v-107h-656zM30 745h104v-310h104v-95h-208v405z" />
    <glyph glyph-name="ordEL" horiz-adv-x="573" 
d="M30 152v107h513v-107h-513zM334 745h104v-310h105v-95h-209v405zM289 340h-259v405h227v-96h-126v-54h146v-94h-146v-66h158v-95z" />
    <glyph glyph-name="ordPOR" horiz-adv-x="1165" 
d="M946 407h-23v-67h-103v405h143q73 0 122.5 -47t49.5 -115q0 -48 -22 -86.5t-59 -60.5l92 -96h-138zM923 502h21q40 0 62 19.5t22 55.5q0 32 -18 52t-52 20h-35v-147zM30 152v107h1105v-107h-1105zM135 340h-105v405h145q73 0 122.5 -50.5t49.5 -115.5q0 -79 -50 -130.5
t-128 -51.5h-34v-57zM135 491h33q35 0 55 23t20 56q0 31 -19.5 55t-51.5 24h-37v-158zM579 333q-86 0 -147 61.5t-61 147.5q0 88 61 149t147 61q88 0 149 -61t61 -149q0 -86 -61.5 -147.5t-148.5 -61.5zM581 652q-42 0 -73 -32.5t-31 -77.5q0 -44 31.5 -77t72.5 -33
q42 0 72.5 32.5t30.5 77.5q0 46 -30.5 78t-72.5 32z" />
    <glyph glyph-name="ordPARA" horiz-adv-x="1530" 
d="M864 407h-23v-67h-103v405h143q73 0 122.5 -47t49.5 -115q0 -48 -22 -86.5t-59 -60.5l92 -96h-138zM841 502h21q40 0 62 19.5t22 55.5q0 32 -18 52t-52 20h-35v-147zM30 152v107h1470v-107h-1470zM135 340h-105v405h145q73 0 122.5 -50.5t49.5 -115.5q0 -79 -50 -130.5
t-128 -51.5h-34v-57zM135 491h33q35 0 55 23t20 56q0 31 -19.5 55t-51.5 24h-37v-158zM612 340l-26 51h-162l-24 -51h-109l218 413l216 -413h-113zM505 556l-35 -70h69zM1385 340l-26 51h-161l-25 -51h-109l218 413l216 -413h-113zM1278 556l-35 -70h69z" />
    <glyph glyph-name="ordLO" horiz-adv-x="692" 
d="M30 152v107h632v-107h-632zM30 745h104v-310h104v-95h-208v405zM462 333q-86 0 -147 61.5t-61 147.5q0 88 61 149t147 61q88 0 149 -61t61 -149q0 -86 -61 -147.5t-149 -61.5zM464 652q-42 0 -73 -32.5t-31 -77.5q0 -44 31.5 -77t72.5 -33q42 0 72.5 32.5t30.5 77.5
q0 46 -30.5 78t-72.5 32z" />
    <glyph glyph-name="ordLE" horiz-adv-x="573" 
d="M30 152v107h513v-107h-513zM30 745h104v-310h104v-95h-208v405zM542 340h-259v405h227v-96h-126v-54h146v-94h-146v-66h158v-95z" />
    <glyph glyph-name="ordER" horiz-adv-x="681" 
d="M30 152v107h620v-107h-620zM462 407h-26v-67h-101v405h143q73 0 122.5 -47t49.5 -115q0 -48 -22 -86.5t-59 -60.5l93 -96h-138zM436 502h23q41 0 63 19.5t22 55.5q0 31 -18.5 51.5t-51.5 20.5h-38v-147zM289 340h-259v405h227v-96h-126v-54h146v-94h-146v-66h158v-95z
" />
    <glyph glyph-name="ordCON" horiz-adv-x="1358" 
d="M30 152v107h1298v-107h-1298zM1225 537v208h103v-410l-272 213v-208h-102v412zM692 333q-86 0 -147.5 61.5t-61.5 147.5q0 88 61.5 149t147.5 61q88 0 149 -61t61 -149q0 -86 -61 -147.5t-149 -61.5zM694 652q-42 0 -73 -32.5t-31 -77.5q0 -44 31.5 -77t72.5 -33
q42 0 72.5 32.5t30.5 77.5q0 46 -30.5 78t-72.5 32zM331 517h107q-12 -79 -69.5 -131.5t-140.5 -52.5q-87 0 -147.5 61t-60.5 148q0 86 61 148t147 62q53 0 101.5 -27t77.5 -73l-82 -59q-23 33 -45 46t-52 13q-43 0 -73.5 -32.5t-30.5 -77.5t30.5 -77.5t73.5 -32.5
q35 0 64 24.5t39 60.5z" />
    <glyph glyph-name="ordWITH" horiz-adv-x="1441" 
d="M30 152v107h1381v-107h-1381zM953 340h-103v309h-93v96h288v-96h-92v-309zM734 745v-405h-102v405h102zM396 535l103 210h108l-214 -412l-84 144l-79 -144l-224 412h119l108 -211l23 43l-87 168h117zM1077 745h101v-150h132v150h101v-405h-101v161h-132v-161h-101v405z
" />
    <glyph glyph-name="M_M" horiz-adv-x="1574" 
d="M1107 457l396 301v-758h-154v449l-242 -175l-243 210v-484h-154v484l-242 -210l-242 175v-449h-155v758l397 -301l319 278z" />
    <glyph glyph-name="Z_Z" horiz-adv-x="1099" 
d="M677 140h404v-140h-1066l386 605h-347v140h1014zM274 140h235l296 465h-234z" />
    <glyph glyph-name="o2" 
d="M426 -13q-160 0 -273 113t-113 272q0 160 112.5 273t272.5 113q161 0 273.5 -113t112.5 -273q0 -159 -112.5 -272t-272.5 -113zM425 611q-95 0 -160.5 -69.5t-65.5 -169.5q0 -99 65.5 -167.5t161.5 -68.5q95 0 160.5 68.5t65.5 167.5q0 100 -66 169.5t-161 69.5zM426 455
q36 0 59.5 -23.5t23.5 -59.5q0 -34 -23 -58t-60 -24q-36 0 -59.5 24t-23.5 58q0 36 23.5 59.5t59.5 23.5z" />
    <glyph glyph-name="ordDAS" horiz-adv-x="1094" 
d="M30 152v107h1034v-107h-1034zM690 340l-26 51h-161l-25 -51h-109l218 419l216 -419h-113zM584 556l-36 -70h69zM30 745h167q87 0 148.5 -58.5t61.5 -144.5t-61.5 -144t-148.5 -58h-167v405zM131 435h66q44 0 75 30.5t31 74.5q0 47 -31 78t-75 31h-66v-214zM922 508
q-55 8 -87.5 40.5t-32.5 82.5t38.5 85.5t84.5 35.5q79 0 120 -65l-77 -53q-15 21 -37 21q-27 0 -27 -23q0 -25 42 -26q56 -2 92 -38.5t36 -95.5q0 -60 -42 -99.5t-98 -39.5q-82 0 -140 68l82 62q28 -31 58 -31q14 0 24 10t10 24q0 36 -46 42z" />
    <glyph glyph-name="ordMET" horiz-adv-x="1093" 
d="M30 152v107h1033v-107h-1033zM247 590l214 162v-412h-101v209l-113 -81l-113 81v-209h-104v412zM980 340h-101v309h-92v96h288v-96h-95v-309zM784 340h-259v405h227v-96h-126v-54h146v-94h-146v-66h158v-95z" />
    <glyph glyph-name="ordUND" horiz-adv-x="1263" 
d="M30 152v107h1203v-107h-1203zM709 537v208h103v-410l-273 213v-208h-102v412zM867 745h167q87 0 148 -58.5t61 -144.5t-61 -144t-148 -58h-167v405zM967 435h67q43 0 74 30.5t31 74.5q0 47 -31 78t-74 31h-67v-214zM208 333q-87 0 -132.5 53.5t-45.5 142.5v216h103v-231
q0 -82 75 -82q72 0 72 82v231h102v-223q0 -89 -46 -139t-128 -50z" />
    <glyph glyph-name="ordET" horiz-adv-x="590" 
d="M30 152v107h530v-107h-530zM477 340h-101v309h-92v96h288v-96h-95v-309zM289 340h-259v405h227v-96h-126v-54h146v-94h-146v-66h158v-95z" />
    <glyph glyph-name="ordMIT" horiz-adv-x="988" 
d="M30 152v107h928v-107h-928zM247 590l214 162v-412h-101v209l-113 -81l-113 81v-209h-104v412zM877 340h-103v309h-92v96h288v-96h-93v-309zM649 745v-405h-102v405h102z" />
    <glyph glyph-name="ordDER" horiz-adv-x="1096" 
d="M30 152v107h1038v-107h-1038zM30 745h167q87 0 148.5 -58.5t61.5 -144.5t-61.5 -144t-148.5 -58h-167v405zM131 435h66q44 0 75 30.5t31 74.5q0 47 -31 78t-75 31h-66v-214zM880 407h-24v-67h-103v405h143q73 0 122.5 -47t49.5 -115q0 -48 -22 -86.5t-59 -60.5l90 -96
h-135zM856 502h21q40 0 62 19.5t22 55.5q0 32 -18 52t-52 20h-35v-147zM707 340h-259v405h227v-96h-126v-54h146v-94h-146v-66h158v-95z" />
    <glyph glyph-name="ordDIE" horiz-adv-x="919" 
d="M30 152v107h859v-107h-859zM561 745v-405h-102v405h102zM30 745h167q87 0 148.5 -58.5t61.5 -144.5t-61.5 -144t-148.5 -58h-167v405zM131 435h66q44 0 75 30.5t31 74.5q0 47 -31 78t-75 31h-66v-214zM889 340h-259v405h227v-96h-126v-54h146v-94h-146v-66h158v-95z" />
    <glyph glyph-name="ordHET" horiz-adv-x="983" 
d="M30 152v107h923v-107h-923zM870 340h-101v309h-92v96h288v-96h-95v-309zM682 340h-259v405h227v-96h-126v-54h146v-94h-146v-66h158v-95zM30 745h101v-150h132v150h101v-405h-101v161h-132v-161h-101v405z" />
    <glyph glyph-name="ordLOS" horiz-adv-x="971" 
d="M30 152v107h911v-107h-911zM30 745h104v-310h104v-95h-208v405zM452 333q-86 0 -147 61.5t-61 147.5q0 88 61 149t147 61q88 0 149 -61t61 -149q0 -86 -61 -147.5t-149 -61.5zM454 652q-42 0 -73 -32.5t-31 -77.5q0 -44 31.5 -77t72.5 -33q42 0 72.5 32.5t30.5 77.5
q0 46 -30.5 78t-72.5 32zM799 508q-55 8 -87.5 40.5t-32.5 82.5t38.5 85.5t84.5 35.5q79 0 120 -65l-77 -53q-15 21 -37 21q-27 0 -27 -23q0 -25 42 -26q56 -2 92 -38.5t36 -95.5q0 -60 -42 -99.5t-98 -39.5q-82 0 -140 68l82 62q28 -31 58 -31q14 0 24 10t10 24
q0 36 -46 42z" />
    <glyph glyph-name="ordDI" horiz-adv-x="581" 
d="M30 152v107h521v-107h-521zM551 745v-405h-102v405h102zM30 745h167q87 0 148.5 -58.5t61.5 -144.5t-61.5 -144t-148.5 -58h-167v405zM131 435h66q44 0 75 30.5t31 74.5q0 47 -31 78t-75 31h-66v-214z" />
    <glyph glyph-name="ordPER" horiz-adv-x="1038" 
d="M30 152v107h978v-107h-978zM820 407h-24v-67h-103v405h143q74 0 123 -46.5t49 -115.5q0 -48 -22 -86.5t-59 -60.5l91 -96h-136zM796 502h22q40 0 62 19.5t22 55.5q0 31 -18.5 51.5t-51.5 20.5h-36v-147zM135 340h-105v405h145q73 0 122.5 -50.5t49.5 -115.5
q0 -79 -50 -130.5t-128 -51.5h-34v-57zM135 491h33q35 0 55 23t20 56q0 31 -19.5 55t-51.5 24h-37v-158zM648 340h-259v405h227v-96h-126v-54h146v-94h-146v-66h158v-95z" />
    <glyph glyph-name="ordOM" horiz-adv-x="939" 
d="M30 152v107h879v-107h-879zM695 590l214 162v-412h-100v209l-114 -81l-112 81v-209h-104v412zM228 333q-86 0 -147 61.5t-61 147.5q0 87 61 148.5t147 61.5q88 0 149.5 -61t61.5 -149q0 -86 -61.5 -147.5t-149.5 -61.5zM231 652q-42 0 -73 -32.5t-31 -77.5
q0 -44 31.5 -77t72.5 -33q42 0 72.5 32.5t30.5 77.5q0 46 -30.5 78t-72.5 32z" />
    <glyph glyph-name="ordTIL" horiz-adv-x="789" 
d="M30 152v107h729v-107h-729zM439 745v-405h-101v405h101zM501 745h104v-310h154v-95h-258v405zM211 340h-101v309h-92v96h288v-96h-95v-309z" />
    <glyph glyph-name="ordOCH" horiz-adv-x="1310" 
d="M30 152v107h1250v-107h-1250zM228 333q-86 0 -147 61.5t-61 147.5q0 87 61 148.5t147 61.5q88 0 149.5 -61t61.5 -149q0 -86 -61.5 -147.5t-149.5 -61.5zM231 652q-42 0 -73 -32.5t-31 -77.5q0 -44 31.5 -77t72.5 -33q42 0 72.5 32.5t30.5 77.5q0 46 -30.5 78t-72.5 32z
M791 517h107q-12 -79 -69.5 -131.5t-140.5 -52.5q-87 0 -147.5 61t-60.5 148q0 86 61 148t147 62q53 0 101.5 -27t77.5 -73l-82 -59q-23 33 -45 46t-52 13q-43 0 -73.5 -32.5t-30.5 -77.5t30.5 -77.5t73.5 -32.5q35 0 64 24.5t39 60.5zM947 745h101v-150h132v150h101v-405
h-101v161h-132v-161h-101v405z" />
    <glyph glyph-name="ordOG" horiz-adv-x="918" 
d="M30 152v107h859v-107h-859zM228 333q-86 0 -147 61.5t-61 147.5q0 87 61 148.5t147 61.5q88 0 149.5 -61t61.5 -149q0 -86 -61.5 -147.5t-149.5 -61.5zM231 652q-42 0 -73 -32.5t-31 -77.5q0 -44 31.5 -77t72.5 -33q42 0 72.5 32.5t30.5 77.5q0 46 -30.5 78t-72.5 32z
M776 476h-98v85h220v-14q0 -89 -61.5 -151.5t-150.5 -62.5q-87 0 -147 60.5t-60 147.5t60 149t147 62q55 0 102.5 -26.5t76.5 -73.5l-82 -59q-37 59 -97 59q-45 0 -74.5 -32t-29.5 -79q0 -45 30 -77t74 -32q69 0 90 44z" />
    <glyph glyph-name="ordMER" horiz-adv-x="1167" 
d="M30 152v107h1108v-107h-1108zM950 407h-24v-67h-103v405h143q73 0 122.5 -47t49.5 -115q0 -48 -22 -86.5t-59 -60.5l90 -96h-135zM926 502h21q41 0 63 19.5t22 55.5q0 31 -18.5 51.5t-52.5 20.5h-35v-147zM247 590l214 162v-412h-101v209l-113 -81l-113 81v-209h-104v412
zM779 340h-259v405h227v-96h-126v-54h146v-94h-146v-66h158v-95z" />
    <glyph glyph-name="ordLAS" horiz-adv-x="999" 
d="M30 152v107h939v-107h-939zM30 745h104v-310h104v-95h-208v405zM581 340l-26 51h-161l-25 -51h-108l217 419l217 -419h-114zM475 556l-35 -70h69zM827 508q-55 8 -87.5 40.5t-32.5 82.5t38.5 85.5t84.5 35.5q79 0 120 -65l-77 -53q-15 21 -37 21q-27 0 -27 -23
q0 -25 42 -26q56 -2 92 -38.5t36 -95.5q0 -60 -42 -99.5t-98 -39.5q-82 0 -140 68l82 62q28 -31 58 -31q14 0 24 10t10 24q0 36 -46 42z" />
    <glyph glyph-name="Z2" horiz-adv-x="582" 
d="M12 0l331 605h-285v140h509l-321 -605h318v-140h-552z" />
    <glyph glyph-name="calt.A" horiz-adv-x="820" 
d="M230 140h347l-171 332zM826 0h-832l417 758z" />
    <glyph glyph-name="calt.B" horiz-adv-x="752" 
d="M448 0h-377v745h356q109 0 173 -48.5t64 -148.5q0 -77 -53 -126q101 -69 101 -182q0 -109 -78 -174.5t-186 -65.5zM226 140h227q47 0 73.5 25.5t26.5 69.5q0 45 -26 71t-74 26h-227v-192zM226 467h195q35 0 55 11.5t24.5 25t4.5 32.5q0 69 -84 69h-195v-138z" />
    <glyph glyph-name="calt.C" horiz-adv-x="835" 
d="M650 329h157q-17 -144 -126.5 -243t-257.5 -99q-160 0 -271.5 112.5t-111.5 272.5t111.5 273t270.5 113q103 0 190.5 -49t138.5 -132l-121 -86q-40 59 -94 89t-113 30q-94 0 -159 -69.5t-65 -168.5q0 -98 65 -167t159 -69q84 0 147.5 54.5t79.5 138.5z" />
    <glyph glyph-name="calt.D" horiz-adv-x="803" 
d="M71 745h302q163 0 276.5 -107t113.5 -265q0 -159 -113.5 -266t-275.5 -107h-303v745zM226 140h148q97 0 163.5 66.5t66.5 166.5t-66.5 166t-164.5 66h-147v-465z" />
    <glyph glyph-name="calt.E" horiz-adv-x="690" 
d="M650 0h-579v745h514v-140h-359v-185h397v-140h-397v-140h424v-140z" />
    <glyph glyph-name="calt.F" horiz-adv-x="642" 
d="M226 0h-155v745h513v-140h-358v-185h397v-140h-397v-280z" />
    <glyph glyph-name="calt.G" horiz-adv-x="847" 
d="M423 610q-82 0 -143.5 -53.5t-76.5 -136.5h606v-36q0 -165 -113 -281t-273 -116t-271.5 112.5t-111.5 272.5q0 161 111.5 273.5t271.5 112.5q102 0 189.5 -49t139.5 -133l-124 -89q-29 55 -84.5 89t-120.5 34zM633 280h-417q25 -65 81 -104.5t126 -39.5q76 0 133 39.5
t77 104.5z" />
    <glyph glyph-name="calt.H" horiz-adv-x="852" 
d="M627 252h-401v-252h-155v745h155v-154h401v154h154v-745h-154v252zM226 380h401v82h-401v-82z" />
    <glyph glyph-name="calt.I" horiz-adv-x="374" 
d="M327 605h-70v-465h70v-140h-280v140h70v465h-70v140h280v-140z" />
    <glyph glyph-name="calt.J" horiz-adv-x="367" 
d="M9 745h287v-596q0 -152 -84.5 -248t-238.5 -99v149q79 0 123.5 58.5t44.5 139.5v456h-132v140z" />
    <glyph glyph-name="calt.K" horiz-adv-x="791" 
d="M226 745v-352l352 352h207l-366 -366l378 -379h-209l-279 280l-83 -83v-197h-155v745h155z" />
    <glyph glyph-name="calt.L" horiz-adv-x="631" 
d="M71 745h155v-605h390v-140h-545v745z" />
    <glyph glyph-name="calt.M" horiz-adv-x="935" 
d="M468 228l-242 176v-404h-155v745h155v-153l242 -180l242 180v152h154v-744h-154v404z" />
    <glyph glyph-name="calt.N" horiz-adv-x="827" 
d="M601 745h155v-745h-155v153l-375 283v-436h-155v760l530 -411v396z" />
    <glyph glyph-name="calt.Ntilde" horiz-adv-x="827" 
d="M282 813l-100 74q65 79 159 79q29 0 72.5 -18t64.5 -18q29 0 60 36l99 -72q-63 -86 -142 -86q-29 0 -69.5 20.5t-62.5 20.5q-38 0 -81 -36zM601 745h155v-745h-155v153l-375 283v-436h-155v760l530 -411v396z" />
    <glyph glyph-name="calt.O" 
d="M426 -13q-160 0 -273 113t-113 273t112.5 272.5t272.5 112.5t273 -112.5t113 -272.5t-112.5 -273t-272.5 -113zM425 610q-95 0 -160.5 -69t-65.5 -168q0 -100 65.5 -168.5t161.5 -68.5q95 0 160.5 68.5t65.5 168.5q0 98 -66.5 167.5t-160.5 69.5z" />
    <glyph glyph-name="calt.P" horiz-adv-x="753" 
d="M226 0h-155v745h341q132 0 221.5 -88t89.5 -202q0 -143 -88 -235.5t-234 -92.5h-175v-127zM226 268h172q78 0 124 49.5t46 121.5q0 66 -44.5 116t-116.5 50h-181v-337z" />
    <glyph glyph-name="calt.Q" horiz-adv-x="901" 
d="M426 -13q-160 0 -273 113t-113 272q0 160 112.5 273t272.5 113q161 0 273.5 -113t112.5 -273q0 -137 -87 -243l137 -129h-211l-38 35q-88 -48 -186 -48zM425 610q-85 0 -150 -60l336 -315q41 64 41 137q0 99 -66.5 168.5t-160.5 69.5zM426 136q34 0 65 9l-290 264
q-2 -22 -2 -37q0 -99 65.5 -167.5t161.5 -68.5z" />
    <glyph glyph-name="calt.R" horiz-adv-x="792" 
d="M226 0h-155v745h352q131 0 220 -85.5t89 -207.5q0 -99 -43.5 -171t-121.5 -108l158 -173h-194l-305 331v-331zM226 605v-59l242 -265q105 35 105 159q0 72 -41.5 118.5t-117.5 46.5h-188z" />
    <glyph glyph-name="calt.S" horiz-adv-x="561" 
d="M260 314q-98 0 -166 62.5t-68 153.5t71 153t157 62h216v-140h-216q-32 0 -50.5 -19t-18.5 -55q0 -30 27.5 -52t88.5 -22q98 0 164.5 -60.5t66.5 -155.5q0 -104 -75 -172.5t-176 -68.5h-243v140h243q40 0 66.5 24.5t26.5 64.5q0 33 -29.5 59t-84.5 26z" />
    <glyph glyph-name="calt.T" horiz-adv-x="663" 
d="M408 0h-154v605h-242v140h640v-140h-244v-605z" />
    <glyph glyph-name="calt.U" horiz-adv-x="756" 
d="M685 0h-293q-157 0 -242.5 94.5t-85.5 250.5v400h155v-400q0 -89 44 -136.5t130 -47.5h138v584h154v-745z" />
    <glyph glyph-name="calt.V" horiz-adv-x="765" 
d="M398 308l213 437h160l-379 -758l-398 758h178z" />
    <glyph glyph-name="calt.W" horiz-adv-x="1081" 
d="M714 308l212 437h161l-379 -758l-163 308l-153 -308l-398 758h178l226 -437l68 139l-156 298h178l63 -123l60 123h160l-139 -278z" />
    <glyph glyph-name="calt.X" horiz-adv-x="694" 
d="M240 383l-237 362h175l161 -249l157 249h164l-223 -353l255 -392h-174l-180 277l-173 -277h-164z" />
    <glyph glyph-name="calt.Y" horiz-adv-x="764" 
d="M390 379l217 366h163l-305 -505v-240h-155v226l-316 519h178z" />
    <glyph glyph-name="calt.Z" horiz-adv-x="624" 
d="M76 338v143h215l69 124h-284v140h509l-146 -264h93v-143h-172l-109 -198h319v-140h-541l184 338h-137z" />
    <glyph glyph-name="calt.Aacute" horiz-adv-x="820" 
d="M230 140h347l-171 332zM826 0h-832l417 758zM481 994l93 -67l-78 -119h-133z" />
    <glyph glyph-name="calt.Agrave" horiz-adv-x="820" 
d="M230 140h347l-171 332zM826 0h-832l417 758zM257 927l94 67l118 -186h-133z" />
    <glyph glyph-name="calt.Acircumflex" horiz-adv-x="820" 
d="M230 140h347l-171 332zM826 0h-832l417 758zM407 1014l165 -206h-133l-32 43l-32 -43h-133z" />
    <glyph glyph-name="calt.Adieresis" horiz-adv-x="820" 
d="M230 140h347l-171 332zM826 0h-832l417 758zM340 869q0 -28 -18 -46t-45 -18q-26 0 -44 17.5t-18 46.5q0 27 18 44.5t44 17.5q27 0 45 -17.5t18 -44.5zM601 869q0 -28 -18.5 -46t-45.5 -18q-25 0 -43 17.5t-18 46.5q0 27 18 44.5t43 17.5q27 0 45.5 -17.5t18.5 -44.5z
" />
    <glyph glyph-name="calt.Atilde" horiz-adv-x="820" 
d="M230 140h347l-171 332zM826 0h-832l417 758zM282 813l-100 74q65 79 159 79q29 0 72.5 -18t64.5 -18q29 0 60 36l99 -72q-63 -86 -142 -86q-29 0 -69.5 20.5t-62.5 20.5q-38 0 -81 -36z" />
    <glyph glyph-name="calt.Aring" horiz-adv-x="820" 
d="M230 140h347l-171 332zM826 0h-832l417 758zM406 803q-45 0 -77 32t-32 76q0 48 32 80.5t77 32.5q47 0 79.5 -32.5t32.5 -80.5q0 -45 -32.5 -76.5t-79.5 -31.5zM406 943q-12 0 -20 -9t-8 -23q0 -11 8.5 -20t19.5 -9q12 0 20 8.5t8 20.5q0 14 -7.5 23t-20.5 9z" />
    <glyph glyph-name="calt.Ccedilla" horiz-adv-x="835" 
d="M650 329h157q-15 -131 -110 -227t-227 -112l-20 -25h148v-121h-364l102 154q-129 29 -212.5 133.5t-83.5 240.5q0 160 111.5 273t270.5 113q103 0 190.5 -49t138.5 -132l-121 -86q-40 59 -94 89t-113 30q-94 0 -159 -69.5t-65 -168.5q0 -98 65 -167t159 -69
q84 0 147.5 54.5t79.5 138.5z" />
    <glyph glyph-name="calt.Eacute" horiz-adv-x="690" 
d="M411 994l93 -67l-78 -119h-134zM650 0h-579v745h514v-140h-359v-185h397v-140h-397v-140h424v-140z" />
    <glyph glyph-name="calt.Egrave" horiz-adv-x="690" 
d="M222 927l94 67l118 -186h-133zM650 0h-579v745h514v-140h-359v-185h397v-140h-397v-140h424v-140z" />
    <glyph glyph-name="calt.Ecircumflex" horiz-adv-x="690" 
d="M363 1014l165 -206h-134l-31 43l-32 -43h-133zM650 0h-579v745h514v-140h-359v-185h397v-140h-397v-140h424v-140z" />
    <glyph glyph-name="calt.Edieresis" horiz-adv-x="690" 
d="M277 869q0 -28 -18 -46t-45 -18q-26 0 -44 17.5t-18 46.5q0 27 18 44.5t44 17.5q27 0 45 -17.5t18 -44.5zM538 869q0 -28 -18.5 -46t-45.5 -18q-26 0 -43.5 17.5t-17.5 46.5q0 27 18 44.5t43 17.5q27 0 45.5 -17.5t18.5 -44.5zM650 0h-579v745h514v-140h-359v-185h397
v-140h-397v-140h424v-140z" />
    <glyph glyph-name="calt.Iacute" horiz-adv-x="374" 
d="M234 994l93 -67l-78 -119h-133zM327 605h-70v-465h70v-140h-280v140h70v465h-70v140h280v-140z" />
    <glyph glyph-name="calt.Igrave" horiz-adv-x="374" 
d="M47 927l93 67l118 -186h-133zM327 605h-70v-465h70v-140h-280v140h70v465h-70v140h280v-140z" />
    <glyph glyph-name="calt.Icircumflex" horiz-adv-x="374" 
d="M182 1014l165 -206h-133l-32 43l-31 -43h-134zM327 605h-70v-465h70v-140h-280v140h70v465h-70v140h280v-140z" />
    <glyph glyph-name="calt.Idieresis" horiz-adv-x="374" 
d="M124 869q0 -28 -18 -46t-45 -18q-26 0 -44 17.5t-18 46.5q0 27 18 44.5t44 17.5q27 0 45 -17.5t18 -44.5zM385 869q0 -28 -18.5 -46t-46.5 -18q-25 0 -42.5 18t-17.5 46q0 27 17.5 44.5t42.5 17.5q28 0 46.5 -17.5t18.5 -44.5zM327 605h-70v-465h70v-140h-280v140h70v465
h-70v140h280v-140z" />
    <glyph glyph-name="calt.Oacute" 
d="M426 -13q-160 0 -273 113t-113 273t112.5 272.5t272.5 112.5t273 -112.5t113 -272.5t-112.5 -273t-272.5 -113zM425 610q-95 0 -160.5 -69t-65.5 -168q0 -100 65.5 -168.5t161.5 -68.5q95 0 160.5 68.5t65.5 168.5q0 98 -66.5 167.5t-160.5 69.5zM446 994l93 -67
l-78 -119h-134z" />
    <glyph glyph-name="calt.Ograve" 
d="M426 -13q-160 0 -273 113t-113 273t112.5 272.5t272.5 112.5t273 -112.5t113 -272.5t-112.5 -273t-272.5 -113zM425 610q-95 0 -160.5 -69t-65.5 -168q0 -100 65.5 -168.5t161.5 -68.5q95 0 160.5 68.5t65.5 168.5q0 98 -66.5 167.5t-160.5 69.5zM257 927l94 67l118 -186
h-133z" />
    <glyph glyph-name="calt.Ocircumflex" 
d="M426 -13q-160 0 -273 113t-113 273t112.5 272.5t272.5 112.5t273 -112.5t113 -272.5t-112.5 -273t-272.5 -113zM425 610q-95 0 -160.5 -69t-65.5 -168q0 -100 65.5 -168.5t161.5 -68.5q95 0 160.5 68.5t65.5 168.5q0 98 -66.5 167.5t-160.5 69.5zM425 1014l165 -206h-134
l-31 43l-32 -43h-133z" />
    <glyph glyph-name="calt.Odieresis" 
d="M426 -13q-160 0 -273 113t-113 273t112.5 272.5t272.5 112.5t273 -112.5t113 -272.5t-112.5 -273t-272.5 -113zM425 610q-95 0 -160.5 -69t-65.5 -168q0 -100 65.5 -168.5t161.5 -68.5q95 0 160.5 68.5t65.5 168.5q0 98 -66.5 167.5t-160.5 69.5zM359 869q0 -28 -18 -46
t-45 -18q-26 0 -44 17.5t-18 46.5q0 27 18 44.5t44 17.5q27 0 45 -17.5t18 -44.5zM620 869q0 -28 -18.5 -46t-45.5 -18q-26 0 -43.5 17.5t-17.5 46.5q0 27 18 44.5t43 17.5q27 0 45.5 -17.5t18.5 -44.5z" />
    <glyph glyph-name="calt.Otilde" 
d="M426 -13q-160 0 -273 113t-113 273t112.5 272.5t272.5 112.5t273 -112.5t113 -272.5t-112.5 -273t-272.5 -113zM425 610q-95 0 -160.5 -69t-65.5 -168q0 -100 65.5 -168.5t161.5 -68.5q95 0 160.5 68.5t65.5 168.5q0 98 -66.5 167.5t-160.5 69.5zM324 813l-100 74
q65 79 159 79q29 0 72.5 -18t64.5 -18q29 0 60 36l100 -72q-65 -86 -143 -86q-29 0 -69.5 20.5t-62.5 20.5q-38 0 -81 -36z" />
    <glyph glyph-name="calt.Uacute" horiz-adv-x="756" 
d="M685 0h-293q-157 0 -242.5 94.5t-85.5 250.5v400h155v-400q0 -89 44 -136.5t130 -47.5h138v584h154v-745zM464 994l94 -67l-78 -119h-134z" />
    <glyph glyph-name="calt.Ugrave" horiz-adv-x="756" 
d="M685 0h-293q-157 0 -242.5 94.5t-85.5 250.5v400h155v-400q0 -89 44 -136.5t130 -47.5h138v584h154v-745zM206 927l93 67l119 -186h-134z" />
    <glyph glyph-name="calt.Ucircumflex" horiz-adv-x="756" 
d="M685 0h-293q-157 0 -242.5 94.5t-85.5 250.5v400h155v-400q0 -89 44 -136.5t130 -47.5h138v584h154v-745zM402 1014l165 -206h-133l-32 43l-31 -43h-134z" />
    <glyph glyph-name="calt.Udieresis" horiz-adv-x="756" 
d="M685 0h-293q-157 0 -242.5 94.5t-85.5 250.5v400h155v-400q0 -89 44 -136.5t130 -47.5h138v584h154v-745zM338 869q0 -28 -18 -46t-45 -18q-26 0 -44 17.5t-18 46.5q0 27 18 44.5t44 17.5q27 0 45 -17.5t18 -44.5zM599 869q0 -28 -18.5 -46t-45.5 -18q-25 0 -43 17.5
t-18 46.5q0 27 18 44.5t43 17.5q27 0 45.5 -17.5t18.5 -44.5z" />
    <glyph glyph-name="calt.Cacute" horiz-adv-x="835" 
d="M481 994l93 -67l-78 -119h-133zM650 329h157q-17 -144 -126.5 -243t-257.5 -99q-160 0 -271.5 112.5t-111.5 272.5t111.5 273t270.5 113q103 0 190.5 -49t138.5 -132l-121 -86q-40 59 -94 89t-113 30q-94 0 -159 -69.5t-65 -168.5q0 -98 65 -167t159 -69q84 0 147.5 54.5
t79.5 138.5z" />
    <glyph glyph-name="calt.Ccaron" horiz-adv-x="835" 
d="M586 991l-165 -206l-165 206h133l32 -43l32 43h133zM650 329h157q-17 -144 -126.5 -243t-257.5 -99q-160 0 -271.5 112.5t-111.5 272.5t111.5 273t270.5 113q103 0 190.5 -49t138.5 -132l-121 -86q-40 59 -94 89t-113 30q-94 0 -159 -69.5t-65 -168.5q0 -98 65 -167
t159 -69q84 0 147.5 54.5t79.5 138.5z" />
    <glyph glyph-name="calt.Dcaron" horiz-adv-x="803" 
d="M71 745h302q163 0 276.5 -107t113.5 -265q0 -159 -113.5 -266t-275.5 -107h-303v745zM226 140h148q97 0 163.5 66.5t66.5 166.5t-66.5 166t-164.5 66h-147v-465zM499 991l-165 -206l-165 206h134l31 -43l32 43h133z" />
    <glyph glyph-name="calt.Ecaron" horiz-adv-x="690" 
d="M650 0h-579v745h514v-140h-359v-133h397v-139h-397v-193h424v-140zM511 991l-165 -206l-165 206h134l31 -43l32 43h133z" />
    <glyph glyph-name="calt.Lacute" horiz-adv-x="631" 
d="M71 745h155v-605h390v-140h-545v745zM202 994l94 -67l-79 -119h-133z" />
    <glyph glyph-name="calt.Lcaron" horiz-adv-x="631" 
d="M71 745h155v-605h390v-140h-545v745zM317 991l-165 -206l-165 206h133l32 -43l32 43h133z" />
    <glyph glyph-name="calt.Nacute" horiz-adv-x="828" 
d="M601 745h156v-745h-156v153l-374 283v-436h-156v760l530 -411v396zM464 994l94 -67l-78 -119h-134z" />
    <glyph glyph-name="calt.Ncaron" horiz-adv-x="828" 
d="M601 745h156v-745h-156v153l-374 283v-436h-156v760l530 -411v396zM570 991l-165 -206l-165 206h133l32 -43l31 43h134z" />
    <glyph glyph-name="calt.Racute" horiz-adv-x="792" 
d="M229 605v-40l273 -298q95 45 95 161q0 77 -42 127t-118 50h-208zM229 340v-340h-158v745h376q131 0 220 -88.5t89 -216.5q0 -97 -40 -170t-112 -113l145 -157h-213zM418 994l93 -67l-78 -119h-134z" />
    <glyph glyph-name="calt.Rcaron" horiz-adv-x="792" 
d="M229 605v-40l273 -298q95 45 95 161q0 77 -42 127t-118 50h-208zM229 340v-340h-158v745h376q131 0 220 -88.5t89 -216.5q0 -97 -40 -170t-112 -113l145 -157h-213zM558 991l-165 -206l-165 206h133l32 -43l32 43h133z" />
    <glyph glyph-name="calt.Sacute" horiz-adv-x="550" 
d="M345 994l94 -67l-79 -119h-133zM248 312q-93 0 -157.5 62.5t-64.5 151.5q0 93 71 156t157 63h212v-148h-212q-31 0 -50 -18.5t-19 -50.5q0 -30 24.5 -51t79.5 -21q98 0 164.5 -60t66.5 -151q0 -106 -74.5 -175.5t-176.5 -69.5h-218v149h218q40 0 67 24t27 60q0 33 -30 56
t-85 23z" />
    <glyph glyph-name="calt.Scaron" horiz-adv-x="550" 
d="M458 991l-164 -206l-165 206h133l32 -43l31 43h133zM248 312q-93 0 -157.5 62.5t-64.5 151.5q0 93 71 156t157 63h212v-148h-212q-31 0 -50 -18.5t-19 -50.5q0 -30 24.5 -51t79.5 -21q98 0 164.5 -60t66.5 -151q0 -106 -74.5 -175.5t-176.5 -69.5h-218v149h218
q40 0 67 24t27 60q0 33 -30 56t-85 23z" />
    <glyph glyph-name="calt.Tcaron" horiz-adv-x="573" 
d="M358 0h-155v600h-184v145h535v-145h-196v-600zM446 991l-165 -206l-165 206h133l32 -43l31 43h134z" />
    <glyph glyph-name="calt.Uring" horiz-adv-x="756" 
d="M685 0h-293q-157 0 -242.5 94.5t-85.5 250.5v400h155v-400q0 -89 44 -136.5t130 -47.5h138v584h154v-745zM380 803q-45 0 -77 32t-32 76q0 48 32 80.5t77 32.5q47 0 79.5 -32.5t32.5 -80.5q0 -45 -32.5 -76.5t-79.5 -31.5zM380 943q-12 0 -20 -9t-8 -23q0 -11 8.5 -20
t19.5 -9q13 0 20.5 8.5t7.5 20.5q0 32 -28 32z" />
    <glyph glyph-name="calt.Uhungarumlaut" horiz-adv-x="756" 
d="M323 811h-89l49 164h159zM510 811h-89l73 164h159zM685 0h-293q-157 0 -242.5 94.5t-85.5 250.5v400h155v-400q0 -89 44 -136.5t130 -47.5h138v584h154v-745z" />
    <glyph glyph-name="calt.Zacute" horiz-adv-x="624" 
d="M385 994l93 -67l-78 -119h-133zM76 338v143h215l69 124h-284v140h509l-146 -264h93v-143h-172l-109 -198h319v-140h-541l184 338h-137z" />
    <glyph glyph-name="calt.Zcaron" horiz-adv-x="624" 
d="M483 991l-165 -206l-165 206h133l32 -43l32 43h133zM76 338v143h215l69 124h-284v140h509l-146 -264h93v-143h-172l-109 -198h319v-140h-541l184 338h-137z" />
    <glyph glyph-name="calt.Ydieresis" horiz-adv-x="764" 
d="M322 869q0 -28 -18 -46t-46 -18q-26 0 -44 17.5t-18 46.5q0 27 18 44.5t44 17.5q28 0 46 -17t18 -45zM583 869q0 -28 -19 -46t-46 -18q-26 0 -43.5 17.5t-17.5 46.5q0 27 18 44.5t43 17.5q27 0 46 -17.5t19 -44.5zM389 379l218 366h163l-306 -505v-240h-154v226l-316 519
h178z" />
    <glyph glyph-name="calt.Yacute" horiz-adv-x="764" 
d="M468 994l93 -67l-78 -119h-133zM389 379l218 366h163l-306 -505v-240h-154v226l-316 519h178z" />
    <glyph glyph-name="F_F_I" horiz-adv-x="1152" 
d="M600 0h-154v326h-220v-326h-155v745h748v-140h-219v-139h259v-140h-259v-326zM1081 745v-745h-155v745h155zM226 605v-139h220v139h-220z" />
    <glyph glyph-name="FI" horiz-adv-x="778" 
d="M707 744v-744h-155v326h-326v-326h-155v745h373v-140h-218v-139h326v278h155z" />
    <glyph glyph-name="f_t" horiz-adv-x="694" 
d="M679 374h-121v-161q0 -43 33 -65.5t84 -22.5v-136q-113 0 -185.5 61t-72.5 159v165h-173v-374h-141v374h-81v131h81v7q0 103 73.5 171.5t177.5 68.5v-146q-49 0 -79.5 -25.5t-30.5 -63.5v-12h173v66l141 103v-169h121v-131z" />
    <glyph glyph-name="f_f_t" horiz-adv-x="1018" 
d="M1003 374h-120v-161q0 -43 32.5 -65.5t84.5 -22.5v-136q-114 0 -186.5 61t-72.5 159v165h-173v-374h-141v374h-183v-374h-141v374h-81v131h81v7q0 103 73.5 171.5t177.5 68.5v-146q-49 0 -79.5 -25.5t-30.5 -63.5v-12h183v7q0 103 73.5 171.5t177.5 68.5v-146
q-49 0 -79.5 -25.5t-30.5 -63.5v-12h173v66l142 103v-169h120v-131z" />
    <glyph glyph-name="A_V" horiz-adv-x="993" 
d="M618 -13l-55 112h-361l-48 -99h-160l393 758l236 -454l216 441h160zM380 470l-111 -230h225z" />
    <glyph glyph-name="A_W" horiz-adv-x="1307" 
d="M939 308l213 437h161l-379 -758l-163 307l-153 -307l-55 112h-361l-48 -99h-160l393 758l236 -454l71 139l-158 302h178zM381 472l-112 -232h226z" />
    <glyph glyph-name="D_C" horiz-adv-x="1173" 
d="M976 329h157q-17 -144 -126.5 -243t-257.5 -99q-108 0 -197 53q-82 -40 -178 -40h-303v745h302q94 0 179 -41q91 54 195 54t191.5 -49t138.5 -132l-121 -86q-36 54 -90 86.5t-117 32.5q-34 0 -65 -11q79 -100 79 -226q0 -128 -79 -228q30 -9 65 -9q83 0 147 54.5
t80 138.5zM226 140h148q32 0 61 9q-70 100 -70 223q0 126 71 225q-40 8 -63 8h-147v-465zM604 373q0 73 -41 135q-39 -61 -39 -136t39 -134q41 61 41 135z" />
    <glyph glyph-name="D_O" horiz-adv-x="1176" 
d="M751 -13q-107 0 -198 54q-82 -41 -179 -41h-303v745h302q95 0 180 -41q92 54 197 54q160 0 273 -112.5t113 -272.5t-112.5 -273t-272.5 -113zM750 610q-35 0 -66 -11q79 -100 79 -226q0 -128 -79 -228q32 -9 67 -9q95 0 160.5 68.5t65.5 168.5q0 98 -66.5 167.5
t-160.5 69.5zM226 140h148q32 0 62 9q-71 102 -71 224q0 125 71 224q-40 8 -63 8h-147v-465zM604 373q0 73 -41 135q-39 -61 -39 -135q0 -76 39 -135q41 61 41 135z" />
    <glyph glyph-name="E_A" horiz-adv-x="1229" 
d="M1065 0l-49 99h-361l-48 -99h-536v745h396v-140h-241v-139h280v-140h-280v-186h294l320 618l395 -758h-170zM834 472l-112 -232h226z" />
    <glyph glyph-name="E_E" horiz-adv-x="989" 
d="M533 0h-462v745h350v-140h-195v-139h234v-140h-234v-186h307v-140zM949 0h-416v745h350v-140h-195v-139h234v-140h-234v-186h261v-140z" />
    <glyph glyph-name="C_H" horiz-adv-x="1072" 
d="M751 577l-121 -86q-52 74 -126 104v-129h343v279h154v-745h-154v326h-40q-21 -146 -129 -242.5t-255 -96.5q-160 0 -271.5 112.5t-111.5 272.5t111.5 273t270.5 113q103 0 190.5 -49t138.5 -132zM199 372q0 -77 42 -138.5t109 -84.5v448q-67 -25 -109 -86.5t-42 -138.5z
M504 151q119 52 146 175h-146v-175z" />
    <glyph glyph-name="E_T" horiz-adv-x="1021" 
d="M806 0h-155v605h-425v-139h280v-140h-280v-186h307v-140h-462v745h396h535v-140h-196v-605z" />
    <glyph glyph-name="H_F2" horiz-adv-x="1033" 
d="M723 0h-155v326h-342v-326h-155v745h155v-279h342v279h396v-140h-241v-139h280v-140h-280v-326z" />
    <glyph glyph-name="H_K" horiz-adv-x="1288" 
d="M71 745h155v-279h342v279h155v-352l352 352h207l-366 -366l378 -379h-209l-279 280l-83 -83v-197h-155v326h-342v-326h-155v745z" />
    <glyph glyph-name="H_M2" horiz-adv-x="1433" 
d="M965 457l397 301v-758h-155v449l-242 -175l-242 175v-449h-155v326h-342v-326h-155v745h155v-279h342v292z" />
    <glyph glyph-name="H_B" horiz-adv-x="1133" 
d="M828 0h-260v326h-342v-326h-155v745h155v-279h342v279h239q109 0 173.5 -48.5t64.5 -148.5q0 -77 -54 -126q102 -69 102 -182q0 -109 -78.5 -174.5t-186.5 -65.5zM723 140h110q47 0 74 27.5t27 71.5q0 45 -26.5 71t-74.5 26h-110v-196zM723 471h78q51 0 68 18t17 47
q0 69 -85 69h-78v-134z" />
    <glyph glyph-name="H_P" horiz-adv-x="1166" 
d="M723 0h-155v326h-342v-326h-155v745h155v-279h342v279h259q131 0 220 -85.5t89 -207.5q0 -144 -88.5 -233.5t-235.5 -89.5h-89v-129zM723 269h85q82 0 127 46t45 125q0 72 -42.5 118.5t-120.5 46.5h-94v-336z" />
    <glyph glyph-name="H_R2" horiz-adv-x="1172" 
d="M801 129h-78v-129h-155v326h-342v-326h-155v745h155v-279h342v279h259q131 0 220 -85.5t89 -207.5q0 -99 -44.5 -171t-123.5 -109l161 -172h-206zM723 269h85q82 0 127 46t45 125q0 72 -42.5 118.5t-120.5 46.5h-94v-336z" />
    <glyph glyph-name="H_T2" horiz-adv-x="1277" 
d="M71 745h155v-279h342v279h155v-745h-155v326h-342v-326h-155v745zM1062 0h-155v605h-184v140h535v-140h-196v-605z" />
    <glyph glyph-name="K_T" horiz-adv-x="1078" 
d="M226 745v-352l130 130h207l-144 -144l289 -290v516h-338v140h689v-140h-197v-605h-274l-279 280l-83 -83v-197h-155v745h155z" />
    <glyph glyph-name="L_A" horiz-adv-x="872" 
d="M71 745h155v-605h610v-140h-765v745zM691 222l-32 65h-206l-32 -65h-139l278 535l276 -535h-145zM556 497l-45 -90h88z" />
    <glyph glyph-name="L_E" horiz-adv-x="731" 
d="M71 745h155v-605h445v-140h-600v745zM671 222h-335v523h291v-123h-158v-59h184v-121h-184v-97h202v-123z" />
    <glyph glyph-name="L_I" horiz-adv-x="632" 
d="M71 745h155v-605h346v-140h-501v745zM572 745v-523h-139v523h139z" />
    <glyph glyph-name="L_O" horiz-adv-x="910" 
d="M71 745h155v-605h627v-140h-782v745zM586 215q-110 0 -189.5 79.5t-79.5 189.5q0 114 79 194t190 80q114 0 194 -80t80 -194q0 -111 -80 -190t-194 -79zM586 628q-54 0 -95.5 -42t-41.5 -102q0 -56 41.5 -98.5t95.5 -42.5q57 0 96 42t39 99q0 61 -39 102.5t-96 41.5z" />
    <glyph glyph-name="L_U" horiz-adv-x="871" 
d="M71 745h155v-605h585v-140h-740v745zM586 215q-112 0 -170.5 69t-58.5 183v278h132v-298q0 -50 25 -77.5t72 -27.5q92 0 92 105v298h133v-288q0 -114 -60 -178t-165 -64z" />
    <glyph glyph-name="M_E" horiz-adv-x="1211" 
d="M468 457l396 288h241v-140h-241v-139h280v-140h-280v-186h307v-140h-461v449l-242 -175l-242 175v-449h-155v758z" />
    <glyph glyph-name="M_B" horiz-adv-x="1274" 
d="M468 457l396 288h85q109 0 173 -48.5t64 -148.5q0 -78 -54 -126q102 -69 102 -182q0 -109 -78 -174.5t-186 -65.5h-260v449l-242 -175l-242 175v-449h-155v758zM864 140h110q48 0 74.5 25.5t26.5 69.5q0 45 -26.5 71t-74.5 26h-110v-192zM864 467h79q35 0 55 11.5
t24.5 25t4.5 32.5q0 69 -84 69h-79v-138z" />
    <glyph glyph-name="M_D" horiz-adv-x="1442" 
d="M468 457l396 288h148q163 0 276.5 -107t113.5 -265q0 -159 -113.5 -266t-275.5 -107h-303v449l-242 -175l-242 175v-449h-155v758zM864 140h149q97 0 163 66.5t66 166.5q0 101 -66 166.5t-164 65.5h-148v-465z" />
    <glyph glyph-name="M_H" horiz-adv-x="1433" 
d="M468 457l396 288v-279h343v279h155v-745h-155v326h-343v-326h-154v449l-242 -175l-242 175v-449h-155v758z" />
    <glyph glyph-name="M_K2" horiz-adv-x="1429" 
d="M468 457l396 288v-352l353 352h207l-366 -366l377 -379h-208l-279 280l-84 -83v-197h-154v449l-242 -175l-242 175v-449h-155v758z" />
    <glyph glyph-name="M_R2" horiz-adv-x="1313" 
d="M943 129h-79v-129h-154v449l-242 -175l-242 175v-449h-155v758l397 -301l396 288h105q130 0 219 -85.5t89 -207.5q0 -99 -44 -171t-123 -109l160 -172h-205zM864 269h65q92 0 140.5 44t48.5 127q0 72 -41.5 118.5t-117.5 46.5h-95v-336z" />
    <glyph glyph-name="M_N2" horiz-adv-x="1465" 
d="M1240 314v431h154v-758l-530 441v-428h-154v449l-242 -175l-242 175v-449h-155v758l397 -301l316 230z" />
    <glyph glyph-name="N_P" horiz-adv-x="1205" 
d="M601 314v431h259q131 0 220 -85.5t89 -207.5q0 -144 -88.5 -233.5t-235.5 -89.5h-89v-142l-530 441v-428h-155v759zM756 269h85q82 0 127 46t45 125q0 72 -42.5 118.5t-120.5 46.5h-94v-336z" />
    <glyph glyph-name="N_T" horiz-adv-x="1309" 
d="M601 523h155v-536l-530 441v-428h-155v759l530 -445v209zM601 605v140h689v-140h-196v-605h-155v605h-338z" />
    <glyph glyph-name="N_D" horiz-adv-x="1333" 
d="M601 314v431h302q163 0 276.5 -107t113.5 -265q0 -159 -113.5 -266t-275.5 -107h-165l-513 428v-428h-155v759zM756 140h148q97 0 163.5 66.5t66.5 166.5t-66.5 166t-164.5 66h-147v-465z" />
    <glyph glyph-name="O_C" horiz-adv-x="1210" 
d="M426 -13q-160 0 -273 113t-113 273t112.5 272.5t272.5 112.5q100 0 187 -48q85 48 185 48q103 0 190.5 -49t137.5 -132l-124 -90q-29 56 -83.5 89.5t-119.5 33.5q-29 0 -62 -10q75 -101 75 -227q0 -127 -75 -229q24 -8 62 -8q83 0 147 54.5t80 138.5h157
q-17 -144 -126.5 -243t-257.5 -99q-99 0 -187 48q-88 -48 -185 -48zM425 610q-95 0 -160.5 -69t-65.5 -168q0 -100 65.5 -168.5t161.5 -68.5q35 0 62 8q-74 101 -74 228t74 228q-33 10 -63 10zM573 372q0 -75 39 -134q40 63 40 135q0 69 -40 134q-39 -61 -39 -135z" />
    <glyph glyph-name="O_G" horiz-adv-x="1218" 
d="M426 -13q-160 0 -273 113t-113 273t112.5 272.5t272.5 112.5q101 0 186 -48q88 48 184 48q103 0 190.5 -49t138.5 -132l-124 -90q-30 56 -84.5 89.5t-119.5 33.5q-32 0 -60 -9q64 -86 73 -194h373v-23q0 -165 -113 -281t-273 -116q-100 0 -185 47q-86 -47 -185 -47z
M425 610q-95 0 -160.5 -69t-65.5 -168q0 -100 65.5 -168.5t161.5 -68.5q30 0 60 8q-73 102 -73 228q0 128 74 229q-30 9 -62 9zM1002 269h-205q-20 -71 -61 -125q25 -8 60 -8q70 0 126 35t80 98zM572 372q0 -74 40 -135q40 61 40 136q0 73 -41 135q-39 -61 -39 -136z" />
    <glyph glyph-name="O_Q" horiz-adv-x="1224" 
d="M646 -144l90 137q-65 10 -124 42q-88 -48 -186 -48q-160 0 -273 113t-113 273t112.5 272.5t272.5 112.5q100 0 187 -48q85 48 186 48q160 0 273 -113t113 -273q0 -132 -81 -235.5t-206 -136.5h206v-144h-457zM425 610q-95 0 -160.5 -69t-65.5 -168q0 -100 65.5 -168.5
t161.5 -68.5q35 0 62 8q-75 102 -75 228q0 129 74 228q-33 10 -62 10zM798 610q-29 0 -62 -10q75 -101 75 -227q0 -127 -75 -228q30 -9 63 -9q95 0 160.5 68.5t65.5 167.5t-66.5 168.5t-160.5 69.5zM652 373q0 70 -40 135q-40 -60 -40 -136t40 -136q40 65 40 137z" />
    <glyph glyph-name="R_A" horiz-adv-x="1336" 
d="M1173 0l-49 100h-361l-48 -100h-289l-122 129h-78v-129h-155v745h259q131 0 220 -85.5t89 -207.5q0 -99 -44.5 -171t-123.5 -109l111 -119l366 705l394 -758h-169zM226 269h64q92 0 141 44t49 127q0 72 -42 118.5t-118 46.5h-94v-336zM942 472l-112 -232h226z" />
    <glyph glyph-name="U_T" horiz-adv-x="1259" 
d="M552 523h153v-191q0 -162 -85 -253.5t-234 -91.5q-158 0 -240 98t-82 260v400h155v-426q0 -88 42.5 -135.5t124.5 -47.5q84 0 125 48t41 135v204zM552 605v140h688v-140h-197v-605h-154v605h-337z" />
    <glyph glyph-name="T_K" horiz-adv-x="1271" 
d="M707 605h-349v-605h-155v605h-184v140h688v-140zM552 523h155v-130l352 352h207l-366 -366l377 -379h-208l-279 280l-83 -83v-197h-155v523z" />
    <glyph glyph-name="T_Z" horiz-adv-x="1132" 
d="M710 140h404v-140h-663l387 605h-480v-605h-155v605h-184v140h1082z" />
    <glyph glyph-name="T_F" horiz-adv-x="1016" 
d="M705 0h-154v605h-193v-605h-155v605h-184v140h927v-140h-241v-139h281v-140h-281v-326z" />
    <glyph glyph-name="T_A" horiz-adv-x="971" 
d="M832 0l-33 64h-206l-32 -64h-139l279 535l276 -535h-145zM696 275l-44 -90h87zM358 0h-155v605h-184v140h732v-140h-393v-605z" />
    <glyph glyph-name="T_E" horiz-adv-x="857" 
d="M827 0h-335v523h292v-123h-158v-60h183v-120h-183v-97h201v-123zM358 0h-155v605h-184v140h765v-140h-426v-605z" />
    <glyph glyph-name="T_I" horiz-adv-x="761" 
d="M690 523v-523h-139v523h139zM358 0h-155v605h-184v140h671v-140h-332v-605z" />
    <glyph glyph-name="T_O" horiz-adv-x="1030" 
d="M358 0h-155v605h-184v140h840v-140h-501v-605zM728 -8q-111 0 -190.5 79t-79.5 190q0 114 79.5 194t190.5 80q114 0 193.5 -80t79.5 -194q0 -111 -79.5 -190t-193.5 -79zM728 405q-55 0 -96 -42t-41 -102q0 -56 41.5 -99t95.5 -43q57 0 95.5 42.5t38.5 99.5
q0 61 -38.5 102.5t-95.5 41.5z" />
    <glyph glyph-name="T_U" horiz-adv-x="987" 
d="M698 -8q-112 0 -170.5 68.5t-58.5 182.5v280h132v-300q0 -50 25 -77.5t72 -27.5q93 0 93 105v300h132v-289q0 -114 -59.5 -178t-165.5 -64zM358 0h-155v605h-184v140h903v-140h-564v-605z" />
    <glyph glyph-name="V_A" horiz-adv-x="1019" 
d="M856 0l-49 100h-359l-56 -113l-398 758h178l226 -436l233 449l394 -758h-169zM739 240l-114 231l-111 -231h225z" />
    <glyph glyph-name="W_A" horiz-adv-x="1326" 
d="M1163 0l-49 100h-361l-54 -113l-163 307l-153 -307l-398 758h178l226 -437l70 135l-158 302h178l226 -436l226 436v-1l7 14l394 -758h-169zM932 472l-112 -232h226z" />
    <glyph glyph-name="Y_A" horiz-adv-x="973" 
d="M389 379l196 378l394 -758h-169l-49 101h-361l-48 -101h-160l118 227l-316 519h178zM579 471l-112 -232h226z" />
    <glyph glyph-name="F_A" horiz-adv-x="877" 
d="M740 0l-32 64h-206l-32 -64h-139l278 535l277 -535h-146zM605 275l-45 -90h88zM226 0h-155v745h592v-140h-437v-139h187v-140h-187v-326z" />
    <glyph glyph-name="F_E" horiz-adv-x="862" 
d="M822 0h-334v523h291v-123h-159v-70h185v-120h-185v-87h202v-123zM226 0h-155v745h707v-140h-552v-139h160v-140h-160v-326z" />
    <glyph glyph-name="F_I" horiz-adv-x="706" 
d="M635 523v-523h-139v523h139zM226 0h-155v745h563v-140h-408v-139h167v-140h-167v-326z" />
    <glyph glyph-name="F_O" horiz-adv-x="1020" 
d="M717 -8q-110 0 -189.5 79t-79.5 190q0 114 79 194t190 80q114 0 194 -80t80 -194q0 -111 -80 -190t-194 -79zM226 0h-155v745h730v-140h-575v-139h160v-140h-160v-326zM717 405q-54 0 -95.5 -42t-41.5 -102q0 -56 42 -99t95 -43q57 0 96 42.5t39 99.5q0 61 -39 102.5
t-96 41.5z" />
    <glyph glyph-name="F_U" horiz-adv-x="989" 
d="M717 -8q-112 0 -170.5 68.5t-58.5 182.5v280h132v-300q0 -50 25 -77.5t72 -27.5q92 0 92 105v300h133v-289q0 -114 -60 -178t-165 -64zM226 0h-155v745h739v-140h-584v-139h160v-140h-160v-326z" />
    <glyph glyph-name="F_R" horiz-adv-x="938" 
d="M652 85h-32v-85h-132v523h183q96 0 160 -60.5t64 -150.5q0 -60 -28.5 -110.5t-76.5 -78.5l119 -123h-178zM620 207h28q52 0 80 25.5t28 71.5q0 42 -23.5 69t-66.5 27h-46v-193zM226 0h-155v745h600v-140h-445v-139h160v-140h-160v-326z" />
    <glyph glyph-name="F_L" horiz-adv-x="833" 
d="M488 523h132v-400h201v-123h-333v523zM226 0h-155v745h549v-140h-394v-139h160v-140h-160v-326z" />
    <glyph glyph-name="F_V" horiz-adv-x="1099" 
d="M732 308l213 437h160l-379 -758l-280 536h175zM226 0h-155v745h545v-140h-390v-139h187v-140h-187v-326z" />
    <glyph glyph-name="F_W" horiz-adv-x="1415" 
d="M226 0h-155v745h523v-140h-368v-139h187v-140h-187v-326zM1048 308l213 437h160l-379 -758l-162 307l-154 -307l-279 536h175l110 -215l70 135l-157 302h177z" />
    <glyph glyph-name="F_Y" horiz-adv-x="1082" 
d="M226 0h-155v745h545v-140h-390v-139h187v-140h-187v-326zM708 379l217 366h163l-305 -505v-240h-155v226l-181 297h175z" />
    <glyph glyph-name="F_X" horiz-adv-x="998" 
d="M544 383l-101 153h175l25 -40l157 249h164l-222 -353l255 -392h-175l-180 277l-173 -277h-164zM226 0h-155v745h545v-140h-390v-139h187v-140h-187v-326z" />
    <glyph glyph-name="L_L3" horiz-adv-x="747" 
d="M71 745h155v-605h492v-140h-647v745zM386 744h134v-400h198v-122h-332v522z" />
    <glyph glyph-name="T_V" horiz-adv-x="1183" 
d="M815 308l213 437h161l-380 -758l-280 536h175zM358 0h-155v605h-184v140h675v-140h-336v-605z" />
    <glyph glyph-name="T_W" horiz-adv-x="1497" 
d="M358 0h-155v605h-184v140h663v-140h-324v-605zM1130 308l213 437h160l-379 -758l-162 307l-154 -307l-279 536h175l110 -215l70 135l-158 302h178z" />
    <glyph glyph-name="T_X" horiz-adv-x="1105" 
d="M358 0h-155v605h-184v140h696v-140h-357v-605zM651 383l-101 153h175l25 -40l157 249h164l-222 -353l255 -392h-175l-180 277l-173 -277h-164z" />
    <glyph glyph-name="T_Y" horiz-adv-x="1164" 
d="M790 379l217 366h163l-305 -505v-240h-155v226l-181 297h175zM358 0h-155v605h-184v140h675v-140h-336v-605z" />
    <glyph glyph-name="T_R" horiz-adv-x="1158" 
d="M787 129h-78v-129h-155v605h-196v-605h-155v605h-184v140h794q131 0 220 -85.5t89 -207.5q0 -99 -44 -171t-123 -109l160 -172h-206zM709 269h64q92 0 141 44t49 127q0 72 -41.5 118.5t-117.5 46.5h-95v-336z" />
    <glyph glyph-name="U_F" horiz-adv-x="1015" 
d="M386 -13q-158 0 -240 98t-82 260v400h155v-426q0 -88 42.5 -135.5t124.5 -47.5q84 0 125 48t41 135v426h394v-140h-241v-139h280v-140h-280q-1 -153 -87 -246t-232 -93z" />
    <glyph glyph-name="U_R" horiz-adv-x="1156" 
d="M871 0l-184 201q-30 -103 -108 -158.5t-193 -55.5q-158 0 -240 98t-82 260v400h155v-426q0 -88 42.5 -135.5t124.5 -47.5q84 0 125 48t41 135v426h259q131 0 220 -85.5t89 -207.5q0 -99 -53.5 -171t-149.5 -109l160 -172h-206zM707 269h64q92 0 140.5 44t48.5 127
q0 72 -41.5 118.5t-117.5 46.5h-94v-336z" />
    <glyph glyph-name="M_P" horiz-adv-x="1308" 
d="M468 457l380 288h121q131 0 220 -85.5t89 -207.5q0 -144 -88.5 -233.5t-235.5 -89.5h-89v-129h-155v449l-242 -175l-242 175v-449h-155v758zM865 269h85q82 0 127 46t45 125q0 72 -42.5 118.5t-120.5 46.5h-94v-336z" />
    <glyph glyph-name="F_C" horiz-adv-x="1019" 
d="M226 0h-155v745h654v-140h-499v-139h160v-140h-160v-326zM857 261h136q-7 -112 -85.5 -190.5t-189.5 -78.5q-112 0 -191 78.5t-79 190.5q0 113 79 193.5t190 80.5q72 0 136.5 -38t102.5 -103l-108 -79q-21 41 -56 65.5t-74 24.5q-56 0 -95.5 -41.5t-39.5 -102.5
q0 -57 39.5 -99.5t95.5 -42.5q54 0 94.5 41.5t44.5 100.5z" />
    <glyph glyph-name="FOacute" horiz-adv-x="1020" 
d="M766 791l94 -68l-79 -118h-133zM717 -8q-110 0 -189.5 79t-79.5 190q0 114 79 194t190 80q114 0 194 -80t80 -194q0 -111 -80 -190t-194 -79zM226 0h-155v745h522v-140h-367v-139h160v-140h-160v-326zM717 405q-54 0 -95.5 -42t-41.5 -102q0 -56 42 -99t95 -43
q57 0 96 42.5t39 99.5q0 61 -39 102.5t-96 41.5z" />
    <glyph glyph-name="FAcute" horiz-adv-x="877" 
d="M637 791l94 -68l-78 -118h-134zM740 0l-32 64h-206l-32 -64h-139l278 535l277 -535h-146zM605 275l-45 -90h88zM226 0h-155v745h399v-140h-244v-139h187v-140h-187v-326z" />
    <glyph glyph-name="FEacute" horiz-adv-x="858" 
d="M649 791l94 -68l-79 -118h-133zM822 0h-334v523h291v-123h-159v-60h185v-120h-185v-97h202v-123zM226 0h-155v745h410v-140h-255v-139h160v-140h-160v-326z" />
    <glyph glyph-name="FUacute" horiz-adv-x="987" 
d="M792 791l94 -68l-79 -118h-133zM717 -8q-112 0 -170.5 68.5t-58.5 182.5v280h132v-300q0 -50 25 -77.5t72 -27.5q92 0 92 105v300h133v-289q0 -114 -60 -178t-165 -64zM226 0h-155v745h549v-140h-394v-139h160v-140h-160v-326z" />
    <glyph glyph-name="FIacute" horiz-adv-x="689" 
d="M614 791l94 -68l-79 -118h-133zM635 523v-523h-139v523h139zM226 0h-155v745h376v-140h-221v-139h167v-140h-167v-326z" />
    <glyph glyph-name="F_F2" horiz-adv-x="835" 
d="M226 0h-155v745h709v-140h-554v-139h160v-140h-160v-326zM620 0h-132v523h291v-123h-159v-60h185v-120h-185v-220z" />
    <glyph glyph-name="sc.Aacute" horiz-adv-x="530" 
d="M392 0l-32 62h-198l-30 -62h-134l267 516l267 -516h-140zM262 266l-43 -87h84zM309 760l93 -67l-78 -119h-133z" />
    <glyph glyph-name="sc.Agrave" horiz-adv-x="530" 
d="M392 0l-32 62h-198l-30 -62h-134l267 516l267 -516h-140zM262 266l-43 -87h84zM124 693l93 67l119 -186h-134z" />
    <glyph glyph-name="sc.Atilde" horiz-adv-x="530" 
d="M392 0l-32 62h-198l-30 -62h-134l267 516l267 -516h-140zM262 266l-43 -87h84zM138 579l-100 74q65 79 160 79q29 0 72 -18t64 -18q29 0 60 36l100 -72q-65 -86 -143 -86q-29 0 -69.5 20.5t-62.5 20.5q-38 0 -81 -36z" />
    <glyph glyph-name="sc.Acircumflex" horiz-adv-x="530" 
d="M392 0l-32 62h-198l-30 -62h-134l267 516l267 -516h-140zM262 266l-43 -87h84zM265 780l165 -206h-133l-32 43l-31 -43h-134z" />
    <glyph glyph-name="sc.Aring" horiz-adv-x="530" 
d="M392 0l-32 62h-198l-30 -62h-134l267 516l267 -516h-140zM262 266l-43 -87h84zM263 569q-45 0 -77 32t-32 76q0 48 32 80.5t77 32.5q47 0 79.5 -32.5t32.5 -80.5q0 -45 -32.5 -76.5t-79.5 -31.5zM263 709q-12 0 -20 -9t-8 -23q0 -11 8.5 -20t19.5 -9q13 0 20.5 8.5
t7.5 20.5q0 32 -28 32z" />
    <glyph glyph-name="sc.Adieresis" horiz-adv-x="530" 
d="M392 0l-32 62h-198l-30 -62h-134l267 516l267 -516h-140zM262 266l-43 -87h84zM196 635q0 -28 -18 -46t-45 -18q-26 0 -44 17.5t-18 46.5q0 27 18 44.5t44 17.5q27 0 45 -17.5t18 -44.5zM457 635q0 -28 -18.5 -46t-45.5 -18q-25 0 -43 17.5t-18 46.5q0 27 18 44.5
t43 17.5q27 0 45.5 -17.5t18.5 -44.5z" />
    <glyph glyph-name="sc.Eacute" horiz-adv-x="403" 
d="M371 0h-324v505h282v-119h-154v-57h178v-116h-178v-94h196v-119zM230 760l94 -67l-78 -119h-134z" />
    <glyph glyph-name="sc.Egrave" horiz-adv-x="403" 
d="M371 0h-324v505h282v-119h-154v-57h178v-116h-178v-94h196v-119zM70 693l94 67l118 -186h-134z" />
    <glyph glyph-name="sc.Ecircumflex" horiz-adv-x="403" 
d="M371 0h-324v505h282v-119h-154v-57h178v-116h-178v-94h196v-119zM184 780l165 -206h-134l-31 43l-32 -43h-133z" />
    <glyph glyph-name="sc.Edieresis" horiz-adv-x="403" 
d="M371 0h-324v505h282v-119h-154v-57h178v-116h-178v-94h196v-119zM120 635q0 -28 -18 -46t-45 -18q-26 0 -44 17.5t-18 46.5q0 27 18 44.5t44 17.5q27 0 45 -17.5t18 -44.5zM381 635q0 -28 -18.5 -46t-45.5 -18q-25 0 -43 17.5t-18 46.5q0 27 18 44.5t43 17.5
q27 0 45.5 -17.5t18.5 -44.5z" />
    <glyph glyph-name="sc.Iacute" horiz-adv-x="221" 
d="M174 505v-505h-127v505h127zM159 760l94 -67l-79 -119h-133z" />
    <glyph glyph-name="sc.Igrave" horiz-adv-x="221" 
d="M174 505v-505h-127v505h127zM-32 693l94 67l118 -186h-133z" />
    <glyph glyph-name="sc.Icircumflex" horiz-adv-x="221" 
d="M174 505v-505h-127v505h127zM110 780l165 -206h-134l-31 43l-32 -43h-133z" />
    <glyph glyph-name="sc.Idieresis" horiz-adv-x="221" 
d="M174 505v-505h-127v505h127zM43 635q0 -28 -18 -46t-45 -18q-26 0 -44 17.5t-18 46.5q0 27 18 44.5t44 17.5q27 0 45 -17.5t18 -44.5zM304 635q0 -28 -18.5 -46t-45.5 -18q-26 0 -43.5 17.5t-17.5 46.5q0 27 18 44.5t43 17.5q27 0 45.5 -17.5t18.5 -44.5z" />
    <glyph glyph-name="sc.Oacute" horiz-adv-x="575" 
d="M336 760l93 -67l-78 -119h-134zM285 -7q-107 0 -183 76.5t-76 183.5q0 109 76 186t183 77q110 0 187 -76.5t77 -186.5q0 -108 -77 -184t-187 -76zM285 391q-52 0 -91.5 -40.5t-39.5 -97.5q0 -54 40 -95.5t91 -41.5q55 0 92.5 40.5t37.5 96.5q0 58 -37.5 98t-92.5 40z" />
    <glyph glyph-name="sc.Ograve" horiz-adv-x="575" 
d="M127 693l94 67l118 -186h-133zM285 -7q-107 0 -183 76.5t-76 183.5q0 109 76 186t183 77q110 0 187 -76.5t77 -186.5q0 -108 -77 -184t-187 -76zM285 391q-52 0 -91.5 -40.5t-39.5 -97.5q0 -54 40 -95.5t91 -41.5q55 0 92.5 40.5t37.5 96.5q0 58 -37.5 98t-92.5 40z" />
    <glyph glyph-name="sc.Ocircumflex" horiz-adv-x="575" 
d="M284 780l165 -206h-133l-32 43l-31 -43h-134zM285 -7q-107 0 -183 76.5t-76 183.5q0 109 76 186t183 77q110 0 187 -76.5t77 -186.5q0 -108 -77 -184t-187 -76zM285 391q-52 0 -91.5 -40.5t-39.5 -97.5q0 -54 40 -95.5t91 -41.5q55 0 92.5 40.5t37.5 96.5q0 58 -37.5 98
t-92.5 40z" />
    <glyph glyph-name="sc.Odieresis" horiz-adv-x="575" 
d="M216 635q0 -28 -18 -46t-45 -18q-26 0 -44 17.5t-18 46.5q0 27 18 44.5t44 17.5q27 0 45 -17.5t18 -44.5zM477 635q0 -28 -18.5 -46t-45.5 -18q-25 0 -43 17.5t-18 46.5q0 27 18 44.5t43 17.5q27 0 45.5 -17.5t18.5 -44.5zM285 -7q-107 0 -183 76.5t-76 183.5
q0 109 76 186t183 77q110 0 187 -76.5t77 -186.5q0 -108 -77 -184t-187 -76zM285 391q-52 0 -91.5 -40.5t-39.5 -97.5q0 -54 40 -95.5t91 -41.5q55 0 92.5 40.5t37.5 96.5q0 58 -37.5 98t-92.5 40z" />
    <glyph glyph-name="sc.Otilde" horiz-adv-x="575" 
d="M184 579l-100 74q65 79 159 79q29 0 72.5 -18t64.5 -18q29 0 60 36l99 -72q-65 -86 -143 -86q-28 0 -69 20.5t-63 20.5q-37 0 -80 -36zM285 -7q-107 0 -183 76.5t-76 183.5q0 109 76 186t183 77q110 0 187 -76.5t77 -186.5q0 -108 -77 -184t-187 -76zM285 391
q-52 0 -91.5 -40.5t-39.5 -97.5q0 -54 40 -95.5t91 -41.5q55 0 92.5 40.5t37.5 96.5q0 58 -37.5 98t-92.5 40z" />
    <glyph glyph-name="sc.Uacute" horiz-adv-x="518" 
d="M261 -7q-108 0 -164.5 66.5t-56.5 176.5v269h127v-287q0 -50 24 -76t70 -26q90 0 90 102v287h127v-278q0 -109 -58 -171.5t-159 -62.5zM312 760l94 -67l-79 -119h-133z" />
    <glyph glyph-name="sc.Ugrave" horiz-adv-x="518" 
d="M261 -7q-108 0 -164.5 66.5t-56.5 176.5v269h127v-287q0 -50 24 -76t70 -26q90 0 90 102v287h127v-278q0 -109 -58 -171.5t-159 -62.5zM124 693l93 67l119 -186h-134z" />
    <glyph glyph-name="sc.Ucircumflex" horiz-adv-x="518" 
d="M261 -7q-108 0 -164.5 66.5t-56.5 176.5v269h127v-287q0 -50 24 -76t70 -26q90 0 90 102v287h127v-278q0 -109 -58 -171.5t-159 -62.5zM260 780l165 -206h-134l-31 43l-32 -43h-133z" />
    <glyph glyph-name="sc.Udieresis" horiz-adv-x="518" 
d="M261 -7q-108 0 -164.5 66.5t-56.5 176.5v269h127v-287q0 -50 24 -76t70 -26q90 0 90 102v287h127v-278q0 -109 -58 -171.5t-159 -62.5zM192 635q0 -28 -18 -46t-45 -18q-26 0 -44 17.5t-18 46.5q0 27 18 44.5t44 17.5q27 0 45 -17.5t18 -44.5zM453 635q0 -28 -18.5 -46
t-46.5 -18q-25 0 -43 18t-18 46q0 27 18 44.5t43 17.5q28 0 46.5 -17.5t18.5 -44.5z" />
    <glyph glyph-name="TAacute" horiz-adv-x="968" 
d="M832 0l-33 64h-206l-32 -64h-139l279 535l276 -535h-145zM696 275l-44 -90h87zM358 0h-155v605h-184v140h554v-140h-215v-605zM743 791l93 -68l-78 -118h-133z" />
    <glyph glyph-name="TEacute" horiz-adv-x="856" 
d="M827 0h-335v523h292v-123h-158v-60h183v-120h-183v-97h201v-123zM358 0h-155v605h-184v140h531v-140h-192v-605zM719 791l94 -68l-78 -118h-134z" />
    <glyph glyph-name="TIacute" horiz-adv-x="761" 
d="M690 523v-523h-139v523h139zM358 0h-155v605h-184v140h496v-140h-157v-605zM675 791l94 -68l-79 -118h-133z" />
    <glyph glyph-name="TOacute" horiz-adv-x="1030" 
d="M358 0h-155v605h-184v140h677v-140h-338v-605zM728 -8q-111 0 -190.5 79t-79.5 190q0 114 79.5 194t190.5 80q114 0 193.5 -80t79.5 -194q0 -111 -79.5 -190t-193.5 -79zM728 405q-55 0 -96 -42t-41 -102q0 -56 41.5 -99t95.5 -43q57 0 95.5 42.5t38.5 99.5
q0 61 -38.5 102.5t-95.5 41.5zM862 791l94 -68l-79 -118h-133z" />
    <glyph glyph-name="TUacute" horiz-adv-x="970" 
d="M698 -8q-112 0 -170.5 68.5t-58.5 182.5v280h132v-300q0 -50 25 -77.5t72 -27.5q93 0 93 105v300h132v-289q0 -114 -59.5 -178t-165.5 -64zM358 0h-155v605h-184v140h642v-140h-303v-605zM827 791l94 -68l-79 -118h-133z" />
    <glyph glyph-name="LAacute" horiz-adv-x="872" 
d="M71 745h155v-605h610v-140h-765v745zM691 222l-32 65h-206l-32 -65h-139l278 535l276 -535h-145zM556 497l-45 -90h88zM593 994l94 -67l-79 -119h-133z" />
    <glyph glyph-name="LEacute" horiz-adv-x="731" 
d="M535 994l93 -67l-78 -119h-133zM71 745h155v-605h445v-140h-600v745zM671 222h-335v523h291v-123h-158v-59h184v-121h-184v-97h202v-123z" />
    <glyph glyph-name="LIacute" horiz-adv-x="635" 
d="M556 994l94 -67l-79 -119h-133zM71 745h155v-605h346v-140h-501v745zM572 745v-523h-139v523h139z" />
    <glyph glyph-name="LOacute" horiz-adv-x="910" 
d="M71 745h155v-605h627v-140h-782v745zM586 215q-110 0 -189.5 79.5t-79.5 189.5q0 114 79 194t190 80q114 0 194 -80t80 -194q0 -111 -80 -190t-194 -79zM586 628q-54 0 -95.5 -42t-41.5 -102q0 -56 41.5 -98.5t95.5 -42.5q57 0 96 42t39 99q0 61 -39 102.5t-96 41.5z
M652 994l93 -67l-78 -119h-134z" />
    <glyph glyph-name="LUacute" horiz-adv-x="871" 
d="M632 994l93 -67l-78 -119h-134zM71 745h155v-605h585v-140h-740v745zM586 215q-112 0 -170.5 69t-58.5 183v278h132v-298q0 -50 25 -77.5t72 -27.5q92 0 92 105v298h133v-288q0 -114 -60 -178t-165 -64z" />
    <glyph glyph-name="ordCO" horiz-adv-x="915" 
d="M30 152v107h855v-107h-855zM685 333q-86 0 -147.5 61.5t-61.5 147.5q0 88 61 149t148 61q88 0 149 -61t61 -149q0 -86 -61.5 -147.5t-148.5 -61.5zM685 651q-41 0 -72 -32.5t-31 -76.5t31 -76.5t72 -32.5q42 0 71.5 32.5t29.5 76.5t-29.5 76.5t-71.5 32.5zM331 517h107
q-12 -79 -69.5 -131.5t-140.5 -52.5q-87 0 -147.5 61t-60.5 148q0 86 61 148t147 62q53 0 101.5 -27t77.5 -73l-82 -59q-23 33 -45 46t-52 13q-43 0 -73.5 -32.5t-30.5 -77.5t30.5 -77.5t73.5 -32.5q35 0 64 24.5t39 60.5z" />
    <glyph glyph-name="ordED" horiz-adv-x="732" 
d="M30 152v107h672v-107h-672zM335 745h167q87 0 148 -58.5t61 -144.5t-61 -144t-148 -58h-167v405zM436 435h66q43 0 74 30.5t31 74.5q0 47 -31 78t-74 31h-66v-214zM289 340h-259v405h227v-96h-126v-54h146v-94h-146v-66h158v-95z" />
    <glyph glyph-name="ordING" horiz-adv-x="1050" 
d="M30 152v107h990v-107h-990zM464 537v208h103v-410l-272 213v-208h-102v412zM30 340v405h104v-405h-104zM908 476h-98v85h220v-14q0 -89 -61.5 -151.5t-150.5 -62.5q-87 0 -147 60.5t-60 147.5t60 149t147 62q55 0 102.5 -26.5t76.5 -73.5l-82 -59q-37 59 -97 59
q-45 0 -74.5 -32t-29.5 -79q0 -45 30 -77t74 -32q69 0 90 44z" />
    <glyph glyph-name="ordDO" horiz-adv-x="875" 
d="M30 152v107h815v-107h-815zM644 333q-86 0 -147 61.5t-61 147.5q0 87 61 148.5t147 61.5q88 0 149.5 -61t61.5 -149q0 -86 -61.5 -147.5t-149.5 -61.5zM647 652q-42 0 -73 -32.5t-31 -77.5q0 -44 31.5 -77t72.5 -33q42 0 72.5 32.5t30.5 77.5q0 46 -30.5 78t-72.5 32z
M30 745h167q87 0 148.5 -58.5t61.5 -144.5t-61.5 -144t-148.5 -58h-167v405zM131 435h66q44 0 75 30.5t31 74.5q0 47 -31 78t-75 31h-66v-214z" />
    <glyph glyph-name="ordDL" horiz-adv-x="736" 
d="M30 152v107h676v-107h-676zM449 745h104v-310h153v-95h-257v405zM30 745h167q87 0 148.5 -58.5t61.5 -144.5t-61.5 -144t-148.5 -58h-167v405zM131 435h66q44 0 75 30.5t31 74.5q0 47 -31 78t-75 31h-66v-214z" />
    <glyph glyph-name="ordFL" horiz-adv-x="604" 
d="M30 152v107h544v-107h-544zM317 745h104v-310h153v-95h-257v405zM131 340h-101v405h227v-96h-126v-54h147v-94h-147v-161z" />
    <glyph glyph-name="ordTO" horiz-adv-x="758" 
d="M30 152v107h698v-107h-698zM527 333q-86 0 -147 61.5t-61 147.5q0 88 61 149t147 61q88 0 149.5 -61t61.5 -149q0 -86 -61.5 -147.5t-149.5 -61.5zM529 652q-42 0 -73 -32.5t-31 -77.5q0 -44 31.5 -77t72.5 -33q43 0 73 32.5t30 77.5q0 46 -30 78t-73 32zM211 340h-101
v309h-92v96h288v-96h-95v-309z" />
    <glyph glyph-name="ordTA" horiz-adv-x="708" 
d="M30 152v107h648v-107h-648zM564 340l-25 51h-162l-24 -51h-109l218 419l216 -419h-114zM458 556l-35 -70h69zM211 340h-101v309h-92v96h288v-96h-95v-309z" />
    <glyph glyph-name="ordMA" horiz-adv-x="955" 
d="M30 152v107h895v-107h-895zM247 590l214 162v-412h-101v209l-113 -81l-113 81v-209h-104v412zM812 340l-26 51h-162l-24 -51h-109l218 419l216 -419h-113zM705 556l-35 -70h69z" />
    <glyph glyph-name="ordMO" horiz-adv-x="946" 
d="M30 152v107h886v-107h-886zM247 590l214 162v-412h-101v209l-113 -81l-113 81v-209h-104v412zM716 333q-86 0 -147.5 61.5t-61.5 147.5q0 88 61.5 149t147.5 61q88 0 149 -61t61 -149q0 -86 -61 -147.5t-149 -61.5zM718 652q-42 0 -73 -32.5t-31 -77.5q0 -44 31.5 -77
t72.5 -33q42 0 72.5 32.5t30.5 77.5q0 46 -30.5 78t-72.5 32z" />
    <glyph glyph-name="ordCA" horiz-adv-x="880" 
d="M30 152v107h820v-107h-820zM736 340l-26 51h-161l-25 -51h-108l217 419l217 -419h-114zM630 556l-35 -70h69zM331 517h107q-12 -79 -69.5 -131.5t-140.5 -52.5q-87 0 -147.5 61t-60.5 148q0 86 61 148t147 62q53 0 101.5 -27t77.5 -73l-82 -59q-23 33 -45 46t-52 13
q-43 0 -73.5 -32.5t-30.5 -77.5t30.5 -77.5t73.5 -32.5q35 0 64 24.5t39 60.5z" />
    <glyph glyph-name="ordRA2" horiz-adv-x="830" 
d="M156 407h-23v-67h-103v405h143q73 0 122.5 -47t49.5 -115q0 -48 -22 -86.5t-59 -60.5l93 -96h-139zM133 502h21q40 0 62 19.5t22 55.5q0 32 -18 52t-52 20h-35v-147zM30 152v107h770v-107h-770zM686 340l-25 51h-162l-24 -51h-109l218 419l216 -419h-114zM580 556
l-35 -70h69z" />
    <glyph glyph-name="ordRO" horiz-adv-x="816" 
d="M156 407h-23v-67h-103v405h143q73 0 122.5 -47t49.5 -115q0 -48 -22 -86.5t-59 -60.5l93 -96h-139zM133 502h21q40 0 62 19.5t22 55.5q0 32 -18 52t-52 20h-35v-147zM30 152v107h755v-107h-755zM586 333q-86 0 -147 61.5t-61 147.5q0 88 61 149t147 61q88 0 149 -61
t61 -149q0 -86 -61 -147.5t-149 -61.5zM588 652q-42 0 -73 -32.5t-31 -77.5q0 -44 31.5 -77t72.5 -33q43 0 73 32.5t30 77.5q0 46 -30.5 78t-72.5 32z" />
    <glyph glyph-name="ordTE2" horiz-adv-x="627" 
d="M30 152v107h567v-107h-567zM211 340h-101v309h-92v96h288v-96h-95v-309zM597 340h-259v405h227v-96h-126v-54h146v-94h-146v-66h158v-95z" />
    <glyph glyph-name="ordVA" horiz-adv-x="790" 
d="M30 152v107h730v-107h-730zM233 535l102 210h110l-215 -412l-224 412h118zM646 340l-26 51h-161l-25 -51h-108l217 419l217 -419h-114zM540 556l-35 -70h69z" />
    <glyph glyph-name="ordVO" horiz-adv-x="861" 
d="M30 152v107h801v-107h-801zM233 535l102 210h110l-215 -412l-224 412h118zM631 333q-86 0 -147 61.5t-61 147.5q0 88 61 149t147 61q88 0 149 -61t61 -149q0 -86 -61.5 -147.5t-148.5 -61.5zM633 652q-42 0 -73 -32.5t-31 -77.5q0 -44 31.5 -77t72.5 -33q43 0 73 32.5
t30 77.5q0 46 -30.5 78t-72.5 32z" />
    <glyph glyph-name="ordGO" horiz-adv-x="910" 
d="M30 152v107h850v-107h-850zM679 333q-86 0 -147 61.5t-61 147.5q0 87 61 148.5t147 61.5q88 0 149.5 -61t61.5 -149q0 -86 -61.5 -147.5t-149.5 -61.5zM682 652q-42 0 -73.5 -32.5t-31.5 -77.5q0 -44 32 -77t73 -33q42 0 72 32.5t30 77.5q0 46 -30 78t-72 32zM317 476
h-98v85h220v-14q0 -89 -61.5 -151.5t-150.5 -62.5q-87 0 -147 60.5t-60 147.5t60 149t147 62q55 0 102.5 -26.5t76.5 -73.5l-82 -59q-37 59 -97 59q-45 0 -74.5 -32t-29.5 -79q0 -45 30 -77t74 -32q69 0 90 44z" />
    <glyph glyph-name="ordGM" horiz-adv-x="938" 
d="M30 152v107h878v-107h-878zM694 590l214 162v-412h-100v209l-114 -81l-112 81v-209h-104v412zM317 476h-98v85h220v-14q0 -89 -61.5 -151.5t-150.5 -62.5q-87 0 -147 60.5t-60 147.5t60 149t147 62q55 0 102.5 -26.5t76.5 -73.5l-82 -59q-37 59 -97 59q-45 0 -74.5 -32
t-29.5 -79q0 -45 30 -77t74 -32q69 0 90 44z" />
    <glyph glyph-name="ordKL" horiz-adv-x="716" 
d="M30 152v107h656v-107h-656zM478 745h104v-310h104v-95h-208v405zM135 745v-165l164 165h139l-198 -200l204 -205h-139l-140 140l-30 -33v-107h-105v405h105z" />
    <glyph glyph-name="ordKG" horiz-adv-x="840" 
d="M30 152v107h779v-107h-779zM135 745v-165l164 165h139l-198 -200l204 -205h-139l-140 140l-30 -33v-107h-105v405h105zM698 476h-98v85h220v-14q0 -89 -61.5 -151.5t-150.5 -62.5q-87 0 -147 60.5t-60 147.5t60 149t147 62q55 0 102.5 -26.5t76.5 -73.5l-82 -59
q-37 59 -97 59q-45 0 -74.5 -32t-29.5 -79q0 -45 30 -77t74 -32q69 0 90 44z" />
    <glyph glyph-name="ordKM" horiz-adv-x="939" 
d="M30 152v107h879v-107h-879zM135 745v-165l164 165h139l-198 -200l204 -205h-139l-140 140l-30 -33v-107h-105v405h105zM695 590l214 162v-412h-101v209l-113 -81l-113 81v-209h-104v412z" />
    <glyph glyph-name="ordLP" horiz-adv-x="620" 
d="M30 152v107h560v-107h-560zM30 745h104v-310h104v-95h-208v405zM388 340h-105v405h145q73 0 122.5 -50.5t49.5 -115.5q0 -79 -50 -130.5t-128 -51.5h-34v-57zM388 491h33q35 0 55 23t20 56q0 31 -19.5 55t-52.5 24h-36v-158z" />
    <glyph glyph-name="ordEP" horiz-adv-x="677" 
d="M30 152v107h617v-107h-617zM445 340h-105v405h145q73 0 122.5 -50.5t49.5 -115.5q0 -79 -50 -130.5t-128 -51.5h-34v-57zM445 491h33q35 0 55 23t20 56q0 31 -19.5 55t-51.5 24h-37v-158zM289 340h-259v405h227v-96h-126v-54h146v-94h-146v-66h158v-95z" />
    <glyph glyph-name="ordSG" horiz-adv-x="774" 
d="M30 152v107h714v-107h-714zM150 508q-55 8 -87.5 40.5t-32.5 82.5t38.5 85.5t84.5 35.5q79 0 120 -65l-77 -53q-15 21 -37 21q-27 0 -27 -23q0 -25 42 -26q56 -2 92 -38.5t36 -95.5q0 -60 -42 -99.5t-98 -39.5q-82 0 -140 68l82 62q28 -31 58 -31q14 0 24 10t10 24
q0 36 -46 42zM632 476h-98v85h220v-14q0 -89 -61.5 -151.5t-150.5 -62.5q-87 0 -147 60.5t-60 147.5t60 149t147 62q55 0 102.5 -26.5t76.5 -73.5l-82 -59q-37 59 -97 59q-45 0 -74.5 -32t-29.5 -79q0 -45 30 -77t74 -32q69 0 90 44z" />
    <glyph glyph-name="ordSC" horiz-adv-x="777" 
d="M30 152v107h717v-107h-717zM150 508q-55 8 -87.5 40.5t-32.5 82.5t38.5 85.5t84.5 35.5q79 0 120 -65l-77 -53q-15 21 -37 21q-27 0 -27 -23q0 -25 42 -26q56 -2 92 -38.5t36 -95.5q0 -60 -42 -99.5t-98 -39.5q-82 0 -140 68l82 62q28 -31 58 -31q14 0 24 10t10 24
q0 36 -46 42zM647 517h107q-12 -79 -69.5 -131.5t-140.5 -52.5q-87 0 -147.5 61t-60.5 148q0 86 61 148t147 62q53 0 101.5 -27t77.5 -73l-82 -59q-23 33 -45 46t-52 13q-43 0 -73.5 -32.5t-30.5 -77.5t30.5 -77.5t73.5 -32.5q35 0 64 24.5t39 60.5z" />
    <glyph glyph-name="ordLI2" horiz-adv-x="415" 
d="M30 152v107h355v-107h-355zM30 745h104v-310h104v-95h-208v405zM385 745v-405h-102v405h102z" />
    <glyph glyph-name="ordLS" horiz-adv-x="570" 
d="M30 152v107h509v-107h-509zM30 745h104v-310h104v-95h-208v405zM398 508q-55 8 -87.5 40.5t-32.5 82.5t38.5 85.5t84.5 35.5q79 0 120 -65l-77 -53q-15 21 -37 21q-27 0 -27 -23q0 -25 42 -26q56 -2 92 -38.5t36 -95.5q0 -60 -42 -99.5t-98 -39.5q-82 0 -140 68l82 62
q28 -31 58 -31q14 0 24 10t10 24q0 36 -46 42z" />
    <glyph glyph-name="ordGSM" horiz-adv-x="1251" 
d="M30 152v107h1191v-107h-1191zM1007 590l214 162v-412h-100v209l-114 -81l-112 81v-209h-104v412zM598 508q-55 8 -87.5 40.5t-32.5 82.5t38.5 85.5t84.5 35.5q79 0 120 -65l-77 -53q-15 21 -37 21q-27 0 -27 -23q0 -25 42 -26q56 -2 92 -38.5t36 -95.5q0 -60 -42 -99.5
t-98 -39.5q-82 0 -140 68l82 62q28 -31 58 -31q14 0 24 10t10 24q0 36 -46 42zM317 476h-98v85h220v-14q0 -89 -61.5 -151.5t-150.5 -62.5q-87 0 -147 60.5t-60 147.5t60 149t147 62q55 0 102.5 -26.5t76.5 -73.5l-82 -59q-37 59 -97 59q-45 0 -74.5 -32t-29.5 -79
q0 -45 30 -77t74 -32q69 0 90 44z" />
    <glyph glyph-name="ordHH" horiz-adv-x="788" 
d="M30 152v107h728v-107h-728zM30 745h101v-150h132v150h101v-405h-101v161h-132v-161h-101v405zM424 745h101v-150h132v150h101v-405h-101v161h-132v-161h-101v405z" />
    <glyph glyph-name="ordSP" horiz-adv-x="995" 
d="M30 152v107h935v-107h-935zM764 340h-106v405h145q73 0 122.5 -50.5t49.5 -115.5q0 -79 -49.5 -130.5t-127.5 -51.5h-34v-57zM764 492h32q35 0 55 23t20 56q0 31 -19 55t-52 24h-36v-158zM454 508q-55 8 -87.5 40.5t-32.5 82.5t38.5 85.5t84.5 35.5q79 0 120 -65l-77 -53
q-15 21 -37 21q-27 0 -27 -23q0 -25 42 -26q56 -2 92 -38.5t36 -95.5q0 -60 -42 -99.5t-98 -39.5q-82 0 -140 68l82 62q28 -31 58 -31q14 0 24 10t10 24q0 36 -46 42zM289 340h-259v405h227v-96h-126v-54h146v-94h-146v-66h158v-95z" />
    <glyph glyph-name="ordFR" horiz-adv-x="676" 
d="M457 407h-23v-67h-103v405h143q73 0 122.5 -47t49.5 -115q0 -48 -22 -86.5t-59 -60.5l92 -96h-138zM434 502h21q40 0 62 19.5t22 55.5q0 32 -18 52t-52 20h-35v-147zM30 152v107h616v-107h-616zM131 340h-101v405h227v-96h-126v-54h147v-94h-147v-161z" />
    <glyph glyph-name="ordENG" horiz-adv-x="1200" 
d="M30 152v107h1130v-107h-1130zM607 537v208h103v-410l-273 213v-208h-102v412zM1048 476h-98v85h220v-14q0 -89 -61.5 -151.5t-150.5 -62.5q-87 0 -147 60.5t-60 147.5t60 149t147 62q55 0 102.5 -26.5t76.5 -73.5l-82 -59q-37 59 -97 59q-45 0 -74.5 -32t-29.5 -79
q0 -45 30 -77t74 -32q69 0 90 44zM289 340h-259v405h227v-96h-126v-54h146v-94h-146v-66h158v-95z" />
    <glyph glyph-name="ordJP" horiz-adv-x="757" 
d="M30 152v107h697v-107h-697zM526 340h-106v406h145q73 0 122.5 -50.5t49.5 -115.5q0 -79 -50 -130.5t-128 -51.5h-33v-58zM526 493h32q35 0 55 23t20 56q0 31 -19.5 55t-51.5 24h-36v-158zM199 745h171v-222q0 -79 -48.5 -134.5t-129.5 -55.5q-65 0 -110.5 35.5
t-61.5 107.5l95 29q19 -73 77 -73q37 0 57 27t20 64v126h-70v96z" />
    <glyph glyph-name="ordGR" horiz-adv-x="825" 
d="M30 152v107h765v-107h-765zM606 407h-23v-67h-103v405h143q73 0 122.5 -47t49.5 -115q0 -48 -22 -86.5t-59 -60.5l92 -96h-138zM583 502h21q40 0 62 19.5t22 55.5q0 32 -18 52t-52 20h-35v-147zM317 476h-98v85h220v-14q0 -89 -61.5 -151.5t-150.5 -62.5q-87 0 -147 60.5
t-60 147.5t60 149t147 62q55 0 102.5 -26.5t76.5 -73.5l-82 -59q-37 59 -97 59q-45 0 -74.5 -32t-29.5 -79q0 -45 30 -77t74 -32q69 0 90 44z" />
    <glyph glyph-name="ordLM" horiz-adv-x="745" 
d="M30 152v107h685v-107h-685zM30 745h104v-310h104v-95h-208v405zM500 590l215 162v-412h-101v209l-114 -81l-112 81v-209h-104v412z" />
    <glyph glyph-name="ordAV" horiz-adv-x="784" 
d="M351 340l-26 51h-162l-24 -51h-109l218 413l216 -413h-113zM244 556l-35 -70h69zM30 152v107h724v-107h-724zM566 535l102 210h110l-216 -412l-223 412h118z" />
    <glyph glyph-name="ordBO" horiz-adv-x="792" 
d="M30 152v107h732v-107h-732zM562 333q-86 0 -147 61.5t-61 147.5q0 88 61 149t147 61q88 0 149 -61t61 -149q0 -86 -61 -147.5t-149 -61.5zM564 652q-42 0 -73 -32.5t-31 -77.5q0 -44 31.5 -77t72.5 -33q42 0 72.5 32.5t30.5 77.5q0 46 -30.5 78t-72.5 32zM176 340h-146
v405h134q132 0 132 -112q0 -42 -19 -63q45 -40 45 -96q0 -62 -43 -98t-103 -36zM131 432h47q39 0 39 37q0 17 -10.5 27t-28.5 10h-47v-74zM131 605h36q25 0 25 22t-25 22h-36v-44z" />
    <glyph glyph-name="ordBR" horiz-adv-x="717" 
d="M30 152v107h656v-107h-656zM498 407h-23v-67h-103v405h142q74 0 123 -46.5t49 -115.5q0 -48 -21.5 -87t-58.5 -60l92 -96h-138zM475 502h21q40 0 62 19.5t22 55.5q0 32 -18 52t-52 20h-35v-147zM176 340h-146v405h134q132 0 132 -112q0 -42 -19 -63q45 -40 45 -96
q0 -62 -43 -98t-103 -36zM131 432h47q39 0 39 37q0 17 -10.5 27t-28.5 10h-47v-74zM131 605h36q25 0 25 22t-25 22h-36v-44z" />
    <glyph glyph-name="ordSA" horiz-adv-x="756" 
d="M30 152v107h696v-107h-696zM613 340l-26 51h-161l-25 -51h-109l218 419l216 -419h-113zM506 556l-35 -70h69zM150 508q-55 8 -87.5 40.5t-32.5 82.5t38.5 85.5t84.5 35.5q79 0 120 -65l-77 -53q-15 21 -37 21q-27 0 -27 -23q0 -25 42 -26q56 -2 92 -38.5t36 -95.5
q0 -60 -42 -99.5t-98 -39.5q-82 0 -140 68l82 62q28 -31 58 -31q14 0 24 10t10 24q0 36 -46 42z" />
    <glyph glyph-name="ordSL" horiz-adv-x="638" 
d="M30 152v107h578v-107h-578zM351 745h104v-310h153v-95h-257v405zM150 508q-55 8 -87.5 40.5t-32.5 82.5t38.5 85.5t84.5 35.5q79 0 120 -65l-77 -53q-15 21 -37 21q-27 0 -27 -23q0 -25 42 -26q56 -2 92 -38.5t36 -95.5q0 -60 -42 -99.5t-98 -39.5q-82 0 -140 68l82 62
q28 -31 58 -31q14 0 24 10t10 24q0 36 -46 42z" />
    <glyph glyph-name="ordSM" horiz-adv-x="811" 
d="M30 152v107h751v-107h-751zM567 590l214 162v-412h-100v209l-114 -81l-112 81v-209h-104v412zM150 508q-55 8 -87.5 40.5t-32.5 82.5t38.5 85.5t84.5 35.5q79 0 120 -65l-77 -53q-15 21 -37 21q-27 0 -27 -23q0 -25 42 -26q56 -2 92 -38.5t36 -95.5q0 -60 -42 -99.5
t-98 -39.5q-82 0 -140 68l82 62q28 -31 58 -31q14 0 24 10t10 24q0 36 -46 42z" />
    <glyph glyph-name="ordKO" horiz-adv-x="852" 
d="M30 152v107h792v-107h-792zM135 745v-165l164 165h139l-198 -200l204 -205h-139l-140 140l-30 -33v-107h-105v405h105zM621 333q-86 0 -147 61.5t-61 147.5q0 88 61 149t147 61q88 0 149.5 -61t61.5 -149q0 -86 -61.5 -147.5t-149.5 -61.5zM623 652q-42 0 -73 -32.5
t-31 -77.5q0 -44 31.5 -77t72.5 -33q43 0 73 32.5t30 77.5q0 46 -30.5 78t-72.5 32z" />
    <glyph glyph-name="ordBE" horiz-adv-x="659" 
d="M30 152v107h599v-107h-599zM176 340h-146v405h134q132 0 132 -112q0 -42 -19 -63q45 -40 45 -96q0 -62 -43 -98t-103 -36zM131 432h47q39 0 39 37q0 17 -10.5 27t-28.5 10h-47v-74zM131 605h36q25 0 25 22t-25 22h-36v-44zM629 340h-259v405h227v-96h-126v-54h146v-94
h-146v-66h158v-95z" />
    <glyph glyph-name="ordXL" horiz-adv-x="698" 
d="M30 152v107h638v-107h-638zM459 745h105v-310h104v-95h-209v405zM159 546l-129 199h116l77 -120l75 120h111l-125 -190l140 -215h-115l-85 132l-84 -132h-110z" />
    <glyph glyph-name="ordXS" horiz-adv-x="725" 
d="M30 152v107h665v-107h-665zM159 546l-129 199h116l77 -120l75 120h111l-125 -190l140 -215h-115l-85 132l-84 -132h-110zM553 508q-55 8 -87.5 40.5t-32.5 82.5t38.5 85.5t84.5 35.5q79 0 120 -65l-77 -53q-15 21 -37 21q-27 0 -27 -23q0 -25 42 -26q56 -2 92 -38.5
t36 -95.5q0 -60 -42 -99.5t-98 -39.5q-82 0 -140 68l82 62q28 -31 58 -31q14 0 24 10t10 24q0 36 -46 42z" />
    <glyph glyph-name="ordPS" horiz-adv-x="674" 
d="M30 152v107h614v-107h-614zM502 508q-55 8 -87.5 40.5t-32.5 82.5t38.5 85.5t84.5 35.5q79 0 120 -65l-77 -53q-15 21 -37 21q-27 0 -27 -23q0 -25 42 -26q56 -2 92 -38.5t36 -95.5q0 -60 -42 -99.5t-98 -39.5q-82 0 -140 68l82 62q28 -31 58 -31q14 0 24 10t10 24
q0 36 -46 42zM131 340h-101v405h145q73 0 122.5 -50.5t49.5 -115.5q0 -79 -50 -130.5t-128 -51.5h-38v-57zM131 491h37q35 0 55 23.5t20 56.5q0 31 -19.5 54.5t-52.5 23.5h-40v-158z" />
    <glyph glyph-name="ordPO" horiz-adv-x="809" 
d="M30 152v107h749v-107h-749zM579 333q-86 0 -147 61.5t-61 147.5q0 88 61 149t147 61q88 0 149 -61t61 -149q0 -86 -61.5 -147.5t-148.5 -61.5zM581 652q-42 0 -73 -32.5t-31 -77.5q0 -44 31.5 -77t72.5 -33q42 0 72.5 32.5t30.5 77.5q0 46 -30.5 78t-72.5 32zM131 340
h-101v405h145q73 0 122.5 -50.5t49.5 -115.5q0 -79 -50 -130.5t-128 -51.5h-38v-57zM131 491h37q35 0 55 23.5t20 56.5q0 31 -19.5 54.5t-52.5 23.5h-40v-158z" />
    <glyph glyph-name="ordLY" horiz-adv-x="626" 
d="M30 152v107h565v-107h-565zM407 567l103 178h110l-166 -275v-130h-102v122l-170 283h118zM30 745h101v-310h156v-95h-257v405z" />
    <glyph glyph-name="ordTR" horiz-adv-x="683" 
d="M30 152v107h622v-107h-622zM464 407h-24v-67h-102v405h142q74 0 123 -46.5t49 -115.5q0 -48 -22 -86.5t-58 -60.5l92 -96h-138zM440 502h22q40 0 62 19.5t22 55.5q0 31 -18.5 51.5t-51.5 20.5h-36v-147zM211 340h-101v309h-92v96h288v-96h-95v-309z" />
    <glyph glyph-name="ordMR" horiz-adv-x="862" 
d="M30 152v107h804v-107h-804zM646 407h-24v-67h-103v405h143q73 0 122.5 -47t49.5 -115q0 -48 -22 -86.5t-59 -60.5l90 -96h-135zM622 502h21q40 0 62 19.5t22 55.5q0 32 -18 52t-52 20h-35v-147zM247 590l214 162v-412h-101v209l-113 -81l-113 81v-209h-104v412z" />
    <glyph glyph-name="ordSR" horiz-adv-x="686" 
d="M30 152v107h626v-107h-626zM467 407h-23v-67h-103v405h143q73 0 122.5 -47t49.5 -115q0 -48 -22 -86.5t-59 -60.5l92 -96h-138zM444 502h21q40 0 62 19.5t22 55.5q0 32 -18 52t-52 20h-35v-147zM150 508q-55 8 -87.5 40.5t-32.5 82.5t38.5 85.5t84.5 35.5q79 0 120 -65
l-77 -53q-15 21 -37 21q-27 0 -27 -23q0 -25 42 -26q56 -2 92 -38.5t36 -95.5q0 -60 -42 -99.5t-98 -39.5q-82 0 -140 68l82 62q28 -31 58 -31q14 0 24 10t10 24q0 36 -46 42z" />
    <glyph glyph-name="ordMS" horiz-adv-x="809" 
d="M30 152v107h749v-107h-749zM247 590l214 162v-412h-101v209l-113 -81l-113 81v-209h-104v412zM637 508q-55 8 -87.5 40.5t-32.5 82.5t38.5 85.5t84.5 35.5q79 0 120 -65l-77 -53q-15 21 -37 21q-27 0 -27 -23q0 -25 42 -26q56 -2 92 -38.5t36 -95.5q0 -60 -42 -99.5
t-98 -39.5q-82 0 -140 68l82 62q28 -31 58 -31q14 0 24 10t10 24q0 36 -46 42z" />
    <glyph glyph-name="ordSRA" horiz-adv-x="1099" 
d="M465 407h-24v-67h-103v405h143q73 0 122.5 -47t49.5 -115q0 -48 -22 -86.5t-59 -60.5q42 -46 73 -77l208 400l216 -419h-113l-26 51h-161l-25 -51h-217zM30 152v107h1039v-107h-1039zM441 502h21q40 0 62 19.5t22 55.5q0 32 -18 52t-52 20h-35v-147zM849 556l-35 -70h69z
M150 508q-55 8 -87.5 40.5t-32.5 82.5t38.5 85.5t84.5 35.5q79 0 120 -65l-77 -53q-15 21 -37 21q-27 0 -27 -23q0 -25 42 -26q56 -2 92 -38.5t36 -95.5q0 -60 -42 -99.5t-98 -39.5q-82 0 -140 68l82 62q28 -31 58 -31q14 0 24 10t10 24q0 36 -46 42z" />
    <glyph glyph-name="ordSTA" horiz-adv-x="982" 
d="M30 152v107h922v-107h-922zM839 340l-26 51h-162l-24 -51h-109l218 419l216 -419h-113zM732 556l-35 -70h69zM483 340h-103v309h-93v96h288v-96h-92v-309zM150 508q-55 8 -87.5 40.5t-32.5 82.5t38.5 85.5t84.5 35.5q79 0 120 -65l-77 -53q-15 21 -37 21q-27 0 -27 -23
q0 -25 42 -26q56 -2 92 -38.5t36 -95.5q0 -60 -42 -99.5t-98 -39.5q-82 0 -140 68l82 62q28 -31 58 -31q14 0 24 10t10 24q0 36 -46 42z" />
    </font>
</defs>
</svg>
