<?xml version="1.0" encoding="utf-8"?>
<!-- Generator: Adobe Illustrator 15.1.0, SVG Export Plug-In . SVG Version: 6.00 Build 0)  -->
<!DOCTYPE svg PUBLIC "-//W3C//DTD SVG 1.1//EN" "http://www.w3.org/Graphics/SVG/1.1/DTD/svg11.dtd">
<svg version="1.1" id="Layer_1" xmlns="http://www.w3.org/2000/svg" xmlns:xlink="http://www.w3.org/1999/xlink" x="0px" y="0px"
	 width="1290.8px" height="188.461px" viewBox="0 0 1290.8 188.461" enable-background="new 0 0 1290.8 188.461"
	 xml:space="preserve">
<g>
	<polygon opacity="0.4" fill="#7AA1C2" points="1066.24,125.44 1057.84,126.816 1059.943,137.436 1061.292,144.246 
		1062.709,151.383 1064.053,158.203 1065.225,164.099 1073.631,162.723 1072.311,156.073 1070.958,149.236 1069.57,142.239 
		1068.22,135.41 	"/>
	<polygon opacity="0.4" fill="#7AA1C2" points="1012.701,133.448 1004.151,133.415 1004.229,143.486 1004.28,150.383 
		1004.351,158.852 1004.403,165.749 1004.448,171.7 1012.999,171.734 1012.949,165.585 1012.896,158.68 1012.832,150.368 
		1012.779,143.468 	"/>
	<polygon opacity="0.4" fill="#7AA1C2" points="1094.513,120.027 1086.107,121.403 1087.72,129.537 1089.087,136.434 
		1090.526,143.711 1091.874,150.514 1093.493,158.688 1101.896,157.312 1100.366,149.574 1099.015,142.766 1097.469,134.967 
		1096.122,128.167 	"/>
	<polygon opacity="0.4" fill="#7AA1C2" points="338.563,65.59 334.974,73.512 331.839,80.435 329.327,85.979 326.258,92.757 
		322.88,100.215 330.754,103.421 332.634,99.271 335.776,92.333 338.256,86.857 341.371,79.983 346.437,68.798 	"/>
	<polygon opacity="0.4" fill="#7AA1C2" points="305.147,51.497 303.449,60.447 302.159,67.232 300.311,76.959 299.021,83.752 
		298.022,89.017 306.438,90.512 307.491,84.963 308.78,78.188 310.598,68.602 311.888,61.824 313.564,52.993 	"/>
	<polygon opacity="0.4" fill="#7AA1C2" points="279.052,49.348 270.504,49.37 270.651,59.024 270.76,65.924 270.91,75.809 
		271.016,82.709 271.159,91.855 279.705,91.832 279.565,82.684 279.459,75.785 279.305,65.878 279.198,58.979 	"/>
	<polygon opacity="0.4" fill="#7AA1C2" points="359.851,86.068 357.944,93.252 356.107,100.173 353.928,108.381 352.058,115.414 
		350.058,122.95 358.354,124.968 359.86,119.301 361.663,112.514 363.997,103.725 365.788,96.978 368.147,88.09 	"/>
	<polygon opacity="0.4" fill="#7AA1C2" points="91.425,30.238 82.879,29.97 82.678,38.504 82.516,45.442 82.28,55.547 82.12,62.487 
		81.986,68.146 90.531,68.413 90.684,62.006 90.842,55.101 91.081,44.993 91.242,38.088 	"/>
	<polygon opacity="0.4" fill="#7AA1C2" points="55.901,31.093 55.064,37.335 54.141,44.255 52.876,53.688 51.948,60.615 
		50.83,68.96 59.313,70.048 60.313,62.584 61.228,55.749 62.551,45.868 63.467,39.034 64.385,32.186 	"/>
	<polygon opacity="0.4" fill="#7AA1C2" points="121.906,33.375 113.375,32.806 112.897,40.288 112.454,47.235 111.825,57.082 
		111.381,64.021 110.942,70.923 119.476,71.497 119.826,66.007 120.275,58.973 120.892,49.297 121.341,42.254 	"/>
	<polygon opacity="0.4" fill="#7AA1C2" points="211.117,46.356 208.99,52.555 206.666,59.329 204.131,66.723 201.799,73.518 
		198.75,82.405 206.89,84.939 209.246,78.077 211.56,71.334 214.2,63.634 216.488,56.959 219.255,48.895 	"/>
	<polygon opacity="0.4" fill="#7AA1C2" points="184.649,35.837 183.407,41.137 181.776,48.097 179.391,58.275 177.666,65.645 
		175.941,73.006 184.29,74.815 186.517,65.308 188.091,58.587 190.205,49.568 191.814,42.705 193,37.646 	"/>
	<polygon opacity="0.4" fill="#7AA1C2" points="154.806,37.557 146.261,37.656 146.496,47.001 146.672,53.939 146.93,64.007 
		147.105,70.938 147.339,80.126 155.883,80.026 155.652,70.932 155.479,64.019 155.224,54.035 155.048,47.129 	"/>
	<polygon opacity="0.4" fill="#7AA1C2" points="244.963,51.815 236.414,51.749 236.452,61.332 236.475,68.307 236.51,78.081 
		236.534,85.05 236.552,89.925 245.099,89.992 245.08,84.115 245.053,77.182 245.021,67.356 244.996,60.418 	"/>
	<polygon opacity="0.4" fill="#7AA1C2" points="456.732,93.733 455.35,99.024 453.604,105.708 451.129,115.18 449.362,121.933 
		447.085,130.651 455.389,132.645 457.585,124.242 459.36,117.449 461.648,108.69 463.44,101.833 465.037,95.727 	"/>
	<path opacity="0.4" fill="#7AA1C2" d="M79.01,62.732l0.006-0.002c0.021,0.001,0.045-0.003,0.065-0.004L79.01,62.732z"/>
	<path opacity="0.4" fill="#7AA1C2" d="M234.116,68.656c0.021-0.003,0.042-0.008,0.064-0.013l1.138-0.186L234.116,68.656z"/>
	<path opacity="0.4" fill="#7AA1C2" d="M169.718,68.071c0.031-0.012,0.067-0.021,0.099-0.032c0.02-0.006,0.037-0.012,0.055-0.018
		L169.718,68.071z"/>
	<path opacity="0.4" fill="#7AA1C2" d="M78.387,55.852l-0.003,0.003c-5.144,0.405-9.863,0.691-14.628,0.219
		c-0.007-0.002-0.014-0.002-0.021-0.002c-0.833-0.085-1.668-0.19-2.507-0.323l-0.916,6.835c0.914,0.142,1.824,0.253,2.72,0.341
		c0.002,0.001,0.007,0.001,0.012,0.002c5.57,0.557,10.78,0.209,15.972-0.197l-0.006,0.002l0.071-0.006
		c-0.021,0.001-0.044,0.005-0.065,0.004l0.063-0.003c1.015-0.08,2.023-0.16,3.041-0.241l0.161-6.939
		C80.954,55.648,79.656,55.754,78.387,55.852z"/>
	<path opacity="0.4" fill="#7AA1C2" d="M145.704,63.901l-0.489-0.051c-5.515-0.589-9.443-1.177-12.536-1.766
		c-3.099-0.593-5.371-1.18-7.674-1.813l-0.002-0.001c-1.497-0.414-3.013-0.845-4.728-1.297l-0.448,7.034
		c1.072,0.292,2.107,0.583,3.182,0.877h-0.002c2.383,0.659,4.938,1.321,8.29,1.955c3.354,0.643,7.499,1.254,13.167,1.864
		l0.548,0.056c0.053,0.006,0.105,0.011,0.158,0.016c0.658,0.065,1.302,0.117,1.935,0.162l-0.175-6.93
		C146.526,63.976,146.117,63.94,145.704,63.901z"/>
	<path opacity="0.4" fill="#7AA1C2" d="M193.187,60.397c-1.723-0.804-3.379-1.45-5.095-1.809l-1.575,6.72l0.007,0.002
		c0.793,0.151,2.007,0.573,3.426,1.244c3.19,1.493,7.331,4.125,11.849,6.963l2.331-6.795c-1.871-1.177-3.704-2.319-5.472-3.366
		C196.767,62.238,194.946,61.229,193.187,60.397z"/>
	<path opacity="0.4" fill="#7AA1C2" d="M167.169,68.887l2.648-0.848c-0.032,0.011-0.068,0.02-0.099,0.032L167.169,68.887z"/>
	<path opacity="0.4" fill="#7AA1C2" d="M168.188,61.245c-3.78,1.2-7.704,2.353-12.709,2.773l0.172,6.913
		c5.656-0.427,10.213-1.645,14.067-2.86l0.154-0.05c-0.018,0.006-0.035,0.012-0.055,0.018l0.821-0.264
		c2.609-0.837,4.899-1.618,7.028-2.131l1.725-7.369c-1.079,0.139-2.124,0.336-3.139,0.568
		C173.45,59.49,170.859,60.397,168.188,61.245z"/>
	<path opacity="0.4" fill="#7AA1C2" d="M105.36,55.997L105.36,55.997c-1.375-0.206-2.724-0.374-4.037-0.504
		c-3.723-0.371-7.2-0.457-10.481-0.392l-0.159,6.905c3.157-0.076,6.442-0.004,9.949,0.347c1.188,0.116,2.4,0.268,3.645,0.453v0.001
		c2.782,0.419,5.102,0.823,7.103,1.213l0.444-6.939C109.933,56.724,107.801,56.363,105.36,55.997z"/>
	<path opacity="0.4" fill="#7AA1C2" d="M232.059,78.715L232.059,78.715c-0.867,0.145-1.842,0.168-2.932,0.06
		c-0.015-0.001-0.027-0.001-0.045-0.004c-2.424-0.241-5.388-1.181-8.548-2.618c-2.885-1.304-5.931-2.998-8.975-4.819l-2.313,6.743
		c2.675,1.562,5.408,3.037,8.156,4.285c3.64,1.637,7.31,2.895,11.03,3.273c1.665,0.168,3.346,0.146,5.004-0.128l0.003,0.001
		c0.82-0.139,1.864-0.295,3.095-0.458l-0.024-6.969C234.738,78.303,233.238,78.519,232.059,78.715z"/>
	<path opacity="0.4" fill="#7AA1C2" d="M631.96,141.723l-0.003,0.001c-4.791-0.764-9.7-1.721-14.49-2.811l-1.678,6.694
		c4.959,1.132,10.038,2.118,15.017,2.915h-0.002c3.169,0.507,6.625,1.12,10.211,1.611l0.438-6.898
		C638.247,142.782,635.039,142.219,631.96,141.723z"/>
	<path opacity="0.4" fill="#7AA1C2" d="M851.525,116.827c-1.867,0.708-3.701,1.515-5.51,2.376l2.492,6.591
		c3.105-1.522,6.126-2.809,9.05-3.642c0.95-0.274,1.886-0.502,2.811-0.676l0.675-7.101
		C857.742,114.774,854.567,115.671,851.525,116.827z"/>
	<path opacity="0.4" fill="#7AA1C2" d="M830.103,127.414c-3.477,1.675-6.933,3.092-10.38,3.982
		c-1.541,0.399-3.077,0.692-4.622,0.869l1.046,6.84c3.372-0.389,6.597-1.222,9.674-2.301c5.375-1.897,10.37-4.527,15.141-7.079
		l-2.514-6.637C835.646,124.587,832.872,126.083,830.103,127.414z"/>
	<path opacity="0.4" fill="#7AA1C2" d="M802.029,132.475l-0.023,0.002h0.011c-1.961,0.084-3.927,0.158-5.902,0.234h0.003
		c-5.425,0.198-10.867,0.391-16.323,0.646l0.349,6.893c5.426-0.255,10.881-0.445,16.351-0.647l0.004,0.001
		c1.969-0.076,3.942-0.148,5.924-0.235h0.004c1.708-0.068,3.408-0.146,5.103-0.229l-1.043-6.859
		C804.995,132.351,803.516,132.417,802.029,132.475z"/>
	<path opacity="0.4" fill="#7AA1C2" d="M921.536,147.038c7.197,3.561,14.515,6.567,21.91,9.059l1.133-6.924
		c-7.13-2.466-14.174-5.436-21.111-8.949L921.536,147.038z"/>
	<path opacity="0.4" fill="#7AA1C2" d="M883.047,119.715c-2.04-1.125-4.093-2.072-6.16-2.825c-2.427-1.129-4.866-1.887-7.273-2.313
		l-0.653,6.897c1.575,0.329,3.18,0.861,4.854,1.648l0.165,0.08l0.176,0.062c1.696,0.61,3.438,1.404,5.216,2.387l0.021,0.01
		l-0.014-0.007c1.838,1.008,3.722,2.216,5.648,3.611l3.444-6.16c-1.807-1.257-3.612-2.392-5.428-3.389L883.047,119.715z"/>
	<path opacity="0.4" fill="#7AA1C2" d="M749.882,136.666c-0.352,0.048-0.704,0.095-1.061,0.141l0.549,6.901
		c0.548-0.07,1.093-0.141,1.636-0.216c6.998-0.938,13.776-2.078,20.61-2.707l-0.351-6.906
		C763.883,134.533,756.85,135.738,749.882,136.666z"/>
	<path opacity="0.4" fill="#7AA1C2" d="M907.653,136.168c-2.13-0.668-4.229-1.405-6.296-2.235c-2.063-1.984-4.102-3.849-6.129-5.574
		l-3.515,6.293c1.608,1.414,3.244,2.934,4.904,4.551l0.511,0.492l0.675,0.277c2.507,1.034,5.04,1.94,7.599,2.738l0.009,0.003
		l-0.021-0.008c2.607,0.825,5.238,1.549,7.879,2.19l1.89-6.647c-2.53-0.609-5.03-1.299-7.494-2.078L907.653,136.168z"/>
	<path opacity="0.4" fill="#7AA1C2" d="M585.68,128.083l-2.228,6.738c5.085,2.697,11.848,5.193,19.492,7.452
		c1.488,0.439,3.01,0.867,4.553,1.28l1.682-6.702c-1.395-0.376-2.766-0.762-4.107-1.157
		C596.963,133.319,589.926,130.579,585.68,128.083z"/>
	<path opacity="0.4" fill="#7AA1C2" d="M568.494,122.625c-3.742-0.37-7.592-0.362-11.519-0.083l1.047,6.852
		c3.421-0.225,6.689-0.217,9.755,0.087c0.009,0.002,0.019,0.002,0.023,0.004c2.811,0.282,5.444,0.802,7.909,1.607l2.171-6.567
		c-3.015-0.968-6.151-1.578-9.361-1.896C568.513,122.626,568.503,122.625,568.494,122.625z"/>
	<path opacity="0.4" fill="#7AA1C2" d="M548.385,123.529c-7.39,1.13-14.986,2.915-22.533,4.786l0.937,6.923
		c7.803-1.938,15.497-3.778,22.757-4.882l-1.042-6.844C548.464,123.519,548.423,123.524,548.385,123.529z"/>
	<path opacity="0.4" fill="#7AA1C2" d="M517.529,130.386c-3.264,0.809-6.501,1.594-9.688,2.306l0,0
		c-4.644,1.04-8.736,1.226-12.5,0.854c-2.767-0.28-5.373-0.859-7.866-1.67l-1.75,6.699c2.786,0.865,5.751,1.513,8.919,1.828
		c0.002,0,0.003,0,0.005,0c0.007,0,0.012,0.002,0.017,0.001c4.584,0.457,9.567,0.208,14.961-1.003h-0.001
		c2.934-0.656,5.886-1.366,8.836-2.093L517.529,130.386z"/>
	<path opacity="0.4" fill="#7AA1C2" d="M693.197,130.463c-2.769-0.276-5.598-0.296-8.449,0.104l1.044,6.843
		c2.151-0.316,4.387-0.32,6.715-0.087c0.015-0.001,0.029,0.001,0.045,0.003c4.289,0.426,8.883,1.679,13.61,3.066l0.55-7.035
		C702.37,132.106,697.863,130.93,693.197,130.463z"/>
	<path opacity="0.4" fill="#7AA1C2" d="M724.655,137.651c-0.305-0.031-0.605-0.064-0.909-0.098c-2.714-0.298-5.618-0.96-8.649-1.777
		l-0.546,7.002c2.766,0.71,5.568,1.304,8.406,1.627c0.339,0.037,0.673,0.072,1.004,0.104c5.884,0.589,11.494,0.503,16.917,0.086
		l-0.548-6.885C735.192,138.112,730.014,138.186,724.655,137.651z"/>
	<path opacity="0.4" fill="#7AA1C2" d="M675.26,133.689c-4.111,2.241-6.624,4.685-8.823,6.376c-1.104,0.86-2.129,1.554-3.315,2.134
		c-1.19,0.575-2.564,1.057-4.437,1.402c-2.68,0.495-5.633,0.611-8.711,0.48l-0.442,6.883c3.553,0.165,7.141,0.046,10.643-0.592
		c2.492-0.455,4.596-1.167,6.399-2.046c2.712-1.327,4.663-2.965,6.474-4.449c1.462-1.202,2.853-2.334,4.594-3.416l-1.133-7.408
		C676.089,133.251,675.675,133.465,675.26,133.689z"/>
	<path opacity="0.4" fill="#7AA1C2" d="M951.692,158.651c6.846,1.94,13.764,3.461,20.719,4.585l1.15-6.799
		c-6.979-1.131-13.897-2.668-20.745-4.65L951.692,158.651z"/>
	<path opacity="0.4" fill="#7AA1C2" d="M984.772,157.9c-0.007-0.002-0.009-0.003-0.02-0.003c-0.906-0.092-1.814-0.188-2.718-0.293
		l-1.151,6.807c1.053,0.123,2.106,0.236,3.159,0.342c0.009,0,0.011,0,0.018,0.002c6.757,0.672,13.539,0.995,20.345,0.995
		l-0.055-6.896C997.79,158.853,991.262,158.542,984.772,157.9z"/>
	<path opacity="0.4" fill="#7AA1C2" d="M466.228,120.855c-2.226-1.247-4.496-2.429-6.868-3.406l-1.775,6.793
		c1.6,0.717,3.234,1.569,4.917,2.516c3.845,2.164,7.912,4.792,12.442,7.208c0.909,0.483,1.838,0.959,2.791,1.416l1.796-6.876
		c-0.339-0.176-0.677-0.353-1.015-0.53C474.353,125.759,470.354,123.18,466.228,120.855z"/>
	<path opacity="0.4" fill="#7AA1C2" d="M1252.427,106.561c-2.613,3.476-5.296,6.818-8.065,9.999l5.146,5.047
		c5.719-6.488,10.989-13.554,16.025-20.918l-5.619-4.635C1257.469,99.658,1254.98,103.171,1252.427,106.561z"/>
	<path opacity="0.4" fill="#7AA1C2" d="M1230.522,130.189c-4.078,3.372-8.368,6.367-12.938,8.924l1.864,6.997
		c9.065-4.771,17.032-11.045,24.22-18.263c0.072-0.072,0.144-0.146,0.217-0.22l-5.118-5.023
		C1236.114,125.3,1233.372,127.837,1230.522,130.189z"/>
	<path opacity="0.4" fill="#7AA1C2" d="M1264.461,89.191l5.636,4.648c3.055-4.678,6.037-9.436,9.01-14.214l-5.707-4.581
		C1270.431,79.82,1267.468,84.555,1264.461,89.191z"/>
	<path opacity="0.4" fill="#7AA1C2" d="M1088.474,143.956l-0.392,0.047l-0.368,0.125c-5.56,1.86-11.152,3.566-16.756,5.108
		l1.353,6.837c5.89-1.606,11.749-3.386,17.571-5.322c0.666-0.081,1.328-0.158,1.992-0.236l-1.348-6.803
		C1089.84,143.792,1089.157,143.872,1088.474,143.956z"/>
	<path opacity="0.4" fill="#7AA1C2" d="M1105.112,142.165l-0.037,0.004l-0.033,0.002c-2.013,0.188-4.02,0.387-6.027,0.596
		l1.352,6.808c1.814-0.186,3.635-0.366,5.458-0.536c4.275-0.318,8.555-0.577,12.832-0.767l-0.229-6.898
		C1113.974,141.564,1109.536,141.838,1105.112,142.165z"/>
	<path opacity="0.4" fill="#7AA1C2" d="M1012.896,158.68l0.056,6.904c7.203-0.281,14.414-0.906,21.62-1.844l-1.045-6.841
		C1026.638,157.801,1019.752,158.403,1012.896,158.68z"/>
	<path opacity="0.4" fill="#7AA1C2" d="M1203.74,145.158c-4.385,0.777-8.987,0.978-13.885,0.49
		c-0.329-0.031-0.659-0.067-0.986-0.105c-1.292-0.221-2.58-0.432-3.871-0.637l-0.438,6.914c1.058,0.17,2.115,0.346,3.176,0.524
		l0.099,0.016l0.096,0.014c0.411,0.049,0.822,0.093,1.234,0.134c5.691,0.568,11.138,0.323,16.304-0.623l0.239-0.043l0.232-0.074
		c1.94-0.617,3.834-1.3,5.685-2.042l-1.813-6.816C1207.841,143.737,1205.817,144.487,1203.74,145.158z"/>
	<path opacity="0.4" fill="#7AA1C2" d="M1126.964,141.098l0.233,6.896c6.741-0.138,13.498-0.086,20.268,0.182l0.102-6.896
		C1140.68,141.011,1133.813,140.958,1126.964,141.098z"/>
	<path opacity="0.4" fill="#7AA1C2" d="M1167.291,142.636c-3.733-0.372-7.461-0.676-11.179-0.916l-0.106,6.902
		c3.527,0.231,7.057,0.522,10.593,0.873c3.155,0.314,6.313,0.677,9.471,1.091l0.439-6.895
		C1173.432,143.294,1170.358,142.943,1167.291,142.636z"/>
	<path opacity="0.4" fill="#7AA1C2" d="M1041.954,155.654l1.05,6.845c7.035-1.152,14.058-2.595,21.049-4.296l-1.344-6.819
		C1055.801,153.078,1048.875,154.509,1041.954,155.654z"/>
	<path opacity="0.4" fill="#7AA1C2" d="M308.78,78.188l-1.289,6.776c2.749,0.504,5.31,1.097,7.617,1.787
		c4.896,1.45,8.582,3.378,10.572,5.42h0.002c0.193,0.196,0.386,0.394,0.577,0.583l3.07-6.775c-3.225-2.568-7.363-4.377-12.06-5.796
		C314.615,79.393,311.771,78.733,308.78,78.188z"/>
	<path opacity="0.4" fill="#7AA1C2" d="M440.906,122.098c3.3-0.261,6.25-0.327,8.456-0.165l1.767-6.753
		c-0.16-0.018-0.32-0.039-0.481-0.053c-3.038-0.298-6.565-0.202-10.441,0.1c-2.496,0.197-5.124,0.479-7.816,0.828l-0.063,6.986
		C435.329,122.637,438.238,122.309,440.906,122.098z"/>
	<path opacity="0.4" fill="#7AA1C2" d="M251.02,76.698c-2.099,0.153-4.095,0.316-5.965,0.484l0.024,6.936
		c2.043-0.189,4.251-0.373,6.591-0.54c5.824-0.421,12.463-0.754,19.347-0.868l-0.106-6.901
		C263.82,75.926,257.005,76.268,251.02,76.698z"/>
	<path opacity="0.4" fill="#7AA1C2" d="M379.545,118.285c-2.677-0.534-4.95-1.071-6.128-1.437l0.057,0.014l-0.055-0.014
		c-4.615-1.428-8.443-2.849-11.759-4.334l-1.8,6.787c3.337,1.433,7.066,2.785,11.336,4.097l0.003,0.002
		c1.685,0.515,4.055,1.06,6.886,1.629c2.819,0.565,6.052,1.137,9.267,1.634l0.192,0.027l-0.193-0.027
		c0.208,0.03,0.415,0.06,0.622,0.091l0.215-6.941C385.181,119.346,382.152,118.807,379.545,118.285z"/>
	<path opacity="0.4" fill="#7AA1C2" d="M349.867,105.548c-4.562-3.484-8.745-7.74-14.09-13.215l-3.142,6.934
		c4.375,4.458,8.224,8.229,12.621,11.607l0.002,0.002c2.118,1.617,4.352,3.127,6.8,4.541l1.87-7.036
		c-1.421-0.9-2.759-1.842-4.063-2.836L349.867,105.548z"/>
	<path opacity="0.4" fill="#7AA1C2" d="M279.942,75.79L279.942,75.79c-0.16-0.001-0.321-0.003-0.483-0.005l0.107,6.898
		c0.118,0.002,0.24,0.002,0.358,0.006l0.001-0.003c6.046,0.079,12.095,0.364,17.764,0.929c0.015,0.001,0.03,0.003,0.049,0.005
		c0.429,0.041,0.857,0.085,1.282,0.132l1.29-6.792c-0.639-0.072-1.282-0.144-1.93-0.204
		C292.425,76.162,286.167,75.874,279.942,75.79z"/>
	<path opacity="0.4" fill="#7AA1C2" d="M402.095,121.084l0.005-0.004c-0.198,0.039-1.019,0.092-2.063,0.053
		c-0.928-0.027-2.063-0.105-3.326-0.225l-0.219,6.905c1.22,0.105,2.354,0.181,3.387,0.214c1.328,0.033,2.446,0.025,3.584-0.154
		l0.003-0.003c5.24-0.873,12.665-2.3,20.298-3.544l0.065-7.024C415.556,118.624,407.493,120.18,402.095,121.084z"/>
	
		<line opacity="0.4" fill="#7AA1C2" stroke="#E2E7F0" stroke-width="0" stroke-linecap="round" stroke-linejoin="round" x1="123.124" y1="49.915" x2="123.518" y2="50.022"/>
	<path opacity="0.4" fill="#7AA1C2" stroke="#E2E7F0" stroke-width="0" stroke-linecap="round" stroke-linejoin="round" d="
		M234.18,68.643c-0.022,0.005-0.042,0.01-0.064,0.013"/>
	<path opacity="0.4" fill="#7AA1C2" d="M104.305,45.81c3.276,0.498,5.912,0.969,8.148,1.424l0.441-6.946
		c-2.145-0.422-4.608-0.855-7.502-1.287h-0.004c-1.382-0.21-2.734-0.375-4.054-0.509c-3.578-0.355-6.928-0.45-10.094-0.401
		l-0.16,6.902c3.04-0.059,6.197,0.024,9.563,0.359C101.836,45.471,103.054,45.623,104.305,45.81z"/>
	<path opacity="0.4" fill="#7AA1C2" d="M229.111,68.78c1.664,0.166,3.345,0.15,5.005-0.125l1.202-0.199l-1.138,0.186
		c0.641-0.104,1.409-0.22,2.296-0.336l-0.025-6.975c-1.448,0.185-2.688,0.365-3.695,0.53l0.001-0.001
		c-0.876,0.146-1.86,0.171-2.955,0.062c-0.014-0.001-0.027-0.003-0.043-0.004c-2.446-0.244-5.431-1.193-8.617-2.632
		c-1.514-0.682-3.073-1.47-4.654-2.327l-2.288,6.674c1.269,0.66,2.541,1.287,3.819,1.865
		C221.681,67.142,225.37,68.399,229.111,68.78z"/>
	<path opacity="0.4" fill="#7AA1C2" d="M1255.508,92.42l-5.603-4.623c-4.852,6.907-9.944,13.348-15.44,19.063l5.127,5.025
		C1245.336,105.96,1250.574,99.385,1255.508,92.42z"/>
	<path opacity="0.4" fill="#7AA1C2" d="M1175.909,134.64l0.005,0.001c0.384,0.046,0.768,0.091,1.158,0.141l0.434-6.893
		c-0.255-0.031-0.509-0.063-0.767-0.092c-1.849-0.218-3.693-0.418-5.543-0.602c-4.959-0.496-9.904-0.867-14.848-1.122l-0.105,6.898
		c4.75,0.248,9.506,0.609,14.264,1.081C1172.308,134.233,1174.109,134.43,1175.909,134.64z"/>
	<path opacity="0.4" fill="#7AA1C2" d="M1260.154,85.635c1.023-1.545,2.037-3.104,3.042-4.677l0.011-0.014
		c0.258-0.408,0.548-0.85,0.848-1.334c1.679-2.656,3.363-5.329,5.057-8.012l-5.694-4.573c-1.914,3.026-3.812,6.038-5.699,9.015
		l-0.012,0.023c-0.252,0.401-0.537,0.837-0.841,1.313l0.008-0.01c-0.775,1.219-1.559,2.427-2.348,3.625L1260.154,85.635z"/>
	<polygon opacity="0.4" fill="#7AA1C2" points="1176.739,127.797 1176.739,127.797 1176.745,127.798 	"/>
	<path opacity="0.4" fill="#7AA1C2" d="M633.747,132.315c2.613,0.42,5.41,0.911,8.321,1.351l0.44-6.907
		c-2.57-0.399-5.122-0.841-7.596-1.24l-0.067-0.015l0.065,0.016c-4.441-0.715-8.979-1.589-13.435-2.583l-1.683,6.698
		c4.627,1.031,9.333,1.938,13.957,2.681H633.747z"/>
	<path opacity="0.4" fill="#7AA1C2" d="M1118.145,133.138l-0.233-6.901c-3.997,0.229-7.989,0.513-11.975,0.847l-0.035,0.004
		l-0.037,0.004c-3.256,0.329-6.502,0.689-9.74,1.073l1.345,6.803c3.076-0.362,6.153-0.7,9.231-1.015
		C1110.515,133.633,1114.332,133.358,1118.145,133.138z"/>
	<path opacity="0.4" fill="#7AA1C2" d="M62.926,45.906C68.53,46.465,73.772,46.117,79,45.714H79c1.17-0.091,2.344-0.184,3.517-0.271
		l0.162-6.938c-1.489,0.108-2.94,0.226-4.361,0.333l-0.041,0.004l0.036-0.005c-5.162,0.403-9.896,0.688-14.677,0.212
		c-0.006-0.001-0.012-0.001-0.019-0.002c-0.049-0.004-0.1-0.009-0.149-0.015l-0.916,6.834c0.122,0.013,0.247,0.026,0.369,0.038
		C62.924,45.907,62.924,45.907,62.926,45.906z"/>
	<path opacity="0.4" fill="#7AA1C2" d="M987.995,149.435c5.415,0.54,10.85,0.848,16.285,0.951l-0.051-6.9
		c-5.202-0.096-10.385-0.398-15.542-0.909c-1.347-0.136-2.688-0.284-4.031-0.447l-1.153,6.807c1.486,0.183,2.977,0.349,4.473,0.497
		C987.979,149.433,987.986,149.433,987.995,149.435z"/>
	<path opacity="0.4" fill="#7AA1C2" d="M1147.805,125.741c-7.136-0.186-14.253-0.141-21.356,0.104l0.232,6.896
		c6.998-0.246,14.003-0.287,21.019-0.104L1147.805,125.741z"/>
	<path opacity="0.4" fill="#7AA1C2" d="M496.976,123.964c0.005,0,0.011,0.001,0.017,0.001c4.589,0.458,9.578,0.218,14.978-0.979
		c1.469-0.324,2.942-0.663,4.419-1.012l-0.933-6.912c-1.764,0.42-3.514,0.826-5.254,1.21c-4.654,1.027-8.762,1.207-12.534,0.835
		c-2.101-0.211-4.106-0.595-6.042-1.118l-1.747,6.686c2.247,0.595,4.606,1.042,7.089,1.289
		C496.971,123.963,496.975,123.964,496.976,123.964z"/>
	<polygon opacity="0.4" fill="#7AA1C2" points="144.53,53.733 144.672,53.748 144.669,53.747 144.669,53.747 	"/>
	<path opacity="0.4" fill="#7AA1C2" d="M452.622,98.603c-3.05-0.299-6.589-0.212-10.482,0.086c-3.04,0.232-6.285,0.599-9.596,1.046
		l-0.066,6.992c3.627-0.505,7.158-0.92,10.348-1.164c3.603-0.281,6.793-0.332,9.069-0.106c0.012,0.001,0.023,0.003,0.035,0.004
		c0.625,0.062,1.175,0.146,1.636,0.237c0.012,0.004,0.024,0.008,0.038,0.01l1.746-6.683c-0.102-0.022-0.202-0.044-0.302-0.066
		C454.27,98.8,453.463,98.686,452.622,98.603z"/>
	<path opacity="0.4" fill="#7AA1C2" d="M280.897,58.999c-0.567-0.008-1.132-0.015-1.699-0.02l0.107,6.899
		c0.522,0.003,1.041,0.01,1.565,0.017c6.033,0.088,12.07,0.377,17.735,0.939c0.016,0.002,0.031,0.004,0.049,0.006
		c1.186,0.12,2.354,0.25,3.506,0.392l1.289-6.785c-1.365-0.174-2.751-0.33-4.152-0.47C293.35,59.385,287.106,59.088,280.897,58.999z
		"/>
	<path opacity="0.4" fill="#7AA1C2" d="M1228.542,112.581c-4.705,4.201-9.709,7.869-15.117,10.89l1.862,6.996
		c6.701-3.513,12.777-7.881,18.37-12.873L1228.542,112.581z"/>
	<path opacity="0.4" fill="#7AA1C2" d="M131.447,51.874c3.368,0.641,7.53,1.26,13.222,1.873c0.207,0.021,0.411,0.044,0.613,0.064
		c0.051,0.006,0.103,0.01,0.155,0.016c0.415,0.041,0.828,0.078,1.235,0.111l-0.177-6.935c-0.171-0.017-0.346-0.034-0.522-0.051
		l-0.543-0.056l-0.002,0c-5.542-0.595-9.488-1.188-12.601-1.779c-3.113-0.595-5.396-1.184-7.713-1.818h-0.002
		c-1.212-0.335-2.439-0.682-3.771-1.044l-0.449,7.043c0.744,0.205,1.479,0.41,2.232,0.618
		C125.515,50.571,128.08,51.232,131.447,51.874z"/>
	<path opacity="0.4" fill="#7AA1C2" d="M379.677,108.397c2.691,0.539,5.753,1.085,8.817,1.563l0.219-6.946
		c-2.65-0.424-5.276-0.899-7.577-1.36c-2.689-0.541-4.975-1.083-6.164-1.45c-3.463-1.07-6.487-2.133-9.185-3.225l-1.791,6.747
		c2.658,1.045,5.556,2.05,8.756,3.026C374.444,107.27,376.829,107.822,379.677,108.397z"/>
	<path opacity="0.4" fill="#7AA1C2" d="M546.131,107.986c-7.383,1.35-14.911,3.214-22.344,5.05l0.935,6.922
		c7.629-1.88,15.214-3.774,22.455-5.124L546.131,107.986z"/>
	<path opacity="0.4" fill="#7AA1C2" d="M318.37,63.427c-2.052-0.61-4.222-1.143-6.481-1.604l-1.29,6.778
		c1.998,0.413,3.878,0.88,5.622,1.397c4.954,1.46,8.693,3.401,10.708,5.46c1.744,1.749,3.367,3.403,4.911,4.974l3.134-6.921
		c-0.864-0.88-1.763-1.788-2.696-2.728C328.842,67.363,324.003,65.119,318.37,63.427z"/>
	<path opacity="0.4" fill="#7AA1C2" d="M270.76,65.924l-0.109-6.9c-6.711,0.128-13.146,0.446-18.836,0.847
		c-2.422,0.172-4.708,0.356-6.818,0.547l0.023,6.939c2.271-0.213,4.77-0.417,7.432-0.607
		C257.982,66.361,264.248,66.048,270.76,65.924z"/>
	<path opacity="0.4" fill="#7AA1C2" d="M1186.733,136.121l0.104,0.011l0.165,0.018c0.004-0.001,0.008-0.001,0.013-0.002
		c5.947,0.596,11.613,0.261,16.969-0.854l0.247-0.051l0.237-0.082c1.005-0.356,2.002-0.724,2.987-1.111l-1.813-6.809
		c-1.17,0.483-2.362,0.941-3.571,1.367c-4.536,0.917-9.292,1.188-14.378,0.681l-0.048-0.004c-0.552-0.087-1.096-0.169-1.643-0.25
		l-0.438,6.907c0.355,0.054,0.712,0.109,1.066,0.164L1186.733,136.121z"/>
	<path opacity="0.4" fill="#7AA1C2" d="M168.523,44.318h0.002c-3.971,1.249-8.106,2.45-13.477,2.811l0.175,6.906
		c6.465-0.396,11.521-1.831,15.736-3.181v-0.001c2.787-0.887,5.207-1.713,7.466-2.223c1.146-0.258,2.245-0.444,3.351-0.533
		l1.63-6.958c-2.414-0.019-4.667,0.302-6.789,0.785C173.805,42.566,171.204,43.467,168.523,44.318z"/>
	<path opacity="0.4" fill="#7AA1C2" d="M468.316,104.356c-1.595-0.892-3.214-1.751-4.875-2.523l-1.792,6.857
		c0.967,0.486,1.95,1.016,2.948,1.575c3.87,2.165,7.966,4.808,12.521,7.227c1.505,0.799,3.067,1.576,4.693,2.297l1.783-6.824
		c-0.98-0.466-1.95-0.958-2.912-1.468C476.49,109.274,472.465,106.686,468.316,104.356z"/>
	<path opacity="0.4" fill="#7AA1C2" d="M727.36,128.486c4.217,0.421,8.297,0.499,12.268,0.358l-0.55-6.887
		c-3.617,0.121-7.275,0.043-11.029-0.331c-0.338-0.032-0.68-0.068-1.023-0.108l-0.002-0.001c-3.308-0.364-6.882-1.27-10.636-2.341
		l-0.545,7.027c3.405,0.938,6.867,1.762,10.387,2.163C726.61,128.408,726.982,128.45,727.36,128.486z"/>
	<polygon opacity="0.4" fill="#7AA1C2" points="346.708,94.232 346.667,94.202 346.655,94.193 	"/>
	<polygon opacity="0.4" fill="#7AA1C2" points="726.229,128.367 726.229,128.367 726.228,128.368 	"/>
	<path opacity="0.4" fill="#7AA1C2" d="M911.016,120.473c-2.137-0.681-4.233-1.423-6.293-2.253
		c-0.843-0.813-1.677-1.602-2.509-2.375l-3.557,6.366c0.438,0.417,0.875,0.838,1.316,1.265l0.506,0.499l0.675,0.278
		c2.51,1.039,5.034,1.943,7.565,2.746l0.009,0.004c2.954,0.938,5.931,1.748,8.927,2.459l1.889-6.647
		c-2.882-0.678-5.729-1.45-8.533-2.344L911.016,120.473z"/>
	<path opacity="0.4" fill="#7AA1C2" d="M695.628,121.221c0.016,0.003,0.031,0.004,0.046,0.005c3.737,0.373,7.699,1.37,11.78,2.538
		l0.55-7.025c-3.777-1.047-7.675-1.97-11.685-2.373c-2.935-0.294-5.937-0.297-8.958,0.179c-1.626,0.26-3.256,0.653-4.875,1.217
		l1.083,7.078c1.677-0.744,3.363-1.217,5.097-1.493C690.895,120.996,693.211,120.98,695.628,121.221z"/>
	<path opacity="0.4" fill="#7AA1C2" d="M886.447,103.967c-2.035-1.124-4.077-2.075-6.146-2.832c-3.069-1.437-6.151-2.274-9.176-2.6
		l-0.645,6.863c2.175,0.251,4.383,0.854,6.729,1.964l0.172,0.078l0.167,0.064c1.695,0.607,3.436,1.41,5.223,2.395
		c3.012,1.662,6.148,3.868,9.413,6.546l3.479-6.238C892.593,107.775,889.54,105.675,886.447,103.967z"/>
	<path opacity="0.4" fill="#7AA1C2" d="M860.946,106.363c0.292-0.084,0.583-0.162,0.872-0.24l0.688-7.246
		c-2.607,0.47-5.136,1.228-7.58,2.152c-4.614,1.75-9.027,4.085-13.366,6.396l2.512,6.637c2.395-1.276,4.738-2.539,7.038-3.679
		C854.493,108.696,857.773,107.265,860.946,106.363z"/>
	<path opacity="0.4" fill="#7AA1C2" d="M805.141,123.492l-1.048-6.863c-1.521,0.058-3.045,0.116-4.561,0.169
		c-6.81,0.238-13.656,0.466-20.501,0.82c-0.009-0.002-0.02-0.001-0.03-0.002l0.349,6.898c0.059-0.005,0.112-0.006,0.173-0.01
		c6.751-0.349,13.546-0.574,20.37-0.815C801.642,123.629,803.392,123.56,805.141,123.492z"/>
	<path opacity="0.4" fill="#7AA1C2" d="M770.833,125.263l-0.349-6.918c-5.88,0.662-11.565,1.581-17.203,2.322
		c-1.899,0.252-3.795,0.483-5.691,0.683l0.552,6.889c2.109-0.216,4.184-0.47,6.252-0.74
		C759.963,126.757,765.396,125.894,770.833,125.263z"/>
	<path opacity="0.4" fill="#7AA1C2" d="M836.495,117.924l-2.49-6.588c-0.156,0.075-0.312,0.149-0.466,0.222
		c-3.471,1.667-6.925,3.076-10.366,3.963c-3.451,0.885-6.878,1.263-10.423,0.91c-0.021-0.003-0.046-0.006-0.071-0.008l1.073,6.994
		c5.515,0.275,10.696-0.797,15.504-2.479C831.744,120.062,834.153,119.033,836.495,117.924z"/>
	<path opacity="0.4" fill="#7AA1C2" d="M423.983,101.015c-7.709,1.245-15.087,2.641-20.146,3.47
		c-0.214,0.042-1.016,0.085-2.03,0.052c-1.038-0.032-2.343-0.128-3.796-0.274c-0.007-0.001-0.011-0.001-0.017-0.001
		c-0.004-0.001-0.008-0.001-0.011-0.002c-0.248-0.024-0.498-0.052-0.753-0.08l-0.215,6.912c0.097,0.006,0.192,0.02,0.288,0.028
		c1.582,0.156,3.042,0.268,4.338,0.308c1.313,0.037,2.417,0.029,3.54-0.146l-0.026,0.005l0.036-0.007
		c4.885-0.805,11.653-2.077,18.726-3.24L423.983,101.015L423.983,101.015z"/>
	<path opacity="0.4" fill="#7AA1C2" d="M925.845,131.868c6.65,3.268,13.382,6.066,20.187,8.423l1.135-6.94
		c-6.533-2.323-13.001-5.077-19.388-8.292L925.845,131.868z"/>
	<path opacity="0.4" fill="#7AA1C2" d="M1061.292,144.246l-1.349-6.81c-1.147,0.263-2.303,0.515-3.456,0.762
		c-5.572,1.182-11.158,2.182-16.744,2.986l1.044,6.838c5.816-0.83,11.618-1.87,17.404-3.098
		C1059.223,144.704,1060.26,144.479,1061.292,144.246z"/>
	<path opacity="0.4" fill="#7AA1C2" d="M590.667,113.012l-2.203,6.66c4.779,2.273,10.716,4.398,17.307,6.348
		c1.865,0.551,3.777,1.082,5.727,1.596l1.682-6.703c-1.802-0.473-3.566-0.966-5.279-1.473
		C601.058,117.431,594.972,115.171,590.667,113.012z"/>
	<path opacity="0.4" fill="#7AA1C2" d="M1031.284,142.249c-6.179,0.662-12.352,1.077-18.505,1.22l0.051,6.898
		c6.496-0.143,13.003-0.577,19.502-1.277L1031.284,142.249z"/>
	<path opacity="0.4" fill="#7AA1C2" d="M1087.72,129.537c-6.464,2.198-12.968,4.164-19.5,5.875l1.351,6.827
		c6.547-1.694,13.058-3.639,19.517-5.805L1087.72,129.537z"/>
	<path opacity="0.4" fill="#7AA1C2" d="M193.625,43.494c-0.611-0.285-1.213-0.55-1.812-0.789l-1.609,6.863
		c0.063,0.027,0.127,0.059,0.193,0.089c4.215,1.96,10.069,5.886,16.268,9.672l2.324-6.775c-3.395-2.101-6.73-4.25-9.864-6.097
		C197.223,45.337,195.393,44.325,193.625,43.494z"/>
	<path opacity="0.4" fill="#7AA1C2" d="M571.08,106.299c-5.321-0.523-10.861-0.295-16.526,0.387l1.044,6.836
		c5.256-0.629,10.227-0.816,14.769-0.364c0.008,0,0.014,0,0.022,0.002c3.784,0.38,7.252,1.188,10.413,2.529l2.185-6.601
		c-3.766-1.496-7.769-2.375-11.886-2.786C571.093,106.301,571.087,106.301,571.08,106.299z"/>
	<path opacity="0.4" fill="#7AA1C2" d="M669.638,132.183c2.529-1.222,4.399-2.717,6.108-4.108l-1.232-8.073
		c-2.015,1.446-3.56,2.837-4.976,3.918c-1.108,0.856-2.135,1.55-3.331,2.126c-1.195,0.578-2.576,1.055-4.458,1.398
		c-3.262,0.59-6.928,0.632-10.738,0.347l-0.439,6.877c4.21,0.313,8.486,0.294,12.649-0.451
		C665.72,133.766,667.832,133.061,669.638,132.183z"/>
	<path opacity="0.4" fill="#7AA1C2" d="M351.252,88.856c-3.301-2.506-6.399-5.409-9.883-8.872l-3.111,6.871
		c2.765,2.678,5.46,5.097,8.397,7.335l0.012,0.012c2.86,2.173,5.924,4.146,9.44,5.971l1.837-6.922
		C355.505,91.882,353.33,90.434,351.252,88.856L351.252,88.856z"/>
	<path opacity="0.4" fill="#7AA1C2" d="M39.46,56.762l-0.008,0.005c3.18,1,7.184,2.313,12.496,3.848l0.928-6.926
		c-6.145-1.804-10.41-3.272-14.027-4.338h0.003c-2.235-0.658-4.259-1.157-6.303-1.446l0.356,0.456L39.46,56.762z"/>
	<path opacity="0.4" fill="#7AA1C2" d="M23.341,49.455c-5.809,3.713-9.806,12.781-13.418,18.586l5.705,4.582
		c0.271-0.438,0.547-0.876,0.819-1.314c3.368-5.418,4.707-12.404,10.873-15.483c0.2-0.1,0.475-0.183,0.799-0.252l-0.98-1.255
		L23.341,49.455z"/>
	
		<line opacity="0.4" fill="#7AA1C2" stroke="#7AA1C2" stroke-width="0" stroke-linecap="round" stroke-linejoin="round" x1="27.32" y1="37.553" x2="27.322" y2="37.553"/>
	<path opacity="0.4" fill="#7AA1C2" d="M36.489,38.887l0.01,0.004c3.946,1.153,9.345,3.047,17.642,5.364l0.924-6.92
		c-7.464-2.114-12.361-3.826-16.44-5.024c0.001,0,0.001,0.002,0.003,0.002l-0.01-0.003c0.002,0,0.004,0.001,0.007,0.001
		c-2.643-0.779-7.426-1.6-7.429-1.601c-1.507-0.152-3.557-0.03-5.083,0.383c-1.301,0.352-3.362,1.326-4.981,2.184l4.062,5.202
		c0.273-0.19,0.545-0.367,0.809-0.508C29.105,36.309,34.047,38.164,36.489,38.887z"/>
	<g>
		<path opacity="0.4" fill="#7AA1C2" d="M5.69,64.644c3.802-5.975,7.675-11.954,11.653-17.818l-5.439-4.904
			C7.816,47.918,3.866,54.005,0,60.072L5.69,64.644z"/>
		<path opacity="0.4" fill="#7AA1C2" d="M14.899,38.64l-0.065-0.083c-1.522,1.714-2.791,3.284-2.929,3.365l5.439,4.904
			c0.244-0.203,1.005-1.19,2.036-2.448L14.899,38.64z"/>
	</g>
	<polygon opacity="0.4" fill="#7AA1C2" points="32.905,48.361 32.549,47.905 28.409,42.603 25.225,38.521 25.192,38.479 
		21.131,33.277 20.732,32.767 16.722,27.625 9.923,32.265 14.834,38.556 14.899,38.64 19.379,44.377 19.406,44.412 22.625,48.538 
		23.341,49.455 27.139,54.32 28.119,55.575 32.667,61.4 39.452,56.767 39.46,56.762 	"/>
	<polygon opacity="0.4" fill="#7AA1C2" points="38.627,32.313 38.624,32.311 38.617,32.31 	"/>
	<polygon opacity="0.4" fill="#7AA1C2" points="38.627,32.313 38.624,32.311 38.617,32.31 	"/>
	<path opacity="0.4" fill="#7AA1C2" d="M954.263,142.921c6.876,2.012,13.806,3.595,20.777,4.78l1.156-6.802
		c-6.995-1.189-13.936-2.797-20.809-4.854L954.263,142.921z"/>
	<polygon opacity="0.4" fill="#7AA1C2" points="432.604,93.39 424.055,93.227 423.983,101.015 423.983,101.015 423.916,108.039 
		423.83,117.302 423.765,124.327 423.699,131.408 432.246,131.573 432.328,123.042 432.39,116.055 432.478,106.727 432.544,99.736 	
		"/>
	<polygon opacity="0.4" fill="#7AA1C2" points="397.521,94.823 388.976,94.498 388.713,103.013 388.495,109.96 388.189,119.812 
		387.972,126.753 387.773,133.114 396.319,133.44 396.492,127.814 396.711,120.909 397.016,111.091 397.231,104.179 	"/>
	<polygon opacity="0.4" fill="#7AA1C2" points="485.871,104.238 483.593,112.964 481.81,119.789 479.532,128.505 477.735,135.381 
		476.227,141.162 484.528,143.154 485.726,138.575 487.477,131.875 489.88,122.674 491.628,115.991 494.178,106.23 	"/>
	<polygon opacity="0.4" fill="#7AA1C2" points="585.615,101.139 582.986,109.088 580.802,115.689 577.881,124.524 575.708,131.093 
		573.521,137.702 581.688,140.157 583.452,134.822 585.683,128.084 588.464,119.672 590.667,113.012 593.78,103.595 	"/>
	<polygon opacity="0.4" fill="#7AA1C2" points="553.25,98.155 544.789,99.2 546.13,107.986 547.177,114.832 548.503,123.512 
		549.545,130.355 550.534,136.821 558.998,135.776 558.022,129.393 556.975,122.542 555.598,113.522 554.553,106.686 	"/>
	<polygon opacity="0.4" fill="#7AA1C2" points="522.532,103.759 514.051,104.678 515.456,115.062 516.39,121.974 517.529,130.386 
		518.464,137.31 519.54,145.25 528.02,144.329 526.789,135.239 525.852,128.315 524.721,119.958 523.786,113.036 	"/>
	<polygon opacity="0.4" fill="#7AA1C2" points="717.146,109.421 708.622,108.75 708.004,116.739 707.454,123.764 706.712,133.357 
		706.162,140.392 705.662,146.834 714.187,147.509 714.553,142.778 715.098,135.774 715.843,126.204 716.389,119.178 	"/>
	<polygon opacity="0.4" fill="#7AA1C2" points="681.618,110.075 673.159,111.122 674.514,120.002 675.746,128.075 676.508,133.053 
		677.641,140.461 678.905,148.748 687.365,147.699 685.792,137.41 684.748,130.567 683.569,122.839 682.486,115.761 	"/>
	<polygon opacity="0.4" fill="#7AA1C2" points="746.859,112.13 738.334,112.633 739.078,121.958 739.628,128.844 740.33,137.712 
		740.878,144.594 741.356,150.641 749.882,150.136 749.37,143.708 748.824,136.806 748.142,128.239 747.592,121.349 	"/>
	<polygon opacity="0.4" fill="#7AA1C2" points="837.526,96.755 829.471,99.354 834.005,111.336 836.495,117.924 838.451,123.088 
		840.961,129.725 842.835,134.691 850.889,132.086 848.508,125.793 846.018,119.203 844.072,114.061 841.561,107.424 	"/>
	<polygon opacity="0.4" fill="#7AA1C2" points="811.206,106.789 802.746,107.835 804.09,116.628 805.141,123.492 806.484,132.281 
		807.527,139.14 808.5,145.459 816.957,144.416 816.146,139.104 815.101,132.265 813.752,123.417 812.681,116.422 	"/>
	<polygon opacity="0.4" fill="#7AA1C2" points="871.669,92.8 863.154,92.001 862.507,98.879 861.818,106.125 861.043,114.375 
		860.368,121.476 859.563,130.03 868.075,130.829 868.96,121.475 869.61,114.578 870.481,105.398 871.126,98.534 	"/>
	<polygon opacity="0.4" fill="#7AA1C2" points="948.537,124.957 947.168,133.354 946.033,140.29 944.579,149.172 943.449,156.098 
		942.377,162.653 950.823,163.958 951.692,158.652 952.814,151.787 954.263,142.921 955.388,136.045 956.985,126.262 	"/>
	<polygon opacity="0.4" fill="#7AA1C2" points="922.028,114.07 919.544,122.815 917.655,129.46 915.161,138.249 913.27,144.896 
		911.605,150.766 919.867,152.914 921.536,147.038 923.468,140.223 925.845,131.868 927.778,125.058 930.289,116.218 	"/>
	<polygon opacity="0.4" fill="#7AA1C2" points="898.795,104.6 895.664,110.207 892.186,116.445 888.468,123.105 885.026,129.266 
		880.585,137.226 888.171,141.007 891.714,134.652 895.229,128.359 898.657,122.211 902.214,115.845 906.379,108.384 	"/>
	<polygon opacity="0.4" fill="#7AA1C2" points="977.755,131.667 976.196,140.9 975.04,147.702 973.562,156.437 972.411,163.236 
		971.381,169.33 979.822,170.676 980.884,164.411 982.035,157.604 983.503,148.936 984.656,142.131 986.199,133.015 	"/>
	<polygon opacity="0.4" fill="#7AA1C2" points="1186.534,120.639 1177.997,120.072 1177.509,127.888 1177.072,134.782 
		1176.509,143.692 1176.069,150.586 1175.589,158.197 1184.121,158.764 1184.561,151.82 1184.998,144.906 1185.565,135.942 
		1186.001,129.034 	"/>
	<polygon opacity="0.4" fill="#7AA1C2" points="1156.495,116.617 1147.946,116.41 1147.805,125.741 1147.699,132.637 
		1147.566,141.28 1147.461,148.176 1147.365,154.587 1155.911,154.794 1156.006,148.623 1156.109,141.72 1156.243,132.972 
		1156.349,126.074 	"/>
	<polygon opacity="0.4" fill="#7AA1C2" points="1126.1,115.524 1117.558,115.684 1117.911,126.237 1118.145,133.138 
		1118.428,141.373 1118.656,148.271 1118.838,153.587 1127.379,153.426 1127.197,147.994 1126.962,141.098 1126.681,132.741 
		1126.448,125.844 	"/>
	<polygon opacity="0.4" fill="#7AA1C2" points="1211.843,117.517 1203.547,119.372 1205.643,127.241 1207.455,134.049 
		1209.812,142.909 1211.625,149.725 1213.302,156.024 1221.592,154.17 1219.449,146.11 1217.585,139.113 1215.287,130.466 
		1213.425,123.47 	"/>
	<polygon opacity="0.4" fill="#7AA1C2" points="1262.05,55.434 1256.537,61.5 1263.417,67.024 1269.111,71.598 1273.399,75.042 
		1279.106,79.625 1285.285,84.587 1290.8,78.521 1283.455,72.624 1277.75,68.042 1273.518,64.643 1267.827,60.072 	"/>
	<polygon opacity="0.4" fill="#7AA1C2" points="1250.284,77.494 1244.681,83.487 1249.905,87.797 1255.51,92.42 1259.913,96.053 
		1265.532,100.687 1273.143,106.967 1278.745,100.974 1270.097,93.838 1264.461,89.19 1260.154,85.636 1254.525,80.992 	"/>
	<polygon opacity="0.4" fill="#7AA1C2" points="614.935,113.912 613.18,120.913 611.498,127.616 609.179,136.852 607.498,143.554 
		605.646,150.936 613.969,152.856 615.787,145.61 617.467,138.914 619.795,129.63 621.476,122.936 623.256,115.834 	"/>
	<polygon opacity="0.4" fill="#7AA1C2" points="651.639,118.004 643.105,117.433 642.507,126.76 642.068,133.666 641.453,143.236 
		641.014,150.136 640.669,155.548 649.204,156.124 649.529,150.964 649.974,144.083 650.571,134.667 651.011,127.791 	"/>
	<polygon opacity="0.4" fill="#7AA1C2" points="778.575,109.186 770.038,109.473 770.484,118.345 770.833,125.263 771.266,133.878 
		771.616,140.785 771.955,147.57 780.494,147.291 780.143,140.25 779.796,133.356 779.35,124.514 779.001,117.616 	"/>
	<polygon opacity="0.4" fill="#7AA1C2" points="1038.304,131.767 1029.843,132.816 1031.284,142.249 1032.332,149.089 
		1033.526,156.9 1034.571,163.74 1035.595,170.444 1044.059,169.394 1043.004,162.5 1041.956,155.652 1040.787,148.022 
		1039.743,141.184 	"/>
	<polygon opacity="0.4" fill="#7AA1C2" points="1229.013,101.512 1222.867,107.018 1228.542,112.581 1233.657,117.592 
		1238.768,122.604 1243.886,127.627 1249.306,132.943 1255.456,127.436 1249.507,121.607 1244.359,116.56 1239.592,111.885 
		1234.465,106.86 	"/>
</g>
</svg>
