<?xml version="1.0" standalone="no"?>
<!DOCTYPE svg PUBLIC "-//W3C//DTD SVG 1.1//EN" "http://www.w3.org/Graphics/SVG/1.1/DTD/svg11.dtd" >
<svg xmlns="http://www.w3.org/2000/svg" xmlns:xlink="http://www.w3.org/1999/xlink" version="1.1">
<metadata>
Created by FontForge 20170731 at Fri Jun  9 14:34:47 2006
 By Aleksey,,,
Copyright (c) 2006 The Hoefler Type Foundry, Inc., dba Hoefler &#38; Frere-Jones. All Rights Reserved.
</metadata>
<defs>
<font id="Verlag-Light" horiz-adv-x="474" >
  <font-face 
    font-family="Verlag Light"
    font-weight="300"
    font-stretch="normal"
    units-per-em="1000"
    panose-1="0 0 0 0 0 0 0 0 0 0"
    ascent="800"
    descent="-200"
    x-height="418"
    cap-height="733"
    bbox="-73 -262 1099 1093"
    underline-thickness="50"
    underline-position="-200"
    unicode-range="U+0020-2212"
  />
<missing-glyph horiz-adv-x="500" 
 />
    <glyph glyph-name="f_f_i" unicode="ffi" horiz-adv-x="743" 
d="M307 730l-10 -48q-22 8 -50 8q-50 0 -74 -30t-24 -98v-144h124v-49h-124v-369h-55v369h-70v13l70 39v134q0 91 38.5 138t109.5 47q40 0 65 -10zM583 730l-10 -48q-22 8 -49 8q-51 0 -75 -30t-24 -98v-144h124v-49h-124v-369h-55v369h-69v13l69 39v134q0 91 38.5 138
t110.5 47q39 0 64 -10zM689 573q0 -17 -11.5 -28.5t-28.5 -11.5t-28.5 11.5t-11.5 28.5t11.5 29t28.5 12q16 0 28 -12t12 -29zM677 0h-56v418h56v-418z" />
    <glyph glyph-name="f_f_l" unicode="ffl" horiz-adv-x="745" 
d="M307 730l-10 -48q-22 8 -50 8q-50 0 -74 -30t-24 -98v-144h124v-49h-124v-369h-55v369h-70v13l70 39v134q0 91 38.5 138t109.5 47q40 0 65 -10zM583 730l-10 -48q-22 8 -49 8q-51 0 -75 -30t-24 -98v-144h124v-49h-124v-369h-55v369h-69v13l69 39v134q0 91 38.5 138
t110.5 47q39 0 64 -10zM677 0h-56v733h56v-733z" />
    <glyph glyph-name="f_f" unicode="ff" horiz-adv-x="553" 
d="M307 730l-10 -48q-22 8 -50 8q-50 0 -74 -30t-24 -98v-144h124v-49h-124v-369h-55v369h-70v13l70 39v134q0 91 38.5 138t109.5 47q40 0 65 -10zM583 730l-10 -48q-22 8 -49 8q-51 0 -75 -30t-24 -98v-144h124v-49h-124v-369h-55v369h-69v13l69 39v134q0 91 38.5 138
t110.5 47q39 0 64 -10z" />
    <glyph glyph-name="fi" unicode="fi" horiz-adv-x="466" 
d="M412 573q0 -17 -11.5 -28.5t-28.5 -11.5q-16 0 -28 11.5t-12 28.5t12 29t28 12q17 0 28.5 -12t11.5 -29zM307 730l-10 -48q-22 8 -50 8q-50 0 -74 -30t-24 -98v-144h124v-49h-124v-369h-55v369h-70v13l70 39v134q0 91 38.5 138t109.5 47q40 0 65 -10zM400 0h-55v418h55
v-418z" />
    <glyph glyph-name="fl" unicode="fl" horiz-adv-x="468" 
d="M307 730l-10 -48q-22 8 -50 8q-50 0 -74 -30t-24 -98v-144h124v-49h-124v-369h-55v369h-70v13l70 39v134q0 91 38.5 138t109.5 47q40 0 65 -10zM400 0h-55v733h55v-733z" />
    <glyph glyph-name=".notdef" horiz-adv-x="500" 
 />
    <glyph glyph-name=".null" horiz-adv-x="0" 
 />
    <glyph glyph-name="nonmarkingreturn" horiz-adv-x="333" 
 />
    <glyph glyph-name="space" unicode=" " horiz-adv-x="214" 
 />
    <glyph glyph-name="exclam" unicode="!" horiz-adv-x="203" 
d="M132 733l-9 -551h-43l-8 551h60zM146 36q0 -19 -13 -31.5t-31 -12.5t-31 12.5t-13 31.5q0 18 13 30.5t31 12.5t31 -12.5t13 -30.5z" />
    <glyph glyph-name="quotedbl" unicode="&#x22;" horiz-adv-x="356" 
d="M195 643l-116 -168l-31 20l92 182zM328 632l-117 -168l-32 20l93 183z" />
    <glyph glyph-name="numbersign" unicode="#" horiz-adv-x="563" 
d="M542 417l-9 -45h-111l-38 -168h112l-10 -45h-112l-35 -159h-51l36 159h-142l-35 -159h-51l36 159h-111l10 45h111l37 168h-111l10 45h111l36 160h51l-36 -160h141l36 160h50l-35 -160h110zM371 372h-141l-38 -168h142z" />
    <glyph glyph-name="dollar" unicode="$" horiz-adv-x="429" 
d="M225 650l44 -4l-5 -62q57 -7 109 -41l-25 -44q-38 28 -88 37l-18 -223q74 -34 107.5 -68.5t33.5 -91.5q0 -68 -47.5 -113t-118.5 -49l-5 -66l-44 3l5 64q-70 8 -144 56l28 45q57 -43 120 -52l19 235q-69 30 -103.5 65t-34.5 91q0 62 45 105.5t117 47.5zM329 149
q0 38 -23.5 63t-67.5 46l-17 -219q47 5 77.5 33.5t30.5 76.5zM111 436q0 -61 89 -104l16 205q-52 -5 -78.5 -33t-26.5 -68z" />
    <glyph glyph-name="percent" unicode="%" horiz-adv-x="642" 
d="M291 440q0 -61 -33 -103.5t-90 -42.5q-56 0 -88.5 42.5t-32.5 103.5q0 62 33 104t89 42q57 0 89.5 -42t32.5 -104zM570 566l-466 -582l-32 27l466 582zM595 137q0 -61 -33 -103.5t-89 -42.5q-57 0 -89 42t-32 104t32.5 104t89.5 42q56 0 88.5 -42t32.5 -104zM245 440
q0 45 -20 75t-56 30t-56.5 -30t-20.5 -75q0 -44 20.5 -74t56.5 -30t56 30t20 74zM550 137q0 45 -20 75t-57 30q-36 0 -56 -30t-20 -75q0 -44 20 -74t56 -30q37 0 57 30t20 74z" />
    <glyph glyph-name="ampersand" unicode="&#x26;" horiz-adv-x="595" 
d="M519 280l39 -28q-72 -96 -112 -139q70 -62 104 -90l-33 -38q-53 43 -107 93q-93 -86 -185 -86q-77 0 -126 42t-49 114q0 108 140 168q-45 70 -45 123q0 61 43 103.5t99 42.5q60 0 95.5 -37t35.5 -84q0 -107 -151 -167q49 -65 144 -152q41 42 108 135zM367 460
q0 33 -22.5 57t-58.5 24q-35 0 -61.5 -29t-26.5 -71q0 -43 42 -109q70 28 98.5 58.5t28.5 69.5zM375 109q-111 106 -160 170q-110 -42 -110 -132q0 -48 34 -78t88 -30q69 0 148 70z" />
    <glyph glyph-name="quotesingle" unicode="'" horiz-adv-x="223" 
d="M195 643l-116 -168l-31 20l92 182z" />
    <glyph glyph-name="parenleft" unicode="(" horiz-adv-x="335" 
d="M340 -186l-24 -42q-128 78 -196.5 209t-68.5 277t68.5 277t196.5 210l25 -41q-113 -69 -175.5 -189t-62.5 -257t62.5 -256t174.5 -188z" />
    <glyph glyph-name="parenright" unicode=")" horiz-adv-x="335" 
d="M284 258q0 -146 -68.5 -277t-196.5 -209l-25 42q113 69 175.5 188t62.5 256t-62.5 257t-175.5 189l25 41q128 -79 196.5 -210t68.5 -277z" />
    <glyph glyph-name="asterisk" unicode="*" horiz-adv-x="369" 
d="M336 614l-121 -37l77 -98l-35 -25l-72 102l-72 -102l-35 25l76 98l-121 37l14 41l119 -42l-4 124h45l-4 -124l120 42z" />
    <glyph glyph-name="plus" unicode="+" horiz-adv-x="460" 
d="M400 256h-144v-151h-52v151h-144v49h144v151h52v-151h144v-49z" />
    <glyph glyph-name="comma" unicode="," horiz-adv-x="182" 
d="M138 23q0 -37 -25.5 -75.5t-63.5 -61.5l-11 13q47 43 57 94q-21 2 -34 15t-13 30t12.5 29t29.5 12q21 0 34.5 -15.5t13.5 -40.5z" />
    <glyph glyph-name="hyphen" unicode="-" horiz-adv-x="339" 
d="M289 218h-239v49h239v-49z" />
    <glyph glyph-name="period" unicode="." horiz-adv-x="182" 
d="M48 36q0 18 12.5 30.5t30.5 12.5q19 0 31.5 -12.5t12.5 -30.5q0 -19 -12.5 -31.5t-31.5 -12.5q-18 0 -30.5 12.5t-12.5 31.5z" />
    <glyph glyph-name="slash" unicode="/" horiz-adv-x="319" 
d="M318 733l-238 -949h-52l239 949h51z" />
    <glyph glyph-name="zero" unicode="0" horiz-adv-x="522" 
d="M480 288q0 -127 -59 -212t-160 -85q-102 0 -159.5 85t-57.5 212t58.5 212.5t160.5 85.5q101 0 159 -85t58 -213zM422 288q0 108 -41.5 179t-118.5 71t-119 -71t-42 -179q0 -107 42 -177.5t119 -70.5t118.5 70.5t41.5 177.5z" />
    <glyph glyph-name="one" unicode="1" horiz-adv-x="333" 
d="M213 0h-55v516l-102 -36l-17 48l165 61h9v-589z" />
    <glyph glyph-name="two" unicode="2" horiz-adv-x="436" 
d="M383 0h-364l-4 9q158 166 213 234q45 54 66.5 93.5t21.5 81.5q0 53 -34 85t-92 32q-69 0 -132 -42l-16 46q72 47 147 47q84 0 134 -45.5t50 -117.5q0 -47 -24 -93.5t-74 -107.5q-73 -85 -157 -172h265v-50z" />
    <glyph glyph-name="three" unicode="3" horiz-adv-x="422" 
d="M387 567l-210 -240q6 1 15 1q83 -6 132.5 -50.5t49.5 -115.5q0 -75 -54 -123.5t-141 -48.5q-69 0 -147 27l16 47q75 -25 128 -25q67 0 105 34t38 90q0 57 -43 89.5t-117 32.5q-36 0 -69 -6l-6 9l209 238h-259v50h348z" />
    <glyph glyph-name="four" unicode="4" horiz-adv-x="476" 
d="M454 173h-96v-174h-52v174h-288v14l325 400h15v-365h96v-49zM306 222v246l-200 -246h200z" />
    <glyph glyph-name="five" unicode="5" horiz-adv-x="458" 
d="M404 176q0 -80 -54 -132.5t-143 -52.5q-69 0 -149 29l16 46q66 -26 130 -26q68 0 106.5 37.5t38.5 97.5q0 56 -39 90t-110 34q-61 0 -111 -13l-7 8v283h297v-50h-244v-183q28 5 66 5q97 0 150 -48t53 -125z" />
    <glyph glyph-name="six" unicode="6" horiz-adv-x="477" 
d="M428 186q0 -80 -53 -137.5t-137 -57.5t-137 57.5t-53 147.5q0 112 76 215.5t238 185.5l24 -43q-208 -103 -264 -251q48 59 131 59q74 0 124.5 -50t50.5 -126zM374 179q0 63 -37 101t-96 38q-62 0 -99.5 -38t-37.5 -97q0 -62 38 -103t96 -41q59 0 97.5 40t38.5 100z" />
    <glyph glyph-name="seven" unicode="7" horiz-adv-x="407" 
d="M388 577l-257 -577h-54l237 527h-292v50h366z" />
    <glyph glyph-name="eight" unicode="8" horiz-adv-x="464" 
d="M408 154q0 -69 -50 -116t-127 -47t-126 47t-49 116q0 47 27 85t72 56q-88 42 -88 135q0 67 46.5 111.5t117.5 44.5q73 0 119 -44.5t46 -111.5q0 -93 -88 -135q46 -18 73 -56t27 -85zM343 429q0 47 -31 79t-81 32q-49 0 -80 -32t-31 -79t31 -79.5t80 -32.5q50 0 81 32.5
t31 79.5zM353 155q0 50 -35 83.5t-87 33.5t-86 -33.5t-34 -83.5q0 -51 34 -84.5t86 -33.5q53 0 87.5 33.5t34.5 84.5z" />
    <glyph glyph-name="nine" unicode="9" horiz-adv-x="470" 
d="M425 382q0 -112 -75.5 -216t-237.5 -186l-24 43q202 100 262 249q-46 -54 -122 -54t-128 49.5t-52 126.5q0 81 54 136.5t136 55.5q85 0 136 -57t51 -147zM369 398q0 62 -37 101.5t-95 39.5q-59 0 -96.5 -39t-37.5 -99q0 -63 36 -100t96 -37q61 0 97.5 37.5t36.5 96.5z
" />
    <glyph glyph-name="colon" unicode=":" horiz-adv-x="182" 
d="M48 36q0 18 12.5 30.5t30.5 12.5q19 0 31.5 -12.5t12.5 -30.5q0 -19 -12.5 -31.5t-31.5 -12.5q-18 0 -30.5 12.5t-12.5 31.5zM47 323q0 18 13 31t31 13t31 -13t13 -31t-13 -30.5t-31 -12.5t-31 12.5t-13 30.5z" />
    <glyph glyph-name="semicolon" unicode=";" horiz-adv-x="182" 
d="M138 23q0 -37 -25.5 -75.5t-63.5 -61.5l-11 13q47 43 57 94q-21 2 -34 15t-13 30t12.5 29t29.5 12q21 0 34.5 -15.5t13.5 -40.5zM47 323q0 18 13 31t31 13t31 -13t13 -31t-13 -30.5t-31 -12.5t-31 12.5t-13 30.5z" />
    <glyph glyph-name="less" unicode="&#x3c;" horiz-adv-x="381" 
d="M342 73l-34 -35l-275 243l275 244l34 -37l-234 -208z" />
    <glyph glyph-name="equal" unicode="=" horiz-adv-x="403" 
d="M343 326h-283v50h283v-50zM343 185h-283v49h283v-49z" />
    <glyph glyph-name="greater" unicode="&#x3e;" horiz-adv-x="381" 
d="M348 282l-275 -244l-34 37l234 208l-234 207l34 35z" />
    <glyph glyph-name="question" unicode="?" horiz-adv-x="384" 
d="M359 574q0 -41 -20 -75.5t-48 -59t-56 -47t-48 -50.5t-20 -59v-80h-52q-1 89 0 91q0 35 19.5 65.5t46.5 53.5t54.5 45.5t47 51.5t19.5 62q0 53 -36 84.5t-102 31.5q-59 0 -127 -34l-15 49q79 37 146 37q92 0 141.5 -46.5t49.5 -119.5zM185 36q0 -19 -13 -31.5t-31 -12.5
t-31 12.5t-13 31.5q0 18 13 30.5t31 12.5t31 -12.5t13 -30.5z" />
    <glyph glyph-name="at" unicode="@" horiz-adv-x="684" 
d="M635 313q0 -96 -57 -144q-32 -27 -71 -27q-59 0 -83 50q-44 -47 -97 -47q-40 0 -67 22.5t-27 62.5q0 35 26.5 57.5t69.5 22.5q40 0 78 -20v15q0 71 -73 71q-31 0 -68 -13l-8 38q42 16 82 16q115 0 115 -114v-60q0 -32 15 -47t38 -15q28 0 44 15q38 33 38 114
q0 90 -64 161.5t-184 71.5q-103 0 -174 -75t-71 -182q0 -111 73.5 -183.5t201.5 -72.5q57 0 124 23q1 -3 2 -7t3.5 -13t4.5 -15l1 -5q-80 -25 -137 -25q-145 0 -232.5 85.5t-87.5 212.5q0 124 85.5 211t206.5 87q71 0 128.5 -24.5t92.5 -64t53.5 -86.5t18.5 -96zM407 216v37
q-32 22 -71 22q-25 0 -40.5 -11.5t-15.5 -32.5q0 -23 15 -36t41 -13q39 0 71 34z" />
    <glyph glyph-name="A" unicode="A" horiz-adv-x="696" 
d="M674 0h-60l-95 224h-344l-94 -224h-59l321 745h10zM498 272l-151 359l-151 -359h302z" />
    <glyph glyph-name="B" unicode="B" horiz-adv-x="565" 
d="M525 199q0 -86 -70.5 -146t-196.5 -60q-63 0 -171 12v723q93 12 164 12q125 0 190.5 -53t65.5 -133q0 -133 -152 -174q84 -15 127 -63.5t43 -117.5zM450 548q0 66 -49.5 105t-145.5 39q-59 0 -112 -9v-281q30 -2 91 -2q107 0 161.5 41.5t54.5 106.5zM467 202
q0 69 -59 111t-170 42q-64 0 -95 -2v-302q65 -9 121 -9q96 0 149.5 45t53.5 115z" />
    <glyph glyph-name="C" unicode="C" horiz-adv-x="740" 
d="M695 70q-120 -80 -253 -80q-163 0 -273.5 103.5t-110.5 271.5t111.5 274t272.5 106q138 0 255 -80l-25 -47q-114 75 -233 75q-137 0 -228.5 -90.5t-91.5 -236.5q0 -145 92.5 -234.5t230.5 -89.5q118 0 233 74z" />
    <glyph glyph-name="D" unicode="D" horiz-adv-x="740" 
d="M682 373q0 -160 -109 -270t-304 -110q-92 0 -182 12v723q90 12 178 12q99 0 180 -30.5t131.5 -82.5t78 -117t27.5 -137zM622 373q0 137 -94.5 227.5t-261.5 90.5q-77 0 -123 -8v-633q50 -8 128 -8q169 0 260 92.5t91 238.5z" />
    <glyph glyph-name="E" unicode="E" horiz-adv-x="563" 
d="M501 0h-414v733h414v-50h-358v-286h323v-50h-323v-296h358v-51z" />
    <glyph glyph-name="F" unicode="F" horiz-adv-x="543" 
d="M501 683h-358v-299h323v-50h-323v-334h-56v733h414v-50z" />
    <glyph glyph-name="G" unicode="G" horiz-adv-x="779" 
d="M447 349h265v-269q-114 -90 -266 -90q-101 0 -188.5 43.5t-143.5 131t-56 201.5q0 85 32.5 157.5t86 120.5t122 74.5t140.5 26.5q83 0 145.5 -22.5t125.5 -67.5l-30 -44q-114 83 -241 84q-137 0 -228.5 -92.5t-91.5 -236.5q0 -145 95.5 -235.5t233.5 -90.5q117 0 208 64
v193h-209v52z" />
    <glyph glyph-name="H" unicode="H" horiz-adv-x="707" 
d="M620 0h-56v348h-421v-348h-56v733h56v-335h421v335h56v-733z" />
    <glyph glyph-name="I" unicode="I" horiz-adv-x="238" 
d="M147 0h-56v733h56v-733z" />
    <glyph glyph-name="J" unicode="J" horiz-adv-x="465" 
d="M382 733v-515q0 -107 -53.5 -168.5t-148.5 -61.5q-93 0 -163 56l30 43q59 -47 134 -47q69 0 107 45t38 134v514h56z" />
    <glyph glyph-name="K" unicode="K" horiz-adv-x="593" 
d="M572 0h-74l-355 362v-362h-56v733h56v-341l343 341h72l-361 -356z" />
    <glyph glyph-name="L" unicode="L" horiz-adv-x="513" 
d="M501 0h-414v733h56v-682h358v-51z" />
    <glyph glyph-name="M" unicode="M" horiz-adv-x="847" 
d="M771 0h-57l-12 586l-274 -481h-9l-274 482l-12 -587h-57l25 742l13 2l312 -555l307 555l13 -2z" />
    <glyph glyph-name="N" unicode="N" horiz-adv-x="727" 
d="M640 -9l-10 -2l-488 622v-611h-55v741l13 3l484 -615v604h56v-742z" />
    <glyph glyph-name="O" unicode="O" horiz-adv-x="842" 
d="M784 366q0 -161 -106 -268.5t-259 -107.5q-152 0 -256.5 107.5t-104.5 268.5t106 269.5t259 108.5q152 0 256.5 -108t104.5 -270zM723 366q0 140 -85.5 233.5t-216.5 93.5t-216.5 -93.5t-85.5 -233.5q0 -139 85.5 -232.5t216.5 -93.5t216.5 93.5t85.5 232.5z" />
    <glyph glyph-name="P" unicode="P" horiz-adv-x="555" 
d="M520 505q0 -112 -77 -181t-210 -69q-40 0 -90 6v-261h-56v728q80 10 151 10q135 0 208.5 -66.5t73.5 -166.5zM460 502q0 78 -57 132t-159 54q-48 0 -101 -7v-370q61 -7 92 -7q107 0 166 54.5t59 143.5z" />
    <glyph glyph-name="Q" unicode="Q" horiz-adv-x="842" 
d="M783 24l-35 -41q-75 70 -98 90q-101 -83 -231 -83q-153 0 -257 107t-104 269q0 161 106 269.5t258 108.5t256.5 -108t104.5 -270q0 -151 -95 -257zM723 366q0 140 -85.5 233.5t-216.5 93.5t-216.5 -93.5t-85.5 -233.5q0 -139 85.5 -232.5t216.5 -93.5q108 0 189 68
l-38 34l-76 68l-39 35l35 40l155 -139q76 90 76 220z" />
    <glyph glyph-name="R" unicode="R" horiz-adv-x="590" 
d="M565 0h-68l-200 298q-27 -4 -64 -4q-41 0 -89 4v-298h-57v726q93 12 157 12q133 0 205.5 -59.5t72.5 -157.5q0 -76 -44.5 -131.5t-125.5 -79.5zM462 518q0 76 -55.5 123t-156.5 47q-54 0 -106 -9v-331q50 -6 92 -6q109 0 167.5 47t58.5 129z" />
    <glyph glyph-name="S" unicode="S" horiz-adv-x="517" 
d="M464 189q0 -88 -64.5 -144.5t-159.5 -56.5q-108 0 -212 68l27 49q97 -66 190 -66q72 0 117 40.5t45 102.5q0 60 -37 95t-124 74q-93 41 -137.5 86.5t-44.5 116.5q0 81 61.5 136t158.5 55q91 0 165 -50l-27 -47q-65 46 -143 46q-72 0 -115.5 -39t-43.5 -97q0 -54 37 -88
t114 -70q103 -46 148 -91.5t45 -119.5z" />
    <glyph glyph-name="T" unicode="T" horiz-adv-x="614" 
d="M584 683h-248v-683h-57v683h-249v50h554v-50z" />
    <glyph glyph-name="U" unicode="U" horiz-adv-x="708" 
d="M628 266q0 -128 -75 -202t-200 -74q-128 0 -200 72t-72 204v467h56v-466q0 -110 57.5 -168t158.5 -58q100 0 159 58.5t59 167.5v466h57v-467z" />
    <glyph glyph-name="V" unicode="V" horiz-adv-x="687" 
d="M668 733l-319 -745h-11l-319 745h62l264 -628l262 628h61z" />
    <glyph glyph-name="W" unicode="W" horiz-adv-x="952" 
d="M918 733l-192 -743l-14 -2l-237 627l-235 -627l-14 2l-192 743h56l154 -601l227 605h10l229 -603l153 599h55z" />
    <glyph glyph-name="X" unicode="X" horiz-adv-x="678" 
d="M640 0h-67l-235 329l-235 -329h-66l271 369l-267 364h68l230 -323l231 323h66l-266 -363z" />
    <glyph glyph-name="Y" unicode="Y" horiz-adv-x="626" 
d="M597 733l-256 -404v-329h-56v330l-256 403h63l223 -356l220 356h62z" />
    <glyph glyph-name="Z" unicode="Z" horiz-adv-x="631" 
d="M580 723l-446 -672h441v-51h-525l-4 10l445 673h-420v50h504z" />
    <glyph glyph-name="bracketleft" unicode="[" horiz-adv-x="295" 
d="M271 -216h-191v949h191v-46h-139v-857h139v-46z" />
    <glyph glyph-name="backslash" unicode="\" horiz-adv-x="319" 
d="M291 -216h-52l-238 949h51z" />
    <glyph glyph-name="bracketright" unicode="]" horiz-adv-x="295" 
d="M216 -216h-191v46h139v857h-139v46h191v-949z" />
    <glyph glyph-name="asciicircum" unicode="^" horiz-adv-x="440" 
d="M357 485h-59l-79 98l-75 -98h-58l121 149h30z" />
    <glyph glyph-name="underscore" unicode="_" horiz-adv-x="520" 
d="M520 0h-520v50h520v-50z" />
    <glyph glyph-name="grave" unicode="`" horiz-adv-x="440" 
d="M334 505l-19 -30l-192 99l31 54z" />
    <glyph glyph-name="a" unicode="a" horiz-adv-x="433" 
d="M376 0h-52v45q-53 -53 -132 -53q-66 0 -110 35t-44 96q0 58 44.5 94.5t111.5 36.5q59 0 127 -32v38q0 60 -28.5 88.5t-92.5 28.5q-56 0 -109 -23l-11 48q65 24 126 24q170 0 170 -166v-260zM321 93v82q-62 35 -120 35q-49 0 -79.5 -22.5t-30.5 -64.5q0 -41 30 -63t82 -22
q72 0 118 55z" />
    <glyph glyph-name="b" unicode="b" horiz-adv-x="506" 
d="M463 211q0 -92 -60 -155.5t-145 -63.5t-142 57v-49h-53v733h55v-363q60 56 145 56q86 0 143 -61t57 -154zM408 210q0 73 -42.5 120.5t-110.5 47.5q-83 0 -137 -63v-211q53 -64 133 -64q68 0 112.5 47.5t44.5 122.5z" />
    <glyph glyph-name="c" unicode="c" horiz-adv-x="424" 
d="M400 34q-66 -42 -139 -42q-95 0 -157 62t-62 153t62 155t157 64q73 0 139 -42l-25 -43q-57 36 -117 36q-71 0 -116.5 -46.5t-45.5 -121.5q0 -73 47.5 -120.5t116.5 -47.5q60 0 118 36z" />
    <glyph glyph-name="d" unicode="d" horiz-adv-x="506" 
d="M443 0h-53v51q-57 -59 -144 -59q-89 0 -146 60.5t-57 154.5q0 92 60 155.5t145 63.5q83 0 140 -52v359h55v-733zM388 105v210q-53 63 -137 63q-66 0 -109.5 -47.5t-43.5 -122.5q0 -73 43 -120.5t112 -47.5q82 0 135 65z" />
    <glyph glyph-name="e" unicode="e" horiz-adv-x="461" 
d="M422 224q0 -17 -2 -27h-323q4 -71 46.5 -113.5t124.5 -42.5q56 0 119 25q1 -3 2 -8t3.5 -15.5t3.5 -16.5l2 -7q-71 -27 -133 -27q-107 0 -165 60.5t-58 155.5q0 92 54.5 155t144.5 63q86 0 133.5 -56.5t47.5 -145.5zM99 241h270q-4 61 -37 99t-95 38q-59 0 -95 -37
t-43 -100z" />
    <glyph glyph-name="f" unicode="f" horiz-adv-x="277" 
d="M307 730l-10 -48q-22 8 -50 8q-50 0 -74 -30t-24 -98v-144h124v-49h-124v-369h-55v369h-70v13l70 39v134q0 91 38.5 138t109.5 47q40 0 65 -10z" />
    <glyph glyph-name="g" unicode="g" horiz-adv-x="506" 
d="M443 -41q0 -185 -175 -185q-65 0 -139 24l10 51q62 -24 123 -24q65 0 95.5 31.5t30.5 98.5v92q-59 -55 -142 -55q-89 0 -146 60.5t-57 154.5q0 92 60 155.5t145 63.5q87 0 142 -57v49h53v-459zM388 103v210q-54 65 -136 65q-68 0 -111 -48t-43 -123q0 -73 44 -120.5
t114 -47.5q80 0 132 64z" />
    <glyph glyph-name="h" unicode="h" horiz-adv-x="466" 
d="M413 0h-56v269q0 109 -97 109q-76 0 -147 -80v-298h-55v733h55v-386q74 79 158 79q70 0 106 -39.5t36 -105.5v-281z" />
    <glyph glyph-name="i" unicode="i" horiz-adv-x="188" 
d="M134 573q0 -17 -12 -28.5t-28 -11.5q-17 0 -28.5 11.5t-11.5 28.5t11.5 29t28.5 12q16 0 28 -12t12 -29zM122 0h-56v418h56v-418z" />
    <glyph glyph-name="j" unicode="j" horiz-adv-x="189" 
d="M136 573q0 -17 -11.5 -28.5t-28.5 -11.5q-16 0 -28 11.5t-12 28.5t12 29t28 12q17 0 28.5 -12t11.5 -29zM124 418v-517q0 -125 -107 -125q-25 0 -60 7l7 48q25 -5 42 -5q63 0 63 72v520h55z" />
    <glyph glyph-name="k" unicode="k" horiz-adv-x="398" 
d="M396 0h-70l-208 206v-206h-55v733h55v-500l198 185h70l-217 -197z" />
    <glyph glyph-name="l" unicode="l" horiz-adv-x="187" 
d="M121 0h-55v733h55v-733z" />
    <glyph glyph-name="m" unicode="m" horiz-adv-x="748" 
d="M689 0h-56v274q0 103 -87 103q-76 0 -142 -81v-296h-56v272q0 106 -88 106q-72 0 -142 -81v-297h-55v418h53v-71q77 79 160 79q90 0 115 -86q71 85 170 85q59 0 93.5 -36.5t34.5 -105.5v-283z" />
    <glyph glyph-name="n" unicode="n" 
d="M415 0h-56v269q0 109 -96 109q-72 0 -145 -80v-298h-55v418h53v-72q75 80 160 80q69 0 104 -39.5t35 -105.5v-281z" />
    <glyph glyph-name="o" unicode="o" horiz-adv-x="500" 
d="M458 210q0 -92 -59 -155t-149 -63q-91 0 -149 62.5t-58 154.5q0 91 58.5 154t149.5 63q90 0 148.5 -62.5t58.5 -153.5zM402 209q0 75 -42 122.5t-110 47.5t-110 -48t-42 -122t42 -122t110 -48t110 48t42 122z" />
    <glyph glyph-name="p" unicode="p" horiz-adv-x="506" 
d="M463 210q0 -95 -59 -156.5t-150 -61.5q-72 0 -136 43v-251h-55v634h53v-51q61 59 147 59q85 0 142.5 -61.5t57.5 -154.5zM408 209q0 73 -43 121t-110 48q-83 0 -137 -63v-220q56 -56 136 -56q67 0 110.5 47t43.5 123z" />
    <glyph glyph-name="q" unicode="q" horiz-adv-x="506" 
d="M443 -216h-55v262q-59 -54 -139 -54q-89 0 -147.5 60t-58.5 155q0 93 61 156t147 63q83 0 139 -54v46h53v-634zM388 104v211q-54 63 -136 63q-66 0 -110 -48t-44 -122q0 -75 43.5 -121.5t116.5 -46.5q78 0 130 64z" />
    <glyph glyph-name="r" unicode="r" horiz-adv-x="285" 
d="M268 373q-46 -2 -86.5 -24t-63.5 -63v-286h-55v418h53v-79q62 88 152 88v-54z" />
    <glyph glyph-name="s" unicode="s" horiz-adv-x="354" 
d="M311 116q0 -51 -37.5 -87.5t-96.5 -36.5q-76 0 -146 52l27 40q60 -46 117 -46q40 0 62.5 19.5t22.5 51.5q0 27 -21.5 46t-52 30.5t-60.5 25t-51.5 38.5t-21.5 61q0 47 36.5 81.5t97.5 34.5q62 0 121 -40l-25 -42q-51 36 -97 36q-40 0 -61 -18.5t-21 -46.5q0 -26 21.5 -44
t52 -29.5t60.5 -24.5t51.5 -38.5t21.5 -62.5z" />
    <glyph glyph-name="t" unicode="t" horiz-adv-x="293" 
d="M275 369h-132v-262q0 -66 70 -66q20 0 45 5l5 -47q-39 -7 -63 -7q-111 0 -111 119v258h-71v13l71 39v90l54 40v-133h132v-49z" />
    <glyph glyph-name="u" unicode="u" 
d="M411 0h-53v69q-31 -32 -73.5 -54.5t-84.5 -22.5q-70 0 -105.5 39.5t-35.5 105.5v281h56v-269q0 -109 97 -109q73 0 144 78v300h55v-418z" />
    <glyph glyph-name="v" unicode="v" horiz-adv-x="433" 
d="M425 418l-206 -430h-10l-201 430h61l147 -333l150 333h59z" />
    <glyph glyph-name="w" unicode="w" horiz-adv-x="611" 
d="M593 418l-140 -430h-10l-134 324l-137 -324h-10l-141 430h60l94 -314l128 314h10l131 -314l90 314h59z" />
    <glyph glyph-name="x" unicode="x" horiz-adv-x="393" 
d="M381 0h-62l-121 169l-123 -169h-59l154 209l-153 209h63l120 -168l119 168h60l-152 -207z" />
    <glyph glyph-name="y" unicode="y" horiz-adv-x="427" 
d="M420 418l-295 -634h-56l118 244l-179 390h61l145 -334l146 334h60z" />
    <glyph glyph-name="z" unicode="z" horiz-adv-x="397" 
d="M376 408l-276 -360h270v-48h-352l-4 9l276 361h-256v48h338z" />
    <glyph glyph-name="braceleft" unicode="{" horiz-adv-x="296" 
d="M278 -223q-168 0 -168 173v214q0 37 -14.5 54.5t-52.5 17.5h-23v47h23q38 0 52.5 17t14.5 55v211q0 174 168 174v-49q-58 0 -86.5 -29t-28.5 -94v-200q0 -47 -13.5 -71t-52.5 -38q39 -14 52.5 -38t13.5 -71v-201q0 -65 28.5 -94t86.5 -29v-49z" />
    <glyph glyph-name="bar" unicode="|" horiz-adv-x="231" 
d="M140 -217h-50v949h50v-949z" />
    <glyph glyph-name="braceright" unicode="}" horiz-adv-x="296" 
d="M276 236h-23q-38 0 -52.5 -17.5t-14.5 -54.5v-214q0 -173 -168 -173v49q59 0 87.5 29t28.5 94v201q0 47 13.5 71t51.5 38q-38 14 -51.5 38t-13.5 71v200q0 65 -28.5 94t-87.5 29v49q168 0 168 -174v-211q0 -38 14.5 -55t52.5 -17h23v-47z" />
    <glyph glyph-name="asciitilde" unicode="~" horiz-adv-x="440" 
d="M370 378q-47 -56 -94 -54q-25 0 -62 22q-33 21 -52 22q-31 0 -65 -41l-28 34q47 56 94 54q26 0 61 -22q35 -21 53 -22q31 0 65 41z" />
    <glyph glyph-name="uni00A0" unicode="&#xa0;" horiz-adv-x="224" 
 />
    <glyph glyph-name="exclamdown" unicode="&#xa1;" horiz-adv-x="203" 
d="M58 698q0 19 12.5 31.5t31.5 12.5q18 0 30.5 -12.5t12.5 -31.5q0 -18 -12.5 -30.5t-30.5 -12.5q-19 0 -31.5 12.5t-12.5 30.5zM72 1l8 551h43l9 -551h-60z" />
    <glyph glyph-name="cent" unicode="&#xa2;" horiz-adv-x="438" 
d="M198 -81l6 79q-74 16 -118.5 73t-44.5 135q0 88 56.5 150t140.5 69l6 75l47 -4l-6 -72q58 -5 114 -40l-25 -43q-51 29 -93 34l-26 -334h4q59 0 118 36l22 -43q-68 -42 -141 -42h-7l-6 -77zM95 208q0 -60 31 -102.5t82 -57.5l26 328q-62 -8 -100.5 -53.5t-38.5 -114.5z
" />
    <glyph glyph-name="sterling" unicode="&#xa3;" horiz-adv-x="435" 
d="M417 544l-27 -46q-57 38 -113 38q-120 0 -120 -146v-80h146v-48h-146v-212h259v-50h-381v50h66v212h-63v8l63 43v82q0 86 47.5 138.5t135.5 52.5q65 0 133 -42z" />
    <glyph glyph-name="yen" unicode="&#xa5;" horiz-adv-x="495" 
d="M468 577l-168 -266h138v-49h-162v-74h162v-48h-162v-140h-55v140h-164v48h164v74h-164v49h141l-171 266h64l159 -254l156 254h62z" />
    <glyph glyph-name="section" unicode="&#xa7;" horiz-adv-x="422" 
d="M377 286q0 -69 -75 -98q49 -30 49 -79q0 -50 -41 -84t-107 -34q-81 0 -150 52l27 40q25 -20 60.5 -33.5t65.5 -13.5q44 0 68 17t24 49q0 27 -25 44.5t-60.5 28t-71 23t-60.5 36t-25 59.5q0 34 22 60t57 38q-52 29 -52 79q0 49 42 82.5t104 33.5q73 0 134 -42l-25 -42
q-53 39 -110 39q-41 0 -66 -18.5t-25 -47.5q0 -24 24.5 -40.5t60 -28t71 -24.5t60 -37t24.5 -59zM326 279q0 32 -29.5 49t-111.5 42q-32 -4 -54 -23.5t-22 -45.5q0 -12 5.5 -22t14 -17t24 -14t28.5 -11.5t36.5 -12t38.5 -13.5q29 5 49.5 24t20.5 44z" />
    <glyph glyph-name="dieresis" unicode="&#xa8;" horiz-adv-x="440" 
d="M348 543q0 -17 -12.5 -29.5t-29.5 -12.5q-18 0 -30.5 12.5t-12.5 29.5t12.5 30t30.5 13q17 0 29.5 -13t12.5 -30zM177 543q0 -17 -12.5 -29.5t-29.5 -12.5t-29.5 12.5t-12.5 29.5t12.5 30t29.5 13t29.5 -13t12.5 -30z" />
    <glyph glyph-name="copyright" unicode="&#xa9;" horiz-adv-x="842" 
d="M792 366q0 -157 -108.5 -267.5t-262.5 -110.5t-262.5 110.5t-108.5 267.5t108.5 268t262.5 111t262.5 -111t108.5 -268zM744 366q0 141 -94.5 239t-228.5 98t-228 -98t-94 -239q0 -140 94 -237.5t228 -97.5t228.5 97.5t94.5 237.5zM560 220q-57 -38 -124 -38
q-84 0 -139.5 52t-55.5 136q0 83 56 136t139 53q64 0 124 -37l-17 -39q-54 33 -108 33q-63 0 -103.5 -40t-40.5 -106t41 -105.5t105 -39.5q54 0 107 34z" />
    <glyph glyph-name="ordfeminine" unicode="&#xaa;" horiz-adv-x="349" 
d="M297 429h-49v33q-38 -38 -95 -38q-49 0 -81.5 26t-32.5 70q0 43 33 70t82 27q44 0 92 -22v24q0 42 -20.5 62t-66.5 20q-40 0 -80 -16l-8 42q48 17 95 17q131 0 131 -126v-189zM246 500v57q-42 24 -83 24q-33 0 -54 -15.5t-21 -43.5q0 -29 21 -44t56 -15q49 0 81 37z" />
    <glyph glyph-name="guillemotleft" unicode="&#xab;" horiz-adv-x="402" 
d="M357 9h-58l-105 164l105 163h58l-108 -163zM212 9h-58l-105 164l105 163h58l-108 -163z" />
    <glyph glyph-name="registered" unicode="&#xae;" horiz-adv-x="386" 
d="M140 489v166q21 3 45 3q34 0 51.5 -15t17.5 -37q0 -37 -31 -50l43 -67h-33l-37 61q-5 -1 -13 -1t-15 1v-61h-28zM168 632v-59q7 -1 18 -1q39 0 39 33q0 28 -37 28q-15 0 -20 -1zM193 424q59 0 100.5 43.5t41.5 103.5q0 62 -41.5 105t-100.5 43t-100 -43.5t-41 -104.5
q0 -60 41.5 -103.5t99.5 -43.5zM193 400q-70 0 -119 50t-49 121q0 72 49 122.5t119 50.5t119.5 -51t49.5 -122q0 -70 -49.5 -120.5t-119.5 -50.5z" />
    <glyph glyph-name="macron" unicode="&#xaf;" horiz-adv-x="440" 
d="M364 512h-287v48h287v-48z" />
    <glyph glyph-name="degree" unicode="&#xb0;" horiz-adv-x="372" 
d="M293 583q0 -44 -30 -74t-77 -30q-46 0 -76 30t-30 74t30 74t76 30q47 0 77 -30t30 -74zM252 583q0 30 -18 49.5t-48 19.5q-29 0 -47.5 -19.5t-18.5 -49.5t18.5 -49.5t47.5 -19.5q30 0 48 19.5t18 49.5z" />
    <glyph glyph-name="acute" unicode="&#xb4;" horiz-adv-x="440" 
d="M322 574l-192 -99l-18 31l181 123z" />
    <glyph glyph-name="paragraph" unicode="&#xb6;" horiz-adv-x="558" 
d="M484 0h-52v529q-24 3 -81 5v-534h-52v164q-104 -6 -177 47t-73 149q0 102 78.5 164t213.5 62q61 0 143 -10v-576zM299 214v319q-91 -7 -140.5 -52.5t-49.5 -118.5q0 -74 56.5 -114t133.5 -34z" />
    <glyph glyph-name="periodcentered" unicode="&#xb7;" horiz-adv-x="222" 
d="M68 370q0 18 12.5 30.5t30.5 12.5q19 0 31.5 -12.5t12.5 -30.5q0 -19 -12.5 -31.5t-31.5 -12.5q-18 0 -30.5 12.5t-12.5 31.5z" />
    <glyph glyph-name="cedilla" unicode="&#xb8;" horiz-adv-x="440" 
d="M332 -150q0 -37 -27 -62t-75 -25q-46 0 -106 33l18 36q52 -29 88 -29q26 0 40.5 12t14.5 33q0 53 -101 63l-3 6l26 97l37 -9l-16 -60q53 -11 78.5 -36t25.5 -59z" />
    <glyph glyph-name="ordmasculine" unicode="&#xba;" horiz-adv-x="380" 
d="M347 583q0 -68 -44.5 -114.5t-112.5 -46.5q-69 0 -112.5 46.5t-43.5 114.5t43.5 114.5t112.5 46.5t113 -46.5t44 -114.5zM296 583q0 52 -29 85t-77 33q-47 0 -76 -33t-29 -85t28.5 -85t76.5 -33q47 0 76.5 33.5t29.5 84.5z" />
    <glyph glyph-name="guillemotright" unicode="&#xbb;" horiz-adv-x="402" 
d="M353 173l-105 -164h-58l108 164l-108 163h58zM208 173l-105 -164h-58l108 164l-108 163h58z" />
    <glyph glyph-name="questiondown" unicode="&#xbf;" horiz-adv-x="384" 
d="M26 160q0 41 20 75.5t48 59t56 47t48 50.5t20 59v80h52v-91q0 -35 -19.5 -65.5t-47 -53.5t-55 -45.5t-47 -51.5t-19.5 -62q0 -53 36 -84.5t103 -31.5q60 0 126 34l16 -49q-81 -38 -146 -38q-92 0 -141.5 47t-49.5 120zM200 698q0 19 12.5 31.5t31.5 12.5q18 0 30.5 -12.5
t12.5 -31.5q0 -18 -12.5 -30.5t-30.5 -12.5q-19 0 -31.5 12.5t-12.5 30.5z" />
    <glyph glyph-name="Agrave" unicode="&#xc0;" horiz-adv-x="696" 
d="M674 0h-60l-95 224h-344l-94 -224h-59l321 745h10zM498 272l-151 359l-151 -359h302zM389 825l-19 -30l-192 99l31 54z" />
    <glyph glyph-name="Aacute" unicode="&#xc1;" horiz-adv-x="696" 
d="M674 0h-60l-95 224h-344l-94 -224h-59l321 745h10zM498 272l-151 359l-151 -359h302zM513 894l-192 -99l-18 31l181 123z" />
    <glyph glyph-name="Acircumflex" unicode="&#xc2;" horiz-adv-x="696" 
d="M674 0h-60l-95 224h-344l-94 -224h-59l321 745h10zM498 272l-151 359l-151 -359h302zM483 807h-59l-79 98l-75 -98h-58l121 149h30z" />
    <glyph glyph-name="Atilde" unicode="&#xc3;" horiz-adv-x="696" 
d="M674 0h-60l-95 224h-344l-94 -224h-59l321 745h10zM498 272l-151 359l-151 -359h302zM500 871q-47 -56 -94 -54q-25 0 -62 22q-33 21 -52 22q-31 0 -65 -41l-28 34q47 56 94 54q26 0 61 -22q35 -21 53 -22q31 0 65 41z" />
    <glyph glyph-name="Adieresis" unicode="&#xc4;" horiz-adv-x="696" 
d="M674 0h-60l-95 224h-344l-94 -224h-59l321 745h10zM498 272l-151 359l-151 -359h302zM475 863q0 -17 -12.5 -29.5t-29.5 -12.5q-18 0 -30.5 12.5t-12.5 29.5t12.5 30t30.5 13q17 0 29.5 -13t12.5 -30zM304 863q0 -17 -12.5 -29.5t-29.5 -12.5t-29.5 12.5t-12.5 29.5
t12.5 30t29.5 13t29.5 -13t12.5 -30z" />
    <glyph glyph-name="Aring" unicode="&#xc5;" horiz-adv-x="696" 
d="M451 811q0 -38 -23 -65.5t-61 -34.5l307 -711h-60l-95 224h-344l-94 -224h-59l306 712q-37 6 -60 34t-23 65q0 43 29 72t74 29q46 0 74.5 -29t28.5 -72zM498 272l-151 359l-151 -359h302zM410 812q0 28 -17.5 46.5t-44.5 18.5q-26 0 -43.5 -18.5t-17.5 -46.5
q0 -29 17.5 -47.5t43.5 -18.5q27 0 44.5 18.5t17.5 47.5z" />
    <glyph glyph-name="AE" unicode="&#xc6;" horiz-adv-x="1020" 
d="M958 0h-414v241h-288l-171 -241h-66l527 733h412v-50h-357v-286h322v-50h-322v-296h357v-51zM544 289v357l-254 -357h254z" />
    <glyph glyph-name="Ccedilla" unicode="&#xc7;" horiz-adv-x="740" 
d="M537 -150q0 -37 -27 -62t-75 -25q-46 0 -106 33l18 36q52 -29 88 -29q26 0 40.5 12t14.5 33q0 53 -101 63l-3 6l20 75q-150 12 -249 113.5t-99 259.5q0 168 111.5 274t272.5 106q138 0 255 -80l-25 -47q-114 75 -233 75q-137 0 -228.5 -90.5t-91.5 -236.5
q0 -145 92.5 -234.5t230.5 -89.5q118 0 233 74l20 -46q-118 -79 -250 -80l-12 -45q53 -11 78.5 -36t25.5 -59z" />
    <glyph glyph-name="Egrave" unicode="&#xc8;" horiz-adv-x="563" 
d="M501 0h-414v733h414v-50h-358v-286h323v-50h-323v-296h358v-51zM336 825l-19 -30l-192 99l31 54z" />
    <glyph glyph-name="Eacute" unicode="&#xc9;" horiz-adv-x="563" 
d="M460 894l-192 -99l-18 31l181 123zM501 0h-414v733h414v-50h-358v-286h323v-50h-323v-296h358v-51z" />
    <glyph glyph-name="Ecircumflex" unicode="&#xca;" horiz-adv-x="563" 
d="M430 807h-59l-79 98l-75 -98h-58l121 149h30zM501 0h-414v733h414v-50h-358v-286h323v-50h-323v-296h358v-51z" />
    <glyph glyph-name="Edieresis" unicode="&#xcb;" horiz-adv-x="563" 
d="M422 863q0 -17 -12.5 -29.5t-29.5 -12.5q-18 0 -30.5 12.5t-12.5 29.5t12.5 30t30.5 13q17 0 29.5 -13t12.5 -30zM251 863q0 -17 -12.5 -29.5t-29.5 -12.5t-29.5 12.5t-12.5 29.5t12.5 30t29.5 13t29.5 -13t12.5 -30zM501 0h-414v733h414v-50h-358v-286h323v-50h-323
v-296h358v-51z" />
    <glyph glyph-name="Igrave" unicode="&#xcc;" horiz-adv-x="237" 
d="M147 0h-56v733h56v-733zM160 825l-19 -30l-192 99l31 54z" />
    <glyph glyph-name="Iacute" unicode="&#xcd;" horiz-adv-x="237" 
d="M147 0h-56v733h56v-733zM284 894l-192 -99l-18 31l181 123z" />
    <glyph glyph-name="Icircumflex" unicode="&#xce;" horiz-adv-x="237" 
d="M147 0h-56v733h56v-733zM254 807h-59l-79 98l-75 -98h-58l121 149h30z" />
    <glyph glyph-name="Idieresis" unicode="&#xcf;" horiz-adv-x="237" 
d="M147 0h-56v733h56v-733zM246 863q0 -17 -12.5 -29.5t-29.5 -12.5q-18 0 -30.5 12.5t-12.5 29.5t12.5 30t30.5 13q17 0 29.5 -13t12.5 -30zM75 863q0 -17 -12.5 -29.5t-29.5 -12.5t-29.5 12.5t-12.5 29.5t12.5 30t29.5 13t29.5 -13t12.5 -30z" />
    <glyph glyph-name="Eth" unicode="&#xd0;" horiz-adv-x="770" 
d="M712 373q0 -160 -109 -270t-304 -110q-92 0 -182 12v343h-87v50h87v330q90 12 178 12q99 0 180 -30.5t131.5 -82.5t78 -117t27.5 -137zM652 373q0 137 -94 227.5t-261 90.5q-78 0 -124 -8v-285h136v-50h-136v-298q50 -8 129 -8q168 0 259 92.5t91 238.5z" />
    <glyph glyph-name="Ntilde" unicode="&#xd1;" horiz-adv-x="727" 
d="M640 -9l-10 -2l-488 622v-611h-55v741l13 3l484 -615v604h56v-742zM515 858q-47 -56 -94 -54q-25 0 -62 22q-33 21 -52 22q-31 0 -65 -41l-28 34q47 56 94 54q26 0 61 -22q35 -21 53 -22q31 0 65 41z" />
    <glyph glyph-name="Ograve" unicode="&#xd2;" horiz-adv-x="842" 
d="M784 366q0 -161 -106 -268.5t-259 -107.5q-152 0 -256.5 107.5t-104.5 268.5t106 269.5t259 108.5q152 0 256.5 -108t104.5 -270zM723 366q0 140 -85.5 233.5t-216.5 93.5t-216.5 -93.5t-85.5 -233.5q0 -139 85.5 -232.5t216.5 -93.5t216.5 93.5t85.5 232.5zM462 825
l-19 -30l-192 99l31 54z" />
    <glyph glyph-name="Oacute" unicode="&#xd3;" horiz-adv-x="842" 
d="M586 894l-192 -99l-18 31l181 123zM784 366q0 -161 -106 -268.5t-259 -107.5q-152 0 -256.5 107.5t-104.5 268.5t106 269.5t259 108.5q152 0 256.5 -108t104.5 -270zM723 366q0 140 -85.5 233.5t-216.5 93.5t-216.5 -93.5t-85.5 -233.5q0 -139 85.5 -232.5t216.5 -93.5
t216.5 93.5t85.5 232.5z" />
    <glyph glyph-name="Ocircumflex" unicode="&#xd4;" horiz-adv-x="842" 
d="M556 807h-59l-79 98l-75 -98h-58l121 149h30zM784 366q0 -161 -106 -268.5t-259 -107.5q-152 0 -256.5 107.5t-104.5 268.5t106 269.5t259 108.5q152 0 256.5 -108t104.5 -270zM723 366q0 140 -85.5 233.5t-216.5 93.5t-216.5 -93.5t-85.5 -233.5q0 -139 85.5 -232.5
t216.5 -93.5t216.5 93.5t85.5 232.5z" />
    <glyph glyph-name="Otilde" unicode="&#xd5;" horiz-adv-x="842" 
d="M784 366q0 -161 -106 -268.5t-259 -107.5q-152 0 -256.5 107.5t-104.5 268.5t106 269.5t259 108.5q152 0 256.5 -108t104.5 -270zM723 366q0 140 -85.5 233.5t-216.5 93.5t-216.5 -93.5t-85.5 -233.5q0 -139 85.5 -232.5t216.5 -93.5t216.5 93.5t85.5 232.5zM573 871
q-47 -56 -94 -54q-25 0 -62 22q-33 21 -52 22q-31 0 -65 -41l-28 34q47 56 94 54q26 0 61 -22q35 -21 53 -22q31 0 65 41z" />
    <glyph glyph-name="Odieresis" unicode="&#xd6;" horiz-adv-x="842" 
d="M548 863q0 -17 -12.5 -29.5t-29.5 -12.5q-18 0 -30.5 12.5t-12.5 29.5t12.5 30t30.5 13q17 0 29.5 -13t12.5 -30zM377 863q0 -17 -12.5 -29.5t-29.5 -12.5t-29.5 12.5t-12.5 29.5t12.5 30t29.5 13t29.5 -13t12.5 -30zM784 366q0 -161 -106 -268.5t-259 -107.5
q-152 0 -256.5 107.5t-104.5 268.5t106 269.5t259 108.5q152 0 256.5 -108t104.5 -270zM723 366q0 140 -85.5 233.5t-216.5 93.5t-216.5 -93.5t-85.5 -233.5q0 -139 85.5 -232.5t216.5 -93.5t216.5 93.5t85.5 232.5z" />
    <glyph glyph-name="multiply" unicode="&#xd7;" horiz-adv-x="450" 
d="M70 401l34 35l121 -121l121 121l34 -35l-121 -121l121 -120l-34 -35l-121 121l-121 -121l-34 35l120 120z" />
    <glyph glyph-name="Oslash" unicode="&#xd8;" horiz-adv-x="842" 
d="M784 366q0 -161 -106 -268.5t-259 -107.5q-138 0 -240 91l-83 -87l-34 35q5 6 14 14.5t27.5 27.5t30.5 31l12 13q-88 106 -88 251q0 161 106 269.5t259 108.5q139 0 240 -93l84 88l34 -34q-68 -71 -85 -88q88 -104 88 -251zM625 612q-84 81 -204 81q-131 0 -216.5 -93.5
t-85.5 -233.5q0 -122 67 -209zM723 366q0 123 -67 210l-110 -114q-109 -114 -219 -228l-110 -114q85 -80 204 -80q131 0 216.5 93.5t85.5 232.5z" />
    <glyph glyph-name="Ugrave" unicode="&#xd9;" horiz-adv-x="708" 
d="M628 266q0 -128 -75 -202t-200 -74q-128 0 -200 72t-72 204v467h56v-466q0 -110 57.5 -168t158.5 -58q100 0 159 58.5t59 167.5v466h57v-467zM396 812l-19 -30l-192 99l31 54z" />
    <glyph glyph-name="Uacute" unicode="&#xda;" horiz-adv-x="708" 
d="M628 266q0 -128 -75 -202t-200 -74q-128 0 -200 72t-72 204v467h56v-466q0 -110 57.5 -168t158.5 -58q100 0 159 58.5t59 167.5v466h57v-467zM520 881l-192 -99l-18 31l181 123z" />
    <glyph glyph-name="Ucircumflex" unicode="&#xdb;" horiz-adv-x="708" 
d="M628 266q0 -128 -75 -202t-200 -74q-128 0 -200 72t-72 204v467h56v-466q0 -110 57.5 -168t158.5 -58q100 0 159 58.5t59 167.5v466h57v-467zM490 794h-59l-79 98l-75 -98h-58l121 149h30z" />
    <glyph glyph-name="Udieresis" unicode="&#xdc;" horiz-adv-x="708" 
d="M628 266q0 -128 -75 -202t-200 -74q-128 0 -200 72t-72 204v467h56v-466q0 -110 57.5 -168t158.5 -58q100 0 159 58.5t59 167.5v466h57v-467zM482 850q0 -17 -12.5 -29.5t-29.5 -12.5q-18 0 -30.5 12.5t-12.5 29.5t12.5 30t30.5 13q17 0 29.5 -13t12.5 -30zM311 850
q0 -17 -12.5 -29.5t-29.5 -12.5t-29.5 12.5t-12.5 29.5t12.5 30t29.5 13t29.5 -13t12.5 -30z" />
    <glyph glyph-name="Yacute" unicode="&#xdd;" horiz-adv-x="626" 
d="M597 733l-256 -404v-329h-56v330l-256 403h63l223 -356l220 356h62zM478 881l-192 -99l-18 31l181 123z" />
    <glyph glyph-name="Thorn" unicode="&#xde;" horiz-adv-x="555" 
d="M520 376q0 -112 -77 -181.5t-210 -69.5q-40 0 -90 6v-131h-56v733h56v-127q41 4 95 4q135 0 208.5 -67t73.5 -167zM460 373q0 78 -57 132t-159 54q-48 0 -101 -7v-370q61 -7 92 -7q107 0 166 54.5t59 143.5z" />
    <glyph glyph-name="germandbls" unicode="&#xdf;" horiz-adv-x="468" 
d="M434 408l-150 -188q73 -4 113.5 -44.5t40.5 -101.5q0 -79 -54.5 -123.5t-139.5 -44.5q-36 0 -67 7l7 48q30 -6 59 -6q66 0 103.5 31t37.5 86q0 48 -35 77t-99 29q-22 0 -44 -3l-5 12l144 182h-223v-369h-55v555q0 91 38.5 138t110.5 47q39 0 64 -10l-10 -48q-22 8 -49 8
q-51 0 -75 -30t-24 -98v-144h308z" />
    <glyph glyph-name="agrave" unicode="&#xe0;" horiz-adv-x="433" 
d="M376 0h-52v45q-53 -53 -132 -53q-66 0 -110 35t-44 96q0 58 44.5 94.5t111.5 36.5q59 0 127 -32v38q0 60 -28.5 88.5t-92.5 28.5q-56 0 -109 -23l-11 48q65 24 126 24q170 0 170 -166v-260zM321 93v82q-62 35 -120 35q-49 0 -79.5 -22.5t-30.5 -64.5q0 -41 30 -63t82 -22
q72 0 118 55zM262 505l-19 -30l-192 99l31 54z" />
    <glyph glyph-name="aacute" unicode="&#xe1;" horiz-adv-x="433" 
d="M376 0h-52v45q-53 -53 -132 -53q-66 0 -110 35t-44 96q0 58 44.5 94.5t111.5 36.5q59 0 127 -32v38q0 60 -28.5 88.5t-92.5 28.5q-56 0 -109 -23l-11 48q65 24 126 24q170 0 170 -166v-260zM321 93v82q-62 35 -120 35q-49 0 -79.5 -22.5t-30.5 -64.5q0 -41 30 -63t82 -22
q72 0 118 55zM385 574l-192 -99l-18 31l181 123z" />
    <glyph glyph-name="acircumflex" unicode="&#xe2;" horiz-adv-x="433" 
d="M376 0h-52v45q-53 -53 -132 -53q-66 0 -110 35t-44 96q0 58 44.5 94.5t111.5 36.5q59 0 127 -32v38q0 60 -28.5 88.5t-92.5 28.5q-56 0 -109 -23l-11 48q65 24 126 24q170 0 170 -166v-260zM321 93v82q-62 35 -120 35q-49 0 -79.5 -22.5t-30.5 -64.5q0 -41 30 -63t82 -22
q72 0 118 55zM355 487h-59l-79 98l-75 -98h-58l121 149h30z" />
    <glyph glyph-name="atilde" unicode="&#xe3;" horiz-adv-x="433" 
d="M376 0h-52v45q-53 -53 -132 -53q-66 0 -110 35t-44 96q0 58 44.5 94.5t111.5 36.5q59 0 127 -32v38q0 60 -28.5 88.5t-92.5 28.5q-56 0 -109 -23l-11 48q65 24 126 24q170 0 170 -166v-260zM321 93v82q-62 35 -120 35q-49 0 -79.5 -22.5t-30.5 -64.5q0 -41 30 -63t82 -22
q72 0 118 55zM372 551q-47 -56 -94 -54q-25 0 -62 22q-33 21 -52 22q-31 0 -65 -41l-28 34q47 56 94 54q26 0 61 -22q35 -21 53 -22q31 0 65 41z" />
    <glyph glyph-name="adieresis" unicode="&#xe4;" horiz-adv-x="433" 
d="M376 0h-52v45q-53 -53 -132 -53q-66 0 -110 35t-44 96q0 58 44.5 94.5t111.5 36.5q59 0 127 -32v38q0 60 -28.5 88.5t-92.5 28.5q-56 0 -109 -23l-11 48q65 24 126 24q170 0 170 -166v-260zM321 93v82q-62 35 -120 35q-49 0 -79.5 -22.5t-30.5 -64.5q0 -41 30 -63t82 -22
q72 0 118 55zM348 543q0 -17 -12.5 -29.5t-29.5 -12.5q-18 0 -30.5 12.5t-12.5 29.5t12.5 30t30.5 13q17 0 29.5 -13t12.5 -30zM177 543q0 -17 -12.5 -29.5t-29.5 -12.5t-29.5 12.5t-12.5 29.5t12.5 30t29.5 13t29.5 -13t12.5 -30z" />
    <glyph glyph-name="aring" unicode="&#xe5;" horiz-adv-x="433" 
d="M376 0h-52v45q-53 -53 -132 -53q-66 0 -110 35t-44 96q0 58 44.5 94.5t111.5 36.5q59 0 127 -32v38q0 60 -28.5 88.5t-92.5 28.5q-56 0 -109 -23l-11 48q65 24 126 24q170 0 170 -166v-260zM323 586q0 -43 -28.5 -72t-74.5 -29q-45 0 -74 29t-29 72q0 42 29 71.5t74 29.5
t74 -29.5t29 -71.5zM321 93v82q-62 35 -120 35q-49 0 -79.5 -22.5t-30.5 -64.5q0 -41 30 -63t82 -22q72 0 118 55zM282 586q0 29 -17.5 47.5t-44.5 18.5q-26 0 -43.5 -18.5t-17.5 -47.5q0 -28 17.5 -47t43.5 -19q27 0 44.5 18.5t17.5 47.5z" />
    <glyph glyph-name="ae" unicode="&#xe6;" horiz-adv-x="738" 
d="M321 222v38q0 60 -28 88.5t-93 28.5q-56 0 -109 -23l-11 48q65 24 127 24q123 0 151 -90q53 90 161 90q85 0 132.5 -56t47.5 -144q0 -19 -1 -29h-323q4 -71 46.5 -113.5t124.5 -42.5q56 0 118 25q1 -3 2 -8t4 -15.5t4 -16.5l2 -7q-71 -27 -133 -27q-141 0 -191 104
q-24 -50 -69 -77t-100 -27q-61 0 -103 35.5t-42 95.5q0 58 44.5 94.5t110.5 36.5q64 0 128 -32zM647 241q-4 61 -37 99t-95 38q-59 0 -95 -37t-43 -100h270zM325 168q-55 42 -124 42q-49 0 -79.5 -22.5t-30.5 -64.5q0 -41 28 -63t75 -22q48 0 85.5 32t45.5 98z" />
    <glyph glyph-name="ccedilla" unicode="&#xe7;" horiz-adv-x="424" 
d="M342 -150q0 -37 -27 -62t-75 -25q-46 0 -106 33l18 36q52 -29 88 -29q26 0 40.5 12t14.5 33q0 53 -101 63l-3 6l21 80q-76 15 -123 73.5t-47 136.5q0 91 62 155t157 64q73 0 139 -42l-25 -43q-57 36 -117 36q-71 0 -116.5 -46.5t-45.5 -121.5q0 -73 47.5 -120.5
t116.5 -47.5q60 0 118 36l22 -43q-66 -42 -139 -42h-11l-12 -47q53 -11 78.5 -36t25.5 -59z" />
    <glyph glyph-name="egrave" unicode="&#xe8;" horiz-adv-x="461" 
d="M422 224q0 -17 -2 -27h-323q4 -71 46.5 -113.5t124.5 -42.5q56 0 119 25q1 -3 2 -8t3.5 -15.5t3.5 -16.5l2 -7q-71 -27 -133 -27q-107 0 -165 60.5t-58 155.5q0 92 54.5 155t144.5 63q86 0 133.5 -56.5t47.5 -145.5zM99 241h270q-4 61 -37 99t-95 38q-59 0 -95 -37
t-43 -100zM282 505l-19 -30l-192 99l31 54z" />
    <glyph glyph-name="eacute" unicode="&#xe9;" horiz-adv-x="461" 
d="M405 574l-192 -99l-18 31l181 123zM422 224q0 -17 -2 -27h-323q4 -71 46.5 -113.5t124.5 -42.5q56 0 119 25q1 -3 2 -8t3.5 -15.5t3.5 -16.5l2 -7q-71 -27 -133 -27q-107 0 -165 60.5t-58 155.5q0 92 54.5 155t144.5 63q86 0 133.5 -56.5t47.5 -145.5zM99 241h270
q-4 61 -37 99t-95 38q-59 0 -95 -37t-43 -100z" />
    <glyph glyph-name="ecircumflex" unicode="&#xea;" horiz-adv-x="461" 
d="M375 487h-59l-79 98l-75 -98h-58l121 149h30zM422 224q0 -17 -2 -27h-323q4 -71 46.5 -113.5t124.5 -42.5q56 0 119 25q1 -3 2 -8t3.5 -15.5t3.5 -16.5l2 -7q-71 -27 -133 -27q-107 0 -165 60.5t-58 155.5q0 92 54.5 155t144.5 63q86 0 133.5 -56.5t47.5 -145.5zM99 241
h270q-4 61 -37 99t-95 38q-59 0 -95 -37t-43 -100z" />
    <glyph glyph-name="edieresis" unicode="&#xeb;" horiz-adv-x="461" 
d="M367 543q0 -17 -12.5 -29.5t-29.5 -12.5q-18 0 -30.5 12.5t-12.5 29.5t12.5 30t30.5 13q17 0 29.5 -13t12.5 -30zM196 543q0 -17 -12.5 -29.5t-29.5 -12.5t-29.5 12.5t-12.5 29.5t12.5 30t29.5 13t29.5 -13t12.5 -30zM422 224q0 -17 -2 -27h-323q4 -71 46.5 -113.5
t124.5 -42.5q56 0 119 25q1 -3 2 -8t3.5 -15.5t3.5 -16.5l2 -7q-71 -27 -133 -27q-107 0 -165 60.5t-58 155.5q0 92 54.5 155t144.5 63q86 0 133.5 -56.5t47.5 -145.5zM99 241h270q-4 61 -37 99t-95 38q-59 0 -95 -37t-43 -100z" />
    <glyph glyph-name="igrave" unicode="&#xec;" horiz-adv-x="191" 
d="M124 0h-56v418h56v-418zM138 505l-19 -30l-192 99l31 54z" />
    <glyph glyph-name="iacute" unicode="&#xed;" horiz-adv-x="191" 
d="M261 574l-192 -99l-18 31l181 123zM124 0h-56v418h56v-418z" />
    <glyph glyph-name="icircumflex" unicode="&#xee;" horiz-adv-x="191" 
d="M231 487h-59l-79 98l-75 -98h-58l121 149h30zM124 0h-56v418h56v-418z" />
    <glyph glyph-name="idieresis" unicode="&#xef;" horiz-adv-x="191" 
d="M224 543q0 -17 -12.5 -29.5t-29.5 -12.5q-18 0 -30.5 12.5t-12.5 29.5t12.5 30t30.5 13q17 0 29.5 -13t12.5 -30zM53 543q0 -17 -12.5 -29.5t-29.5 -12.5t-29.5 12.5t-12.5 29.5t12.5 30t29.5 13t29.5 -13t12.5 -30zM124 0h-56v418h56v-418z" />
    <glyph glyph-name="eth" unicode="&#xf0;" horiz-adv-x="499" 
d="M143 516l-29 34l82 73q-50 39 -116 70l22 43q75 -36 132 -79l70 62l30 -35l-64 -56q187 -165 187 -404q0 -103 -58.5 -167.5t-150.5 -64.5q-95 0 -150 64.5t-55 159.5q0 88 55 149.5t138 61.5q96 0 151 -73q-32 133 -155 240zM402 211q0 74 -42 121t-115 47
q-66 0 -106.5 -47t-40.5 -119t41.5 -123t109.5 -51t110.5 49.5t42.5 122.5z" />
    <glyph glyph-name="ntilde" unicode="&#xf1;" 
d="M415 0h-56v269q0 109 -96 109q-72 0 -145 -80v-298h-55v418h53v-72q75 80 160 80q69 0 104 -39.5t35 -105.5v-281zM390 551q-47 -56 -94 -54q-25 0 -62 22q-33 21 -52 22q-31 0 -65 -41l-28 34q47 56 94 54q26 0 61 -22q35 -21 53 -22q31 0 65 41z" />
    <glyph glyph-name="ograve" unicode="&#xf2;" horiz-adv-x="500" 
d="M458 210q0 -92 -59 -155t-149 -63q-91 0 -149 62.5t-58 154.5q0 91 58.5 154t149.5 63q90 0 148.5 -62.5t58.5 -153.5zM402 209q0 75 -42 122.5t-110 47.5t-110 -48t-42 -122t42 -122t110 -48t110 48t42 122zM292 505l-19 -30l-192 99l31 54z" />
    <glyph glyph-name="oacute" unicode="&#xf3;" horiz-adv-x="500" 
d="M415 574l-192 -99l-18 31l181 123zM458 210q0 -92 -59 -155t-149 -63q-91 0 -149 62.5t-58 154.5q0 91 58.5 154t149.5 63q90 0 148.5 -62.5t58.5 -153.5zM402 209q0 75 -42 122.5t-110 47.5t-110 -48t-42 -122t42 -122t110 -48t110 48t42 122z" />
    <glyph glyph-name="ocircumflex" unicode="&#xf4;" horiz-adv-x="500" 
d="M385 487h-59l-79 98l-75 -98h-58l121 149h30zM458 210q0 -92 -59 -155t-149 -63q-91 0 -149 62.5t-58 154.5q0 91 58.5 154t149.5 63q90 0 148.5 -62.5t58.5 -153.5zM402 209q0 75 -42 122.5t-110 47.5t-110 -48t-42 -122t42 -122t110 -48t110 48t42 122z" />
    <glyph glyph-name="otilde" unicode="&#xf5;" horiz-adv-x="500" 
d="M458 210q0 -92 -59 -155t-149 -63q-91 0 -149 62.5t-58 154.5q0 91 58.5 154t149.5 63q90 0 148.5 -62.5t58.5 -153.5zM402 209q0 75 -42 122.5t-110 47.5t-110 -48t-42 -122t42 -122t110 -48t110 48t42 122zM402 551q-47 -56 -94 -54q-25 0 -62 22q-33 21 -52 22
q-31 0 -65 -41l-28 34q47 56 94 54q26 0 61 -22q35 -21 53 -22q31 0 65 41z" />
    <glyph glyph-name="odieresis" unicode="&#xf6;" horiz-adv-x="500" 
d="M377 543q0 -17 -12.5 -29.5t-29.5 -12.5q-18 0 -30.5 12.5t-12.5 29.5t12.5 30t30.5 13q17 0 29.5 -13t12.5 -30zM206 543q0 -17 -12.5 -29.5t-29.5 -12.5t-29.5 12.5t-12.5 29.5t12.5 30t29.5 13t29.5 -13t12.5 -30zM458 210q0 -92 -59 -155t-149 -63q-91 0 -149 62.5
t-58 154.5q0 91 58.5 154t149.5 63q90 0 148.5 -62.5t58.5 -153.5zM402 209q0 75 -42 122.5t-110 47.5t-110 -48t-42 -122t42 -122t110 -48t110 48t42 122z" />
    <glyph glyph-name="divide" unicode="&#xf7;" horiz-adv-x="460" 
d="M60 256v49h340v-49h-340zM190 424q0 17 11.5 29t28.5 12t28.5 -12t11.5 -29q0 -16 -11.5 -28t-28.5 -12q-16 0 -28 12t-12 28zM190 135q0 17 11.5 29t28.5 12t28.5 -12t11.5 -29q0 -16 -11.5 -28t-28.5 -12q-16 0 -28 12t-12 28z" />
    <glyph glyph-name="oslash" unicode="&#xf8;" horiz-adv-x="500" 
d="M474 394l-56 -53q40 -55 40 -131q0 -93 -58.5 -155.5t-149.5 -62.5q-83 0 -140 54l-56 -54l-29 29l58 55q-40 57 -40 133q0 92 58.5 154.5t149.5 62.5q84 0 141 -55l54 52zM121 112l235 225q-40 42 -106 42q-69 0 -110.5 -47t-41.5 -123q0 -54 23 -97zM380 304l-234 -224
q41 -41 104 -41q69 0 111 47.5t42 122.5q0 54 -23 95z" />
    <glyph glyph-name="ugrave" unicode="&#xf9;" 
d="M411 0h-53v69q-31 -32 -73.5 -54.5t-84.5 -22.5q-70 0 -105.5 39.5t-35.5 105.5v281h56v-269q0 -109 97 -109q73 0 144 78v300h55v-418zM277 505l-19 -30l-192 99l31 54z" />
    <glyph glyph-name="uacute" unicode="&#xfa;" 
d="M400 574l-192 -99l-18 31l181 123zM411 0h-53v69q-31 -32 -73.5 -54.5t-84.5 -22.5q-70 0 -105.5 39.5t-35.5 105.5v281h56v-269q0 -109 97 -109q73 0 144 78v300h55v-418z" />
    <glyph glyph-name="ucircumflex" unicode="&#xfb;" 
d="M370 487h-59l-79 98l-75 -98h-58l121 149h30zM411 0h-53v69q-31 -32 -73.5 -54.5t-84.5 -22.5q-70 0 -105.5 39.5t-35.5 105.5v281h56v-269q0 -109 97 -109q73 0 144 78v300h55v-418z" />
    <glyph glyph-name="udieresis" unicode="&#xfc;" 
d="M362 543q0 -17 -12.5 -29.5t-29.5 -12.5q-18 0 -30.5 12.5t-12.5 29.5t12.5 30t30.5 13q17 0 29.5 -13t12.5 -30zM191 543q0 -17 -12.5 -29.5t-29.5 -12.5t-29.5 12.5t-12.5 29.5t12.5 30t29.5 13t29.5 -13t12.5 -30zM411 0h-53v69q-31 -32 -73.5 -54.5t-84.5 -22.5
q-70 0 -105.5 39.5t-35.5 105.5v281h56v-269q0 -109 97 -109q73 0 144 78v300h55v-418z" />
    <glyph glyph-name="yacute" unicode="&#xfd;" horiz-adv-x="427" 
d="M420 418l-295 -634h-56l118 244l-179 390h61l145 -334l146 334h60zM378 574l-192 -99l-18 31l181 123z" />
    <glyph glyph-name="thorn" unicode="&#xfe;" horiz-adv-x="506" 
d="M463 210q0 -95 -59 -156.5t-150 -61.5q-72 0 -136 43v-251h-55v949h53v-366q61 59 147 59q85 0 142.5 -61.5t57.5 -154.5zM408 209q0 73 -43 121t-110 48q-83 0 -137 -63v-220q56 -56 136 -56q67 0 110.5 47t43.5 123z" />
    <glyph glyph-name="ydieresis" unicode="&#xff;" horiz-adv-x="427" 
d="M420 418l-295 -634h-56l118 244l-179 390h61l145 -334l146 334h60zM341 543q0 -17 -12.5 -29.5t-29.5 -12.5q-18 0 -30.5 12.5t-12.5 29.5t12.5 30t30.5 13q17 0 29.5 -13t12.5 -30zM170 543q0 -17 -12.5 -29.5t-29.5 -12.5t-29.5 12.5t-12.5 29.5t12.5 30t29.5 13
t29.5 -13t12.5 -30z" />
    <glyph glyph-name="Amacron" unicode="&#x100;" horiz-adv-x="696" 
d="M674 0h-60l-95 224h-344l-94 -224h-59l321 745h10zM498 272l-151 359l-151 -359h302zM492 832h-287v48h287v-48z" />
    <glyph glyph-name="amacron" unicode="&#x101;" horiz-adv-x="433" 
d="M376 0h-52v45q-53 -53 -132 -53q-66 0 -110 35t-44 96q0 58 44.5 94.5t111.5 36.5q59 0 127 -32v38q0 60 -28.5 88.5t-92.5 28.5q-56 0 -109 -23l-11 48q65 24 126 24q170 0 170 -166v-260zM321 93v82q-62 35 -120 35q-49 0 -79.5 -22.5t-30.5 -64.5q0 -41 30 -63t82 -22
q72 0 118 55zM364 512h-287v48h287v-48z" />
    <glyph glyph-name="Abreve" unicode="&#x102;" horiz-adv-x="696" 
d="M674 0h-60l-95 224h-344l-94 -224h-59l321 745h10zM498 272l-151 359l-151 -359h302zM470 925q0 -49 -33 -83.5t-89 -34.5q-55 0 -88 34.5t-34 83.5l51 5q1 -37 19.5 -58t51.5 -21t51.5 21t19.5 58z" />
    <glyph glyph-name="abreve" unicode="&#x103;" horiz-adv-x="433" 
d="M376 0h-52v45q-53 -53 -132 -53q-66 0 -110 35t-44 96q0 58 44.5 94.5t111.5 36.5q59 0 127 -32v38q0 60 -28.5 88.5t-92.5 28.5q-56 0 -109 -23l-11 48q65 24 126 24q170 0 170 -166v-260zM321 93v82q-62 35 -120 35q-49 0 -79.5 -22.5t-30.5 -64.5q0 -41 30 -63t82 -22
q72 0 118 55zM342 605q0 -49 -33 -83.5t-89 -34.5q-55 0 -88 34.5t-34 83.5l51 5q1 -37 19.5 -58t51.5 -21t51.5 21t19.5 58z" />
    <glyph glyph-name="Aogonek" unicode="&#x104;" horiz-adv-x="696" 
d="M694 -169q-37 -50 -87 -50q-35 -1 -56.5 20t-21.5 56q1 58 84 145l-94 222h-344l-94 -224h-59l321 745h10l321 -745h-17q-81 -88 -81 -137q0 -20 10.5 -31.5t27.5 -11.5q30 0 56 34zM498 272l-151 359l-151 -359h302z" />
    <glyph glyph-name="aogonek" unicode="&#x105;" horiz-adv-x="433" 
d="M402 -169q-37 -50 -87 -50q-35 -1 -56.5 20t-21.5 56q1 33 21 66.5t66 80.5v41q-53 -53 -132 -53q-66 0 -110 35t-44 96q0 58 44.5 94.5t111.5 36.5q59 0 127 -32v38q0 60 -28.5 88.5t-92.5 28.5q-56 0 -109 -23l-11 48q65 24 126 24q170 0 170 -166v-260h-11
q-81 -88 -81 -137q0 -20 10.5 -31.5t27.5 -11.5q30 0 56 34zM321 93v82q-62 35 -120 35q-49 0 -79.5 -22.5t-30.5 -64.5q0 -41 30 -63t82 -22q72 0 118 55z" />
    <glyph glyph-name="Cacute" unicode="&#x106;" horiz-adv-x="740" 
d="M591 894l-192 -99l-18 31l181 123zM695 70q-120 -80 -253 -80q-163 0 -273.5 103.5t-110.5 271.5t111.5 274t272.5 106q138 0 255 -80l-25 -47q-114 75 -233 75q-137 0 -228.5 -90.5t-91.5 -236.5q0 -145 92.5 -234.5t230.5 -89.5q118 0 233 74z" />
    <glyph glyph-name="cacute" unicode="&#x107;" horiz-adv-x="424" 
d="M413 574l-192 -99l-18 31l181 123zM400 34q-66 -42 -139 -42q-95 0 -157 62t-62 153t62 155t157 64q73 0 139 -42l-25 -43q-57 36 -117 36q-71 0 -116.5 -46.5t-45.5 -121.5q0 -73 47.5 -120.5t116.5 -47.5q60 0 118 36z" />
    <glyph glyph-name="Cdotaccent" unicode="&#x10a;" horiz-adv-x="740" 
d="M695 70q-120 -80 -253 -80q-163 0 -273.5 103.5t-110.5 271.5t111.5 274t272.5 106q138 0 255 -80l-25 -47q-114 75 -233 75q-137 0 -228.5 -90.5t-91.5 -236.5q0 -145 92.5 -234.5t230.5 -89.5q118 0 233 74zM383 863q0 17 12.5 30t29.5 13q18 0 30.5 -13t12.5 -30
t-12.5 -29.5t-30.5 -12.5q-17 0 -29.5 12.5t-12.5 29.5z" />
    <glyph glyph-name="cdotaccent" unicode="&#x10b;" horiz-adv-x="424" 
d="M400 34q-66 -42 -139 -42q-95 0 -157 62t-62 153t62 155t157 64q73 0 139 -42l-25 -43q-57 36 -117 36q-71 0 -116.5 -46.5t-45.5 -121.5q0 -73 47.5 -120.5t116.5 -47.5q60 0 118 36zM206 543q0 17 12.5 30t29.5 13q18 0 30.5 -13t12.5 -30t-12.5 -29.5t-30.5 -12.5
q-17 0 -29.5 12.5t-12.5 29.5z" />
    <glyph glyph-name="Ccaron" unicode="&#x10c;" horiz-adv-x="740" 
d="M561 951l-122 -149h-29l-120 149h59l78 -98l76 98h58zM695 70q-120 -80 -253 -80q-163 0 -273.5 103.5t-110.5 271.5t111.5 274t272.5 106q138 0 255 -80l-25 -47q-114 75 -233 75q-137 0 -228.5 -90.5t-91.5 -236.5q0 -145 92.5 -234.5t230.5 -89.5q118 0 233 74z" />
    <glyph glyph-name="ccaron" unicode="&#x10d;" horiz-adv-x="424" 
d="M384 631l-122 -149h-29l-120 149h59l78 -98l76 98h58zM400 34q-66 -42 -139 -42q-95 0 -157 62t-62 153t62 155t157 64q73 0 139 -42l-25 -43q-57 36 -117 36q-71 0 -116.5 -46.5t-45.5 -121.5q0 -73 47.5 -120.5t116.5 -47.5q60 0 118 36z" />
    <glyph glyph-name="Dcaron" unicode="&#x10e;" horiz-adv-x="740" 
d="M682 373q0 -160 -109 -270t-304 -110q-92 0 -182 12v723q90 12 178 12q99 0 180 -30.5t131.5 -82.5t78 -117t27.5 -137zM622 373q0 137 -94.5 227.5t-261.5 90.5q-77 0 -123 -8v-633q50 -8 128 -8q169 0 260 92.5t91 238.5zM489 951l-122 -149h-29l-120 149h59l78 -98
l76 98h58z" />
    <glyph glyph-name="dcaron" unicode="&#x10f;" horiz-adv-x="506" 
d="M539 733l54 -8q0 -114 -90 -184l-25 21q58 61 61 171zM443 0h-53v51q-57 -59 -144 -59q-89 0 -146 60.5t-57 154.5q0 92 60 155.5t145 63.5q83 0 140 -52v359h55v-733zM388 105v210q-53 63 -137 63q-66 0 -109.5 -47.5t-43.5 -122.5q0 -73 43 -120.5t112 -47.5
q82 0 135 65z" />
    <glyph glyph-name="Dcroat" unicode="&#x110;" horiz-adv-x="770" 
d="M712 373q0 -160 -109 -270t-304 -110q-92 0 -182 12v343h-87v50h87v330q90 12 178 12q99 0 180 -30.5t131.5 -82.5t78 -117t27.5 -137zM652 373q0 137 -94 227.5t-261 90.5q-78 0 -124 -8v-285h136v-50h-136v-298q50 -8 129 -8q168 0 259 92.5t91 238.5z" />
    <glyph glyph-name="dcroat" unicode="&#x111;" horiz-adv-x="506" 
d="M443 0h-53v51q-57 -59 -144 -59q-89 0 -146 60.5t-57 154.5q0 92 60 155.5t145 63.5q83 0 140 -52v196h-146v48h146v115h55v-115h58v-48h-58v-570zM388 105v210q-53 63 -137 63q-66 0 -109.5 -47.5t-43.5 -122.5q0 -73 43 -120.5t112 -47.5q82 0 135 65z" />
    <glyph glyph-name="Emacron" unicode="&#x112;" horiz-adv-x="563" 
d="M501 0h-414v733h414v-50h-358v-286h323v-50h-323v-296h358v-51zM439 832h-287v48h287v-48z" />
    <glyph glyph-name="emacron" unicode="&#x113;" horiz-adv-x="461" 
d="M422 224q0 -17 -2 -27h-323q4 -71 46.5 -113.5t124.5 -42.5q56 0 119 25q1 -3 2 -8t3.5 -15.5t3.5 -16.5l2 -7q-71 -27 -133 -27q-107 0 -165 60.5t-58 155.5q0 92 54.5 155t144.5 63q86 0 133.5 -56.5t47.5 -145.5zM99 241h270q-4 61 -37 99t-95 38q-59 0 -95 -37
t-43 -100zM384 512h-287v48h287v-48z" />
    <glyph glyph-name="Ebreve" unicode="&#x114;" horiz-adv-x="563" 
d="M501 0h-414v733h414v-50h-358v-286h323v-50h-323v-296h358v-51zM417 925q0 -49 -33 -83.5t-89 -34.5q-55 0 -88 34.5t-34 83.5l51 5q1 -37 19.5 -58t51.5 -21t51.5 21t19.5 58z" />
    <glyph glyph-name="ebreve" unicode="&#x115;" horiz-adv-x="461" 
d="M422 224q0 -17 -2 -27h-323q4 -71 46.5 -113.5t124.5 -42.5q56 0 119 25q1 -3 2 -8t3.5 -15.5t3.5 -16.5l2 -7q-71 -27 -133 -27q-107 0 -165 60.5t-58 155.5q0 92 54.5 155t144.5 63q86 0 133.5 -56.5t47.5 -145.5zM99 241h270q-4 61 -37 99t-95 38q-59 0 -95 -37
t-43 -100zM362 605q0 -49 -33 -83.5t-89 -34.5q-55 0 -88 34.5t-34 83.5l51 5q1 -37 19.5 -58t51.5 -21t51.5 21t19.5 58z" />
    <glyph glyph-name="Edotaccent" unicode="&#x116;" horiz-adv-x="563" 
d="M501 0h-414v733h414v-50h-358v-286h323v-50h-323v-296h358v-51zM252 863q0 17 12.5 30t29.5 13q18 0 30.5 -13t12.5 -30t-12.5 -29.5t-30.5 -12.5q-17 0 -29.5 12.5t-12.5 29.5z" />
    <glyph glyph-name="edotaccent" unicode="&#x117;" horiz-adv-x="461" 
d="M422 224q0 -17 -2 -27h-323q4 -71 46.5 -113.5t124.5 -42.5q56 0 119 25q1 -3 2 -8t3.5 -15.5t3.5 -16.5l2 -7q-71 -27 -133 -27q-107 0 -165 60.5t-58 155.5q0 92 54.5 155t144.5 63q86 0 133.5 -56.5t47.5 -145.5zM99 241h270q-4 61 -37 99t-95 38q-59 0 -95 -37
t-43 -100zM197 543q0 17 12.5 30t29.5 13q18 0 30.5 -13t12.5 -30t-12.5 -29.5t-30.5 -12.5q-17 0 -29.5 12.5t-12.5 29.5z" />
    <glyph glyph-name="Eogonek" unicode="&#x118;" horiz-adv-x="563" 
d="M501 0h-33q-81 -88 -81 -137q0 -20 10.5 -31.5t27.5 -11.5q30 0 56 34l24 -23q-37 -50 -87 -50q-35 -1 -56.5 20t-21.5 56q1 58 82 143h-335v733h414v-50h-358v-286h323v-50h-323v-296h358v-51z" />
    <glyph glyph-name="eogonek" unicode="&#x119;" horiz-adv-x="461" 
d="M422 224q0 -17 -2 -27h-323q4 -71 46.5 -113.5t124.5 -42.5q56 0 119 25l11 -46q-105 -91 -105 -156q0 -21 10.5 -32.5t27.5 -11.5q30 0 56 34l24 -23q-37 -50 -87 -50q-35 -1 -56.5 20t-21.5 56q0 63 82 142q-38 -7 -63 -7q-107 0 -165 60.5t-58 155.5q0 92 54.5 155
t144.5 63q86 0 133.5 -56.5t47.5 -145.5zM99 241h270q-4 61 -37 99t-95 38q-59 0 -95 -37t-43 -100z" />
    <glyph glyph-name="Ecaron" unicode="&#x11a;" horiz-adv-x="563" 
d="M430 951l-122 -149h-29l-120 149h59l78 -98l76 98h58zM501 0h-414v733h414v-50h-358v-286h323v-50h-323v-296h358v-51z" />
    <glyph glyph-name="ecaron" unicode="&#x11b;" horiz-adv-x="461" 
d="M375 631l-122 -149h-29l-120 149h59l78 -98l76 98h58zM422 224q0 -17 -2 -27h-323q4 -71 46.5 -113.5t124.5 -42.5q56 0 119 25q1 -3 2 -8t3.5 -15.5t3.5 -16.5l2 -7q-71 -27 -133 -27q-107 0 -165 60.5t-58 155.5q0 92 54.5 155t144.5 63q86 0 133.5 -56.5t47.5 -145.5z
M99 241h270q-4 61 -37 99t-95 38q-59 0 -95 -37t-43 -100z" />
    <glyph glyph-name="Gbreve" unicode="&#x11e;" horiz-adv-x="779" 
d="M447 349h265v-269q-114 -90 -266 -90q-101 0 -188.5 43.5t-143.5 131t-56 201.5q0 85 32.5 157.5t86 120.5t122 74.5t140.5 26.5q83 0 145.5 -22.5t125.5 -67.5l-30 -44q-114 83 -241 84q-137 0 -228.5 -92.5t-91.5 -236.5q0 -145 95.5 -235.5t233.5 -90.5q117 0 208 64
v193h-209v52zM549 925q0 -49 -33 -83.5t-89 -34.5q-55 0 -88 34.5t-34 83.5l51 5q1 -37 19.5 -58t51.5 -21t51.5 21t19.5 58z" />
    <glyph glyph-name="gbreve" unicode="&#x11f;" horiz-adv-x="506" 
d="M443 -41q0 -185 -175 -185q-65 0 -139 24l10 51q62 -24 123 -24q65 0 95.5 31.5t30.5 98.5v92q-59 -55 -142 -55q-89 0 -146 60.5t-57 154.5q0 92 60 155.5t145 63.5q87 0 142 -57v49h53v-459zM388 103v210q-54 65 -136 65q-68 0 -111 -48t-43 -123q0 -73 44 -120.5
t114 -47.5q80 0 132 64zM388 605q0 -49 -33 -83.5t-89 -34.5q-55 0 -88 34.5t-34 83.5l51 5q1 -37 19.5 -58t51.5 -21t51.5 21t19.5 58z" />
    <glyph glyph-name="Gdotaccent" unicode="&#x120;" horiz-adv-x="779" 
d="M447 349h265v-269q-114 -90 -266 -90q-101 0 -188.5 43.5t-143.5 131t-56 201.5q0 85 32.5 157.5t86 120.5t122 74.5t140.5 26.5q83 0 145.5 -22.5t125.5 -67.5l-30 -44q-114 83 -241 84q-137 0 -228.5 -92.5t-91.5 -236.5q0 -145 95.5 -235.5t233.5 -90.5q117 0 208 64
v193h-209v52zM385 863q0 17 12.5 30t29.5 13q18 0 30.5 -13t12.5 -30t-12.5 -29.5t-30.5 -12.5q-17 0 -29.5 12.5t-12.5 29.5z" />
    <glyph glyph-name="gdotaccent" unicode="&#x121;" horiz-adv-x="506" 
d="M443 -41q0 -185 -175 -185q-65 0 -139 24l10 51q62 -24 123 -24q65 0 95.5 31.5t30.5 98.5v92q-59 -55 -142 -55q-89 0 -146 60.5t-57 154.5q0 92 60 155.5t145 63.5q87 0 142 -57v49h53v-459zM388 103v210q-54 65 -136 65q-68 0 -111 -48t-43 -123q0 -73 44 -120.5
t114 -47.5q80 0 132 64zM223 543q0 17 12.5 30t29.5 13q18 0 30.5 -13t12.5 -30t-12.5 -29.5t-30.5 -12.5q-17 0 -29.5 12.5t-12.5 29.5z" />
    <glyph glyph-name="Gcommaaccent" unicode="&#x122;" horiz-adv-x="779" 
d="M473 -128q0 -35 -25 -73.5t-62 -60.5l-11 13q46 41 56 92q-21 2 -33.5 14t-12.5 29t12 29t29 12q21 0 34 -15.5t13 -39.5zM447 349h265v-269q-114 -90 -266 -90q-101 0 -188.5 43.5t-143.5 131t-56 201.5q0 85 32.5 157.5t86 120.5t122 74.5t140.5 26.5q83 0 145.5 -22.5
t125.5 -67.5l-30 -44q-114 83 -241 84q-137 0 -228.5 -92.5t-91.5 -236.5q0 -145 95.5 -235.5t233.5 -90.5q117 0 208 64v193h-209v52z" />
    <glyph glyph-name="gcommaaccent" unicode="&#x123;" horiz-adv-x="506" 
d="M443 -41q0 -185 -175 -185q-65 0 -139 24l10 51q62 -24 123 -24q65 0 95.5 31.5t30.5 98.5v92q-59 -55 -142 -55q-89 0 -146 60.5t-57 154.5q0 92 60 155.5t145 63.5q87 0 142 -57v49h53v-459zM388 103v210q-54 65 -136 65q-68 0 -111 -48t-43 -123q0 -73 44 -120.5
t114 -47.5q80 0 132 64zM219 568q0 35 25 73.5t62 60.5l11 -13q-46 -41 -56 -92q21 -2 33.5 -14t12.5 -29t-12 -29t-29 -12q-21 0 -34 15.5t-13 39.5z" />
    <glyph glyph-name="Hbar" unicode="&#x126;" horiz-adv-x="707" 
d="M620 0h-56v348h-421v-348h-56v554h-79v48h79v131h56v-131h421v131h56v-131h80v-48h-80v-554zM143 398h421v156h-421v-156z" />
    <glyph glyph-name="hbar" unicode="&#x127;" horiz-adv-x="466" 
d="M413 0h-56v269q0 109 -97 109q-76 0 -147 -80v-298h-55v570h-59v48h59v115h55v-115h146v-48h-146v-223q74 79 158 79q70 0 106 -39.5t36 -105.5v-281z" />
    <glyph glyph-name="Imacron" unicode="&#x12a;" horiz-adv-x="237" 
d="M147 0h-56v733h56v-733zM263 832h-287v48h287v-48z" />
    <glyph glyph-name="imacron" unicode="&#x12b;" horiz-adv-x="191" 
d="M124 0h-56v418h56v-418zM240 512h-287v48h287v-48z" />
    <glyph glyph-name="Ibreve" unicode="&#x12c;" horiz-adv-x="237" 
d="M147 0h-56v733h56v-733zM241 925q0 -49 -33 -83.5t-89 -34.5q-55 0 -88 34.5t-34 83.5l51 5q1 -37 19.5 -58t51.5 -21t51.5 21t19.5 58z" />
    <glyph glyph-name="ibreve" unicode="&#x12d;" horiz-adv-x="191" 
d="M124 0h-56v418h56v-418zM218 605q0 -49 -33 -83.5t-89 -34.5q-55 0 -88 34.5t-34 83.5l51 5q1 -37 19.5 -58t51.5 -21t51.5 21t19.5 58z" />
    <glyph glyph-name="Iogonek" unicode="&#x12e;" horiz-adv-x="237" 
d="M190 -168q-38 -51 -89 -51q-34 -1 -55.5 21t-20.5 57q0 32 16.5 63.5t55.5 77.5h-6v733h56v-733h-5q-71 -85 -71 -136q0 -20 11 -32t27 -12q30 0 56 34z" />
    <glyph glyph-name="iogonek" unicode="&#x12f;" horiz-adv-x="187" 
d="M165 -168q-38 -51 -88 -51q-35 -1 -56.5 21t-20.5 57q1 57 73 141h-7v418h56v-418h-5q-70 -86 -70 -136q0 -20 10.5 -32t26.5 -12q29 0 57 34zM134 573q0 -17 -12 -28.5t-28 -11.5q-17 0 -28.5 11.5t-11.5 28.5t11.5 29t28.5 12q16 0 28 -12t12 -29z" />
    <glyph glyph-name="Idotaccent" unicode="&#x130;" horiz-adv-x="237" 
d="M147 0h-56v733h56v-733zM76 863q0 17 12.5 30t29.5 13q18 0 30.5 -13t12.5 -30t-12.5 -29.5t-30.5 -12.5q-17 0 -29.5 12.5t-12.5 29.5z" />
    <glyph glyph-name="dotlessi" unicode="&#x131;" horiz-adv-x="191" 
d="M124 0h-56v418h56v-418z" />
    <glyph glyph-name="Kcommaaccent" unicode="&#x136;" horiz-adv-x="593" 
d="M353 -116q0 -35 -25 -73.5t-62 -60.5l-11 13q46 41 56 92q-21 2 -33.5 14t-12.5 29t12 29t29 12q21 0 34 -15.5t13 -39.5zM572 0h-74l-355 362v-362h-56v733h56v-341l343 341h72l-361 -356z" />
    <glyph glyph-name="kcommaaccent" unicode="&#x137;" horiz-adv-x="398" 
d="M258 -128q0 -35 -25 -73.5t-62 -60.5l-11 13q46 41 56 92q-21 2 -33.5 14t-12.5 29t12 29t29 12q21 0 34 -15.5t13 -39.5zM396 0h-70l-208 206v-206h-55v733h55v-500l198 185h70l-217 -197z" />
    <glyph glyph-name="Lacute" unicode="&#x139;" horiz-adv-x="513" 
d="M311 894l-192 -99l-18 31l181 123zM501 0h-414v733h56v-682h358v-51z" />
    <glyph glyph-name="lacute" unicode="&#x13a;" horiz-adv-x="187" 
d="M275 889l-192 -99l-18 31l181 123zM121 0h-55v733h55v-733z" />
    <glyph glyph-name="Lcommaaccent" unicode="&#x13b;" horiz-adv-x="513" 
d="M335 -128q0 -35 -25 -73.5t-62 -60.5l-11 13q46 41 56 92q-21 2 -33.5 14t-12.5 29t12 29t29 12q21 0 34 -15.5t13 -39.5zM501 0h-414v733h56v-682h358v-51z" />
    <glyph glyph-name="lcommaaccent" unicode="&#x13c;" horiz-adv-x="187" 
d="M140 -128q0 -35 -25 -73.5t-62 -60.5l-11 13q46 41 56 92q-21 2 -33.5 14t-12.5 29t12 29t29 12q21 0 34 -15.5t13 -39.5zM121 0h-55v733h55v-733z" />
    <glyph glyph-name="Lcaron" unicode="&#x13d;" horiz-adv-x="513" 
d="M289 733l54 -8q0 -114 -90 -184l-25 21q58 61 61 171zM501 0h-414v733h56v-682h358v-51z" />
    <glyph glyph-name="lcaron" unicode="&#x13e;" horiz-adv-x="187" 
d="M218 733l54 -8q0 -114 -90 -184l-25 21q58 61 61 171zM121 0h-55v733h55v-733z" />
    <glyph glyph-name="Ldot" unicode="&#x13f;" horiz-adv-x="513" 
d="M501 0h-414v733h56v-682h358v-51zM336 369q0 -17 12.5 -29.5t29.5 -12.5q18 0 30.5 12.5t12.5 29.5t-12.5 30t-30.5 13q-17 0 -29.5 -13t-12.5 -30z" />
    <glyph glyph-name="ldot" unicode="&#x140;" horiz-adv-x="261" 
d="M121 0h-55v733h55v-733zM181 367q0 -17 12.5 -29.5t29.5 -12.5q18 0 30.5 12.5t12.5 29.5t-12.5 30t-30.5 13q-17 0 -29.5 -13t-12.5 -30z" />
    <glyph glyph-name="Lslash" unicode="&#x141;" horiz-adv-x="533" 
d="M521 0h-414v326l-65 -29v54l65 29v353h56v-328l104 48v-54q-104 -47 -104 -48v-300h358v-51z" />
    <glyph glyph-name="lslash" unicode="&#x142;" horiz-adv-x="212" 
d="M185 371l-51 -23v-348h-56v320l-51 -23v54l51 23v359h56v-331l51 23v-54z" />
    <glyph glyph-name="Nacute" unicode="&#x143;" horiz-adv-x="727" 
d="M528 881l-192 -99l-18 31l181 123zM640 -9l-10 -2l-488 622v-611h-55v741l13 3l484 -615v604h56v-742z" />
    <glyph glyph-name="nacute" unicode="&#x144;" 
d="M403 574l-192 -99l-18 31l181 123zM415 0h-56v269q0 109 -96 109q-72 0 -145 -80v-298h-55v418h53v-72q75 80 160 80q69 0 104 -39.5t35 -105.5v-281z" />
    <glyph glyph-name="Ncommaaccent" unicode="&#x145;" horiz-adv-x="727" 
d="M409 -116q0 -35 -25 -73.5t-62 -60.5l-11 13q46 41 56 92q-21 2 -33.5 14t-12.5 29t12 29t29 12q21 0 34 -15.5t13 -39.5zM640 -9l-10 -2l-488 622v-611h-55v741l13 3l484 -615v604h56v-742z" />
    <glyph glyph-name="ncommaaccent" unicode="&#x146;" 
d="M284 -128q0 -35 -25 -73.5t-62 -60.5l-11 13q46 41 56 92q-21 2 -33.5 14t-12.5 29t12 29t29 12q21 0 34 -15.5t13 -39.5zM415 0h-56v269q0 109 -96 109q-72 0 -145 -80v-298h-55v418h53v-72q75 80 160 80q69 0 104 -39.5t35 -105.5v-281z" />
    <glyph glyph-name="Ncaron" unicode="&#x147;" horiz-adv-x="727" 
d="M499 938l-122 -149h-29l-120 149h59l78 -98l76 98h58zM640 -9l-10 -2l-488 622v-611h-55v741l13 3l484 -615v604h56v-742z" />
    <glyph glyph-name="ncaron" unicode="&#x148;" 
d="M374 631l-122 -149h-29l-120 149h59l78 -98l76 98h58zM415 0h-56v269q0 109 -96 109q-72 0 -145 -80v-298h-55v418h53v-72q75 80 160 80q69 0 104 -39.5t35 -105.5v-281z" />
    <glyph glyph-name="Omacron" unicode="&#x14c;" horiz-adv-x="842" 
d="M565 832h-287v48h287v-48zM784 366q0 -161 -106 -268.5t-259 -107.5q-152 0 -256.5 107.5t-104.5 268.5t106 269.5t259 108.5q152 0 256.5 -108t104.5 -270zM723 366q0 140 -85.5 233.5t-216.5 93.5t-216.5 -93.5t-85.5 -233.5q0 -139 85.5 -232.5t216.5 -93.5
t216.5 93.5t85.5 232.5z" />
    <glyph glyph-name="omacron" unicode="&#x14d;" horiz-adv-x="500" 
d="M394 512h-287v48h287v-48zM458 210q0 -92 -59 -155t-149 -63q-91 0 -149 62.5t-58 154.5q0 91 58.5 154t149.5 63q90 0 148.5 -62.5t58.5 -153.5zM402 209q0 75 -42 122.5t-110 47.5t-110 -48t-42 -122t42 -122t110 -48t110 48t42 122z" />
    <glyph glyph-name="Obreve" unicode="&#x14e;" horiz-adv-x="842" 
d="M784 366q0 -161 -106 -268.5t-259 -107.5q-152 0 -256.5 107.5t-104.5 268.5t106 269.5t259 108.5q152 0 256.5 -108t104.5 -270zM723 366q0 140 -85.5 233.5t-216.5 93.5t-216.5 -93.5t-85.5 -233.5q0 -139 85.5 -232.5t216.5 -93.5t216.5 93.5t85.5 232.5zM543 925
q0 -49 -33 -83.5t-89 -34.5q-55 0 -88 34.5t-34 83.5l51 5q1 -37 19.5 -58t51.5 -21t51.5 21t19.5 58z" />
    <glyph glyph-name="obreve" unicode="&#x14f;" horiz-adv-x="500" 
d="M458 210q0 -92 -59 -155t-149 -63q-91 0 -149 62.5t-58 154.5q0 91 58.5 154t149.5 63q90 0 148.5 -62.5t58.5 -153.5zM402 209q0 75 -42 122.5t-110 47.5t-110 -48t-42 -122t42 -122t110 -48t110 48t42 122zM372 605q0 -49 -33 -83.5t-89 -34.5q-55 0 -88 34.5t-34 83.5
l51 5q1 -37 19.5 -58t51.5 -21t51.5 21t19.5 58z" />
    <glyph glyph-name="Ohungarumlaut" unicode="&#x150;" horiz-adv-x="842" 
d="M472 961l-110 -160l-28 18l88 173zM602 947l-108 -157l-28 18l86 170zM784 366q0 -161 -106 -268.5t-259 -107.5q-152 0 -256.5 107.5t-104.5 268.5t106 269.5t259 108.5q152 0 256.5 -108t104.5 -270zM723 366q0 140 -85.5 233.5t-216.5 93.5t-216.5 -93.5t-85.5 -233.5
q0 -139 85.5 -232.5t216.5 -93.5t216.5 93.5t85.5 232.5z" />
    <glyph glyph-name="ohungarumlaut" unicode="&#x151;" horiz-adv-x="500" 
d="M301 641l-110 -160l-28 18l88 173zM431 627l-108 -157l-28 18l86 170zM458 210q0 -92 -59 -155t-149 -63q-91 0 -149 62.5t-58 154.5q0 91 58.5 154t149.5 63q90 0 148.5 -62.5t58.5 -153.5zM402 209q0 75 -42 122.5t-110 47.5t-110 -48t-42 -122t42 -122t110 -48t110 48
t42 122z" />
    <glyph glyph-name="OE" unicode="&#x152;" horiz-adv-x="1068" 
d="M1006 0h-401q-67 -7 -130 -7q-99 0 -179.5 31t-131.5 82.5t-78.5 117t-27.5 136.5q0 77 27 145t77.5 121t130.5 83.5t179 30.5q72 0 138 -7h396v-50h-358v-286h323v-50h-323v-296h358v-51zM592 50v634q-50 8 -123 8q-169 0 -259.5 -92.5t-90.5 -239.5q0 -136 94 -226.5
t261 -90.5q69 0 118 7z" />
    <glyph glyph-name="oe" unicode="&#x153;" horiz-adv-x="818" 
d="M780 224q0 -17 -1 -27h-323q3 -71 45.5 -113.5t124.5 -42.5q56 0 119 25q1 -3 2 -8t3.5 -15.5t3.5 -16.5l2 -7q-71 -27 -133 -27q-143 0 -196 108q-25 -50 -71.5 -79t-105.5 -29q-91 0 -149 62.5t-58 154.5q0 91 58.5 154t149.5 63q59 0 105.5 -29t71.5 -78q24 49 68 78
t103 29q86 0 133.5 -56.5t47.5 -145.5zM727 241q-3 61 -36.5 99t-95.5 38q-59 0 -94.5 -37t-42.5 -100h269zM402 209q0 75 -42 122.5t-110 47.5t-110 -48t-42 -122t42 -122t110 -48t110 48t42 122z" />
    <glyph glyph-name="Racute" unicode="&#x154;" horiz-adv-x="590" 
d="M565 0h-68l-200 298q-27 -4 -64 -4q-41 0 -89 4v-298h-57v726q93 12 157 12q133 0 205.5 -59.5t72.5 -157.5q0 -76 -44.5 -131.5t-125.5 -79.5zM462 518q0 76 -55.5 123t-156.5 47q-54 0 -106 -9v-331q50 -6 92 -6q109 0 167.5 47t58.5 129zM446 894l-192 -99l-18 31
l181 123z" />
    <glyph glyph-name="racute" unicode="&#x155;" horiz-adv-x="285" 
d="M268 373q-46 -2 -86.5 -24t-63.5 -63v-286h-55v418h53v-79q62 88 152 88v-54zM325 574l-192 -99l-18 31l181 123z" />
    <glyph glyph-name="Rcommaaccent" unicode="&#x156;" horiz-adv-x="590" 
d="M565 0h-68l-200 298q-27 -4 -64 -4q-41 0 -89 4v-298h-57v726q93 12 157 12q133 0 205.5 -59.5t72.5 -157.5q0 -76 -44.5 -131.5t-125.5 -79.5zM462 518q0 76 -55.5 123t-156.5 47q-54 0 -106 -9v-331q50 -6 92 -6q109 0 167.5 47t58.5 129zM331 -121q0 -35 -25 -73.5
t-62 -60.5l-11 13q46 41 56 92q-21 2 -33.5 14t-12.5 29t12 29t29 12q21 0 34 -15.5t13 -39.5z" />
    <glyph glyph-name="rcommaaccent" unicode="&#x157;" horiz-adv-x="285" 
d="M268 373q-46 -2 -86.5 -24t-63.5 -63v-286h-55v418h53v-79q62 88 152 88v-54zM138 -127q0 -35 -25 -73.5t-62 -60.5l-11 13q46 41 56 92q-21 2 -33.5 14t-12.5 29t12 29t29 12q21 0 34 -15.5t13 -39.5z" />
    <glyph glyph-name="Rcaron" unicode="&#x158;" horiz-adv-x="590" 
d="M565 0h-68l-200 298q-27 -4 -64 -4q-41 0 -89 4v-298h-57v726q93 12 157 12q133 0 205.5 -59.5t72.5 -157.5q0 -76 -44.5 -131.5t-125.5 -79.5zM462 518q0 76 -55.5 123t-156.5 47q-54 0 -106 -9v-331q50 -6 92 -6q109 0 167.5 47t58.5 129zM417 951l-122 -149h-29
l-120 149h59l78 -98l76 98h58z" />
    <glyph glyph-name="rcaron" unicode="&#x159;" horiz-adv-x="285" 
d="M268 373q-46 -2 -86.5 -24t-63.5 -63v-286h-55v418h53v-79q62 88 152 88v-54zM296 631l-122 -149h-29l-120 149h59l78 -98l76 98h58z" />
    <glyph glyph-name="Sacute" unicode="&#x15a;" horiz-adv-x="517" 
d="M432 894l-192 -99l-18 31l181 123zM464 189q0 -88 -64.5 -144.5t-159.5 -56.5q-108 0 -212 68l27 49q97 -66 190 -66q72 0 117 40.5t45 102.5q0 60 -37 95t-124 74q-93 41 -137.5 86.5t-44.5 116.5q0 81 61.5 136t158.5 55q91 0 165 -50l-27 -47q-65 46 -143 46
q-72 0 -115.5 -39t-43.5 -97q0 -54 37 -88t114 -70q103 -46 148 -91.5t45 -119.5z" />
    <glyph glyph-name="sacute" unicode="&#x15b;" horiz-adv-x="356" 
d="M346 574l-192 -99l-18 31l181 123zM311 116q0 -51 -37.5 -87.5t-96.5 -36.5q-76 0 -146 52l27 40q60 -46 117 -46q40 0 62.5 19.5t22.5 51.5q0 27 -21.5 46t-52 30.5t-60.5 25t-51.5 38.5t-21.5 61q0 47 36.5 81.5t97.5 34.5q62 0 121 -40l-25 -42q-51 36 -97 36
q-40 0 -61 -18.5t-21 -46.5q0 -26 21.5 -44t52 -29.5t60.5 -24.5t51.5 -38.5t21.5 -62.5z" />
    <glyph glyph-name="Scedilla" unicode="&#x15e;" horiz-adv-x="517" 
d="M341 -150q0 -37 -27 -62t-75 -25q-46 0 -106 33l18 36q52 -29 88 -29q26 0 40.5 12t14.5 33q0 53 -101 63l-3 6l19 72q-94 9 -181 67l27 49q97 -66 190 -66q72 0 117 40.5t45 102.5q0 60 -37 95t-124 74q-93 41 -137.5 86.5t-44.5 116.5q0 81 61.5 136t158.5 55
q91 0 165 -50l-27 -47q-65 46 -143 46q-72 0 -115.5 -39t-43.5 -97q0 -54 37 -88t114 -70q103 -46 148 -91.5t45 -119.5q0 -87 -62 -142.5t-154 -58.5l-11 -43q53 -11 78.5 -36t25.5 -59z" />
    <glyph glyph-name="scedilla" unicode="&#x15f;" horiz-adv-x="356" 
d="M270 -150q0 -37 -27 -62t-75 -25q-46 0 -106 33l18 36q52 -29 88 -29q26 0 40.5 12t14.5 33q0 53 -101 63l-3 6l21 78q-57 10 -109 49l27 40q60 -46 117 -46q40 0 62.5 19.5t22.5 51.5q0 27 -21.5 46t-52 30.5t-60.5 25t-51.5 38.5t-21.5 61q0 47 36.5 81.5t97.5 34.5
q62 0 121 -40l-25 -42q-51 36 -97 36q-40 0 -61 -18.5t-21 -46.5q0 -26 21.5 -44t52 -29.5t60.5 -24.5t51.5 -38.5t21.5 -62.5q0 -50 -37.5 -86.5t-95.5 -37.5l-12 -47q53 -11 78.5 -36t25.5 -59z" />
    <glyph glyph-name="Scaron" unicode="&#x160;" horiz-adv-x="517" 
d="M402 951l-122 -149h-29l-120 149h59l78 -98l76 98h58zM464 189q0 -88 -64.5 -144.5t-159.5 -56.5q-108 0 -212 68l27 49q97 -66 190 -66q72 0 117 40.5t45 102.5q0 60 -37 95t-124 74q-93 41 -137.5 86.5t-44.5 116.5q0 81 61.5 136t158.5 55q91 0 165 -50l-27 -47
q-65 46 -143 46q-72 0 -115.5 -39t-43.5 -97q0 -54 37 -88t114 -70q103 -46 148 -91.5t45 -119.5z" />
    <glyph glyph-name="scaron" unicode="&#x161;" horiz-adv-x="356" 
d="M317 631l-122 -149h-29l-120 149h59l78 -98l76 98h58zM311 116q0 -51 -37.5 -87.5t-96.5 -36.5q-76 0 -146 52l27 40q60 -46 117 -46q40 0 62.5 19.5t22.5 51.5q0 27 -21.5 46t-52 30.5t-60.5 25t-51.5 38.5t-21.5 61q0 47 36.5 81.5t97.5 34.5q62 0 121 -40l-25 -42
q-51 36 -97 36q-40 0 -61 -18.5t-21 -46.5q0 -26 21.5 -44t52 -29.5t60.5 -24.5t51.5 -38.5t21.5 -62.5z" />
    <glyph glyph-name="Tcommaaccent" unicode="&#x162;" horiz-adv-x="614" 
d="M353 -128q0 -35 -25 -73.5t-62 -60.5l-11 13q46 41 56 92q-21 2 -33.5 14t-12.5 29t12 29t29 12q21 0 34 -15.5t13 -39.5zM584 683h-248v-683h-57v683h-249v50h554v-50z" />
    <glyph glyph-name="tcommaaccent" unicode="&#x163;" horiz-adv-x="293" 
d="M214 -128q0 -35 -25 -73.5t-62 -60.5l-11 13q46 41 56 92q-21 2 -33.5 14t-12.5 29t12 29t29 12q21 0 34 -15.5t13 -39.5zM275 369h-132v-262q0 -66 70 -66q20 0 45 5l5 -47q-39 -7 -63 -7q-111 0 -111 119v258h-71v13l71 39v90l54 40v-133h132v-49z" />
    <glyph glyph-name="Tcaron" unicode="&#x164;" horiz-adv-x="614" 
d="M442 951l-122 -149h-29l-120 149h59l78 -98l76 98h58zM584 683h-248v-683h-57v683h-249v50h554v-50z" />
    <glyph glyph-name="tcaron" unicode="&#x165;" horiz-adv-x="293" 
d="M246 671l54 -8q0 -114 -90 -184l-25 21q58 61 61 171zM275 369h-132v-262q0 -66 70 -66q20 0 45 5l5 -47q-39 -7 -63 -7q-111 0 -111 119v258h-71v13l71 39v90l54 40v-133h132v-49z" />
    <glyph glyph-name="Umacron" unicode="&#x16a;" horiz-adv-x="708" 
d="M628 266q0 -128 -75 -202t-200 -74q-128 0 -200 72t-72 204v467h56v-466q0 -110 57.5 -168t158.5 -58q100 0 159 58.5t59 167.5v466h57v-467zM499 819h-287v48h287v-48z" />
    <glyph glyph-name="umacron" unicode="&#x16b;" 
d="M411 0h-53v69q-31 -32 -73.5 -54.5t-84.5 -22.5q-70 0 -105.5 39.5t-35.5 105.5v281h56v-269q0 -109 97 -109q73 0 144 78v300h55v-418zM379 512h-287v48h287v-48z" />
    <glyph glyph-name="Ubreve" unicode="&#x16c;" horiz-adv-x="708" 
d="M628 266q0 -128 -75 -202t-200 -74q-128 0 -200 72t-72 204v467h56v-466q0 -110 57.5 -168t158.5 -58q100 0 159 58.5t59 167.5v466h57v-467zM477 912q0 -49 -33 -83.5t-89 -34.5q-55 0 -88 34.5t-34 83.5l51 5q1 -37 19.5 -58t51.5 -21t51.5 21t19.5 58z" />
    <glyph glyph-name="ubreve" unicode="&#x16d;" 
d="M411 0h-53v69q-31 -32 -73.5 -54.5t-84.5 -22.5q-70 0 -105.5 39.5t-35.5 105.5v281h56v-269q0 -109 97 -109q73 0 144 78v300h55v-418zM357 605q0 -49 -33 -83.5t-89 -34.5q-55 0 -88 34.5t-34 83.5l51 5q1 -37 19.5 -58t51.5 -21t51.5 21t19.5 58z" />
    <glyph glyph-name="Uring" unicode="&#x16e;" horiz-adv-x="708" 
d="M628 266q0 -128 -75 -202t-200 -74q-128 0 -200 72t-72 204v467h56v-466q0 -110 57.5 -168t158.5 -58q100 0 159 58.5t59 167.5v466h57v-467zM457 893q0 -43 -28.5 -72t-74.5 -29q-45 0 -74 29t-29 72q0 42 29 71.5t74 29.5t74 -29.5t29 -71.5zM416 893q0 29 -17.5 47.5
t-44.5 18.5q-26 0 -43.5 -18.5t-17.5 -47.5q0 -28 17.5 -47t43.5 -19q27 0 44.5 18.5t17.5 47.5z" />
    <glyph glyph-name="uring" unicode="&#x16f;" 
d="M337 586q0 -43 -28.5 -72t-74.5 -29q-45 0 -74 29t-29 72q0 42 29 71.5t74 29.5t74 -29.5t29 -71.5zM296 586q0 29 -17.5 47.5t-44.5 18.5q-26 0 -43.5 -18.5t-17.5 -47.5q0 -28 17.5 -47t43.5 -19q27 0 44.5 18.5t17.5 47.5zM411 0h-53v69q-31 -32 -73.5 -54.5
t-84.5 -22.5q-70 0 -105.5 39.5t-35.5 105.5v281h56v-269q0 -109 97 -109q73 0 144 78v300h55v-418z" />
    <glyph glyph-name="Uhungarumlaut" unicode="&#x170;" horiz-adv-x="708" 
d="M628 266q0 -128 -75 -202t-200 -74q-128 0 -200 72t-72 204v467h56v-466q0 -110 57.5 -168t158.5 -58q100 0 159 58.5t59 167.5v466h57v-467zM406 948l-110 -160l-28 18l88 173zM536 934l-108 -157l-28 18l86 170z" />
    <glyph glyph-name="uhungarumlaut" unicode="&#x171;" 
d="M411 0h-53v69q-31 -32 -73.5 -54.5t-84.5 -22.5q-70 0 -105.5 39.5t-35.5 105.5v281h56v-269q0 -109 97 -109q73 0 144 78v300h55v-418zM286 641l-110 -160l-28 18l88 173zM416 627l-108 -157l-28 18l86 170z" />
    <glyph glyph-name="Uogonek" unicode="&#x172;" horiz-adv-x="708" 
d="M628 266q0 -119 -65 -191.5t-176 -82.5q-73 -83 -73 -129q0 -20 10.5 -31.5t27.5 -11.5q30 0 56 34l24 -23q-37 -50 -87 -50q-35 -1 -56.5 20t-21.5 56q1 57 73 133q-122 4 -190.5 75.5t-68.5 200.5v467h56v-466q0 -110 57.5 -168t158.5 -58q100 0 159 58.5t59 167.5v466
h57v-467z" />
    <glyph glyph-name="uogonek" unicode="&#x173;" 
d="M411 0h-10q-81 -88 -81 -137q0 -20 10.5 -31.5t27.5 -11.5q30 0 56 34l24 -23q-37 -50 -87 -50q-35 -1 -56.5 20t-21.5 56q1 33 20.5 66t64.5 79v67q-31 -32 -73.5 -54.5t-84.5 -22.5q-70 0 -105.5 39.5t-35.5 105.5v281h56v-269q0 -109 97 -109q73 0 144 78v300h55v-418
z" />
    <glyph glyph-name="Wcircumflex" unicode="&#x174;" horiz-adv-x="952" 
d="M611 807h-59l-79 98l-75 -98h-58l121 149h30zM918 733l-192 -743l-14 -2l-237 627l-235 -627l-14 2l-192 743h56l154 -601l227 605h10l229 -603l153 599h55z" />
    <glyph glyph-name="wcircumflex" unicode="&#x175;" horiz-adv-x="611" 
d="M442 487h-59l-79 98l-75 -98h-58l121 149h30zM593 418l-140 -430h-10l-134 324l-137 -324h-10l-141 430h60l94 -314l128 314h10l131 -314l90 314h59z" />
    <glyph glyph-name="Ycircumflex" unicode="&#x176;" horiz-adv-x="626" 
d="M597 733l-256 -404v-329h-56v330l-256 403h63l223 -356l220 356h62zM448 794h-59l-79 98l-75 -98h-58l121 149h30z" />
    <glyph glyph-name="ycircumflex" unicode="&#x177;" horiz-adv-x="427" 
d="M420 418l-295 -634h-56l118 244l-179 390h61l145 -334l146 334h60zM349 487h-59l-79 98l-75 -98h-58l121 149h30z" />
    <glyph glyph-name="Ydieresis" unicode="&#x178;" horiz-adv-x="626" 
d="M597 733l-256 -404v-329h-56v330l-256 403h63l223 -356l220 356h62zM440 850q0 -17 -12.5 -29.5t-29.5 -12.5q-18 0 -30.5 12.5t-12.5 29.5t12.5 30t30.5 13q17 0 29.5 -13t12.5 -30zM269 850q0 -17 -12.5 -29.5t-29.5 -12.5t-29.5 12.5t-12.5 29.5t12.5 30t29.5 13
t29.5 -13t12.5 -30z" />
    <glyph glyph-name="Zacute" unicode="&#x179;" horiz-adv-x="631" 
d="M480 894l-192 -99l-18 31l181 123zM580 723l-446 -672h441v-51h-525l-4 10l445 673h-420v50h504z" />
    <glyph glyph-name="zacute" unicode="&#x17a;" horiz-adv-x="397" 
d="M362 574l-192 -99l-18 31l181 123zM376 408l-276 -360h270v-48h-352l-4 9l276 361h-256v48h338z" />
    <glyph glyph-name="Zdotaccent" unicode="&#x17b;" horiz-adv-x="631" 
d="M580 723l-446 -672h441v-51h-525l-4 10l445 673h-420v50h504zM272 863q0 17 12.5 30t29.5 13q18 0 30.5 -13t12.5 -30t-12.5 -29.5t-30.5 -12.5q-17 0 -29.5 12.5t-12.5 29.5z" />
    <glyph glyph-name="zdotaccent" unicode="&#x17c;" horiz-adv-x="397" 
d="M376 408l-276 -360h270v-48h-352l-4 9l276 361h-256v48h338zM155 543q0 17 12.5 30t29.5 13q18 0 30.5 -13t12.5 -30t-12.5 -29.5t-30.5 -12.5q-17 0 -29.5 12.5t-12.5 29.5z" />
    <glyph glyph-name="Zcaron" unicode="&#x17d;" horiz-adv-x="631" 
d="M450 951l-122 -149h-29l-120 149h59l78 -98l76 98h58zM580 723l-446 -672h441v-51h-525l-4 10l445 673h-420v50h504z" />
    <glyph glyph-name="zcaron" unicode="&#x17e;" horiz-adv-x="397" 
d="M333 631l-122 -149h-29l-120 149h59l78 -98l76 98h58zM376 408l-276 -360h270v-48h-352l-4 9l276 361h-256v48h338z" />
    <glyph glyph-name="florin" unicode="&#x192;" horiz-adv-x="375" 
d="M367 576l-11 -48q-23 7 -48 7q-54 0 -81 -32.5t-36 -106.5l-7 -60h100l-2 -48h-103l-33 -288h-56l33 288h-62l3 11l65 40l6 53q21 194 171 194q32 0 61 -10z" />
    <glyph glyph-name="Aringacute" unicode="&#x1fa;" horiz-adv-x="696" 
d="M503 1038l-192 -99l-18 31l181 123zM451 811q0 -38 -23 -65.5t-61 -34.5l307 -711h-60l-95 224h-344l-94 -224h-59l306 712q-37 6 -60 34t-23 65q0 43 29 72t74 29q46 0 74.5 -29t28.5 -72zM498 272l-151 359l-151 -359h302zM410 812q0 28 -17.5 46.5t-44.5 18.5
q-26 0 -43.5 -18.5t-17.5 -46.5q0 -29 17.5 -47.5t43.5 -18.5q27 0 44.5 18.5t17.5 47.5z" />
    <glyph glyph-name="aringacute" unicode="&#x1fb;" horiz-adv-x="433" 
d="M376 0h-52v45q-53 -53 -132 -53q-66 0 -110 35t-44 96q0 58 44.5 94.5t111.5 36.5q59 0 127 -32v38q0 60 -28.5 88.5t-92.5 28.5q-56 0 -109 -23l-11 48q65 24 126 24q170 0 170 -166v-260zM321 586q0 -43 -28.5 -72t-74.5 -29q-45 0 -74 29t-29 72q0 42 29 71.5t74 29.5
t74 -29.5t29 -71.5zM321 93v82q-62 35 -120 35q-49 0 -79.5 -22.5t-30.5 -64.5q0 -41 30 -63t82 -22q72 0 118 55zM280 586q0 29 -17.5 47.5t-44.5 18.5q-26 0 -43.5 -18.5t-17.5 -47.5q0 -28 17.5 -47t43.5 -19q27 0 44.5 18.5t17.5 47.5zM383 829l-192 -99l-18 31l181 123
z" />
    <glyph glyph-name="AEacute" unicode="&#x1fc;" horiz-adv-x="1020" 
d="M958 0h-414v241h-288l-171 -241h-66l527 733h412v-50h-357v-286h322v-50h-322v-296h357v-51zM544 289v357l-254 -357h254zM811 894l-192 -99l-18 31l181 123z" />
    <glyph glyph-name="aeacute" unicode="&#x1fd;" horiz-adv-x="738" 
d="M534 574l-192 -99l-18 31l181 123zM321 222v38q0 60 -28 88.5t-93 28.5q-56 0 -109 -23l-11 48q65 24 127 24q123 0 151 -90q53 90 161 90q85 0 132.5 -56t47.5 -144q0 -19 -1 -29h-323q4 -71 46.5 -113.5t124.5 -42.5q56 0 118 25q1 -3 2 -8t4 -15.5t4 -16.5l2 -7
q-71 -27 -133 -27q-141 0 -191 104q-24 -50 -69 -77t-100 -27q-61 0 -103 35.5t-42 95.5q0 58 44.5 94.5t110.5 36.5q64 0 128 -32zM647 241q-4 61 -37 99t-95 38q-59 0 -95 -37t-43 -100h270zM325 168q-55 42 -124 42q-49 0 -79.5 -22.5t-30.5 -64.5q0 -41 28 -63t75 -22
q48 0 85.5 32t45.5 98z" />
    <glyph glyph-name="Oslashacute" unicode="&#x1fe;" horiz-adv-x="842" 
d="M784 366q0 -161 -106 -268.5t-259 -107.5q-138 0 -240 91l-83 -87l-34 35q5 6 14 14.5t27.5 27.5t30.5 31l12 13q-88 106 -88 251q0 161 106 269.5t259 108.5q139 0 240 -93l84 88l34 -34q-68 -71 -85 -88q88 -104 88 -251zM625 612q-84 81 -204 81q-131 0 -216.5 -93.5
t-85.5 -233.5q0 -122 67 -209zM723 366q0 123 -67 210l-110 -114q-109 -114 -219 -228l-110 -114q85 -80 204 -80q131 0 216.5 93.5t85.5 232.5zM586 894l-192 -99l-18 31l181 123z" />
    <glyph glyph-name="oslashacute" unicode="&#x1ff;" horiz-adv-x="500" 
d="M474 394l-56 -53q40 -55 40 -131q0 -93 -58.5 -155.5t-149.5 -62.5q-83 0 -140 54l-56 -54l-29 29l58 55q-40 57 -40 133q0 92 58.5 154.5t149.5 62.5q84 0 141 -55l54 52zM121 112l235 225q-40 42 -106 42q-69 0 -110.5 -47t-41.5 -123q0 -54 23 -97zM380 304l-234 -224
q41 -41 104 -41q69 0 111 47.5t42 122.5q0 54 -23 95zM414 574l-192 -99l-18 31l181 123z" />
    <glyph glyph-name="Scommaaccent" unicode="&#x218;" horiz-adv-x="517" 
d="M298 -128q0 -35 -25 -73.5t-62 -60.5l-11 13q46 41 56 92q-21 2 -33.5 14t-12.5 29t12 29t29 12q21 0 34 -15.5t13 -39.5zM464 189q0 -88 -64.5 -144.5t-159.5 -56.5q-108 0 -212 68l27 49q97 -66 190 -66q72 0 117 40.5t45 102.5q0 60 -37 95t-124 74
q-93 41 -137.5 86.5t-44.5 116.5q0 81 61.5 136t158.5 55q91 0 165 -50l-27 -47q-65 46 -143 46q-72 0 -115.5 -39t-43.5 -97q0 -54 37 -88t114 -70q103 -46 148 -91.5t45 -119.5z" />
    <glyph glyph-name="scommaaccent" unicode="&#x219;" horiz-adv-x="356" 
d="M220 -128q0 -35 -25 -73.5t-62 -60.5l-11 13q46 41 56 92q-21 2 -33.5 14t-12.5 29t12 29t29 12q21 0 34 -15.5t13 -39.5zM311 116q0 -51 -37.5 -87.5t-96.5 -36.5q-76 0 -146 52l27 40q60 -46 117 -46q40 0 62.5 19.5t22.5 51.5q0 27 -21.5 46t-52 30.5t-60.5 25
t-51.5 38.5t-21.5 61q0 47 36.5 81.5t97.5 34.5q62 0 121 -40l-25 -42q-51 36 -97 36q-40 0 -61 -18.5t-21 -46.5q0 -26 21.5 -44t52 -29.5t60.5 -24.5t51.5 -38.5t21.5 -62.5z" />
    <glyph glyph-name="schwa" unicode="&#x259;" horiz-adv-x="461" 
d="M39 193q0 17 2 27h323q-4 71 -46.5 113.5t-124.5 42.5q-56 0 -119 -25q-1 3 -2 8t-3.5 15.5t-4.5 17.5l-1 6q71 27 133 27q107 0 165 -60.5t58 -155.5q0 -92 -54.5 -155t-144.5 -63q-86 0 -133.5 56.5t-47.5 145.5zM362 176h-270q4 -61 37 -99t95 -38q59 0 95 37t43 100z
" />
    <glyph glyph-name="circumflex" unicode="&#x2c6;" horiz-adv-x="440" 
d="M357 487h-59l-79 98l-75 -98h-58l121 149h30z" />
    <glyph glyph-name="caron" unicode="&#x2c7;" horiz-adv-x="440" 
d="M355 631l-122 -149h-29l-120 149h59l78 -98l76 98h58z" />
    <glyph glyph-name="breve" unicode="&#x2d8;" horiz-adv-x="440" 
d="M342 605q0 -49 -33 -83.5t-89 -34.5q-55 0 -88 34.5t-34 83.5l51 5q1 -37 19.5 -58t51.5 -21t51.5 21t19.5 58z" />
    <glyph glyph-name="dotaccent" unicode="&#x2d9;" horiz-adv-x="440" 
d="M178 543q0 17 12.5 30t29.5 13q18 0 30.5 -13t12.5 -30t-12.5 -29.5t-30.5 -12.5q-17 0 -29.5 12.5t-12.5 29.5z" />
    <glyph glyph-name="ring" unicode="&#x2da;" horiz-adv-x="440" 
d="M323 586q0 -43 -28.5 -72t-74.5 -29q-45 0 -74 29t-29 72q0 42 29 71.5t74 29.5t74 -29.5t29 -71.5zM282 586q0 29 -17.5 47.5t-44.5 18.5q-26 0 -43.5 -18.5t-17.5 -47.5q0 -28 17.5 -47t43.5 -19q27 0 44.5 18.5t17.5 47.5z" />
    <glyph glyph-name="ogonek" unicode="&#x2db;" horiz-adv-x="440" 
d="M323 -169q-37 -50 -87 -50q-35 -1 -56.5 20t-21.5 56q1 37 26 74.5t85 97.5l20 -26q-84 -92 -84 -140q0 -20 10.5 -31.5t27.5 -11.5q30 0 56 34z" />
    <glyph glyph-name="tilde" unicode="&#x2dc;" horiz-adv-x="440" 
d="M370 551q-47 -56 -94 -54q-25 0 -62 22q-33 21 -52 22q-31 0 -65 -41l-28 34q47 56 94 54q26 0 61 -22q35 -21 53 -22q31 0 65 41z" />
    <glyph glyph-name="hungarumlaut" unicode="&#x2dd;" horiz-adv-x="440" 
d="M236 641l-110 -160l-28 18l88 173zM366 627l-108 -157l-28 18l86 170z" />
    <glyph glyph-name="commaaccent" unicode="&#x326;" horiz-adv-x="188" 
d="M141 -128q0 -35 -25 -73.5t-62 -60.5l-11 13q46 41 56 92q-21 2 -33.5 14t-12.5 29t12 29t29 12q21 0 34 -15.5t13 -39.5z" />
    <glyph glyph-name="Wgrave" unicode="&#x1e80;" horiz-adv-x="952" 
d="M918 733l-192 -743l-14 -2l-237 627l-235 -627l-14 2l-192 743h56l154 -601l227 605h10l229 -603l153 599h55zM518 825l-19 -30l-192 99l31 54z" />
    <glyph glyph-name="wgrave" unicode="&#x1e81;" horiz-adv-x="611" 
d="M593 418l-140 -430h-10l-134 324l-137 -324h-10l-141 430h60l94 -314l128 314h10l131 -314l90 314h59zM348 505l-19 -30l-192 99l31 54z" />
    <glyph glyph-name="Wacute" unicode="&#x1e82;" horiz-adv-x="952" 
d="M641 894l-192 -99l-18 31l181 123zM918 733l-192 -743l-14 -2l-237 627l-235 -627l-14 2l-192 743h56l154 -601l227 605h10l229 -603l153 599h55z" />
    <glyph glyph-name="wacute" unicode="&#x1e83;" horiz-adv-x="611" 
d="M472 574l-192 -99l-18 31l181 123zM593 418l-140 -430h-10l-134 324l-137 -324h-10l-141 430h60l94 -314l128 314h10l131 -314l90 314h59z" />
    <glyph glyph-name="Wdieresis" unicode="&#x1e84;" horiz-adv-x="952" 
d="M604 863q0 -17 -12.5 -29.5t-29.5 -12.5q-18 0 -30.5 12.5t-12.5 29.5t12.5 30t30.5 13q17 0 29.5 -13t12.5 -30zM433 863q0 -17 -12.5 -29.5t-29.5 -12.5t-29.5 12.5t-12.5 29.5t12.5 30t29.5 13t29.5 -13t12.5 -30zM918 733l-192 -743l-14 -2l-237 627l-235 -627l-14 2
l-192 743h56l154 -601l227 605h10l229 -603l153 599h55z" />
    <glyph glyph-name="wdieresis" unicode="&#x1e85;" horiz-adv-x="611" 
d="M434 543q0 -17 -12.5 -29.5t-29.5 -12.5q-18 0 -30.5 12.5t-12.5 29.5t12.5 30t30.5 13q17 0 29.5 -13t12.5 -30zM263 543q0 -17 -12.5 -29.5t-29.5 -12.5t-29.5 12.5t-12.5 29.5t12.5 30t29.5 13t29.5 -13t12.5 -30zM593 418l-140 -430h-10l-134 324l-137 -324h-10
l-141 430h60l94 -314l128 314h10l131 -314l90 314h59z" />
    <glyph glyph-name="Ygrave" unicode="&#x1ef2;" horiz-adv-x="626" 
d="M597 733l-256 -404v-329h-56v330l-256 403h63l223 -356l220 356h62zM354 812l-19 -30l-192 99l31 54z" />
    <glyph glyph-name="ygrave" unicode="&#x1ef3;" horiz-adv-x="427" 
d="M420 418l-295 -634h-56l118 244l-179 390h61l145 -334l146 334h60zM255 505l-19 -30l-192 99l31 54z" />
    <glyph glyph-name="enspace" unicode="&#x2002;" horiz-adv-x="500" 
 />
    <glyph glyph-name="emspace" unicode="&#x2003;" horiz-adv-x="1000" 
 />
    <glyph glyph-name="threeperemspace" unicode="&#x2004;" horiz-adv-x="333" 
 />
    <glyph glyph-name="fourperemspace" unicode="&#x2005;" horiz-adv-x="250" 
 />
    <glyph glyph-name="figurespace" unicode="&#x2007;" horiz-adv-x="520" 
 />
    <glyph glyph-name="thinspace" unicode="&#x2009;" horiz-adv-x="133" 
 />
    <glyph glyph-name="hairspace" unicode="&#x200a;" horiz-adv-x="75" 
 />
    <glyph glyph-name="endash" unicode="&#x2013;" horiz-adv-x="500" 
d="M450 218h-400v49h400v-49z" />
    <glyph glyph-name="emdash" unicode="&#x2014;" horiz-adv-x="750" 
d="M700 218h-650v49h650v-49z" />
    <glyph glyph-name="quoteleft" unicode="&#x2018;" horiz-adv-x="158" 
d="M121 597q0 -17 -12 -29t-29 -12q-22 0 -35 15.5t-13 40.5q0 37 25 75.5t63 61.5l11 -13q-48 -46 -57 -95q22 -2 34.5 -14.5t12.5 -29.5z" />
    <glyph glyph-name="quoteright" unicode="&#x2019;" horiz-adv-x="158" 
d="M127 687q0 -36 -25.5 -74.5t-63.5 -61.5l-11 13q47 43 57 94q-21 2 -34 14.5t-13 30.5q0 17 12.5 29t29.5 12q21 0 34.5 -16t13.5 -41z" />
    <glyph glyph-name="quotesinglbase" unicode="&#x201a;" horiz-adv-x="158" 
d="M127 23q0 -37 -25.5 -75.5t-63.5 -61.5l-11 13q47 43 57 94q-21 2 -34 15t-13 30t12.5 29t29.5 12q21 0 34.5 -15.5t13.5 -40.5z" />
    <glyph glyph-name="quotedblleft" unicode="&#x201c;" horiz-adv-x="292" 
d="M255 597q0 -17 -12 -29t-29 -12q-22 0 -35 15.5t-13 40.5q0 37 25 75.5t63 61.5l11 -13q-48 -46 -57 -95q22 -2 34.5 -14.5t12.5 -29.5zM121 597q0 -17 -12 -29t-29 -12q-22 0 -35 15.5t-13 40.5q0 37 25 75.5t63 61.5l11 -13q-48 -46 -57 -95q22 -2 34.5 -14.5
t12.5 -29.5z" />
    <glyph glyph-name="quotedblright" unicode="&#x201d;" horiz-adv-x="292" 
d="M261 687q0 -36 -25.5 -74.5t-63.5 -61.5l-11 13q47 43 57 94q-21 2 -34 14.5t-13 30.5q0 17 12.5 29t29.5 12q21 0 34.5 -16t13.5 -41zM127 687q0 -36 -25.5 -74.5t-63.5 -61.5l-11 13q47 43 57 94q-21 2 -34 14.5t-13 30.5q0 17 12.5 29t29.5 12q21 0 34.5 -16t13.5 -41
z" />
    <glyph glyph-name="quotedblbase" unicode="&#x201e;" horiz-adv-x="292" 
d="M260 23q0 -37 -25 -76t-63 -61l-11 13q47 43 57 94q-21 2 -34 15t-13 30t12.5 29t29.5 12q21 0 34 -15.5t13 -40.5zM127 23q0 -37 -25.5 -75.5t-63.5 -61.5l-11 13q47 43 57 94q-21 2 -34 15t-13 30t12.5 29t29.5 12q21 0 34.5 -15.5t13.5 -40.5z" />
    <glyph glyph-name="dagger" unicode="&#x2020;" horiz-adv-x="455" 
d="M415 502h-158v-346h-54v346h-160v49h160v182h54v-182h158v-49z" />
    <glyph glyph-name="daggerdbl" unicode="&#x2021;" horiz-adv-x="455" 
d="M417 312h-160v-156h-54v156h-157v48h157v169h-160v49h160v155h54v-155h158v-49h-158v-169h160v-48z" />
    <glyph glyph-name="bullet" unicode="&#x2022;" horiz-adv-x="351" 
d="M292 366q0 -49 -34 -84t-82 -35t-82 35t-34 84q0 50 33.5 84.5t82.5 34.5q48 0 82 -35t34 -84z" />
    <glyph glyph-name="ellipsis" unicode="&#x2026;" horiz-adv-x="605" 
d="M59 36q0 18 13 30.5t31 12.5t31 -12.5t13 -30.5q0 -19 -13 -31.5t-31 -12.5t-31 12.5t-13 31.5zM259 36q0 18 13 30.5t31 12.5t31 -12.5t13 -30.5q0 -19 -13 -31.5t-31 -12.5t-31 12.5t-13 31.5zM459 36q0 18 13 30.5t31 12.5t31 -12.5t13 -30.5q0 -19 -13 -31.5
t-31 -12.5t-31 12.5t-13 31.5z" />
    <glyph glyph-name="perthousand" unicode="&#x2030;" horiz-adv-x="924" 
d="M245 440q0 45 -20 75t-56 30t-56.5 -30t-20.5 -75q0 -44 20.5 -74t56.5 -30t56 30t20 74zM291 440q0 -61 -33 -103.5t-90 -42.5q-56 0 -88.5 42.5t-32.5 103.5q0 62 33 104t89 42q57 0 89.5 -42t32.5 -104zM570 566l-466 -582l-32 27l466 582zM550 137q0 45 -20 75
t-57 30q-36 0 -56 -30t-20 -75q0 -44 20 -74t56 -30q37 0 57 30t20 74zM595 137q0 -61 -33 -103.5t-89 -42.5q-57 0 -89 42t-32 104t32.5 104t89.5 42q56 0 88.5 -42t32.5 -104zM832 137q0 45 -20 75t-57 30q-36 0 -56 -30t-20 -75q0 -44 20 -74t56 -30q37 0 57 30t20 74z
M877 137q0 -61 -33 -103.5t-89 -42.5q-57 0 -89 42t-32 104t32.5 104t89.5 42q56 0 88.5 -42t32.5 -104z" />
    <glyph glyph-name="guilsinglleft" unicode="&#x2039;" horiz-adv-x="257" 
d="M212 9h-58l-105 164l105 163h58l-108 -163z" />
    <glyph glyph-name="guilsinglright" unicode="&#x203a;" horiz-adv-x="257" 
d="M208 173l-105 -164h-58l108 164l-108 163h58z" />
    <glyph glyph-name="fraction" unicode="&#x2044;" horiz-adv-x="549" 
d="M533 565l-482 -582l-35 28l482 581z" />
    <glyph glyph-name="Euro" unicode="&#x20ac;" horiz-adv-x="639" 
d="M96 331h-68v49h79q28 94 108 150t182 56q101 0 190 -55l-24 -46q-82 51 -170 51q-80 0 -141 -41.5t-86 -114.5h303v-49h-315q-3 -21 -3 -45q0 -23 3 -44h315v-47h-302q25 -73 87.5 -113.5t142.5 -40.5q88 0 171 51l19 -46q-90 -56 -190 -56q-104 0 -183.5 55.5
t-107.5 149.5h-78v47h67q-2 28 -2 44q0 24 3 45z" />
    <glyph glyph-name="published" unicode="&#x2117;" horiz-adv-x="842" 
d="M512 431q0 34 -24.5 57t-68.5 23q-7 0 -14.5 -0.5t-16.5 -1.5t-14 -1v-159q20 -3 40 -3q48 0 73 23t25 62zM561 432q0 -56 -39 -91t-107 -35q-15 0 -41 2v-124h-46v364q36 5 84 5q71 0 110 -34t39 -87zM792 366q0 -157 -108.5 -267.5t-262.5 -110.5t-262.5 110.5
t-108.5 267.5t108.5 268t262.5 111t262.5 -111t108.5 -268zM744 366q0 141 -94.5 239t-228.5 98t-228 -98t-94 -239q0 -140 94 -237.5t228 -97.5t228.5 97.5t94.5 237.5z" />
    <glyph glyph-name="servicemark" unicode="&#x2120;" horiz-adv-x="447" 
d="M19 534l12 31q27 -20 56 -20q17 0 26 8t9 21t-8.5 21.5t-34.5 20.5q-51 23 -51 62q0 25 19 42t51 17q33 0 56 -16l-11 -31q-21 15 -45 15q-34 0 -34 -26q0 -12 9.5 -20t31.5 -18q53 -24 53 -65q0 -28 -19.5 -46t-51.5 -18q-36 0 -68 22zM421 515h-34l-3 136l-72 -112h-4
l-72 112l-2 -136h-34l9 221h5l97 -149l95 149h5z" />
    <glyph glyph-name="trademark" unicode="&#x2122;" horiz-adv-x="481" 
d="M455 515h-35l-2 135l-70 -107h-4l-71 107l-1 -135h-36l9 221h5l96 -143l95 143h5zM193 700h-69v-185h-37v185h-68v33h174v-33z" />
    <glyph glyph-name="arrowleft" unicode="&#x2190;" horiz-adv-x="711" 
d="M661 241l-534 1l222 -183l-30 -37l-288 239v9l288 239l30 -37l-222 -183l534 1v-49z" />
    <glyph glyph-name="arrowright" unicode="&#x2192;" horiz-adv-x="711" 
d="M50 290l534 -1l-222 183l31 37l287 -239v-9l-287 -239l-31 37l222 183l-534 -1v49z" />
    <glyph glyph-name="minus" unicode="&#x2212;" horiz-adv-x="460" 
d="M60 256v49h340v-49h-340z" />
    <glyph glyph-name="G.alt" horiz-adv-x="828" 
d="M421 343h360q0 -152 -98 -252.5t-246 -100.5q-74 0 -142.5 26.5t-121 73.5t-84 119t-31.5 157q0 113 55.5 201.5t141.5 133t184 44.5q83 0 145.5 -22.5t125.5 -67.5l-30 -44q-116 83 -241 84q-137 0 -228.5 -92.5t-91.5 -236.5t93.5 -235t226.5 -91q113 0 193.5 72
t88.5 181h-300v50z" />
    <glyph glyph-name="M.alt" horiz-adv-x="847" 
d="M771 0h-57l-12 607l-274 -427h-10l-273 426l-12 -606h-57l25 742l13 2l312 -488l307 488l13 -2z" />
    <glyph glyph-name="zero.lin" horiz-adv-x="657" 
d="M597 366q0 -164 -72.5 -270t-197.5 -106q-124 0 -195.5 106t-71.5 270q0 165 72.5 271.5t197.5 106.5q124 0 195.5 -106.5t71.5 -271.5zM537 366q0 145 -56 236t-153 91q-98 0 -153 -91t-55 -236q0 -144 56 -235t153 -91t152.5 90.5t55.5 235.5z" />
    <glyph glyph-name="one.lin" horiz-adv-x="388" 
d="M248 0h-56v673l-129 -44l-16 46l189 68h12v-743z" />
    <glyph glyph-name="two.lin" horiz-adv-x="552" 
d="M485 0h-460l-5 13q161 168 267 292q62 73 90.5 128t28.5 106q0 67 -44 109.5t-119 42.5q-85 0 -170 -55l-18 48q92 60 187 60q102 0 163 -56.5t61 -147.5q0 -59 -32 -117.5t-98 -138.5q-50 -60 -214 -233h363v-51z" />
    <glyph glyph-name="three.lin" horiz-adv-x="535" 
d="M473 216q0 -97 -68.5 -161.5t-178.5 -64.5q-86 0 -185 35l20 47q89 -32 163 -32q87 0 140.5 49t53.5 125q0 71 -59.5 115t-156.5 44q-32 0 -86 -8l-9 12l282 306h-346v50h438l6 -12l-280 -302q120 -2 193 -54t73 -149z" />
    <glyph glyph-name="four.lin" horiz-adv-x="602" 
d="M574 223h-122v-223h-55v223h-372v16l410 506h17v-474h122v-48zM397 271v355l-286 -355h286z" />
    <glyph glyph-name="five.lin" horiz-adv-x="558" 
d="M496 218q0 -98 -69.5 -163t-178.5 -65q-90 0 -184 34l20 49q84 -32 160 -32q89 0 142 48.5t53 125.5q0 74 -54 122t-147 48q-67 0 -136 -15l-7 9v354h371v-50h-315v-256q40 8 92 8q117 0 185 -60.5t68 -156.5z" />
    <glyph glyph-name="six.lin" horiz-adv-x="595" 
d="M541 232q0 -101 -67.5 -172t-172.5 -71q-107 0 -173 71.5t-66 185.5q0 140 96 273t304 243l28 -47q-132 -66 -222 -153t-127 -183q28 36 74 57.5t100 21.5q97 0 161.5 -64t64.5 -162zM483 227q0 81 -50.5 132t-128.5 51q-81 0 -132 -51t-51 -127q0 -82 51.5 -137
t129.5 -55q79 0 130 53t51 134z" />
    <glyph glyph-name="seven.lin" horiz-adv-x="507" 
d="M490 733l-317 -733h-59l300 683h-389v50h465z" />
    <glyph glyph-name="eight.lin" horiz-adv-x="563" 
d="M504 193q0 -86 -62.5 -144.5t-159.5 -58.5t-159.5 58.5t-62.5 144.5q0 60 34.5 108t92.5 71q-52 24 -82.5 71t-30.5 103q0 85 58.5 141.5t149.5 56.5t149.5 -56t58.5 -141q0 -57 -30.5 -104t-83.5 -71q58 -23 93 -71t35 -108zM434 545q0 66 -42 108.5t-111 42.5
t-110.5 -42.5t-41.5 -108.5q0 -64 42 -107t111 -43q68 0 110 43t42 107zM446 196q0 67 -46.5 111t-118.5 44q-71 0 -117 -44t-46 -111q0 -68 46.5 -112.5t117.5 -44.5q72 0 118 44.5t46 112.5z" />
    <glyph glyph-name="nine.lin" horiz-adv-x="590" 
d="M53 505q0 101 67.5 170t171.5 69q108 0 173 -71t65 -184q0 -140 -97 -274t-304 -243l-28 47q270 137 347 333q-25 -32 -69.5 -52t-96.5 -20q-97 0 -163 63.5t-66 161.5zM110 510q0 -81 50 -131.5t129 -50.5q81 0 130.5 51t49.5 126q0 82 -50 136t-128 54
q-79 0 -130 -52.5t-51 -132.5z" />
    <glyph glyph-name="fraction.lin" horiz-adv-x="678" 
d="M662 721l-608 -733l-37 30l607 733z" />
    <glyph glyph-name="ampersand.cap" horiz-adv-x="729" 
d="M282 413q90 32 134.5 73.5t44.5 99.5q0 45 -30 77t-80 32t-84.5 -38t-34.5 -94q0 -71 50 -150zM471 131q-148 132 -214 226q-140 -58 -140 -170q0 -63 46 -105t119 -42q88 0 189 91zM310 373q60 -84 198 -206q61 63 149 184l42 -29q-97 -130 -153 -188q72 -62 137 -113
l-34 -39q-20 17 -67.5 56t-72.5 61q-118 -109 -228 -109q-95 0 -158.5 54.5t-63.5 142.5q0 141 171 209q-53 88 -53 164q0 78 52.5 130.5t122.5 52.5q76 0 120 -46.5t44 -108.5q0 -73 -52 -124.5t-154 -90.5z" />
    <glyph glyph-name="guillemotleft.cap" horiz-adv-x="402" 
d="M357 207h-58l-105 164l105 163h58l-108 -163zM212 207h-58l-105 164l105 163h58l-108 -163z" />
    <glyph glyph-name="guillemotright.cap" horiz-adv-x="402" 
d="M353 371l-105 -164h-58l108 164l-108 163h58zM208 371l-105 -164h-58l108 164l-108 163h58z" />
    <glyph glyph-name="guilsinglleft.cap" horiz-adv-x="257" 
d="M212 207h-58l-105 164l105 163h58l-108 -163z" />
    <glyph glyph-name="guilsinglright.cap" horiz-adv-x="257" 
d="M208 371l-105 -164h-58l108 164l-108 163h58z" />
    <glyph glyph-name="hyphen.cap" horiz-adv-x="339" 
d="M289 347h-239v49h239v-49z" />
    <glyph glyph-name="endash.cap" horiz-adv-x="500" 
d="M450 347h-400v49h400v-49z" />
    <glyph glyph-name="emdash.cap" horiz-adv-x="750" 
d="M700 347h-650v49h650v-49z" />
    <glyph glyph-name="slash.cap" horiz-adv-x="319" 
d="M305 839l-238 -949h-52l239 949h51z" />
    <glyph glyph-name="backslash.cap" horiz-adv-x="319" 
d="M305 -110h-52l-238 949h51z" />
    <glyph glyph-name="bar.cap" horiz-adv-x="231" 
d="M140 -110h-50v949h50v-949z" />
    <glyph glyph-name="parenleft.cap" horiz-adv-x="333" 
d="M338 -80l-24 -42q-128 78 -196.5 209t-68.5 277t68.5 277t196.5 210l25 -41q-113 -69 -175.5 -189t-62.5 -257t62.5 -256t174.5 -188z" />
    <glyph glyph-name="parenright.cap" horiz-adv-x="333" 
d="M284 364q0 -146 -68.5 -277t-196.5 -209l-25 42q113 69 175.5 188t62.5 256t-62.5 257t-175.5 189l25 41q128 -79 196.5 -210t68.5 -277z" />
    <glyph glyph-name="bracketleft.cap" horiz-adv-x="295" 
d="M271 -110h-191v949h191v-46h-139v-857h139v-46z" />
    <glyph glyph-name="bracketright.cap" horiz-adv-x="295" 
d="M216 -110h-191v46h139v857h-139v46h191v-949z" />
    <glyph glyph-name="braceleft.cap" horiz-adv-x="296" 
d="M278 -117q-168 0 -168 173v214q0 37 -14.5 54.5t-52.5 17.5h-23v47h23q38 0 52.5 17t14.5 55v211q0 174 168 174v-49q-58 0 -86.5 -29t-28.5 -94v-200q0 -47 -13.5 -71t-52.5 -38q39 -14 52.5 -38t13.5 -71v-201q0 -65 28.5 -94t86.5 -29v-49z" />
    <glyph glyph-name="braceright.cap" horiz-adv-x="296" 
d="M276 342h-23q-38 0 -52.5 -17.5t-14.5 -54.5v-214q0 -173 -168 -173v49q59 0 87.5 29t28.5 94v201q0 47 13.5 71t51.5 38q-38 14 -51.5 38t-13.5 71v200q0 65 -28.5 94t-87.5 29v49q168 0 168 -174v-211q0 -38 14.5 -55t52.5 -17h23v-47z" />
    <glyph glyph-name="at.cap" horiz-adv-x="866" 
d="M802 400q0 -119 -72 -180q-38 -32 -91 -32q-33 0 -59 16.5t-38 47.5q-54 -62 -128 -62q-50 0 -83.5 27.5t-33.5 76.5q0 44 34 72t86 28t103 -27v22q0 48 -21.5 70.5t-75.5 22.5q-38 0 -84 -17l-8 45q52 20 101 20q142 0 142 -142v-79q0 -39 19.5 -57.5t48.5 -18.5
q36 0 58 21q50 45 50 141q0 43 -10.5 85t-35 81.5t-60 69.5t-89 48t-118.5 18q-135 0 -227 -96t-92 -236q0 -143 93.5 -235t259.5 -92q70 0 154 28l13 -46q-98 -30 -169 -30q-185 0 -294.5 106.5t-109.5 268.5q0 157 108 268t264 111q89 0 161 -30.5t115 -80.5t66 -110
t23 -123zM520 281v41q-41 30 -95 30q-31 0 -52.5 -16t-21.5 -42q0 -27 21.5 -44t52.5 -17q59 0 95 48z" />
    <glyph glyph-name="registered.alt" horiz-adv-x="842" 
d="M421 -12q-154 0 -262.5 110.5t-108.5 267.5t108.5 268t262.5 111t262.5 -111t108.5 -268t-108.5 -267.5t-262.5 -110.5zM421 31q134 0 228.5 97.5t94.5 237.5q0 141 -94.5 239t-228.5 98t-228 -98t-94 -239q0 -140 94 -237.5t228 -97.5zM317 184v363q42 6 87 6
q71 0 108.5 -30.5t37.5 -81.5q0 -76 -78 -106l100 -151h-54l-88 140q-14 -2 -28 -2q-6 0 -19 0.5t-20 0.5v-139h-46zM363 508v-145q24 -2 38 -2q48 0 74 20.5t26 57.5q0 33 -24 53t-67 20q-27 0 -47 -4z" />
    <glyph glyph-name="dollar.lin" horiz-adv-x="517" 
d="M269 825l48 -5l-6 -76q74 -9 133 -48l-26 -46q-49 34 -111 43l-25 -301q93 -44 135.5 -89t42.5 -115q0 -85 -60.5 -140.5t-150.5 -59.5l-7 -83l-48 4l6 81q-90 10 -174 66l26 47q76 -50 152 -62l26 317q-86 39 -128 84t-42 115q0 75 56.5 129t145.5 59zM405 182
q0 53 -31 88t-97 67l-24 -298q68 4 110 44t42 99zM114 561q0 -50 30.5 -83.5t90.5 -63.5l23 281q-65 -4 -104.5 -42t-39.5 -92z" />
    <glyph glyph-name="sterling.lin" horiz-adv-x="561" 
d="M525 0h-477v51h84v289h-79v13l79 41v111q0 109 57.5 174t169.5 65q84 0 160 -55l-29 -46q-70 48 -137 48q-83 0 -124 -47.5t-41 -134.5v-118h200v-50h-200v-290h337v-51z" />
    <glyph glyph-name="Euro.lin" horiz-adv-x="795" 
d="M131 423h-90v49h98q33 123 134 197.5t234 74.5q123 0 236 -69l-22 -45q-103 64 -218 65q-109 0 -192 -60.5t-114 -162.5h403v-49h-414q-4 -25 -4 -58q0 -34 4 -59h414v-50h-402q32 -100 116 -158t193 -58q111 0 219 66l17 -45q-116 -71 -237 -71q-134 0 -233.5 72
t-133.5 194h-98v50h89q-4 25 -4 58q0 27 5 59z" />
    <glyph glyph-name="yen.lin" horiz-adv-x="652" 
d="M614 733l-233 -365h188v-49h-213v-98h213v-49h-213v-172h-54v172h-214v49h214v98h-214v49h189l-234 365h66l221 -353l220 353h64z" />
    <glyph glyph-name="cent.lin" horiz-adv-x="448" 
d="M198 82l6 78q-74 16 -118.5 73.5t-44.5 135.5q0 88 56.5 150t140.5 69l6 75l47 -4l-6 -72q58 -5 114 -40l-25 -43q-51 29 -93 34l-26 -334h4q59 0 118 36l22 -43q-68 -42 -141 -42h-7l-6 -77zM95 371q0 -60 31 -102.5t82 -57.5l26 328q-62 -8 -100.5 -53.5t-38.5 -114.5z
" />
    <glyph glyph-name="numbersign.lin" horiz-adv-x="710" 
d="M672 476h-143l-49 -221h144l-11 -49h-145l-46 -206h-51l46 206h-193l-47 -206h-52l46 206h-143l10 49h144l49 221h-144l11 48h144l47 209h52l-46 -209h192l48 209h51l-46 -209h143zM283 476l-49 -221h195l49 221h-195z" />
    <glyph glyph-name="paragraph.lin" horiz-adv-x="696" 
d="M610 0h-56v685q-49 7 -129 9h-4v-694h-56v214q-127 -8 -222 59t-95 187q0 128 99 206t267 78q77 0 196 -14v-730zM365 263v429q-124 -10 -191 -70.5t-67 -158.5t76.5 -152.5t181.5 -47.5z" />
    <glyph glyph-name="section.lin" horiz-adv-x="507" 
d="M453 364q0 -43 -28 -75t-72 -48q69 -40 69 -104t-49.5 -105.5t-132.5 -41.5q-98 0 -189 64l29 44q82 -60 164 -60q57 0 89.5 25t32.5 65q0 34 -32 57t-78 37.5t-92 30.5t-78 46t-32 74q0 42 28.5 75t73.5 48q-69 39 -69 102q0 64 49.5 105t128.5 41q95 0 171 -54l-27 -45
q-71 51 -145 51q-55 0 -88 -24t-33 -65q0 -33 32 -56t77.5 -37t91 -30t77.5 -46t32 -74zM398 355q0 17 -8 31t-19 23t-33 18.5t-38.5 15t-47 15.5t-48.5 16q-39 -7 -66.5 -33t-27.5 -60q0 -17 8 -31t19 -23t32.5 -18.5t38.5 -15t47 -15t49 -16.5q39 7 66.5 33t27.5 60z" />
    <glyph glyph-name="degree.lin" horiz-adv-x="363" 
d="M314 613q0 -54 -36.5 -92.5t-95.5 -38.5q-60 0 -96.5 38.5t-36.5 92.5t36.5 92.5t95.5 38.5t96 -38.5t37 -92.5zM268 613q0 39 -24.5 65t-62.5 26q-37 0 -61.5 -26t-24.5 -65t24.5 -65.5t62.5 -26.5q37 0 61.5 26.5t24.5 65.5z" />
    <glyph glyph-name="percent.lin" horiz-adv-x="798" 
d="M363 560q0 -78 -41.5 -131t-113.5 -53q-71 0 -112 53t-41 131t41.5 131t112.5 53q72 0 113 -53t41 -131zM312 560q0 60 -26.5 99t-76.5 39q-48 0 -75.5 -39.5t-27.5 -98.5t27 -99t75 -40q50 0 77 40t27 99zM709 719l-586 -734l-34 29l585 734zM743 174q0 -78 -41.5 -131
t-113.5 -53q-71 0 -112 53t-41 131t41.5 131t112.5 53q72 0 113 -53t41 -131zM692 174q0 60 -27 99.5t-76 39.5q-48 0 -75.5 -40t-27.5 -99t27 -98.5t75 -39.5q50 0 77 39.5t27 98.5z" />
    <glyph glyph-name="perthousand.lin" horiz-adv-x="1154" 
d="M312 560q0 60 -26.5 99t-76.5 39q-48 0 -75.5 -39.5t-27.5 -98.5t27 -99t75 -40q50 0 77 40t27 99zM363 560q0 -78 -41.5 -131t-113.5 -53q-71 0 -112 53t-41 131t41.5 131t112.5 53q72 0 113 -53t41 -131zM709 719l-586 -734l-34 29l585 734zM692 174q0 60 -27 99.5
t-76 39.5q-48 0 -75.5 -40t-27.5 -99t27 -98.5t75 -39.5q50 0 77 39.5t27 98.5zM743 174q0 -78 -41.5 -131t-113.5 -53q-71 0 -112 53t-41 131t41.5 131t112.5 53q72 0 113 -53t41 -131zM1048 174q0 60 -26.5 99.5t-75.5 39.5t-76 -40t-27 -99t26.5 -98.5t75.5 -39.5
t76 39.5t27 98.5zM1099 174q0 -78 -41 -131t-113 -53t-112.5 53t-40.5 131t41 131t113 53t112.5 -53t40.5 -131z" />
    <glyph glyph-name="quotedbl.cap" horiz-adv-x="345" 
d="M197 721l-116 -168l-31 20l92 182zM330 710l-117 -168l-32 20l93 183z" />
    <glyph glyph-name="quotesingle.cap" horiz-adv-x="223" 
d="M197 721l-116 -168l-31 20l92 182z" />
    <glyph glyph-name="plus.lin" horiz-adv-x="460" 
d="M400 347h-144v-151h-52v151h-144v49h144v151h52v-151h144v-49z" />
    <glyph glyph-name="minus.lin" horiz-adv-x="460" 
d="M60 347v49h340v-49h-340z" />
    <glyph glyph-name="divide.lin" horiz-adv-x="460" 
d="M60 347v49h340v-49h-340zM190 515q0 17 11.5 29t28.5 12t28.5 -12t11.5 -29q0 -16 -11.5 -28t-28.5 -12q-16 0 -28 12t-12 28zM190 226q0 17 11.5 29t28.5 12t28.5 -12t11.5 -29q0 -16 -11.5 -28t-28.5 -12q-16 0 -28 12t-12 28z" />
    <glyph glyph-name="equal.lin" horiz-adv-x="403" 
d="M343 417h-283v50h283v-50zM343 276h-283v49h283v-49z" />
    <glyph glyph-name="multiply.lin" horiz-adv-x="450" 
d="M70 492l34 35l121 -121l121 121l34 -35l-121 -121l121 -120l-34 -35l-121 121l-121 -121l-34 35l120 120z" />
    <glyph glyph-name="less.lin" horiz-adv-x="381" 
d="M342 163l-34 -35l-275 243l275 244l34 -37l-234 -208z" />
    <glyph glyph-name="greater.lin" horiz-adv-x="381" 
d="M348 372l-275 -244l-34 37l234 208l-234 207l34 35z" />
    <glyph glyph-name="florin.lin" horiz-adv-x="473" 
d="M463 731l-15 -49q-35 11 -64 11q-71 0 -107.5 -45t-47.5 -144l-10 -87h137l-3 -50h-140l-42 -367h-57l42 366h-72l2 13l76 38l10 87q13 117 67.5 178.5t143.5 61.5q44 0 80 -13z" />
    <glyph glyph-name="arrowleft.cap" horiz-adv-x="711" 
d="M661 347l-534 1l222 -183l-30 -37l-288 239v9l288 239l30 -37l-222 -183l534 1v-49z" />
    <glyph glyph-name="arrowright.cap" horiz-adv-x="711" 
d="M50 396l534 -1l-222 183l31 37l287 -239v-9l-287 -239l-31 37l222 183l-534 -1v49z" />
    <glyph glyph-name="hfjslug" horiz-adv-x="694" 
d="M644 -200h-208l-8 14h-163l-8 -14h-207v303q14 0 23 9.5t9 22.5t-9.5 22.5t-22.5 9.5v554h100l30 79h334l29 -79h101v-921zM400 563v-172h15v78h38v14h-38v66h43v14h-58zM184 563v-172h15v79h47v-79h15v172h-15v-79h-47v79h-15zM460 394q8 -4 21 -4q31 0 31 36v137h-16
v-137q0 -22 -16 -22q-10 0 -20 6v-16zM349 438l-16 31q23 21 23 42q0 12 -7 21.5t-20 9.5q-12 0 -20 -9.5t-8 -21.5q0 -13 14 -39q-23 -18 -23 -45q0 -17 9 -28t22 -11q17 0 27 24h1l12 -24l11 8l-16 30q10 23 13 39l-13 3q-2 -9 -9 -30zM523 323v-46h8v13l7 7l16 -20h9
l-19 26l18 20h-10l-21 -24v24h-8zM488 292l10 -15h9l-12 17q10 3 10 15q0 5 -4.5 9.5t-11.5 4.5h-21v-46h8v15h12zM426 276q11 0 17.5 7t6.5 17q0 9 -7 16.5t-17 7.5t-16.5 -7.5t-6.5 -16.5q0 -10 6.5 -17t16.5 -7zM370 301l-13 22h-9l18 -29v-17h8v17l18 29h-9zM193 323
v-46h33v7h-25v13h22v7h-22v12h25v7h-33zM132 323v-46h8v32l25 -32h7v46h-8v-32l-25 32h-7zM241 323l15 -47h8l10 34h1l11 -34h8l14 47h-8l-10 -35h-1l-10 35h-8l-11 -35h-1l-10 35h-8zM327 479q-12 22 -12 32q0 19 14 19q13 0 13 -19q0 -15 -15 -32zM342 423q-6 -21 -18 -21
q-17 0 -17 27q0 18 15 33zM488 299h-12v17h11q10 0 10 -8q0 -9 -9 -9zM426 283q-15 0 -15 17q0 6 4.5 11.5t10.5 5.5q7 0 11.5 -5.5t4.5 -11.5q0 -7 -4.5 -12t-11.5 -5z" />
    <glyph glyph-name="caron.alt" horiz-adv-x="224" 
d="M115 737l54 -8q0 -114 -90 -184l-25 21q58 61 61 171z" />
    <glyph glyph-name="NUL" horiz-adv-x="0" 
 />
    </font>
</defs>
</svg>
