<svg xmlns="http://www.w3.org/2000/svg">
<defs>
<font id="EdmundsburySansRegular-Regular" horiz-adv-x="1431" >
  <font-face 
    font-family="Edmundsbury Sans Regular"
    font-weight="400"
    font-stretch="normal"
    units-per-em="2048"
    panose-1="2 0 5 9 0 0 0 0 0 0"
    ascent="1638"
    descent="-410"
    x-height="876"
    cap-height="1306"
    bbox="69.9778 -1044 2040 2000.93"
    underline-thickness="0"
    underline-position="0"
    unicode-range="U+0020-201F"
  />
<missing-glyph horiz-adv-x="1482" 
d="M1412 143q-393 -53 -405 80q-3 61 67 143q-176 -93 -164 108q7 112 68 302q-104 -216 -194 -255l56 7l5 -37l-210 -30l18 -124l-36 -5l-23 162l147 21q-38 9 -72 55q-45 -92 -102 -32q-38 42 -126 218q-28 58 -39 77q110 -229 100 -331q-11 -100 -184 -52
q136 -94 111 -142q-27 -56 -262 -9q-27 7 -59 13q332 -98 340 -198q10 -75 -196 -144q241 6 230 -88q-10 -82 -210 -219q-33 -21 -71 -46q89 53 151 81t110 43q52 18 71 3q21 -10 22 -50q3 -36 -25 -106q-26 -68 -81 -172q82 122 124 166q45 46 63 29q22 -17 22 -92
q3 -75 0 -196v-50q2 -16 0 -49q0 -30 -1 -58q9 246 30 349q21 105 81 112q-3 3 -21 13q-15 15 -30 36q-13 26 -17 46q0 22 4 49q5 25 19 42q15 20 36 32q25 15 50 17q33 4 53 -2q28 -8 43 -21q21 -15 31 -36q12 -18 16 -45q4 -24 -2 -50q-4 -22 -20 -42q-10 -18 -37 -32
q-21 -13 -49 -17q-1 2 -5 0q-1 -1 -5 -1q8 -2 40 -19q-14 -11 -22 -33q-4 -18 -7 -55q-2 -37 -5 -47q-2 -10 -12 -16q-8 -4 -18 -5q-30 3 -38 49q-4 46 14 83l-37 13q-21 -46 -15 -101q4 -25 20 -53q12 -14 23 -21q17 -7 31 -10q29 -3 46 12q21 15 24 40q7 22 6 53
q3 34 6 45q4 10 12 13q8 4 15 3q6 -1 15 -9q12 -10 15 -32q4 -19 -1 -41q-4 -17 -14 -35l34 -14q26 46 17 98q-4 36 -26 54q-17 18 -43 18q9 44 25 66q18 24 39 27q26 7 53 -5q31 -8 64 -30q35 -19 73 -48q40 -26 82 -59q18 -10 25 -19q11 -6 23 -17q16 -10 26 -19
q-165 122 -245 224q-109 142 49 144q26 0 51 -2q-307 174 233 275zM1203 -620l-161 184l128 -208zM1197 606l-28 23l-228 -259zM918 -14q2 -26 -8 -47q-10 -33 -38 -51q-10 -7 -16 -9l-6 39l5 5l11 11q21 26 13 64q-3 39 -30 57q-26 22 -70 15q-39 -4 -61 -33

<glyph glyph-name=".notdef" horiz-adv-x="1482" 
d="M1412 143q-393 -53 -405 80q-3 61 67 143q-176 -93 -164 108q7 112 68 302q-104 -216 -194 -255l56 7l5 -37l-210 -30l18 -124l-36 -5l-23 162l147 21q-38 9 -72 55q-45 -92 -102 -32q-38 42 -126 218q-28 58 -39 77q110 -229 100 -331q-11 -100 -184 -52
q136 -94 111 -142q-27 -56 -262 -9q-27 7 -59 13q332 -98 340 -198q10 -75 -196 -144q241 6 230 -88q-10 -82 -210 -219q-33 -21 -71 -46q89 53 151 81t110 43q52 18 71 3q21 -10 22 -50q3 -36 -25 -106q-26 -68 -81 -172q82 122 124 166q45 46 63 29q22 -17 22 -92
q3 -75 0 -196v-50q2 -16 0 -49q0 -30 -1 -58q9 246 30 349q21 105 81 112q-3 3 -21 13q-15 15 -30 36q-13 26 -17 46q0 22 4 49q5 25 19 42q15 20 36 32q25 15 50 17q33 4 53 -2q28 -8 43 -21q21 -15 31 -36q12 -18 16 -45q4 -24 -2 -50q-4 -22 -20 -42q-10 -18 -37 -32
q-21 -13 -49 -17q-1 2 -5 0q-1 -1 -5 -1q8 -2 40 -19q-14 -11 -22 -33q-4 -18 -7 -55q-2 -37 -5 -47q-2 -10 -12 -16q-8 -4 -18 -5q-30 3 -38 49q-4 46 14 83l-37 13q-21 -46 -15 -101q4 -25 20 -53q12 -14 23 -21q17 -7 31 -10q29 -3 46 12q21 15 24 40q7 22 6 53
q3 34 6 45q4 10 12 13q8 4 15 3q6 -1 15 -9q12 -10 15 -32q4 -19 -1 -41q-4 -17 -14 -35l34 -14q26 46 17 98q-4 36 -26 54q-17 18 -43 18q9 44 25 66q18 24 39 27q26 7 53 -5q31 -8 64 -30q35 -19 73 -48q40 -26 82 -59q18 -10 25 -19q11 -6 23 -17q16 -10 26 -19
q-165 122 -245 224q-109 142 49 144q26 0 51 -2q-307 174 233 275zM1203 -620l-161 184l128 -208zM1197 606l-28 23l-228 -259zM918 -14q2 -26 -8 -47q-10 -33 -38 -51q-10 -7 -16 -9l-6 39l5 5l11 11q21 26 13 64q-3 39 -30 57q-26 22 -70 15q-39 -4 -61 -33
q-18 -26 -14 -65q6 -34 31 -56q15 -9 19 -12l19 2l-8 63l35 5l13 -101l-129 -18l-4 37l24 4q-30 28 -38 72q-3 23 3 48q9 26 19 43q15 21 36 32q25 15 50 17q32 6 53 -2q25 -8 43 -22q22 -16 32 -35q12 -19 15 -45q3 -6 1 -18zM915 -262q1 10 -1 14q-4 39 -30 57
q-24 22 -70 15q-40 -6 -61 -33q-18 -26 -15 -65q7 -36 32 -56q28 -20 68 -16q44 8 62 34q15 20 15 50zM882 239q0 -15 -3 -30q-3 -25 -19 -43q-10 -16 -36 -32q-26 -15 -51 -18q-27 -3 -53 3q-26 7 -44 21q-18 16 -30 35q-12 21 -16 47q-3 23 3 48q9 26 19 43q15 22 36 33
q25 14 50 16q32 6 53 -2q25 -8 43 -22q22 -16 32 -34q12 -20 15 -47q3 -3 1 -18zM844 239v13q-3 40 -31 58q-25 22 -70 14q-39 -4 -61 -34q-18 -24 -14 -63q6 -35 31 -57q27 -21 68 -15q45 7 63 33q14 20 14 51zM827 613q2 10 -1 13l-12 89l-246 -33l6 -40l89 13l7 -50
q6 -33 31 -55q27 -18 59 -16q36 7 53 30q15 20 14 49zM813 720l-6 50l-106 65l83 93l-7 50l-108 -120l-138 85l7 -50l106 -65l-83 -92l7 -51l108 120zM790 613q0 -15 -7 -25q-9 -14 -28 -17q-17 -1 -31 9q-13 10 -17 32l-7 48l83 12l6 -49v-5q1 -3 1 -5zM777 982l-23 160
l-246 -34l23 -161l36 5l-18 123l72 10l15 -109l35 4l-15 111l68 9l17 -123zM621 -186q2 -18 -13 -36q-11 -12 -40 -13h-68v12h69q20 3 30 11q11 10 10 28q1 14 -5 22q-6 16 -17 19q-10 -2 -20 -2h-67v12h68q42 0 41 39q1 26 -19 38h-90v13h116v-11l-12 -2q18 -17 17 -39
q2 -28 -24 -43q15 -11 18 -22q8 -10 6 -26zM621 168q1 -14 -9 -31q-7 -15 -21 -22v13q17 14 17 40q0 20 -14 35q-10 15 -37 14q-25 1 -37 -14t-13 -35q0 -26 18 -40v-13q-15 7 -22 22q-8 17 -8 31q0 26 18 43q18 18 44 18q29 0 46 -18q18 -17 18 -43zM557 -24q-26 0 -44 18
t-18 43t18 43t44 18q29 0 46 -18q18 -18 18 -43t-18 -43q-17 -18 -46 -18zM594 72q-10 14 -37 14q-25 0 -37 -14t-13 -35q1 -17 13 -35q14 -14 37 -14q27 0 37 14q14 18 14 35q0 21 -14 35zM527 256v-12h-27v12h27zM381 -114l-311 -78l14 -42zM338 324l-190 146l-24 -30z
" />
    <glyph glyph-name=".null" horiz-adv-x="140" 
 />
    <glyph glyph-name="nonmarkingreturn" horiz-adv-x="140" 
 />
    <glyph glyph-name="space" unicode=" " horiz-adv-x="500" 
 />
    <glyph glyph-name="exclam" unicode="!" horiz-adv-x="380" 
d="M75 1220q0 -31 8 -89q9 -57 28 -265q22 -208 41 -553h76q18 269 33 458q16 191 24 260q11 70 14 115q7 46 6 74q1 52 -32 85q-33 37 -83 35q-47 2 -82 -35q-33 -33 -33 -85zM275 164q-34 36 -85 36q-47 2 -84 -35q-36 -35 -36 -85q0 -47 35 -84q39 -36 85 -36q50 0 84 35
q36 37 36 85q0 51 -35 84z" />
    <glyph glyph-name="quotedbl" unicode="&#x22;" horiz-adv-x="687" 
d="M70 1283q0 -16 13 -63q15 -46 33 -119q20 -71 28 -133h71q11 62 29 133q22 73 32 119q16 47 14 63q2 52 -30 85q-31 36 -80 35q-46 1 -79 -35q-31 -33 -31 -85zM398 1283q2 -16 13 -63q15 -46 32 -119q20 -71 29 -133h71q11 62 29 133q20 73 32 119q14 47 13 63
q1 52 -31 85q-30 36 -79 35q-45 1 -78 -35q-31 -33 -31 -85z" />
    <glyph glyph-name="numbersign" unicode="#" horiz-adv-x="990" 
d="M381 1209l-69 -385h-242v-101h226l-44 -240h-182v-100h164l-67 -386h101l68 386h239l-67 -386h101l68 386h243v100h-226l43 240h183v101h-165l67 385h-100l-69 -385h-239l68 385h-101zM396 723h240l-43 -240h-240z" />
    <glyph glyph-name="dollar" unicode="$" horiz-adv-x="1071" 
d="M482 1446v-250q-206 -10 -315 -128q-39 -44 -63 -113q-22 -65 -7 -148q17 -79 81 -140q54 -45 125 -77q74 -28 179 -59v-494q-84 7 -160 43q-73 38 -102 89q-28 55 18 113q35 42 13 85q-21 46 -79 46q-54 3 -79 -36q-24 -36 -22 -98q3 -69 42 -130q43 -58 105 -98
q65 -35 132 -61q70 -20 132 -27v-252h65v249q352 4 432 265q28 99 10 180q-18 83 -72 134q-43 43 -99 67q-54 26 -155 56q-21 11 -68 22q-45 15 -48 13v434q57 -1 115 -21q62 -18 101 -51q43 -32 50 -73q11 -40 -32 -87q-33 -39 -8 -82q29 -43 75 -46t74 28q32 33 29 85
q-1 69 -40 129q-36 61 -96 98q-57 39 -128 61q-69 24 -138 25h-2v249h-65zM482 1130v-413q-148 47 -205 93q-44 38 -52 98q-4 62 31 113q71 99 226 109zM547 515q8 -3 18 -6q13 -2 20 -5q167 -47 214 -112q45 -57 37 -129q-3 -73 -48 -130q-39 -51 -99 -74q-55 -21 -142 -24
v480z" />
    <glyph glyph-name="percent" unicode="%" horiz-adv-x="1477" 
d="M597 1242q-90 98 -219 98q-128 0 -218 -98t-90 -238q0 -138 90 -237q90 -97 218 -99q129 2 219 99q90 99 90 237q0 140 -90 238zM1229 1303l-1094 -1306h113l1094 1306h-113zM359 1291q79 3 136 -73q57 -74 72 -187q18 -118 -24 -210q-41 -91 -124 -104q-82 -11 -146 64
q-65 79 -83 197q-18 122 22 209q39 91 126 103q7 2 21 1zM1317 534q-90 98 -219 98q-128 0 -218 -98t-90 -238q0 -138 90 -237q90 -97 218 -99q129 2 219 99q90 99 90 237q0 140 -90 238zM1079 584q79 2 136 -73t72 -188q18 -118 -24 -210q-41 -90 -124 -102
q-82 -11 -146 63q-65 78 -83 196q-18 122 22 209q39 91 126 103q14 4 21 2z" />
    <glyph glyph-name="ampersand" unicode="&#x26;" horiz-adv-x="1722" 
d="M1383 1315q151 -3 220 -93q49 -60 48 -141q0 -80 -51 -149q-42 -58 -127 -103q-85 -43 -186 -68q-61 -15 -125 -29q206 -132 209 -308q4 -142 -93 -256q-95 -112 -271 -168q-175 -55 -389 -30q-270 32 -415 190q-143 159 -113 355q11 70 46 127q34 56 75 92q43 36 96 63
q56 27 95 39q42 14 83 22q-101 54 -151 138q-48 86 -12 186q27 75 96 114q70 40 153 46q110 8 215 -42q86 -40 119 -98q36 -57 12 -120q-27 -78 -122 -62q-44 8 -65 40q-22 32 -7 75q1 5 7 22q7 17 8 25q3 8 6 22q4 16 3 24q-1 10 -4 20q-2 12 -10 20q-8 10 -18 17
q-27 18 -70 15t-84 -27q-65 -36 -96 -102q-15 -29 -20 -72q-3 -41 16 -101q21 -60 73 -103q12 -9 22 -13t17 -4h24q17 2 31 2q20 0 32 -9q14 -9 12 -21q0 -12 -14 -21q-14 -8 -35 -6q-15 1 -30 4q-14 3 -19 3q-4 2 -24 0q-39 -5 -84 -20q-43 -14 -96 -44q-53 -28 -93 -82
q-39 -52 -54 -121t5 -138t71 -133t146 -111q97 -45 222 -63q165 -21 309 12q144 34 231 116q88 84 88 196q1 63 -38 124q-39 62 -83 95q-44 35 -89 59q-44 -9 -152 -43q-141 -43 -196 -100q-61 -62 -64 -137q-1 -74 47 -118q26 -22 64 -34q40 -10 84 -1q34 7 42 27
q12 21 5 57q-6 37 -4 51q9 45 37 70q30 26 72 19q44 -5 70 -30q26 -26 25 -65q1 -64 -53 -109q-52 -43 -147 -57q-83 -12 -165 8q-81 24 -127 80q-47 61 -47 140q2 81 51 150q81 116 286 168q47 12 189 42q144 32 227 56q105 30 160 88q61 63 63 138q4 74 -47 118
q-23 24 -62 34t-84 1q-33 -7 -42 -26q-9 -20 -5 -58q6 -36 2 -51q-7 -44 -36 -70q-28 -23 -72 -19q-94 12 -95 93q1 66 53 110q54 44 148 58q31 6 71 5z" />
    <glyph glyph-name="quotesingle" unicode="'" horiz-adv-x="389" 
d="M188 977q34 53 86 170q28 63 38 104q12 51 -13 89q-21 44 -67 54q-21 8 -39 6q-39 0 -74 -26q-33 -26 -42 -71q-10 -52 20 -90q32 -37 85 -41q-16 -61 -80 -195h86z" />
    <glyph glyph-name="parenleft" unicode="(" horiz-adv-x="802" 
d="M732 -345q-88 1 -180 34q-90 33 -177 104q-86 73 -154 172q-65 100 -109 242q-42 146 -42 311q1 168 41 310q43 144 109 243q68 101 155 171q87 73 177 105q92 34 180 34v-60q-91 -17 -174 -79q-80 -62 -146 -159q-64 -97 -104 -244q-38 -144 -39 -321q1 -172 39 -320
q39 -144 103 -244q68 -98 147 -159q83 -62 174 -80v-60z" />
    <glyph glyph-name="parenright" unicode=")" horiz-adv-x="803" 
d="M70 -345q90 1 180 34q92 33 178 104q87 73 153 172q69 100 109 242q43 146 42 311q3 168 -40 310q-40 144 -110 243q-68 101 -154 171q-86 73 -178 105q-90 34 -180 34v-60q94 -17 174 -79q82 -62 146 -159q66 -97 105 -244q39 -144 38 -321q1 -172 -38 -320
q-37 -144 -103 -244q-65 -98 -148 -159q-80 -62 -174 -80v-60z" />
    <glyph glyph-name="asterisk" unicode="*" horiz-adv-x="838" 
d="M368 1289q0 -9 6 -38q6 -27 13 -84q9 -57 9 -136v-45l-39 23q-69 43 -114 76q-45 36 -66 54q-19 21 -29 24q-16 11 -37 4q-21 -3 -32 -24t-5 -40q8 -19 23 -29q9 -3 35 -13q26 -7 79 -30q54 -22 123 -62q34 -19 40 -22l-40 -22q-68 -36 -122 -60q-54 -21 -80 -31
q-26 -8 -35 -13q-15 -9 -23 -29q-6 -19 5 -41q11 -18 32 -24q21 -3 37 5q10 6 29 24q21 20 66 53q45 37 114 76q13 8 23 14q12 7 16 9v-45q0 -79 -9 -136q-7 -56 -13 -84q-6 -27 -6 -37q0 -18 13 -36q16 -16 37 -16q24 0 36 16q15 18 15 36q1 10 -6 36q-5 28 -13 84
q-8 57 -9 137v45q6 0 16 -8q13 -8 23 -15q69 -39 114 -75q47 -34 66 -54q20 -18 28 -24q16 -8 38 -5q22 6 32 24q12 22 5 41q-4 20 -23 29q-8 5 -35 13q-25 9 -79 30q-54 26 -124 61l-39 22q7 3 39 22q70 39 123 60q55 25 80 32q27 10 35 13q19 10 23 29q7 19 -5 40
q-10 21 -32 24q-22 7 -38 -4q-8 -3 -28 -24q-19 -17 -66 -53q-45 -33 -114 -77l-39 -23v46q1 80 9 135q8 57 13 84q7 29 6 38q1 21 -13 36q-12 17 -38 15q-21 2 -36 -15q-14 -15 -14 -36z" />
    <glyph glyph-name="plus" unicode="+" horiz-adv-x="846" 
d="M372 788v-302h-302v-101h302v-302h101v302h303v101h-303v302h-101z" />
    <glyph glyph-name="comma" unicode="," horiz-adv-x="388" 
d="M77 106q11 56 56 81q47 27 99 10q45 -12 66 -54q24 -40 14 -89q-6 -43 -38 -104q-25 -47 -60 -99h-106q42 57 74 124q-53 4 -85 41q-30 38 -20 90z" />
    <glyph glyph-name="hyphen" unicode="-" horiz-adv-x="846" 
d="M70 486h706v-101h-706v101z" />
    <glyph glyph-name="period" unicode="." horiz-adv-x="380" 
d="M275 -1q-35 -36 -85 -36q-48 -1 -84 35t-36 85t35 84q37 36 85 36q50 1 84 -35q36 -35 36 -85q0 -48 -35 -84z" />
    <glyph glyph-name="slash" unicode="/" horiz-adv-x="814" 
d="M744 1388l-583 -1602h-91l583 1602h91z" />
    <glyph glyph-name="zero" unicode="0" horiz-adv-x="1088" 
d="M880 845q-138 153 -336 152q-195 1 -335 -151q-139 -152 -139 -366q0 -212 138 -365q140 -152 336 -152q198 -1 335 151q140 153 139 366q0 214 -138 365zM833 520q25 -182 -38 -323q-63 -139 -189 -157t-225 98q-99 118 -126 301q-29 187 32 323t195 157q133 21 230 -96
q100 -116 121 -303z" />
    <glyph glyph-name="one" unicode="1" horiz-adv-x="471" 
d="M273 1009q3 -51 -59 -86q-62 -34 -144 -40v-48h155v-835h176v1009h-128z" />
    <glyph glyph-name="two" unicode="2" horiz-adv-x="1009" 
d="M467 1019q-99 0 -200 -51q-100 -48 -151 -146h193q13 37 51 66q40 30 84 38q66 10 118 0t84 -39t50 -63q20 -33 27 -72q21 -108 -41 -182q-62 -72 -226 -155q-22 -10 -66 -31q-43 -20 -68 -32q-26 -11 -64 -33q-38 -21 -61 -37q-21 -14 -49 -38q-26 -22 -42 -44
q-15 -20 -25 -48q-11 -28 -11 -56v-96h869v149h-742q3 17 29 38q27 21 78 46t94 42t112 44q72 29 99 40q151 62 230 141q51 50 69 125q20 75 -8 162q-82 235 -433 232z" />
    <glyph glyph-name="three" unicode="3" horiz-adv-x="1083" 
d="M518 1018q-249 -8 -381 -196h191q27 60 86 88q61 28 138 20q92 -8 146 -68q54 -58 63 -129q7 -19 4 -47q-2 -28 -9 -56q-5 -28 -28 -60q-22 -32 -56 -60q-32 -27 -93 -53q-59 -25 -138 -42q-3 0 -13 -2q-8 -1 -16 -3q-5 0 -12 -2q-6 -1 -8 -6q-2 -3 -3 -11q-1 -5 1 -9
l8 -6q6 -2 8 -4q6 0 16 -2q10 0 18 -3q80 -13 142 -38q64 -25 104 -54q42 -29 68 -66q28 -35 40 -69q15 -32 18 -68q6 -36 4 -61q0 -25 -6 -49q-8 -46 -26 -86q-18 -37 -50 -74q-32 -36 -87 -58q-55 -21 -127 -21q-77 0 -156 38q-80 39 -113 106h-181q20 -46 89 -109
q69 -62 152 -93q82 -29 190 -32q109 -3 179 18q140 39 232 129q94 92 99 234q4 86 -31 156q-35 72 -93 116q-55 44 -116 70q-59 28 -120 39q59 17 115 47q56 32 102 75q46 46 68 109q22 64 6 134q-16 74 -61 127q-45 54 -108 81q-62 29 -126 40q-63 12 -129 10z" />
    <glyph glyph-name="four" unicode="4" horiz-adv-x="1150" 
d="M716 1019l-646 -875v-110h607v-256v-146h178v146v256h56h169v110h-169h-56v875h-139zM677 817v-673h-498z" />
    <glyph glyph-name="five" unicode="5" horiz-adv-x="1099" 
d="M219 1019l-78 -672l91 -40q92 87 188 114q98 29 180 13q68 -10 118 -42q52 -30 79 -72q28 -39 46 -90q19 -50 18 -100q1 -51 -7 -102q-22 -134 -112 -220q-90 -84 -221 -84q-79 1 -157 38q-80 40 -112 105h-182q20 -46 89 -109q69 -62 152 -93q85 -29 189 -32
q105 -3 189 20q145 39 235 160q92 121 100 272q7 104 -22 184q-26 82 -72 128q-45 47 -108 77q-62 32 -117 42q-55 11 -111 12q-100 2 -194 -30q-92 -32 -156 -78l52 434h627v165h-704z" />
    <glyph glyph-name="six" unicode="6" horiz-adv-x="1254" 
d="M792 1348q-144 10 -266 -39q-225 -87 -347 -312q-121 -225 -85 -523q28 -237 169 -366q142 -128 361 -144q208 -14 368 107q162 123 182 306q16 123 -38 235q-53 114 -162 185q-108 74 -243 77q-89 2 -171 -20q-80 -21 -136 -57q-54 -36 -89 -66q-33 -29 -54 -58
q7 115 39 214t81 167q51 69 108 114q57 46 121 68q55 20 128 20q74 2 130 -19l59 83q-75 24 -155 28zM665 790q93 -4 168 -63q75 -57 112 -138q39 -80 39 -164q4 -139 -80 -258q-84 -117 -232 -132q-34 -1 -50 -1q-86 8 -158 57q-72 51 -113 123q-40 72 -59 154
q-18 82 -8 161q30 105 134 184q104 81 238 77h9z" />
    <glyph glyph-name="seven" unicode="7" horiz-adv-x="1093" 
d="M71 1019l-1 -163h827l-630 -1224h109l647 1270v117h-952z" />
    <glyph glyph-name="eight" unicode="8" horiz-adv-x="1202" 
d="M604 1349q-234 0 -372 -117q-61 -50 -90 -127q-29 -76 -15 -161q17 -82 81 -147q65 -63 177 -114q-33 -9 -63 -24q-28 -12 -78 -42q-48 -29 -84 -63q-36 -32 -62 -85q-26 -51 -28 -111q-1 -98 43 -178q47 -78 122 -124q77 -44 166 -69q92 -24 190 -24q127 -1 226 26
q99 29 186 101q69 61 102 142q33 82 13 176q-20 96 -97 172q-39 39 -87 67q-46 29 -137 68q21 10 39 19q19 10 60 36q44 28 72 57q30 28 57 73q28 46 36 95q16 89 -25 161q-40 72 -114 111q-72 41 -155 61q-82 21 -163 21zM595 1268q163 -5 242 -91q80 -84 53 -212
q-10 -57 -65 -121q-52 -64 -114 -98q-297 93 -377 180q-74 84 -39 179q36 97 150 138q75 28 150 25zM484 649q223 -75 291 -111q77 -40 118 -86q56 -59 58 -132q5 -72 -38 -133q-41 -60 -125 -99q-82 -40 -187 -38q-188 6 -280 105q-89 100 -68 234q11 67 73 138t158 122z
" />
    <glyph glyph-name="nine" unicode="9" horiz-adv-x="1254" 
d="M462 -367q144 -7 266 39q226 88 347 312q122 226 85 524q-28 239 -169 366q-141 129 -361 144q-206 16 -367 -107q-161 -120 -183 -306q-15 -122 39 -235q54 -111 162 -185q109 -73 242 -77q91 -2 172 19t135 58q56 37 89 66q34 30 54 57q-13 -223 -114 -369
q-100 -147 -235 -195q-54 -18 -127 -20q-73 0 -131 19l-59 -81q83 -24 155 -29zM589 192q-93 6 -168 62q-73 58 -111 138q-38 82 -40 165q-2 139 80 257q84 119 232 132q36 3 50 1q88 -7 159 -58q73 -50 113 -121q41 -72 58 -155q18 -81 9 -161q-29 -102 -135 -183
q-104 -80 -237 -77h-10z" />
    <glyph glyph-name="colon" unicode=":" horiz-adv-x="380" 
d="M275 863q-34 36 -85 36q-47 1 -84 -35q-36 -35 -36 -85q0 -47 35 -84q39 -36 85 -36q50 -1 84 34q36 37 36 86q0 51 -35 84zM275 176q-34 36 -85 36q-47 2 -84 -35q-36 -35 -36 -85q0 -47 35 -84q39 -36 85 -36q50 0 84 35q36 37 36 85q0 51 -35 84z" />
    <glyph glyph-name="semicolon" unicode=";" horiz-adv-x="389" 
d="M280 863q-36 36 -86 36q-47 1 -84 -35q-36 -35 -36 -85q0 -47 35 -84q37 -36 85 -36q50 -1 84 34q36 37 36 86q2 51 -34 84zM193 212q-39 0 -74 -26q-33 -26 -42 -71q-10 -52 20 -90q32 -37 85 -41q-16 -61 -80 -195h86q34 53 86 170q28 63 38 104q12 51 -13 89
q-21 44 -67 54q-21 8 -39 6z" />
    <glyph glyph-name="equal" unicode="=" horiz-adv-x="990" 
d="M70 656v-101h850v101h-850zM70 315v-100h850v100h-850z" />
    <glyph glyph-name="question" unicode="?" horiz-adv-x="928" 
d="M409 1340q-165 0 -267 -98q-62 -60 -70 -133q-4 -72 53 -116q19 -11 41 -15q12 -2 19 -3q26 1 44 11q3 4 12 7v0q44 34 42 81q3 26 -15 47q-14 21 -30 31q-12 10 -21 24q-8 16 7 26q70 75 189 65q75 -2 127 -38q54 -33 78 -87q26 -50 35 -101q11 -47 9 -102
q2 -65 -19 -129q-17 -62 -78 -123q-57 -57 -149 -79q-36 -8 -117 -11v-39v-101v-144h87v210q101 3 184 30q84 29 136 73q52 46 86 101q36 58 50 107q16 52 16 97q0 74 -28 144q-26 72 -80 132q-52 61 -142 96q-88 39 -199 37zM427 164q-34 36 -85 36q-47 2 -84 -35
q-33 -35 -35 -85q2 -47 35 -84q37 -36 84 -36q50 0 84 35q36 37 36 85q0 51 -35 84z" />
    <glyph glyph-name="at" unicode="@" horiz-adv-x="1601" 
d="M870 1220q-198 2 -385 -103q-169 -97 -291 -282q-104 -181 -118 -400q-9 -213 81 -397q92 -182 264 -284q169 -101 377 -102q204 1 380 84q170 84 274 234l-70 52q-90 -133 -238 -202q-148 -66 -332 -70q-172 0 -310 86q-142 93 -215 248q-80 162 -72 351q13 197 103 352
q94 159 238 246q154 91 327 89q159 2 293 -78q156 -83 221 -256q57 -137 24 -310q-16 -104 -58 -181q-51 -100 -120 -157q-21 -18 -55 -20q-27 -4 -54 24q-33 42 -7 160l129 566h-141l-60 -118q-16 38 -67 74q-47 44 -112 46q-160 18 -296 -107q-144 -129 -189 -336
q-38 -190 36 -324q38 -57 102 -95q72 -33 159 -25q116 16 226 99q35 -62 96 -88q66 -22 128 -12q74 16 130 52q186 116 240 430q34 184 -27 350q-75 212 -281 319q-153 87 -330 85zM866 786q51 0 81 -35q37 -31 49 -75q18 -40 19 -86l-63 -316q-96 -182 -222 -196
q-90 -8 -136 90q-46 100 -13 265q35 173 115 264q82 94 170 89z" />
    <glyph glyph-name="A" unicode="A" 
d="M672 1306l-602 -1306h149l219 494h524l205 -494h194l-565 1306h-124zM699 1086l224 -505h-447z" />
    <glyph glyph-name="B" unicode="B" horiz-adv-x="1068" 
d="M70 1306v-1306h440q84 0 135 7q99 15 171 52q74 39 112 90q38 53 54 107q18 54 12 109q-8 115 -90 207q-81 93 -233 126q113 39 173 111q61 73 66 167q6 62 -16 117q-20 57 -70 106q-50 51 -144 78q-94 29 -225 29h-385zM246 1218h204q72 0 112 -14q77 -25 114 -88
q38 -62 38 -142q0 -70 -38 -132q-39 -62 -113 -90q-55 -21 -119 -21h-198v487zM246 646h258q127 0 210 -90q84 -90 84 -190q0 -78 -46 -155q-47 -76 -130 -107q-26 -8 -59 -13q-33 -3 -54 -5q-20 0 -65 -1q-44 1 -54 1h-144v560z" />
    <glyph glyph-name="C" unicode="C" 
d="M774 1343q-252 -3 -439 -139q-188 -137 -245 -382q-20 -92 -20 -167q-1 -149 60 -276q62 -127 162 -211q102 -83 224 -136q124 -50 257 -64q176 -18 329 19q154 39 259 103l-50 66q-63 -46 -192 -79q-127 -33 -243 -23q-227 21 -385 162q-156 142 -195 384q-20 134 1 251
q23 118 77 200q56 83 132 136q78 53 165 67q131 22 245 -20q116 -42 179 -132h215q-86 106 -233 174q-147 69 -303 67z" />
    <glyph glyph-name="D" unicode="D" horiz-adv-x="1322" 
d="M70 1306v-1306h433q9 0 42 1q33 3 47 4q16 1 44 3q30 2 48 5t41 7q25 6 42 11q249 79 377 301q129 226 66 476q-44 174 -169 300q-125 128 -294 175q-75 21 -244 21zM246 1218h228q192 1 257 -31q117 -53 195 -184q80 -130 90 -296q16 -194 -66 -355q-81 -160 -222 -228
q-76 -37 -254 -38h-228v1132z" />
    <glyph glyph-name="E" unicode="E" horiz-adv-x="1093" 
d="M70 1306v-1306h953v134l-777 -14v529l526 -5v135l-526 -5v410l706 -14v136h-882z" />
    <glyph glyph-name="F" unicode="F" horiz-adv-x="1021" 
d="M70 1306v-1306h176v649l526 -5v135l-526 -15v416l705 -10v136h-881z" />
    <glyph glyph-name="G" unicode="G" horiz-adv-x="1383" 
d="M773 1343q-195 1 -355 -84q-158 -84 -253 -243q-94 -158 -95 -361q-1 -149 60 -276q62 -127 162 -211q102 -83 224 -136q124 -50 257 -64q298 -28 540 94v354v146h-177v-146v-334q-142 -36 -260 -28q-227 20 -382 161q-154 142 -197 385q-27 162 12 305q41 143 135 235
q98 93 226 114q131 22 246 -20q116 -43 179 -132h215q-98 115 -240 177q-142 64 -297 64z" />
    <glyph glyph-name="H" unicode="H" horiz-adv-x="1134" 
d="M70 1306v-1306h178v668h638v-668h178v1306h-178v-551h-638v551h-178z" />
    <glyph glyph-name="I" unicode="I" horiz-adv-x="318" 
d="M70 1306v-1306h178v1306h-178z" />
    <glyph glyph-name="J" unicode="J" horiz-adv-x="577" 
d="M329 1306q7 -882 -1 -1491q0 -62 -22 -108q-20 -45 -52 -68q-32 -21 -65 -30t-61 -3q-36 9 -58 36v-88q44 -12 91 -10q51 4 97 12q48 8 93 36q46 28 80 67q35 39 55 102q21 63 21 143l-1 1402h-177z" />
    <glyph glyph-name="K" unicode="K" horiz-adv-x="1119" 
d="M70 1306v-1306h178v623q12 1 21 1q9 1 17 0q7 -1 14 -5q9 -3 12 -5t11 -10q9 -8 11 -11q3 -3 12 -15q10 -11 13 -15l475 -563h215l-636 695l535 554l54 57h-141q-393 -423 -498 -539q-27 -28 -51 -43q-20 -13 -64 -14v596h-178z" />
    <glyph glyph-name="L" unicode="L" horiz-adv-x="1071" 
d="M70 1306v-1306h931v134l-755 -14v1186h-176z" />
    <glyph glyph-name="M" unicode="M" horiz-adv-x="1494" 
d="M75 1306l-5 -1306h139l-19 1117l478 -1093h96l482 1093v-1117h178v1159v147h-189l-470 -1065l-469 1065h-221z" />
    <glyph glyph-name="N" unicode="N" horiz-adv-x="1222" 
d="M80 1306l-10 -1306h139l-9 1130l832 -1130h111l9 1306h-139l10 -1028l-750 1028h-193z" />
    <glyph glyph-name="O" unicode="O" horiz-adv-x="1551" 
d="M1050 1288q-130 56 -274 55q-144 1 -275 -54q-129 -55 -225 -148q-93 -91 -150 -219q-56 -128 -56 -269q0 -140 55 -268q57 -128 150 -221q97 -91 226 -146q131 -54 275 -55q144 0 274 54q132 55 225 147q95 92 150 220q57 128 56 269q1 140 -55 267q-55 129 -150 221
q-94 93 -226 147zM722 1256q122 0 236 -72q116 -70 197 -195q83 -126 109 -279q30 -162 -13 -309t-142 -240t-230 -109q-130 -16 -257 50q-126 69 -216 198q-90 132 -119 294q-45 248 71 442t314 218q18 2 50 2z" />
    <glyph glyph-name="P" unicode="P" horiz-adv-x="968" 
d="M70 1306v-1306h176q0 405 -1 575h174q127 0 225 36q99 35 151 92q53 57 78 118q25 62 25 119q1 46 -14 93q-14 49 -52 97q-36 50 -91 88q-53 38 -138 62q-84 26 -189 26h-344zM246 1218h207q63 0 114 -26t79 -69q28 -44 43 -90q15 -47 15 -95q0 -47 -14 -94
q-14 -46 -42 -89q-26 -42 -76 -69q-49 -26 -114 -26h-212v558z" />
    <glyph glyph-name="Q" unicode="Q" horiz-adv-x="1714" 
d="M776 1343q-144 1 -275 -54q-129 -55 -225 -148q-93 -91 -150 -219q-56 -128 -56 -269q0 -133 50 -256q50 -122 137 -213q89 -90 207 -149q120 -59 254 -70q-108 -20 -224 -74l20 -48q74 27 143 36q69 11 116 8q51 -2 106 -18q57 -15 89 -29t87 -39q57 -27 84 -39
q315 -129 505 87l-24 33q-58 -29 -122 -34q-64 -4 -131 13q-65 19 -131 41q-64 24 -151 45q-86 23 -165 29q244 50 403 239t159 438q1 187 -94 345q-93 160 -257 252q-163 93 -355 93zM722 1256q187 0 339 -158q155 -156 195 -390q30 -162 -11 -308q-39 -146 -137 -239
q-97 -93 -228 -109q-198 -22 -370 135q-170 160 -213 409q-28 164 11 310q40 146 136 239q98 93 228 109q18 2 50 2z" />
    <glyph glyph-name="R" unicode="R" horiz-adv-x="1117" 
d="M70 1306v-1306h178v598q75 9 111 -35l473 -561h215q-397 418 -568 620q36 0 60 2q169 18 259 106q92 90 100 210q4 47 -11 97q-13 51 -50 98q-35 51 -91 87q-54 37 -141 60q-85 25 -189 24h-346zM248 1218h206q64 0 114 -26t78 -69q28 -44 43 -90q15 -47 15 -95
q0 -96 -83 -175q-82 -79 -211 -79h-162v534z" />
    <glyph glyph-name="S" unicode="S" horiz-adv-x="1130" 
d="M557 1342q-224 12 -371 -108q-57 -46 -90 -126q-30 -79 -19 -170q13 -91 76 -156q46 -46 115 -86q70 -40 116 -58q47 -18 136 -48q88 -28 132 -46q45 -16 101 -51q57 -33 87 -77q48 -62 34 -148q-12 -84 -76 -135q-57 -44 -155 -61q-95 -16 -195 0q-94 14 -178 56
q-82 44 -139 108q-7 10 -30 46l-25 -181q15 -4 81 -39q128 -64 264 -87q139 -21 262 -1q123 21 212 84q91 64 131 163q40 107 21 204t-77 159q-40 44 -111 83q-69 40 -120 59q-51 20 -145 50q-80 28 -125 44q-43 18 -99 46q-56 30 -89 63q-39 41 -42 107q-2 68 43 122
q51 58 135 77q85 21 182 6q142 -18 238 -87q61 -40 91 -80l18 142q-194 117 -389 126z" />
    <glyph glyph-name="T" unicode="T" horiz-adv-x="1268" 
d="M70 1306v-136l475 14v-1184h178v1184l475 -14v136h-1128z" />
    <glyph glyph-name="U" unicode="U" horiz-adv-x="1203" 
d="M70 1306v-821q0 -247 148 -388q140 -134 369 -134q232 0 373 134q160 151 164 383l9 826h-139q1 -2 5 -831q3 -92 -29 -174q-30 -81 -86 -133q-107 -100 -280 -100q-158 0 -260 100q-56 56 -76 125q-18 69 -19 163l-1 850h-178z" />
    <glyph glyph-name="V" unicode="V" 
d="M70 1306l565 -1306h124l602 1306h-149l-480 -1086l-468 1086h-194z" />
    <glyph glyph-name="W" unicode="W" horiz-adv-x="2110" 
d="M70 1306l484 -1306h99h1h2l397 1078l387 -1078h3h92l505 1306h-145l-378 -1024l-368 998h-171l-336 -1046l-392 1072h-180z" />
    <glyph glyph-name="X" unicode="X" horiz-adv-x="1484" 
d="M182 1306l498 -640l-610 -666h174l508 575l454 -575h208l-550 698l550 608h-170l-452 -515l-402 515h-208z" />
    <glyph glyph-name="Y" unicode="Y" horiz-adv-x="1232" 
d="M70 1306l421 -765v-541h171q-1 254 -2 418q0 116 53 196l449 692h-155l-393 -633l-350 633h-194z" />
    <glyph glyph-name="Z" unicode="Z" horiz-adv-x="1249" 
d="M131 1306v-136l774 14l-835 -1119v-65h1102l7 134l-867 -14l836 1120v66h-1017z" />
    <glyph glyph-name="bracketleft" unicode="[" horiz-adv-x="514" 
d="M444 1518v-49h-223v-1638h223v-50h-374v32v1674v31h374z" />
    <glyph glyph-name="backslash" unicode="\" horiz-adv-x="814" 
d="M70 1388l583 -1602h91l-583 1602h-91z" />
    <glyph glyph-name="bracketright" unicode="]" horiz-adv-x="514" 
d="M70 1518v-49h223v-1638h-223v-50h374v32v1674v31h-374z" />
    <glyph glyph-name="asciicircum" unicode="^" horiz-adv-x="843" 
d="M773 426l-79 -61l-274 277l-272 -277l-78 61l268 340h165z" />
    <glyph glyph-name="underscore" unicode="_" horiz-adv-x="1551" 
d="M70 -203h1411v-86h-1411v86z" />
    <glyph glyph-name="grave" unicode="`" horiz-adv-x="588" 
d="M109 1067q-33 -33 -37 -79t38 -89q36 -27 124 -117q84 -79 152 -148l67 -66l65 56q-198 313 -252 410q-28 54 -77 57q-47 9 -80 -24z" />
    <glyph glyph-name="a" unicode="a" horiz-adv-x="1076" 
d="M1006 872h-53l-109 -62q-134 92 -299 91q-205 1 -339 -134q-136 -134 -136 -329q0 -194 134 -329q136 -134 341 -134q165 1 299 91v-66h162v872zM515 832q115 2 208 -76q93 -76 121 -181v-323q1 -52 -24 -94q-23 -39 -61 -63q-38 -21 -77 -34q-39 -11 -77 -13
q-127 -4 -231 94q-102 97 -129 255q-25 161 45 287q72 128 194 144q2 0 13 1q12 3 18 3z" />
    <glyph glyph-name="b" unicode="b" horiz-adv-x="1074" 
d="M231 1350h-161v-1350h53l107 66q134 -90 298 -91q206 0 340 134q136 135 136 329q0 195 -135 329q-135 135 -341 134q-164 1 -297 -91v540zM476 828q126 0 226 -97q102 -98 126 -252q27 -159 -44 -287q-70 -126 -194 -144q-22 -2 -32 -2q-116 0 -208 74q-92 77 -120 181
v323q0 54 24 94q24 42 61 63q39 24 77 34q40 13 76 13h8z" />
    <glyph glyph-name="c" unicode="c" horiz-adv-x="1010" 
d="M546 894q-206 0 -342 -133q-135 -133 -132 -331q0 -92 32 -172q34 -79 80 -130q48 -50 111 -87q63 -36 122 -54q62 -19 119 -22q130 -9 234 16q106 27 170 72l-37 57q-129 -82 -297 -67q-152 14 -251 115q-99 104 -118 255q-19 156 53 273q72 118 193 134q144 18 237 -88
h186q-64 75 -160 119q-94 43 -200 43z" />
    <glyph glyph-name="d" unicode="d" horiz-adv-x="1074" 
d="M1004 1350h-161q1 -92 1 -540q-134 92 -299 91q-205 1 -339 -134q-136 -134 -136 -329q0 -194 134 -329q136 -134 341 -134q165 1 299 91l107 -66h53v1350zM515 830q117 3 209 -74q93 -76 120 -181v-323q1 -52 -24 -94q-23 -39 -61 -63q-38 -21 -77 -34q-39 -11 -77 -13
q-127 -4 -231 94q-102 97 -129 255q-25 161 45 287q72 128 194 144q22 2 31 2z" />
    <glyph glyph-name="e" unicode="e" horiz-adv-x="1086" 
d="M544 901q-206 1 -340 -133t-134 -329q0 -189 133 -317q134 -128 341 -145q226 -16 395 84l-47 76q-117 -78 -288 -72q-135 5 -235 83q-99 80 -124 231q-6 44 -6 72h604h173q-14 185 -147 317q-133 134 -325 133zM514 816q104 0 188 -70q87 -69 123 -189h-580
q18 110 81 176q64 69 157 81q21 2 31 2z" />
    <glyph glyph-name="f" unicode="f" horiz-adv-x="800" 
d="M572 1346q-66 4 -124 -13q-56 -16 -108 -55q-50 -40 -80 -115q-29 -75 -30 -180v-107h-160v-86h160v-790h175v790h258v86h-257q0 130 1 197q2 63 23 103q20 42 53 54q33 15 65 13q33 1 61 -14q53 -23 74 -55l47 128q-74 42 -158 44z" />
    <glyph glyph-name="g" unicode="g" horiz-adv-x="1132" 
d="M542 902q-159 -2 -267 -91t-108 -217q0 -76 42 -142q45 -67 115 -114q-156 -74 -162 -158q-5 -98 140 -149q27 -7 57 -13q-85 -8 -175 -65t-104 -139q-16 -90 46 -158q62 -66 174 -95q88 -21 208 -24q122 -2 228 19q152 30 239 113q90 87 81 215q-12 206 -338 256
q-42 9 -157 20q-110 12 -156 19q-89 15 -96 56q-2 21 19 43q20 21 56 27q92 -35 178 -37q162 -3 278 87q117 92 117 221q1 92 -59 168q-14 20 -44 47h206v85h-355q-89 26 -163 26zM770 646q29 -108 -14 -203q-41 -93 -130 -114q-93 -19 -173 35q-78 56 -106 164
q-29 111 13 204q44 94 130 113q57 12 108 -4q50 -14 84 -49q36 -34 56 -72q22 -38 32 -74zM479 1q89 0 195 -20q122 -21 182 -66q62 -43 60 -112q0 -55 -50 -102q-51 -48 -141 -72q-81 -20 -180 -23q-89 0 -175 23q-64 21 -103 57q-35 36 -42 73q-6 43 2 71q9 32 29 55
q80 91 223 116z" />
    <glyph glyph-name="h" unicode="h" horiz-adv-x="970" 
d="M738 0h162v560q0 111 -32 174q-36 72 -100 112q-74 46 -142 50q-90 8 -179 -20q-54 -16 -118 -61q-63 -44 -97 -101q1 28 0 322q0 295 -1 314h-161v-1350h162v498q1 86 62 168q63 82 126 109q32 14 72 16q44 3 81 -6q81 -19 120 -73q45 -62 45 -170v-542z" />
    <glyph glyph-name="i" unicode="i" horiz-adv-x="380" 
d="M275 1255q-35 36 -85 36q-48 1 -84 -35q-36 -35 -36 -85q0 -48 35 -84q37 -36 85 -36q50 -1 84 35q36 36 36 85q0 51 -35 84zM272 875h-160v-885h160v885z" />
    <glyph glyph-name="j" unicode="j" horiz-adv-x="615" 
d="M510 1262q-35 36 -85 36q-48 1 -84 -34q-36 -36 -36 -86q-1 -48 35 -84t85 -36t84 35q36 37 36 85q1 50 -35 84zM329 876q3 -440 0 -1073q1 -62 -21 -108q-21 -47 -54 -68q-32 -21 -65 -29t-61 -2q-36 9 -58 36v-89q44 -11 91 -10q51 3 97 12q48 9 93 36q46 28 80 67
q35 39 55 102q21 64 21 143l-1 983h-177z" />
    <glyph glyph-name="k" unicode="k" horiz-adv-x="932" 
d="M231 1350h-161v-1350h161v266l150 150l293 -416h188l-400 498l376 378h-138l-469 -505v979z" />
    <glyph glyph-name="l" unicode="l" horiz-adv-x="301" 
d="M231 1350h-161v-1350h161v1350z" />
    <glyph glyph-name="m" unicode="m" horiz-adv-x="1634" 
d="M578 898q-70 -2 -135 -22q-53 -16 -116 -61q-63 -44 -97 -101v162h-160v-876h160v134v364q1 86 62 167q63 82 126 109q74 32 151 11q81 -19 120 -73q47 -64 47 -170v-411v-131h162v127v408q15 79 72 147q58 68 114 92q74 32 152 11q81 -19 120 -73q46 -62 46 -170v-411
v-131h162v127v432q0 111 -32 174q-38 75 -100 113q-64 42 -143 49q-81 9 -179 -19q-48 -16 -108 -55q-58 -39 -99 -96v0q-3 -3 -10 -13q-5 -8 -11 -16q-3 14 -15 37q-37 76 -99 113q-64 42 -144 49q-30 3 -46 3z" />
    <glyph glyph-name="n" unicode="n" horiz-adv-x="968" 
d="M737 0h161v560q0 111 -32 174q-36 72 -100 112q-74 46 -143 50q-89 8 -179 -20q-53 -16 -116 -61q-63 -44 -97 -101v162h-161v-876h161v498q1 88 62 169q62 82 125 108q32 14 72 16q43 3 80 -6q81 -19 120 -73q46 -64 47 -170v-542z" />
    <glyph glyph-name="o" unicode="o" horiz-adv-x="1088" 
d="M879 766q-139 136 -335 135q-194 1 -335 -135q-139 -136 -139 -328q0 -191 139 -328q141 -135 335 -135q196 0 335 135q140 137 139 328q1 192 -139 328zM512 829q111 0 204 -102q93 -101 117 -253q29 -160 -39 -286q-67 -124 -188 -140q-118 -16 -222 89
q-102 105 -129 265q-27 162 39 286q70 126 188 140q10 2 30 1z" />
    <glyph glyph-name="p" unicode="p" horiz-adv-x="1074" 
d="M70 -467h160v534q134 -92 298 -92q206 0 340 134q136 135 136 329q0 195 -135 329q-135 135 -341 134q-164 1 -298 -91l-107 66h-53v-1343zM558 46q-115 0 -207 75q-93 77 -121 181v323q0 70 42 117q43 48 93 66q52 20 103 20q130 4 232 -94q104 -97 128 -255
q18 -105 -9 -201q-25 -93 -87 -156q-61 -62 -142 -73q-1 1 -14 -1q-10 -2 -18 -2z" />
    <glyph glyph-name="q" unicode="q" horiz-adv-x="1074" 
d="M844 -467h160v1343h-53l-107 -66q-134 92 -299 91q-205 1 -339 -134q-136 -134 -136 -329q0 -194 134 -329q136 -134 341 -134q165 1 299 91v-533zM597 49q-127 -1 -227 97t-125 252q-16 107 10 201q25 95 86 156q62 63 143 73q22 2 31 2q117 3 209 -74q93 -76 120 -181
v-323q1 -68 -42 -116q-42 -46 -94 -66q-51 -18 -103 -21h-8z" />
    <glyph glyph-name="r" unicode="r" horiz-adv-x="690" 
d="M464 901q-134 3 -234 -96v71h-160v-876h160v570q0 102 57 163q60 63 141 61q82 -1 145 -66l47 129q-69 43 -156 44z" />
    <glyph glyph-name="s" unicode="s" horiz-adv-x="821" 
d="M387 901q-153 5 -250 -95q-32 -32 -51 -84q-18 -51 -11 -115q9 -63 53 -111q20 -20 46 -39q28 -17 65 -33t63 -27q28 -8 77 -25q51 -16 70 -24q119 -40 147 -97q18 -36 9 -75q-7 -38 -33 -64q-28 -30 -78 -45q-50 -12 -98 -9q-47 4 -94 16q-60 18 -117 56q-57 40 -81 67
l-24 -119q116 -80 253 -98q152 -19 263 31q112 52 138 176q26 122 -35 201q-45 62 -200 115q-27 9 -89 29q-60 20 -83 28q-21 10 -54 27q-30 18 -50 39q-25 28 -25 69q1 43 23 73q25 35 75 50q52 17 115 6q71 -10 135 -50q64 -38 101 -84l22 110q-41 29 -98 57
q-87 43 -184 44z" />
    <glyph glyph-name="t" unicode="t" horiz-adv-x="742" 
d="M249 1086v-210h-179v-86h179q-1 -414 -1 -582q0 -32 2 -58q2 -25 17 -60q13 -34 38 -59q27 -23 75 -41q50 -16 117 -15q100 1 175 45v82q-22 -14 -67 -23q-44 -8 -72 -5q-51 6 -80 38q-29 33 -37 61q-8 29 -8 59l2 558h254v86h-254l-2 312h-51z" />
    <glyph glyph-name="u" unicode="u" horiz-adv-x="968" 
d="M231 876h-161v-560q0 -108 32 -173q38 -74 100 -113q74 -44 143 -49q94 -7 179 19q54 18 116 61q64 45 97 101v-85q1 -56 1 -77h160v876h-161v-498q0 -86 -62 -168q-61 -81 -125 -108q-73 -30 -152 -11q-79 21 -120 75q-46 64 -47 168v542z" />
    <glyph glyph-name="v" unicode="v" horiz-adv-x="1033" 
d="M70 876q256 -578 386 -875v-1h114l393 876h-143l-280 -690l-302 690h-168z" />
    <glyph glyph-name="w" unicode="w" horiz-adv-x="1556" 
d="M70 876l322 -876h106l264 698l260 -698h123l341 876h-137l-246 -689l-242 665h-145l-239 -665l-253 689h-154z" />
    <glyph glyph-name="x" unicode="x" horiz-adv-x="1105" 
d="M152 876l331 -425l-413 -451h157l324 366l289 -366h195l-379 481l358 395h-154l-272 -310l-242 310h-194z" />
    <glyph glyph-name="y" unicode="y" horiz-adv-x="1033" 
d="M70 876q254 -577 386 -876q-62 -150 -115 -239q-53 -87 -105 -87q-38 2 -93 39v-125q47 -32 91 -34q100 -6 171 108q23 38 49 88q27 52 42 86q16 34 42 93q28 61 32 71l393 876h-143l-280 -690l-303 690h-167z" />
    <glyph glyph-name="z" unicode="z" horiz-adv-x="915" 
d="M94 876v-101q90 -1 264 4q176 7 256 6l-544 -723v-62h775v101q-97 3 -285 -4q-188 -6 -276 -6l537 723v62h-727z" />
    <glyph glyph-name="braceleft" unicode="{" horiz-adv-x="795" 
d="M725 -169q-89 -3 -146 15q-55 20 -81 55q-22 39 -30 87q-4 52 -2 109q6 59 10 120q8 61 0 122q-8 62 -29 116q-20 54 -77 99q-54 46 -144 72v48q90 27 143 72q57 46 78 99t27 115q10 62 3 122q-3 63 -10 120q-3 60 1 108q8 51 29 87q25 39 81 56q57 19 147 16v49h-137
q-112 2 -194 -81q-79 -79 -80 -194l1 -325q0 -100 -72 -172q-73 -72 -173 -72v-24v-24q100 2 173 -72q72 -72 72 -173l-1 -324q1 -111 80 -194q82 -81 194 -82h137v50z" />
    <glyph glyph-name="bar" unicode="|" horiz-adv-x="270" 
d="M70 1734h130v-1737h-130v1737z" />
    <glyph glyph-name="braceright" unicode="}" horiz-adv-x="795" 
d="M70 -169q90 -3 146 15q58 20 81 55q27 39 30 87q8 52 2 109q-1 59 -9 120q-6 61 0 122q8 62 28 116q22 54 77 99q57 46 144 72v48q-87 27 -143 72q-56 46 -78 99q-20 53 -27 115t-3 122q8 63 10 120q8 60 -1 108q-3 51 -29 87q-24 39 -80 56q-58 19 -148 16v49h137
q115 2 194 -81q83 -79 81 -194l-2 -325q0 -100 72 -172t173 -72v-24v-24q-101 2 -173 -72q-72 -72 -72 -173l2 -324q2 -111 -81 -194q-79 -81 -194 -82h-137v50z" />
    <glyph glyph-name="asciitilde" unicode="~" horiz-adv-x="1134" 
d="M1020 795q-16 -38 -36 -68q-18 -28 -36 -49q-14 -20 -38 -31q-20 -9 -38 -17q-16 -6 -42 -3q-24 4 -41 8q-16 4 -45 15q-28 12 -45 21q-15 9 -48 25q-31 18 -49 25q-15 9 -51 25q-35 20 -53 27q-101 53 -210 15q-108 -36 -158 -140l-60 -123l43 -21q18 40 36 68
q20 30 36 49q18 22 39 32q24 13 38 16q17 7 42 4q26 -3 41 -7q18 -2 45 -16q30 -10 45 -20q18 -8 48 -25q33 -17 49 -26q18 -7 52 -25q34 -16 51 -26q102 -50 210 -16q108 39 159 139l60 123z" />
    <glyph glyph-name="exclamdown" unicode="&#xa1;" horiz-adv-x="380" 
d="M75 81q0 33 8 89q9 57 28 265q22 209 41 554h76q18 -269 33 -459q16 -190 24 -259q11 -69 14 -115q7 -46 6 -75q1 -51 -32 -85q-33 -36 -83 -35q-47 -1 -82 35q-33 34 -33 85zM275 1137q-34 -36 -85 -36q-47 -1 -84 35q-36 36 -36 85q0 48 35 84q39 36 85 36q50 2 84 -34
q36 -35 36 -86t-35 -84z" />
    <glyph glyph-name="sterling" unicode="&#xa3;" horiz-adv-x="1076" 
d="M552 1340q-66 2 -135 -25q-69 -25 -125 -78q-54 -51 -72 -128t17 -178q43 -110 61 -215h-228v-86h242q15 -74 6 -154q-8 -78 -28 -143q-20 -63 -78 -114q-54 -51 -142 -68v-154h936v178h-780q290 123 269 455h313v86h-324q-20 118 -71 251q-25 75 -21 137q5 64 48 109
q46 46 118 54q44 6 95 -12q54 -17 84 -53q16 -8 9 -26q-4 -15 -20 -25q-10 -9 -28 -30q-16 -21 -20 -47q-8 -55 48 -84q58 -27 111 3q59 37 51 111q-4 77 -68 138q-98 98 -268 98z" />
    <glyph glyph-name="dieresis" unicode="&#xa8;" horiz-adv-x="944" 
d="M275 1123q-34 36 -85 36q-47 1 -84 -35q-36 -34 -36 -85q0 -47 35 -84q39 -36 85 -36q50 1 84 35q36 38 36 85q0 51 -35 84zM839 1123q-34 36 -85 36q-47 1 -84 -35q-36 -34 -36 -85q0 -47 35 -84q39 -36 85 -36q50 1 84 35q36 38 36 85q0 51 -35 84z" />
    <glyph glyph-name="macron" unicode="&#xaf;" horiz-adv-x="1005" 
d="M70 968h865v-110h-865v110z" />
    <glyph glyph-name="degree" unicode="&#xb0;" horiz-adv-x="651" 
d="M324 805q46 1 93 -20q47 -19 83 -55q36 -34 57 -81q25 -46 23 -98q2 -54 -22 -100q-22 -45 -58 -81q-36 -33 -82 -54q-47 -20 -94 -21q-46 1 -93 19q-45 22 -82 56q-36 36 -57 80q-22 46 -22 101q0 52 22 97q21 48 57 82q37 36 82 55q47 21 93 20zM328 698
q-55 0 -102 -43q-46 -43 -46 -104q0 -60 46 -105q47 -43 102 -44q56 0 102 43q46 45 47 106q-1 61 -47 104t-102 43z" />
    <glyph glyph-name="acute" unicode="&#xb4;" horiz-adv-x="592" 
d="M480 1067q37 -33 38 -79q6 -46 -39 -89q-33 -27 -123 -117q-83 -79 -153 -148l-68 -66l-65 56q200 313 253 410q29 54 77 57q48 9 80 -24z" />
    <glyph glyph-name="cedilla" unicode="&#xb8;" horiz-adv-x="523" 
d="M227 -529q-79 1 -125 48q-28 29 -31 64q-1 38 29 56q10 5 20 8q10 2 11 2q11 1 20 -6q1 1 1 -2q4 1 3 -2q23 -13 19 -38q2 -11 -8 -23q-8 -10 -17 -17q-8 -3 -11 -12q-3 -3 6 -12q32 -34 85 -31q39 2 64 18q27 18 38 43q15 25 19 49q8 26 8 51q6 33 -5 63q-8 33 -36 59
q-27 29 -66 41q-16 4 -58 2v21q3 15 3 50q4 37 4 71h42l-6 -103q48 2 88 -16q38 -15 62 -36q25 -19 39 -48q18 -28 21 -54q8 -26 6 -47q0 -33 -16 -71q-16 -36 -44 -64q-26 -27 -70 -46q-44 -18 -95 -18z" />
    <glyph glyph-name="questiondown" unicode="&#xbf;" horiz-adv-x="930" 
d="M519 -40q166 0 267 99q62 61 70 133q5 72 -53 115q-17 13 -41 16q-10 3 -19 2q-25 -1 -44 -11q-2 -2 -12 -7v0q-43 -33 -42 -80q-1 -26 15 -47q15 -21 30 -31q14 -9 21 -24q8 -15 -7 -27q-70 -74 -189 -65q-75 3 -127 39q-53 34 -78 86q-26 52 -35 101q-9 48 -9 102
q0 67 19 130q18 63 78 122q58 57 149 79q36 8 117 11v40v100v144h-87v-210q-101 -2 -184 -30q-83 -29 -136 -73q-50 -45 -86 -101t-50 -106q-16 -51 -16 -98q0 -72 28 -144q26 -71 80 -132q54 -60 142 -96q90 -37 199 -37zM501 1136q35 -36 85 -36q48 0 84 35q34 37 35 85
q-1 48 -35 84q-36 36 -84 36q-48 2 -84 -35q-36 -35 -36 -85t35 -84z" />
    <glyph glyph-name="Agrave" unicode="&#xc0;" 
d="M672 1306l-602 -1306h149l219 494h524l205 -494h194l-565 1306h-124zM699 1086l224 -505h-447zM532 1927q-34 -33 -37 -79q-5 -46 38 -89q37 -27 124 -116q83 -79 152 -149l67 -66l65 56q-198 314 -252 411q-29 53 -77 56q-46 9 -80 -24z" />
    <glyph glyph-name="Aacute" unicode="&#xc1;" 
d="M672 1306l-602 -1306h149l219 494h524l205 -494h194l-565 1306h-124zM699 1086l224 -505h-447zM899 1927q34 -33 37 -79q6 -46 -38 -89q-36 -27 -124 -116q-82 -79 -152 -149l-67 -66l-65 56q198 314 252 411q30 53 77 56q47 9 80 -24z" />
    <glyph glyph-name="Acircumflex" unicode="&#xc2;" 
d="M672 1306l-602 -1306h149l219 494h524l205 -494h194l-565 1306h-124zM699 1086l224 -505h-447zM1067 1489l-79 -61l-274 277l-272 -277l-78 61l268 340h165z" />
    <glyph glyph-name="Atilde" unicode="&#xc3;" 
d="M672 1306l-602 -1306h149l219 494h524l205 -494h194l-565 1306h-124zM699 1086l224 -505h-447zM1078 1709q-10 -33 -28 -59q-14 -26 -28 -44q-14 -16 -32 -27q-16 -7 -31 -14q-11 -6 -33 -4q-18 3 -33 6q-10 3 -36 13q-21 10 -36 18q-11 8 -38 23q-25 17 -40 23
q-11 8 -41 22q-26 17 -42 24q-81 46 -168 13t-126 -124l-48 -108l35 -18q14 33 28 59q17 26 29 44q15 18 31 27q21 11 31 14q16 7 34 4q22 -3 32 -6q15 -3 36 -13q26 -10 36 -18q14 -6 38 -22q29 -14 40 -23q15 -5 41 -23q29 -14 42 -22q83 -46 168 -14q87 33 126 123
l48 108z" />
    <glyph glyph-name="Adieresis" unicode="&#xc4;" 
d="M672 1306l-602 -1306h149l219 494h524l205 -494h194l-565 1306h-124zM699 1086l224 -505h-447zM519 1632q-34 36 -85 36q-47 0 -84 -35q-36 -34 -36 -85q0 -47 34 -84q39 -36 86 -36q50 0 84 35q36 39 36 85q0 51 -35 84zM1083 1632q-34 36 -85 36q-47 0 -84 -35
q-36 -34 -36 -85q0 -47 34 -84q39 -36 86 -36q50 0 84 35q36 39 36 85q0 51 -35 84z" />
    <glyph glyph-name="Aring" unicode="&#xc5;" 
d="M672 1306l-602 -1306h149l219 494h524l205 -494h194l-565 1306h-124zM699 1086l224 -505h-447zM714 1938q46 2 93 -20q47 -19 83 -56q36 -34 57 -80q25 -46 23 -98q2 -54 -22 -100q-22 -46 -58 -82q-36 -33 -82 -54q-47 -20 -94 -20q-46 0 -93 19q-45 21 -82 55
q-36 36 -57 81q-22 47 -22 101q0 52 22 97q21 48 57 81q37 37 82 56q47 22 93 20zM718 1831q-55 1 -102 -43q-46 -43 -46 -104q0 -60 46 -105q47 -43 102 -44q56 -1 102 43t47 106q-1 61 -47 104q-46 44 -102 43z" />
    <glyph glyph-name="Ccedilla" unicode="&#xc7;" 
d="M774 1343q-252 -3 -439 -139q-188 -137 -245 -382q-20 -92 -20 -167q-1 -149 60 -276q62 -127 162 -211q102 -83 224 -136q124 -50 257 -64q176 -18 329 19q154 39 259 103l-50 66q-63 -46 -192 -79q-127 -33 -243 -23q-227 21 -385 162q-156 142 -195 384q-20 134 1 251
q23 118 77 200q56 83 132 136q78 53 165 67q131 22 245 -20q116 -42 179 -132h215q-86 106 -233 174q-147 69 -303 67zM773 -551q-79 1 -125 48q-28 29 -31 64q-1 38 29 56q10 6 20 9q10 2 11 1q11 1 21 -6q0 2 1 -1q3 0 2 -3q23 -13 19 -38q2 -11 -8 -23q-8 -10 -17 -17
q-8 -3 -11 -12q-3 -3 6 -12q32 -34 86 -31q39 2 63 18q28 18 39 43q16 25 19 49q7 26 7 51q6 33 -5 63q-8 33 -36 59q-27 29 -66 41q-15 4 -57 2v21q2 15 2 50q4 37 5 71h42l-6 -103q48 2 87 -16q39 -15 63 -36q25 -19 38 -48q19 -28 22 -54q8 -26 6 -47q-1 -32 -17 -70
q-15 -36 -43 -65q-27 -27 -71 -46q-44 -18 -95 -18z" />
    <glyph glyph-name="Egrave" unicode="&#xc8;" horiz-adv-x="1093" 
d="M70 1306v-1306h953v134l-777 -14v529l526 -5v135l-526 -5v410l706 -14v136h-882zM363 1927q-33 -33 -37 -79t38 -89q36 -27 124 -116q84 -79 152 -149l67 -66l65 56q-198 314 -252 411q-28 53 -77 56q-47 9 -80 -24z" />
    <glyph glyph-name="Eacute" unicode="&#xc9;" horiz-adv-x="1093" 
d="M70 1306v-1306h953v134l-777 -14v529l526 -5v135l-526 -5v410l706 -14v136h-882zM730 1927q34 -33 37 -79q6 -46 -38 -89q-36 -27 -124 -116q-83 -79 -152 -149l-67 -66l-65 56q198 314 252 411q29 53 77 56q48 9 80 -24z" />
    <glyph glyph-name="Ecircumflex" unicode="&#xca;" horiz-adv-x="1093" 
d="M70 1306v-1306h953v134l-777 -14v529l526 -5v135l-526 -5v410l706 -14v136h-882zM869 1489l-79 -61l-274 277l-272 -277l-78 61l268 340h165z" />
    <glyph glyph-name="Edieresis" unicode="&#xcb;" horiz-adv-x="1093" 
d="M70 1306v-1306h953v134l-777 -14v529l526 -5v135l-526 -5v410l706 -14v136h-882zM335 1632q-34 36 -85 36q-47 0 -84 -35q-36 -34 -36 -85q0 -47 35 -84q39 -36 85 -36q50 0 84 35q36 39 36 85q0 51 -35 84zM899 1632q-34 36 -85 36q-47 0 -84 -35q-36 -34 -36 -85
q0 -47 35 -84q39 -36 85 -36q50 0 84 35q36 39 36 85q0 51 -35 84z" />
    <glyph glyph-name="Igrave" unicode="&#xcc;" horiz-adv-x="588" 
d="M204 1306v-1306h178v1306h-178zM109 1927q-33 -33 -37 -79t38 -89q36 -27 124 -116q84 -79 152 -149l68 -66l64 56q-198 314 -252 411q-28 53 -76 56q-47 9 -81 -24z" />
    <glyph glyph-name="Iacute" unicode="&#xcd;" horiz-adv-x="591" 
d="M207 1306v-1306h178v1306h-178zM479 1927q35 -33 38 -79q5 -46 -39 -89q-36 -27 -123 -116q-83 -79 -153 -149l-67 -66l-65 56q198 314 252 411q30 53 77 56q47 9 80 -24z" />
    <glyph glyph-name="Icircumflex" unicode="&#xce;" horiz-adv-x="843" 
d="M333 1306v-1306h178v1306h-178zM773 1489l-79 -61l-273 277l-273 -277l-78 61l268 340h165z" />
    <glyph glyph-name="Idieresis" unicode="&#xcf;" horiz-adv-x="944" 
d="M383 1306v-1306h178v1306h-178zM275 1632q-34 36 -85 36q-47 0 -84 -35q-36 -34 -36 -85q0 -47 35 -84q39 -36 85 -36q50 0 84 35q36 39 36 85q0 51 -35 84zM839 1632q-34 36 -85 36q-47 0 -84 -35q-36 -34 -36 -85q0 -47 35 -84q39 -36 85 -36q50 0 84 35q36 39 36 85
q0 51 -35 84z" />
    <glyph glyph-name="Ntilde" unicode="&#xd1;" horiz-adv-x="1222" 
d="M80 1306l-10 -1306h139l-9 1130l832 -1130h111l9 1306h-139l10 -1028l-750 1028h-193zM974 1709q-10 -33 -28 -59q-14 -26 -29 -44q-14 -16 -31 -27q-16 -7 -31 -14q-11 -6 -34 -4q-17 3 -32 6q-10 3 -36 13q-21 10 -36 18q-11 8 -39 23q-25 17 -39 23q-11 8 -41 22
q-26 17 -42 24q-81 46 -168 13t-126 -124l-48 -108l35 -18q13 33 27 59q16 26 29 44q15 18 31 27q21 11 32 14q15 7 33 4q22 -3 33 -6q15 -3 36 -13q26 -10 36 -18q14 -6 38 -22q29 -14 40 -23q14 -5 40 -23q29 -14 42 -22q83 -46 168 -14q87 33 126 123l48 108z" />
    <glyph glyph-name="Ograve" unicode="&#xd2;" horiz-adv-x="1551" 
d="M1050 1288q-130 56 -274 55q-144 1 -275 -54q-129 -55 -225 -148q-93 -91 -150 -219q-56 -128 -56 -269q0 -140 55 -268q57 -128 150 -221q97 -91 226 -146q131 -54 275 -55q144 0 274 54q132 55 225 147q95 92 150 220q57 128 56 269q1 140 -55 267q-55 129 -150 221
q-94 93 -226 147zM722 1256q122 0 236 -72q116 -70 197 -195q83 -126 109 -279q30 -162 -13 -309t-142 -240t-230 -109q-130 -16 -257 50q-126 69 -216 198q-90 132 -119 294q-45 248 71 442t314 218q18 2 50 2zM592 1964q-34 -33 -37 -79q-5 -45 38 -89q37 -26 124 -116
q83 -80 152 -149l67 -66l65 57q-198 313 -252 410q-29 54 -77 56q-46 8 -80 -24z" />
    <glyph glyph-name="Oacute" unicode="&#xd3;" horiz-adv-x="1551" 
d="M1050 1288q-130 56 -274 55q-144 1 -275 -54q-129 -55 -225 -148q-93 -91 -150 -219q-56 -128 -56 -269q0 -140 55 -268q57 -128 150 -221q97 -91 226 -146q131 -54 275 -55q144 0 274 54q132 55 225 147q95 92 150 220q57 128 56 269q1 140 -55 267q-55 129 -150 221
q-94 93 -226 147zM722 1256q122 0 236 -72q116 -70 197 -195q83 -126 109 -279q30 -162 -13 -309t-142 -240t-230 -109q-130 -16 -257 50q-126 69 -216 198q-90 132 -119 294q-45 248 71 442t314 218q18 2 50 2zM959 1964q34 -33 37 -79q6 -45 -38 -89q-36 -26 -124 -116
q-82 -80 -152 -149l-67 -66l-65 57q198 313 252 410q30 54 77 56q47 8 80 -24z" />
    <glyph glyph-name="Ocircumflex" unicode="&#xd4;" horiz-adv-x="1551" 
d="M1050 1288q-130 56 -274 55q-144 1 -275 -54q-129 -55 -225 -148q-93 -91 -150 -219q-56 -128 -56 -269q0 -140 55 -268q57 -128 150 -221q97 -91 226 -146q131 -54 275 -55q144 0 274 54q132 55 225 147q95 92 150 220q57 128 56 269q1 140 -55 267q-55 129 -150 221
q-94 93 -226 147zM722 1256q122 0 236 -72q116 -70 197 -195q83 -126 109 -279q30 -162 -13 -309t-142 -240t-230 -109q-130 -16 -257 50q-126 69 -216 198q-90 132 -119 294q-45 248 71 442t314 218q18 2 50 2zM1127 1526l-79 -61l-274 277l-272 -277l-78 61l268 340h165z
" />
    <glyph glyph-name="Otilde" unicode="&#xd5;" horiz-adv-x="1551" 
d="M1050 1288q-130 56 -274 55q-144 1 -275 -54q-129 -55 -225 -148q-93 -91 -150 -219q-56 -128 -56 -269q0 -140 55 -268q57 -128 150 -221q97 -91 226 -146q131 -54 275 -55q144 0 274 54q132 55 225 147q95 92 150 220q57 128 56 269q1 140 -55 267q-55 129 -150 221
q-94 93 -226 147zM722 1256q122 0 236 -72q116 -70 197 -195q83 -126 109 -279q30 -162 -13 -309t-142 -240t-230 -109q-130 -16 -257 50q-126 69 -216 198q-90 132 -119 294q-45 248 71 442t314 218q18 2 50 2zM1138 1746q-10 -32 -28 -59q-14 -26 -28 -44q-14 -17 -32 -27
q-16 -7 -31 -14q-11 -6 -33 -4q-18 3 -33 6q-10 4 -36 14q-21 10 -36 18q-11 8 -38 22q-25 18 -40 23q-11 7 -41 22q-26 17 -42 24q-81 46 -168 13q-87 -32 -126 -124l-48 -108l35 -18q14 34 28 59q17 27 29 45q15 18 31 26q21 10 31 14q16 8 34 4q22 -2 32 -6q15 -2 36 -13
q26 -10 36 -18q14 -6 38 -22q29 -15 40 -23q15 -5 41 -22q29 -14 42 -23q83 -45 168 -13q87 32 126 122l48 108z" />
    <glyph glyph-name="Odieresis" unicode="&#xd6;" horiz-adv-x="1551" 
d="M1050 1288q-130 56 -274 55q-144 1 -275 -54q-129 -55 -225 -148q-93 -91 -150 -219q-56 -128 -56 -269q0 -140 55 -268q57 -128 150 -221q97 -91 226 -146q131 -54 275 -55q144 0 274 54q132 55 225 147q95 92 150 220q57 128 56 269q1 140 -55 267q-55 129 -150 221
q-94 93 -226 147zM722 1256q122 0 236 -72q116 -70 197 -195q83 -126 109 -279q30 -162 -13 -309t-142 -240t-230 -109q-130 -16 -257 50q-126 69 -216 198q-90 132 -119 294q-45 248 71 442t314 218q18 2 50 2zM579 1669q-34 36 -85 36q-47 1 -84 -35q-36 -34 -36 -85
q0 -47 34 -84q39 -36 86 -36q50 1 84 35q36 38 36 85q0 51 -35 84zM1143 1669q-34 36 -85 36q-47 1 -84 -35q-36 -34 -36 -85q0 -47 34 -84q39 -36 86 -36q50 1 84 35q36 38 36 85q0 51 -35 84z" />
    <glyph glyph-name="Ugrave" unicode="&#xd9;" horiz-adv-x="1203" 
d="M70 1306v-821q0 -247 148 -388q140 -134 369 -134q232 0 373 134q160 151 164 383l9 826h-139q1 -2 5 -831q3 -92 -29 -174q-30 -81 -86 -133q-107 -100 -280 -100q-158 0 -260 100q-56 56 -76 125q-18 69 -19 163l-1 850h-178zM418 1927q-34 -33 -37 -79q-5 -46 38 -89
q37 -27 124 -116q83 -79 152 -149l67 -66l65 56q-198 314 -252 411q-29 53 -77 56q-46 9 -80 -24z" />
    <glyph glyph-name="Uacute" unicode="&#xda;" horiz-adv-x="1203" 
d="M70 1306v-821q0 -247 148 -388q140 -134 369 -134q232 0 373 134q160 151 164 383l9 826h-139q1 -2 5 -831q3 -92 -29 -174q-30 -81 -86 -133q-107 -100 -280 -100q-158 0 -260 100q-56 56 -76 125q-18 69 -19 163l-1 850h-178zM785 1927q34 -33 37 -79q6 -46 -38 -89
q-36 -27 -124 -116q-82 -79 -152 -149l-67 -66l-65 56q198 314 252 411q30 53 77 56q47 9 80 -24z" />
    <glyph glyph-name="Ucircumflex" unicode="&#xdb;" horiz-adv-x="1203" 
d="M70 1306v-821q0 -247 148 -388q140 -134 369 -134q232 0 373 134q160 151 164 383l9 826h-139q1 -2 5 -831q3 -92 -29 -174q-30 -81 -86 -133q-107 -100 -280 -100q-158 0 -260 100q-56 56 -76 125q-18 69 -19 163l-1 850h-178zM953 1489l-79 -61l-274 277l-272 -277
l-78 61l268 340h165z" />
    <glyph glyph-name="Udieresis" unicode="&#xdc;" horiz-adv-x="1203" 
d="M70 1306v-821q0 -247 148 -388q140 -134 369 -134q232 0 373 134q160 151 164 383l9 826h-139q1 -2 5 -831q3 -92 -29 -174q-30 -81 -86 -133q-107 -100 -280 -100q-158 0 -260 100q-56 56 -76 125q-18 69 -19 163l-1 850h-178zM405 1632q-34 36 -85 36q-47 0 -84 -35
q-36 -34 -36 -85q0 -47 34 -84q39 -36 86 -36q50 0 84 35q36 39 36 85q0 51 -35 84zM969 1632q-34 36 -85 36q-47 0 -84 -35q-36 -34 -36 -85q0 -47 34 -84q39 -36 86 -36q50 0 84 35q36 39 36 85q0 51 -35 84z" />
    <glyph glyph-name="Yacute" unicode="&#xdd;" horiz-adv-x="1232" 
d="M70 1306l421 -765v-541h171q-1 254 -2 418q0 116 53 196l449 692h-155l-393 -633l-350 633h-194zM800 1927q34 -33 37 -79q5 -46 -39 -89q-36 -27 -123 -116q-83 -79 -153 -149l-67 -66l-65 56q198 314 252 411q30 53 77 56q48 9 81 -24z" />
    <glyph glyph-name="agrave" unicode="&#xe0;" horiz-adv-x="1076" 
d="M1006 872h-53l-109 -62q-134 92 -299 91q-205 1 -339 -134q-136 -134 -136 -329q0 -194 134 -329q136 -134 341 -134q165 1 299 91v-66h162v872zM515 832q115 2 208 -76q93 -76 121 -181v-323q1 -52 -24 -94q-23 -39 -61 -63q-38 -21 -77 -34q-39 -11 -77 -13
q-127 -4 -231 94q-102 97 -129 255q-25 161 45 287q72 128 194 144q2 0 13 1q12 3 18 3zM354 1523q-34 -33 -37 -79q-4 -46 39 -89q36 -27 123 -117q84 -79 153 -148l67 -66l65 56q-198 313 -252 410q-28 54 -77 57q-47 9 -81 -24z" />
    <glyph glyph-name="aacute" unicode="&#xe1;" horiz-adv-x="1076" 
d="M1006 872h-53l-109 -62q-134 92 -299 91q-205 1 -339 -134q-136 -134 -136 -329q0 -194 134 -329q136 -134 341 -134q165 1 299 91v-66h162v872zM515 832q115 2 208 -76q93 -76 121 -181v-323q1 -52 -24 -94q-23 -39 -61 -63q-38 -21 -77 -34q-39 -11 -77 -13
q-127 -4 -231 94q-102 97 -129 255q-25 161 45 287q72 128 194 144q2 0 13 1q12 3 18 3zM722 1523q34 -33 37 -79q5 -46 -39 -89q-36 -27 -123 -117q-83 -79 -153 -148l-67 -66l-65 56q198 313 252 410q30 54 77 57q48 9 81 -24z" />
    <glyph glyph-name="acircumflex" unicode="&#xe2;" horiz-adv-x="1076" 
d="M1006 872h-53l-109 -62q-134 92 -299 91q-205 1 -339 -134q-136 -134 -136 -329q0 -194 134 -329q136 -134 341 -134q165 1 299 91v-66h162v872zM515 832q115 2 208 -76q93 -76 121 -181v-323q1 -52 -24 -94q-23 -39 -61 -63q-38 -21 -77 -34q-39 -11 -77 -13
q-127 -4 -231 94q-102 97 -129 255q-25 161 45 287q72 128 194 144q2 0 13 1q12 3 18 3zM890 1085l-80 -61l-273 277l-273 -277l-78 61l268 339h166z" />
    <glyph glyph-name="atilde" unicode="&#xe3;" horiz-adv-x="1076" 
d="M1006 872h-53l-109 -62q-134 92 -299 91q-205 1 -339 -134q-136 -134 -136 -329q0 -194 134 -329q136 -134 341 -134q165 1 299 91v-66h162v872zM515 832q115 2 208 -76q93 -76 121 -181v-323q1 -52 -24 -94q-23 -39 -61 -63q-38 -21 -77 -34q-39 -11 -77 -13
q-127 -4 -231 94q-102 97 -129 255q-25 161 45 287q72 128 194 144q2 0 13 1q12 3 18 3zM948 1304q-10 -32 -27 -58q-15 -26 -29 -45q-14 -16 -31 -26q-16 -7 -31 -15q-12 -6 -34 -3q-18 3 -32 6q-10 3 -36 13q-21 10 -36 18q-11 8 -39 23q-25 17 -39 23q-12 7 -41 21
q-26 17 -42 24q-81 46 -168 13q-87 -32 -126 -123l-48 -108l35 -18q14 33 27 59q17 26 29 44q15 18 31 26q21 11 31 15q16 7 34 3q22 -2 32 -6q15 -2 36 -13q26 -10 36 -18q14 -5 39 -21q29 -14 39 -23q15 -5 41 -23q29 -14 42 -23q83 -45 168 -13q87 32 126 122l48 108z
" />
    <glyph glyph-name="adieresis" unicode="&#xe4;" horiz-adv-x="1076" 
d="M1006 872h-53l-109 -62q-134 92 -299 91q-205 1 -339 -134q-136 -134 -136 -329q0 -194 134 -329q136 -134 341 -134q165 1 299 91v-66h162v872zM515 832q115 2 208 -76q93 -76 121 -181v-323q1 -52 -24 -94q-23 -39 -61 -63q-38 -21 -77 -34q-39 -11 -77 -13
q-127 -4 -231 94q-102 97 -129 255q-25 161 45 287q72 128 194 144q2 0 13 1q12 3 18 3zM380 1228q-34 36 -86 36q-47 0 -84 -35q-36 -34 -36 -85q0 -47 35 -84q39 -36 85 -36q50 0 84 34q36 39 36 86q1 51 -34 84zM944 1228q-34 36 -86 36q-47 0 -84 -35q-36 -34 -36 -85
q0 -47 35 -84q39 -36 85 -36q50 0 84 34q36 39 36 86q1 51 -34 84z" />
    <glyph glyph-name="aring" unicode="&#xe5;" horiz-adv-x="1076" 
d="M1006 872h-53l-109 -62q-134 92 -299 91q-205 1 -339 -134q-136 -134 -136 -329q0 -194 134 -329q136 -134 341 -134q165 1 299 91v-66h162v872zM515 832q115 2 208 -76q93 -76 121 -181v-323q1 -52 -24 -94q-23 -39 -61 -63q-38 -21 -77 -34q-39 -11 -77 -13
q-127 -4 -231 94q-102 97 -129 255q-25 161 45 287q72 128 194 144q2 0 13 1q12 3 18 3zM551 1534q47 1 93 -21q46 -19 82 -55q36 -34 58 -80q26 -46 23 -99q2 -53 -22 -99q-22 -46 -59 -82q-36 -33 -81 -54q-47 -20 -94 -20t-93 19q-46 21 -82 55q-36 36 -58 80
q-21 46 -21 101q0 52 21 97q22 48 58 82q36 36 82 55q46 22 93 21zM555 1427q-55 1 -102 -43q-45 -44 -46 -105q1 -59 46 -104q47 -43 102 -45q56 0 102 44q47 44 47 105t-47 105q-46 44 -102 43z" />
    <glyph glyph-name="ccedilla" unicode="&#xe7;" horiz-adv-x="1010" 
d="M546 894q-206 0 -342 -133q-135 -133 -132 -331q0 -92 32 -172q34 -79 80 -130q48 -50 111 -87q63 -36 122 -54q62 -19 119 -22q130 -9 234 16q106 27 170 72l-37 57q-129 -82 -297 -67q-152 14 -251 115q-99 104 -118 255q-19 156 53 273q72 118 193 134q144 18 237 -88
h186q-64 75 -160 119q-94 43 -200 43zM534 -569q-80 1 -125 48q-27 29 -31 64q-2 38 28 56q10 6 21 9q11 2 11 1q10 1 20 -6q0 2 1 -1q4 0 3 -3q23 -13 19 -38q1 -11 -9 -23q-7 -10 -16 -17q-8 -3 -11 -12q-3 -3 6 -12q32 -34 85 -31q40 2 64 18q28 18 38 43q16 25 19 49
q7 26 7 51q6 33 -4 63q-8 33 -36 59q-26 29 -66 41q-16 4 -58 2v21q2 15 2 50q4 37 5 71h42l-6 -103q49 2 88 -16q39 -15 62 -36q25 -19 39 -48q18 -28 21 -54q8 -26 6 -47q-1 -32 -17 -70q-15 -36 -43 -65q-27 -27 -71 -46q-43 -18 -94 -18z" />
    <glyph glyph-name="egrave" unicode="&#xe8;" horiz-adv-x="1086" 
d="M544 901q-206 1 -340 -133t-134 -329q0 -189 133 -317q134 -128 341 -145q226 -16 395 84l-47 76q-117 -78 -288 -72q-135 5 -235 83q-99 80 -124 231q-6 44 -6 72h604h173q-14 185 -147 317q-133 134 -325 133zM514 816q104 0 188 -70q87 -69 123 -189h-580
q18 110 81 176q64 69 157 81q21 2 31 2zM359 1523q-33 -33 -37 -79t38 -89q36 -27 124 -117q84 -79 152 -148l68 -66l64 56q-198 313 -252 410q-28 54 -76 57q-47 9 -81 -24z" />
    <glyph glyph-name="eacute" unicode="&#xe9;" horiz-adv-x="1086" 
d="M544 901q-206 1 -340 -133t-134 -329q0 -189 133 -317q134 -128 341 -145q226 -16 395 84l-47 76q-117 -78 -288 -72q-135 5 -235 83q-99 80 -124 231q-6 44 -6 72h604h173q-14 185 -147 317q-133 134 -325 133zM514 816q104 0 188 -70q87 -69 123 -189h-580
q18 110 81 176q64 69 157 81q21 2 31 2zM726 1523q34 -33 38 -79q6 -46 -39 -89q-35 -27 -123 -117q-83 -79 -153 -148l-67 -66l-65 56q198 313 252 410q29 54 77 57q48 9 80 -24z" />
    <glyph glyph-name="ecircumflex" unicode="&#xea;" horiz-adv-x="1086" 
d="M544 901q-206 1 -340 -133t-134 -329q0 -189 133 -317q134 -128 341 -145q226 -16 395 84l-47 76q-117 -78 -288 -72q-135 5 -235 83q-99 80 -124 231q-6 44 -6 72h604h173q-14 185 -147 317q-133 134 -325 133zM514 816q104 0 188 -70q87 -69 123 -189h-580
q18 110 81 176q64 69 157 81q21 2 31 2zM894 1085l-79 -61l-273 277l-273 -277l-78 61l268 339h165z" />
    <glyph glyph-name="edieresis" unicode="&#xeb;" horiz-adv-x="1086" 
d="M544 901q-206 1 -340 -133t-134 -329q0 -189 133 -317q134 -128 341 -145q226 -16 395 84l-47 76q-117 -78 -288 -72q-135 5 -235 83q-99 80 -124 231q-6 44 -6 72h604h173q-14 185 -147 317q-133 134 -325 133zM514 816q104 0 188 -70q87 -69 123 -189h-580
q18 110 81 176q64 69 157 81q21 2 31 2zM346 1228q-34 36 -85 36q-47 0 -84 -35q-36 -34 -36 -85q1 -47 35 -84q38 -36 85 -36q51 0 84 34q36 39 36 86q1 51 -35 84zM910 1228q-34 36 -85 36q-47 0 -84 -35q-36 -34 -36 -85q1 -47 35 -84q38 -36 85 -36q51 0 84 34
q36 39 36 86q1 51 -35 84z" />
    <glyph glyph-name="igrave" unicode="&#xec;" horiz-adv-x="589" 
d="M374 367l-292 -24v-48q16 1 19 -1q57 -8 83 -29t29 -69v-586q-3 -48 -28 -68q-23 -18 -83 -27q-6 1 -20 -1v-49h422v49q-14 2 -20 1q-56 9 -82 27q-23 20 -28 68v757zM110 989q-34 -33 -38 -79t39 -89q36 -27 123 -117q84 -79 153 -148l67 -66l65 56q-198 313 -252 410
q-29 54 -77 57q-46 9 -80 -24z" />
    <glyph glyph-name="iacute" unicode="&#xed;" horiz-adv-x="590" 
d="M376 367l-292 -24v-48q16 1 19 -1q57 -8 83 -29t29 -69v-586q-3 -48 -28 -68q-23 -18 -83 -27q-6 1 -20 -1v-49h422v49q-14 2 -20 1q-56 9 -82 27q-23 20 -28 68v757zM479 989q34 -33 37 -79q6 -46 -38 -89q-36 -27 -124 -117q-82 -79 -152 -148l-68 -66l-64 56
q198 313 252 410q29 54 76 57q48 9 81 -24z" />
    <glyph glyph-name="icircumflex" unicode="&#xee;" horiz-adv-x="843" 
d="M502 367l-292 -24v-48q16 1 19 -1q57 -8 83 -29t29 -69v-586q-3 -48 -28 -68q-23 -18 -83 -27q-6 1 -20 -1v-49h422v49q-14 2 -20 1q-56 9 -82 27q-23 20 -28 68v757zM773 551l-79 -61l-274 277l-272 -277l-78 61l267 339h166z" />
    <glyph glyph-name="idieresis" unicode="&#xef;" horiz-adv-x="944" 
d="M553 367l-292 -24v-48q15 1 19 -1q57 -8 83 -29t29 -69v-586q-2 -48 -28 -68q-24 -18 -83 -27q-5 1 -20 -1v-49h422v49q-13 2 -20 1q-56 9 -82 27q-23 20 -28 68v757zM275 694q-34 36 -85 36q-47 0 -84 -35q-36 -34 -36 -85q0 -47 35 -84q39 -36 85 -36q50 0 84 34
q36 39 36 86q0 51 -35 84zM839 694q-34 36 -85 36q-47 0 -84 -35q-36 -34 -36 -85q0 -47 35 -84q39 -36 85 -36q50 0 84 34q36 39 36 86q0 51 -35 84z" />
    <glyph glyph-name="ntilde" unicode="&#xf1;" horiz-adv-x="968" 
d="M737 0h161v560q0 111 -32 174q-36 72 -100 112q-74 46 -143 50q-89 8 -179 -20q-53 -16 -116 -61q-63 -44 -97 -101v162h-161v-876h161v498q1 88 62 169q62 82 125 108q32 14 72 16q43 3 80 -6q81 -19 120 -73q46 -64 47 -170v-542zM846 1307q-10 -33 -27 -59
q-15 -26 -29 -44q-14 -16 -31 -27q-16 -7 -31 -14q-12 -6 -34 -4q-18 3 -32 6q-10 3 -36 13q-21 10 -36 18q-11 8 -39 23q-25 17 -39 23q-12 8 -41 22q-26 17 -42 24q-81 46 -168 13t-126 -124l-48 -108l35 -18q14 33 27 59q17 26 29 44q15 18 31 27q21 11 31 14q16 7 34 4
q22 -3 32 -6q15 -3 36 -13q26 -10 36 -18q14 -6 39 -22q29 -14 39 -23q15 -5 41 -23q29 -14 42 -22q83 -46 168 -14q87 33 126 123l48 108z" />
    <glyph glyph-name="ograve" unicode="&#xf2;" horiz-adv-x="1088" 
d="M879 766q-139 136 -335 135q-194 1 -335 -135q-139 -136 -139 -328q0 -191 139 -328q141 -135 335 -135q196 0 335 135q140 137 139 328q1 192 -139 328zM512 829q111 0 204 -102q93 -101 117 -253q29 -160 -39 -286q-67 -124 -188 -140q-118 -16 -222 89
q-102 105 -129 265q-27 162 39 286q70 126 188 140q10 2 30 1zM360 1523q-34 -33 -37 -79q-4 -46 39 -89q36 -27 123 -117q84 -79 153 -148l67 -66l65 56q-198 313 -252 410q-28 54 -77 57q-47 9 -81 -24z" />
    <glyph glyph-name="oacute" unicode="&#xf3;" horiz-adv-x="1088" 
d="M879 766q-139 136 -335 135q-194 1 -335 -135q-139 -136 -139 -328q0 -191 139 -328q141 -135 335 -135q196 0 335 135q140 137 139 328q1 192 -139 328zM512 829q111 0 204 -102q93 -101 117 -253q29 -160 -39 -286q-67 -124 -188 -140q-118 -16 -222 89
q-102 105 -129 265q-27 162 39 286q70 126 188 140q10 2 30 1zM728 1523q34 -33 37 -79q5 -46 -39 -89q-36 -27 -123 -117q-83 -79 -153 -148l-67 -66l-65 56q198 313 252 410q30 54 77 57q48 9 81 -24z" />
    <glyph glyph-name="ocircumflex" unicode="&#xf4;" horiz-adv-x="1088" 
d="M879 766q-139 136 -335 135q-194 1 -335 -135q-139 -136 -139 -328q0 -191 139 -328q141 -135 335 -135q196 0 335 135q140 137 139 328q1 192 -139 328zM512 829q111 0 204 -102q93 -101 117 -253q29 -160 -39 -286q-67 -124 -188 -140q-118 -16 -222 89
q-102 105 -129 265q-27 162 39 286q70 126 188 140q10 2 30 1zM896 1085l-80 -61l-273 277l-273 -277l-78 61l268 339h166z" />
    <glyph glyph-name="otilde" unicode="&#xf5;" horiz-adv-x="1088" 
d="M879 766q-139 136 -335 135q-194 1 -335 -135q-139 -136 -139 -328q0 -191 139 -328q141 -135 335 -135q196 0 335 135q140 137 139 328q1 192 -139 328zM512 829q111 0 204 -102q93 -101 117 -253q29 -160 -39 -286q-67 -124 -188 -140q-118 -16 -222 89
q-102 105 -129 265q-27 162 39 286q70 126 188 140q10 2 30 1zM906 1304q-10 -32 -27 -58q-15 -26 -29 -45q-14 -16 -31 -26q-16 -7 -31 -15q-12 -6 -34 -3q-18 3 -32 6q-10 3 -36 13q-21 10 -36 18q-11 8 -39 23q-25 17 -39 23q-12 7 -41 21q-26 17 -42 24q-81 46 -168 13
q-87 -32 -126 -123l-48 -108l35 -18q14 33 27 59q17 26 29 44q15 18 31 26q21 11 31 15q16 7 34 3q22 -2 32 -6q15 -2 36 -13q26 -10 36 -18q14 -5 39 -21q29 -14 39 -23q15 -5 41 -23q29 -14 42 -23q83 -45 168 -13q87 32 126 122l48 108z" />
    <glyph glyph-name="odieresis" unicode="&#xf6;" horiz-adv-x="1088" 
d="M879 766q-139 136 -335 135q-194 1 -335 -135q-139 -136 -139 -328q0 -191 139 -328q141 -135 335 -135q196 0 335 135q140 137 139 328q1 192 -139 328zM512 829q111 0 204 -102q93 -101 117 -253q29 -160 -39 -286q-67 -124 -188 -140q-118 -16 -222 89
q-102 105 -129 265q-27 162 39 286q70 126 188 140q10 2 30 1zM347 1228q-34 36 -85 36q-47 0 -84 -35q-36 -34 -36 -85q0 -47 35 -84q39 -36 85 -36q50 0 84 34q36 39 36 86q0 51 -35 84zM911 1228q-34 36 -85 36q-47 0 -84 -35q-36 -34 -36 -85q0 -47 35 -84
q39 -36 85 -36q50 0 84 34q36 39 36 86q0 51 -35 84z" />
    <glyph glyph-name="ugrave" unicode="&#xf9;" horiz-adv-x="968" 
d="M231 876h-161v-560q0 -108 32 -173q38 -74 100 -113q74 -44 143 -49q94 -7 179 19q54 18 116 61q64 45 97 101v-85q1 -56 1 -77h160v876h-161v-498q0 -86 -62 -168q-61 -81 -125 -108q-73 -30 -152 -11q-79 21 -120 75q-46 64 -47 168v542zM300 1498q-34 -34 -37 -80
q-4 -45 39 -88q36 -27 123 -117q84 -79 153 -149l67 -66l65 57q-198 313 -252 410q-28 54 -77 57q-47 8 -81 -24z" />
    <glyph glyph-name="uacute" unicode="&#xfa;" horiz-adv-x="968" 
d="M231 876h-161v-560q0 -108 32 -173q38 -74 100 -113q74 -44 143 -49q94 -7 179 19q54 18 116 61q64 45 97 101v-85q1 -56 1 -77h160v876h-161v-498q0 -86 -62 -168q-61 -81 -125 -108q-73 -30 -152 -11q-79 21 -120 75q-46 64 -47 168v542zM668 1498q34 -34 37 -80
q5 -45 -39 -88q-36 -27 -123 -117q-83 -79 -153 -149l-67 -66l-65 57q198 313 252 410q30 54 77 57q48 8 81 -24z" />
    <glyph glyph-name="ucircumflex" unicode="&#xfb;" horiz-adv-x="968" 
d="M231 876h-161v-560q0 -108 32 -173q38 -74 100 -113q74 -44 143 -49q94 -7 179 19q54 18 116 61q64 45 97 101v-85q1 -56 1 -77h160v876h-161v-498q0 -86 -62 -168q-61 -81 -125 -108q-73 -30 -152 -11q-79 21 -120 75q-46 64 -47 168v542zM836 1060l-80 -62l-273 278
l-273 -278l-78 62l268 339h166z" />
    <glyph glyph-name="udieresis" unicode="&#xfc;" horiz-adv-x="968" 
d="M231 876h-161v-560q0 -108 32 -173q38 -74 100 -113q74 -44 143 -49q94 -7 179 19q54 18 116 61q64 45 97 101v-85q1 -56 1 -77h160v876h-161v-498q0 -86 -62 -168q-61 -81 -125 -108q-73 -30 -152 -11q-79 21 -120 75q-46 64 -47 168v542zM287 1202q-34 36 -85 36
q-47 1 -84 -34q-36 -34 -36 -86q0 -47 35 -84q39 -36 85 -36q50 0 84 35q36 39 36 85q0 51 -35 84zM851 1202q-34 36 -85 36q-47 1 -84 -34q-36 -34 -36 -86q0 -47 35 -84q39 -36 85 -36q50 0 84 35q36 39 36 85q0 51 -35 84z" />
    <glyph glyph-name="yacute" unicode="&#xfd;" horiz-adv-x="1033" 
d="M70 876q254 -577 386 -876q-62 -150 -115 -239q-53 -87 -105 -87q-38 2 -93 39v-125q47 -32 91 -34q100 -6 171 108q23 38 49 88q27 52 42 86q16 34 42 93q28 61 32 71l393 876h-143l-280 -690l-303 690h-167zM700 1498q34 -34 37 -80q6 -45 -38 -88q-36 -27 -124 -117
q-83 -79 -152 -149l-67 -66l-65 57q198 313 252 410q29 54 77 57q48 8 80 -24z" />
    <glyph glyph-name="ydieresis" unicode="&#xff;" horiz-adv-x="1033" 
d="M70 876q254 -577 386 -876q-62 -150 -115 -239q-53 -87 -105 -87q-38 2 -93 39v-125q47 -32 91 -34q100 -6 171 108q23 38 49 88q27 52 42 86q16 34 42 93q28 61 32 71l393 876h-143l-280 -690l-303 690h-167zM320 1202q-34 36 -86 36q-47 1 -84 -34q-36 -34 -36 -86
q0 -47 35 -84q39 -36 85 -36q50 0 84 35q36 39 36 85q1 51 -34 84zM884 1202q-34 36 -86 36q-47 1 -84 -34q-36 -34 -36 -86q0 -47 35 -84q39 -36 85 -36q50 0 84 35q36 39 36 85q1 51 -34 84z" />
    <glyph glyph-name="Amacron" unicode="&#x100;" 
d="M672 1306l-602 -1306h149l219 494h524l205 -494h194l-565 1306h-124zM699 1086l224 -505h-447zM284 1538h865v-110h-865v110z" />
    <glyph glyph-name="amacron" unicode="&#x101;" horiz-adv-x="1076" 
d="M1006 872h-53l-109 -62q-134 92 -299 91q-205 1 -339 -134q-136 -134 -136 -329q0 -194 134 -329q136 -134 341 -134q165 1 299 91v-66h162v872zM515 832q115 2 208 -76q93 -76 121 -181v-323q1 -52 -24 -94q-23 -39 -61 -63q-38 -21 -77 -34q-39 -11 -77 -13
q-127 -4 -231 94q-102 97 -129 255q-25 161 45 287q72 128 194 144q2 0 13 1q12 3 18 3zM135 1134h865v-110h-865v110z" />
    <glyph glyph-name="Abreve" unicode="&#x102;" 
d="M672 1306l-602 -1306h149l219 494h524l205 -494h194l-565 1306h-124zM699 1086l224 -505h-447zM408 1752q-2 -129 95 -227q99 -97 231 -93q140 0 230 93q100 98 96 227h-101q3 -69 -62 -126q-57 -54 -163 -55q-92 1 -161 55q-61 57 -63 126h-102z" />
    <glyph glyph-name="abreve" unicode="&#x103;" horiz-adv-x="1076" 
d="M1006 872h-53l-109 -62q-134 92 -299 91q-205 1 -339 -134q-136 -134 -136 -329q0 -194 134 -329q136 -134 341 -134q165 1 299 91v-66h162v872zM515 832q115 2 208 -76q93 -76 121 -181v-323q1 -52 -24 -94q-23 -39 -61 -63q-38 -21 -77 -34q-39 -11 -77 -13
q-127 -4 -231 94q-102 97 -129 255q-25 161 45 287q72 128 194 144q2 0 13 1q12 3 18 3zM231 1348q-3 -129 95 -227q98 -97 230 -94q140 1 230 94q100 98 96 227h-100q3 -69 -63 -126q-57 -55 -163 -56q-92 1 -161 56q-61 57 -62 126h-102z" />
    <glyph glyph-name="Cacute" unicode="&#x106;" 
d="M774 1343q-252 -3 -439 -139q-188 -137 -245 -382q-20 -92 -20 -167q-1 -149 60 -276q62 -127 162 -211q102 -83 224 -136q124 -50 257 -64q176 -18 329 19q154 39 259 103l-50 66q-63 -46 -192 -79q-127 -33 -243 -23q-227 21 -385 162q-156 142 -195 384q-20 134 1 251
q23 118 77 200q56 83 132 136q78 53 165 67q131 22 245 -20q116 -42 179 -132h215q-86 106 -233 174q-147 69 -303 67zM899 1966q34 -34 37 -80q6 -45 -38 -88q-36 -27 -124 -117q-82 -79 -152 -149l-67 -66l-65 57q198 313 252 410q30 54 77 57q47 8 80 -24z" />
    <glyph glyph-name="cacute" unicode="&#x107;" horiz-adv-x="1010" 
d="M546 894q-206 0 -342 -133q-135 -133 -132 -331q0 -92 32 -172q34 -79 80 -130q48 -50 111 -87q63 -36 122 -54q62 -19 119 -22q130 -9 234 16q106 27 170 72l-37 57q-129 -82 -297 -67q-152 14 -251 115q-99 104 -118 255q-19 156 53 273q72 118 193 134q144 18 237 -88
h186q-64 75 -160 119q-94 43 -200 43zM688 1516q34 -34 38 -80q6 -45 -39 -88q-35 -27 -123 -117q-83 -79 -153 -149l-67 -66l-65 57q198 313 252 410q29 54 77 57q48 8 80 -24z" />
    <glyph glyph-name="Ccircumflex" unicode="&#x108;" 
d="M774 1343q-252 -3 -439 -139q-188 -137 -245 -382q-20 -92 -20 -167q-1 -149 60 -276q62 -127 162 -211q102 -83 224 -136q124 -50 257 -64q176 -18 329 19q154 39 259 103l-50 66q-63 -46 -192 -79q-127 -33 -243 -23q-227 21 -385 162q-156 142 -195 384q-20 134 1 251
q23 118 77 200q56 83 132 136q78 53 165 67q131 22 245 -20q116 -42 179 -132h215q-86 106 -233 174q-147 69 -303 67zM1067 1528l-79 -62l-274 278l-272 -278l-78 62l268 339h165z" />
    <glyph glyph-name="ccircumflex" unicode="&#x109;" horiz-adv-x="1010" 
d="M546 894q-206 0 -342 -133q-135 -133 -132 -331q0 -92 32 -172q34 -79 80 -130q48 -50 111 -87q63 -36 122 -54q62 -19 119 -22q130 -9 234 16q106 27 170 72l-37 57q-129 -82 -297 -67q-152 14 -251 115q-99 104 -118 255q-19 156 53 273q72 118 193 134q144 18 237 -88
h186q-64 75 -160 119q-94 43 -200 43zM856 1078l-79 -62l-273 278l-273 -278l-78 62l268 339h165z" />
    <glyph glyph-name="Ccaron" unicode="&#x10c;" 
d="M774 1343q-252 -3 -439 -139q-188 -137 -245 -382q-20 -92 -20 -167q-1 -149 60 -276q62 -127 162 -211q102 -83 224 -136q124 -50 257 -64q176 -18 329 19q154 39 259 103l-50 66q-63 -46 -192 -79q-127 -33 -243 -23q-227 21 -385 162q-156 142 -195 384q-20 134 1 251
q23 118 77 200q56 83 132 136q78 53 165 67q131 22 245 -20q116 -42 179 -132h215q-86 106 -233 174q-147 69 -303 67zM1067 1806l-79 61l-274 -277l-272 277l-78 -61l268 -340h165z" />
    <glyph glyph-name="ccaron" unicode="&#x10d;" horiz-adv-x="1010" 
d="M546 894q-206 0 -342 -133q-135 -133 -132 -331q0 -92 32 -172q34 -79 80 -130q48 -50 111 -87q63 -36 122 -54q62 -19 119 -22q130 -9 234 16q106 27 170 72l-37 57q-129 -82 -297 -67q-152 14 -251 115q-99 104 -118 255q-19 156 53 273q72 118 193 134q144 18 237 -88
h186q-64 75 -160 119q-94 43 -200 43zM856 1356l-79 61l-273 -277l-273 277l-78 -61l268 -340h165z" />
    <glyph glyph-name="Dcaron" unicode="&#x10e;" horiz-adv-x="1322" 
d="M70 1306v-1306h433q9 0 42 1q33 3 47 4q16 1 44 3q30 2 48 5t41 7q25 6 42 11q249 79 377 301q129 226 66 476q-44 174 -169 300q-125 128 -294 175q-75 27 -244 26zM246 1218h228q192 1 257 -31q117 -53 195 -184q80 -130 90 -296q16 -194 -66 -355q-81 -160 -222 -228
q-76 -37 -254 -38h-228v1132zM893 1768l-79 61l-274 -277l-272 277l-78 -61l268 -340h165z" />
    <glyph glyph-name="dcaron" unicode="&#x10f;" horiz-adv-x="1074" 
d="M1004 1350h-161q1 -92 1 -540q-134 92 -299 91q-205 1 -339 -134q-136 -134 -136 -329q0 -194 134 -329q136 -134 341 -134q165 1 299 91l107 -66h53v1350zM515 830q117 3 209 -74q93 -76 120 -181v-323q1 -52 -24 -94q-23 -39 -61 -63q-38 -21 -77 -34q-39 -11 -77 -13
q-127 -4 -231 94q-102 97 -129 255q-25 161 45 287q72 128 194 144q22 2 31 2zM888 1812l-79 61l-273 -277l-273 277l-78 -61l268 -340h165z" />
    <glyph glyph-name="Emacron" unicode="&#x112;" horiz-adv-x="1093" 
d="M70 1306v-1306h953v134l-777 -14v529l526 -5v135l-526 -5v410l706 -14v136h-882zM90 1538h866v-110h-866v110z" />
    <glyph glyph-name="emacron" unicode="&#x113;" horiz-adv-x="1086" 
d="M544 901q-206 1 -340 -133t-134 -329q0 -189 133 -317q134 -128 341 -145q226 -16 395 84l-47 76q-117 -78 -288 -72q-135 5 -235 83q-99 80 -124 231q-6 44 -6 72h604h173q-14 185 -147 317q-133 134 -325 133zM514 816q104 0 188 -70q87 -69 123 -189h-580
q18 110 81 176q64 69 157 81q21 2 31 2zM111 1134h865v-110h-865v110z" />
    <glyph glyph-name="Ebreve" unicode="&#x114;" horiz-adv-x="1093" 
d="M70 1306v-1306h953v134l-777 -14v529l526 -5v135l-526 -5v410l706 -14v136h-882zM172 1752q-2 -129 95 -227q99 -97 230 -93q141 0 231 93q100 98 96 227h-101q3 -69 -63 -126q-58 -54 -163 -55q-93 1 -161 55q-61 57 -62 126h-102z" />
    <glyph glyph-name="ebreve" unicode="&#x115;" horiz-adv-x="1086" 
d="M544 901q-206 1 -340 -133t-134 -329q0 -189 133 -317q134 -128 341 -145q226 -16 395 84l-47 76q-117 -78 -288 -72q-135 5 -235 83q-99 80 -124 231q-6 44 -6 72h604h173q-14 185 -147 317q-133 134 -325 133zM514 816q104 0 188 -70q87 -69 123 -189h-580
q18 110 81 176q64 69 157 81q21 2 31 2zM216 1348q-2 -129 95 -227q99 -97 231 -94q140 1 230 94q100 98 96 227h-101q3 -69 -62 -126q-57 -55 -163 -56q-92 1 -161 56q-61 57 -63 126h-102z" />
    <glyph glyph-name="Ecaron" unicode="&#x11a;" horiz-adv-x="1093" 
d="M70 1306v-1306h953v134l-777 -14v529l526 -5v135l-526 -5v410l706 -14v136h-882zM850 1768l-79 61l-274 -277l-272 277l-78 -61l267 -340h166z" />
    <glyph glyph-name="ecaron" unicode="&#x11b;" horiz-adv-x="1086" 
d="M544 901q-206 1 -340 -133t-134 -329q0 -189 133 -317q134 -128 341 -145q226 -16 395 84l-47 76q-117 -78 -288 -72q-135 5 -235 83q-99 80 -124 231q-6 44 -6 72h604h173q-14 185 -147 317q-133 134 -325 133zM514 816q104 0 188 -70q87 -69 123 -189h-580
q18 110 81 176q64 69 157 81q21 2 31 2zM894 1363l-79 61l-273 -277l-273 277l-78 -61l268 -339h165z" />
    <glyph glyph-name="Gcircumflex" unicode="&#x11c;" horiz-adv-x="1383" 
d="M773 1343q-195 1 -355 -84q-158 -84 -253 -243q-94 -158 -95 -361q-1 -149 60 -276q62 -127 162 -211q102 -83 224 -136q124 -50 257 -64q298 -28 540 94v354v146h-177v-146v-334q-142 -36 -260 -28q-227 20 -382 161q-154 142 -197 385q-27 162 12 305q41 143 135 235
q98 93 226 114q131 22 246 -20q116 -43 179 -132h215q-98 115 -240 177q-142 64 -297 64zM1043 1526l-79 -61l-274 277l-272 -277l-78 61l268 340h165z" />
    <glyph glyph-name="gcircumflex" unicode="&#x11d;" horiz-adv-x="1132" 
d="M542 902q-159 -2 -267 -91t-108 -217q0 -76 42 -142q45 -67 115 -114q-156 -74 -162 -158q-5 -98 140 -149q27 -7 57 -13q-85 -8 -175 -65t-104 -139q-16 -90 46 -158q62 -66 174 -95q88 -21 208 -24q122 -2 228 19q152 30 239 113q90 87 81 215q-12 206 -338 256
q-42 9 -157 20q-110 12 -156 19q-89 15 -96 56q-2 21 19 43q20 21 56 27q92 -35 178 -37q162 -3 278 87q117 92 117 221q1 92 -59 168q-14 20 -44 47h206v85h-355q-89 26 -163 26zM770 646q29 -108 -14 -203q-41 -93 -130 -114q-93 -19 -173 35q-78 56 -106 164
q-29 111 13 204q44 94 130 113q57 12 108 -4q50 -14 84 -49q36 -34 56 -72q22 -38 32 -74zM479 1q89 0 195 -20q122 -21 182 -66q62 -43 60 -112q0 -55 -50 -102q-51 -48 -141 -72q-81 -20 -180 -23q-89 0 -175 23q-64 21 -103 57q-35 36 -42 73q-6 43 2 71q9 32 29 55
q80 91 223 116zM916 1086l-79 -61l-274 277l-272 -277l-78 61l267 340h166z" />
    <glyph glyph-name="Gbreve" unicode="&#x11e;" horiz-adv-x="1383" 
d="M773 1343q-195 1 -355 -84q-158 -84 -253 -243q-94 -158 -95 -361q-1 -149 60 -276q62 -127 162 -211q102 -83 224 -136q124 -50 257 -64q298 -28 540 94v354v146h-177v-146v-334q-142 -36 -260 -28q-227 20 -382 161q-154 142 -197 385q-27 162 12 305q41 143 135 235
q98 93 226 114q131 22 246 -20q116 -43 179 -132h215q-98 115 -240 177q-142 64 -297 64zM365 1789q-3 -129 95 -227q98 -97 230 -93q141 0 231 93q99 98 96 227h-101q4 -69 -62 -126q-58 -55 -164 -55q-92 0 -160 55q-62 57 -63 126h-102z" />
    <glyph glyph-name="gbreve" unicode="&#x11f;" horiz-adv-x="1132" 
d="M542 902q-159 -2 -267 -91t-108 -217q0 -76 42 -142q45 -67 115 -114q-156 -74 -162 -158q-5 -98 140 -149q27 -7 57 -13q-85 -8 -175 -65t-104 -139q-16 -90 46 -158q62 -66 174 -95q88 -21 208 -24q122 -2 228 19q152 30 239 113q90 87 81 215q-12 206 -338 256
q-42 9 -157 20q-110 12 -156 19q-89 15 -96 56q-2 21 19 43q20 21 56 27q92 -35 178 -37q162 -3 278 87q117 92 117 221q1 92 -59 168q-14 20 -44 47h206v85h-355q-89 26 -163 26zM770 646q29 -108 -14 -203q-41 -93 -130 -114q-93 -19 -173 35q-78 56 -106 164
q-29 111 13 204q44 94 130 113q57 12 108 -4q50 -14 84 -49q36 -34 56 -72q22 -38 32 -74zM479 1q89 0 195 -20q122 -21 182 -66q62 -43 60 -112q0 -55 -50 -102q-51 -48 -141 -72q-81 -20 -180 -23q-89 0 -175 23q-64 21 -103 57q-35 36 -42 73q-6 43 2 71q9 32 29 55
q80 91 223 116zM238 1349q-2 -129 95 -227q99 -98 230 -94q141 0 231 94q100 98 96 227h-101q3 -69 -63 -126q-58 -55 -163 -55q-93 0 -161 55q-61 57 -62 126h-102z" />
    <glyph glyph-name="Gcedilla" unicode="&#x122;" horiz-adv-x="1383" 
d="M773 1343q-195 1 -355 -84q-158 -84 -253 -243q-94 -158 -95 -361q-1 -149 60 -276q62 -127 162 -211q102 -83 224 -136q124 -50 257 -64q298 -28 540 94v354v146h-177v-146v-334q-142 -36 -260 -28q-227 20 -382 161q-154 142 -197 385q-27 162 12 305q41 143 135 235
q98 93 226 114q131 22 246 -20q116 -43 179 -132h215q-98 115 -240 177q-142 64 -297 64zM776 -563q-80 1 -125 48q-27 29 -31 64q-2 38 28 56q10 6 21 9q11 2 11 1q10 1 20 -6q0 2 1 -1q4 0 3 -3q23 -13 19 -38q1 -11 -9 -23q-7 -10 -16 -17q-8 -3 -11 -12q-3 -3 6 -12
q32 -34 85 -31q40 2 64 18q28 18 38 43q16 25 19 49q7 26 7 51q6 33 -4 63q-8 33 -36 59q-26 29 -66 41q-16 4 -58 2v21q2 15 2 50q4 37 5 71h42l-6 -103q49 2 88 -16q39 -15 62 -36q25 -19 39 -48q18 -28 21 -54q8 -26 6 -47q-1 -32 -17 -70q-15 -36 -43 -65
q-27 -27 -71 -46q-43 -18 -94 -18z" />
    <glyph glyph-name="gcedilla" unicode="&#x123;" horiz-adv-x="1132" 
d="M542 902q-159 -2 -267 -91t-108 -217q0 -76 42 -142q45 -67 115 -114q-156 -74 -162 -158q-5 -98 140 -149q27 -7 57 -13q-85 -8 -175 -65t-104 -139q-16 -90 46 -158q62 -66 174 -95q88 -21 208 -24q122 -2 228 19q152 30 239 113q90 87 81 215q-12 206 -338 256
q-42 9 -157 20q-110 12 -156 19q-89 15 -96 56q-2 21 19 43q20 21 56 27q92 -35 178 -37q162 -3 278 87q117 92 117 221q1 92 -59 168q-14 20 -44 47h206v85h-355q-89 26 -163 26zM770 646q29 -108 -14 -203q-41 -93 -130 -114q-93 -19 -173 35q-78 56 -106 164
q-29 111 13 204q44 94 130 113q57 12 108 -4q50 -14 84 -49q36 -34 56 -72q22 -38 32 -74zM479 1q89 0 195 -20q122 -21 182 -66q62 -43 60 -112q0 -55 -50 -102q-51 -48 -141 -72q-81 -20 -180 -23q-89 0 -175 23q-64 21 -103 57q-35 36 -42 73q-6 43 2 71q9 32 29 55
q80 91 223 116zM515 -992q-79 1 -125 48q-28 28 -31 63q-1 39 29 57q10 6 20 8t11 1q11 1 21 -6q0 2 1 -1q3 0 2 -2q23 -14 19 -39q2 -11 -8 -23q-8 -9 -17 -16q-8 -4 -11 -12q-3 -4 6 -12q32 -34 86 -32q39 2 63 18q28 18 39 44q16 26 19 49q7 25 7 50q6 33 -5 64
q-8 33 -36 59q-27 29 -66 40q-15 4 -57 3v20q2 15 2 51q4 36 5 70h42l-6 -103q48 3 87 -15q39 -15 63 -36q25 -19 38 -48q19 -28 22 -54q8 -26 6 -47q-1 -33 -17 -71q-15 -36 -43 -65q-27 -27 -71 -45t-95 -18z" />
    <glyph glyph-name="Hcircumflex" unicode="&#x124;" horiz-adv-x="1134" 
d="M70 1306v-1306h178v668h638v-668h178v1306h-178v-551h-638v551h-178zM918 1489l-79 -61l-273 277l-273 -277l-78 61l268 340h165z" />
    <glyph glyph-name="hcircumflex" unicode="&#x125;" horiz-adv-x="970" 
d="M738 0h162v560q0 111 -32 174q-36 72 -100 112q-74 46 -142 50q-90 8 -179 -20q-54 -16 -118 -61q-63 -44 -97 -101q1 28 0 322q0 295 -1 314h-161v-1350h162v498q1 86 62 168q63 82 126 109q32 14 72 16q44 3 81 -6q81 -19 120 -73q45 -62 45 -170v-542zM837 1534
l-79 -62l-274 278l-272 -278l-78 62l267 339h166z" />
    <glyph glyph-name="Itilde" unicode="&#x128;" horiz-adv-x="934" 
d="M378 1306v-1306h178v1306h-178zM829 1709q-9 -33 -27 -59q-14 -26 -29 -44q-14 -16 -31 -27l-32 -14q-11 -6 -33 -4q-18 3 -33 6q-10 3 -36 13q-21 10 -36 18q-10 8 -38 23q-26 17 -40 23q-11 8 -40 22q-26 17 -42 24q-81 46 -168 13t-126 -124l-48 -108l34 -18
q14 33 28 59q16 26 29 44q15 18 31 27q20 11 31 14q15 7 34 4q21 -3 32 -6q15 -3 36 -13q26 -10 36 -18q14 -6 39 -22q28 -14 39 -23q15 -5 41 -23q29 -14 42 -22q83 -46 168 -14q87 33 126 123l48 108z" />
    <glyph glyph-name="itilde" unicode="&#x129;" horiz-adv-x="934" 
d="M548 367l-292 -24v-48q16 1 19 -1q57 -8 83 -29t29 -69v-586q-3 -48 -28 -68q-23 -18 -83 -27q-6 1 -20 -1v-49h422v49q-14 2 -20 1q-56 9 -82 27q-23 20 -28 68v757zM830 770q-10 -32 -28 -58q-14 -26 -29 -45q-14 -16 -31 -26q-16 -7 -31 -15q-11 -6 -34 -3
q-17 3 -32 6q-10 3 -36 13q-21 10 -36 18q-11 8 -39 23q-25 17 -39 23q-11 7 -41 21q-26 17 -42 24q-81 46 -168 13q-87 -32 -126 -123l-48 -108l35 -18q13 33 27 59q16 26 29 44q15 18 31 26q21 11 32 15q15 7 33 3q22 -2 33 -6q15 -2 36 -13q26 -10 36 -18q14 -5 38 -21
q29 -14 40 -23q14 -5 40 -23q29 -14 42 -23q83 -45 168 -13q87 32 126 122l48 108z" />
    <glyph glyph-name="Imacron" unicode="&#x12a;" horiz-adv-x="1005" 
d="M413 1306v-1306h178v1306h-178zM70 1538h865v-110h-865v110z" />
    <glyph glyph-name="imacron" unicode="&#x12b;" horiz-adv-x="1005" 
d="M583 367l-292 -24v-48q15 1 19 -1q57 -8 83 -29t29 -69v-586q-2 -48 -28 -68q-24 -18 -83 -27q-5 1 -20 -1v-49h422v49q-13 2 -20 1q-56 9 -82 27q-23 20 -28 68v757zM70 600h865v-110h-865v110z" />
    <glyph glyph-name="Ibreve" unicode="&#x12c;" horiz-adv-x="795" 
d="M309 1306v-1306h178v1306h-178zM71 1752q-3 -129 95 -227q99 -97 231 -93q141 0 230 93q99 98 96 227h-101q4 -69 -62 -126q-58 -54 -163 -55q-93 1 -161 55q-62 57 -63 126h-102z" />
    <glyph glyph-name="ibreve" unicode="&#x12d;" horiz-adv-x="794" 
d="M478 367l-292 -24v-48q16 1 19 -1q57 -8 83 -29t29 -69v-586q-3 -48 -28 -68q-23 -18 -83 -27q-6 1 -20 -1v-49h422v49q-14 2 -20 1q-56 9 -82 27q-23 20 -28 68v757zM71 814q-3 -129 95 -227q98 -97 230 -94q140 1 230 94q100 98 96 227h-100q3 -69 -63 -126
q-57 -55 -163 -56q-92 1 -161 56q-61 57 -62 126h-102z" />
    <glyph glyph-name="dotlessi" unicode="&#x131;" horiz-adv-x="562" 
d="M362 902l-292 -24v-48q16 0 19 -1q57 -8 83 -29t29 -69v-586q-3 -48 -28 -68q-23 -19 -83 -27q-6 0 -20 -1v-49h422v49q-14 1 -20 1q-56 8 -82 27q-23 20 -28 68v757z" />
    <glyph glyph-name="Jcircumflex" unicode="&#x134;" horiz-adv-x="843" 
d="M347 1306q7 -882 -1 -1491q0 -62 -22 -108q-20 -45 -52 -68q-32 -21 -65 -30t-61 -3q-36 9 -58 36v-88q44 -12 91 -10q51 4 97 12q48 8 93 36q46 28 80 67q35 39 55 102q21 63 21 143l-1 1402h-177zM773 1489l-79 -61l-274 277l-272 -277l-78 61l268 340h165z" />
    <glyph glyph-name="jcircumflex" unicode="&#x135;" horiz-adv-x="843" 
d="M347 876q3 -440 0 -1073q1 -62 -21 -108q-21 -47 -54 -68q-32 -21 -65 -29t-61 -2q-36 9 -58 36v-89q44 -11 91 -10q51 3 97 12q48 9 93 36q46 28 80 67q35 39 55 102q21 64 21 143l-1 983h-177zM773 1069l-79 -61l-274 277l-272 -277l-78 61l268 340h165z" />
    <glyph glyph-name="Kcedilla" unicode="&#x136;" horiz-adv-x="1119" 
d="M70 1306v-1306h178v623q12 1 21 1q9 1 17 0q7 -1 14 -5q9 -3 12 -5t11 -10q9 -8 11 -11q3 -3 12 -15q10 -11 13 -15l475 -563h215l-636 695l535 554l54 57h-141q-393 -423 -498 -539q-27 -28 -51 -43q-20 -13 -64 -14v596h-178zM526 -625q-80 1 -125 48q-27 29 -31 63
q-2 38 29 57q10 5 31 9v0q10 1 20 -6q1 2 2 -1q4 1 2 -2q23 -14 19 -39q2 -11 -8 -22q-7 -10 -17 -17q-8 -3 -11 -12q-3 -3 6 -12q32 -34 85 -31q40 2 64 18q28 18 38 43q16 25 20 49q8 25 7 50q5 34 -5 64q-8 33 -36 59q-26 29 -66 41q-16 4 -58 2v20q2 15 3 51q4 37 5 71
h42l-6 -104q48 2 87 -15q39 -15 63 -36q24 -19 38 -48q18 -28 22 -54q8 -26 6 -47q0 -33 -17 -71q-15 -37 -43 -65q-27 -27 -71 -45q-43 -18 -95 -18z" />
    <glyph glyph-name="kcedilla" unicode="&#x137;" horiz-adv-x="932" 
d="M231 1350h-161v-1350h161v266l150 150l293 -416h188l-400 498l376 378h-138l-469 -505v979zM432 -625q-79 1 -124 48q-28 29 -32 63q-2 38 29 57q11 5 31 9v0q11 1 21 -6q1 2 1 -1q4 1 2 -2q24 -14 20 -39q2 -11 -9 -22q-7 -10 -17 -17q-8 -3 -10 -12q-3 -3 6 -12
q32 -34 85 -31q39 2 63 18q28 18 39 43q15 25 19 49q8 25 7 50q5 34 -5 64q-8 33 -36 59q-26 29 -66 41q-16 4 -57 2v20q2 15 2 51q4 37 5 71h42l-6 -104q48 2 88 -15q38 -15 62 -36q24 -19 38 -48q18 -28 22 -54q8 -26 6 -47q0 -33 -17 -71q-15 -37 -43 -65
q-27 -27 -71 -45q-43 -18 -95 -18z" />
    <glyph glyph-name="Lacute" unicode="&#x139;" horiz-adv-x="1071" 
d="M70 1306v-1306h931v134l-755 -14v1186h-176zM719 1927q34 -33 37 -79q6 -46 -38 -89q-36 -27 -124 -116q-82 -79 -152 -149l-67 -66l-65 56q198 314 252 411q30 53 77 56q47 9 80 -24z" />
    <glyph glyph-name="lacute" unicode="&#x13a;" horiz-adv-x="590" 
d="M376 1350h-161v-1350h161v1350zM479 1972q34 -34 37 -80q6 -45 -38 -88q-36 -27 -124 -117q-82 -79 -152 -149l-67 -66l-65 57q198 313 252 410q30 54 77 57q47 8 80 -24z" />
    <glyph glyph-name="Lcedilla" unicode="&#x13b;" horiz-adv-x="1071" 
d="M70 1306v-1306h931v134l-755 -14v1186h-176zM502 -625q-80 1 -125 48q-27 29 -31 63q-2 38 29 57q10 5 31 9v0q10 1 20 -6q1 2 2 -1q4 1 2 -2q23 -14 19 -39q2 -11 -8 -22q-7 -10 -17 -17q-8 -3 -11 -12q-3 -3 6 -12q32 -34 85 -31q40 2 64 18q28 18 38 43q16 25 20 49
q8 25 7 50q5 34 -5 64q-8 33 -36 59q-26 29 -66 41q-16 4 -58 2v20q2 15 3 51q4 37 5 71h42l-6 -104q48 2 87 -15q39 -15 63 -36q24 -19 38 -48q18 -28 22 -54q8 -26 6 -47q0 -33 -17 -71q-15 -37 -43 -65q-27 -27 -71 -45q-43 -18 -95 -18z" />
    <glyph glyph-name="lcedilla" unicode="&#x13c;" horiz-adv-x="523" 
d="M341 1350h-161v-1350h161v1350zM227 -625q-79 1 -125 48q-28 29 -31 63q-1 38 29 57q10 5 20 8q10 1 11 1q11 1 20 -6q1 2 1 -1q4 1 3 -2q23 -14 19 -39q2 -11 -8 -22q-8 -10 -17 -17q-8 -3 -11 -12q-3 -3 6 -12q32 -34 85 -31q39 2 64 18q27 18 38 43q15 25 19 49
q8 25 8 50q6 34 -5 64q-8 33 -36 59q-27 29 -66 41q-16 4 -58 2v20q3 15 3 51q4 37 4 71h42l-6 -104q48 2 88 -15q38 -15 62 -36q25 -19 39 -48q18 -28 21 -54q8 -26 6 -47q0 -33 -16 -71q-16 -37 -44 -65q-26 -27 -70 -45t-95 -18z" />
    <glyph glyph-name="Lcaron" unicode="&#x13d;" horiz-adv-x="1071" 
d="M70 1306v-1306h931v134l-755 -14v1186h-176zM887 1768l-79 61l-274 -277l-272 277l-78 -61l268 -340h165z" />
    <glyph glyph-name="lcaron" unicode="&#x13e;" horiz-adv-x="843" 
d="M502 1350h-161v-1350h161v1350zM773 1812l-79 61l-274 -277l-272 277l-78 -61l267 -340h166z" />
    <glyph glyph-name="Nacute" unicode="&#x143;" horiz-adv-x="1222" 
d="M80 1306l-10 -1306h139l-9 1130l832 -1130h111l9 1306h-139l10 -1028l-750 1028h-193zM795 1927q34 -33 37 -79q6 -46 -38 -89q-36 -27 -124 -116q-82 -79 -152 -149l-68 -66l-64 56q198 314 252 411q29 53 76 56q48 9 81 -24z" />
    <glyph glyph-name="nacute" unicode="&#x144;" horiz-adv-x="968" 
d="M737 0h161v560q0 111 -32 174q-36 72 -100 112q-74 46 -143 50q-89 8 -179 -20q-53 -16 -116 -61q-63 -44 -97 -101v162h-161v-876h161v498q1 88 62 169q62 82 125 108q32 14 72 16q43 3 80 -6q81 -19 120 -73q46 -64 47 -170v-542zM668 1525q34 -33 37 -79
q5 -46 -39 -89q-36 -27 -123 -116q-83 -79 -153 -149l-67 -66l-65 56q198 314 252 411q30 53 77 56q48 9 81 -24z" />
    <glyph glyph-name="Ncedilla" unicode="&#x145;" horiz-adv-x="1222" 
d="M80 1306l-10 -1306h139l-9 1130l832 -1130h111l9 1306h-139l10 -1028l-750 1028h-193zM578 -625q-80 1 -125 48q-27 29 -31 63q-2 38 28 57q10 5 32 9v0q10 1 20 -6q0 2 1 -1q4 1 3 -2q23 -14 19 -39q1 -11 -9 -22q-7 -10 -16 -17q-8 -3 -11 -12q-3 -3 6 -12
q32 -34 85 -31q40 2 64 18q28 18 38 43q16 25 19 49q7 25 7 50q6 34 -4 64q-8 33 -36 59q-26 29 -66 41q-16 4 -58 2v20q2 15 2 51q4 37 5 71h42l-6 -104q49 2 88 -15q39 -15 62 -36q25 -19 39 -48q18 -28 21 -54q8 -26 6 -47q-1 -33 -17 -71q-15 -37 -43 -65
q-27 -27 -71 -45q-43 -18 -94 -18z" />
    <glyph glyph-name="ncedilla" unicode="&#x146;" horiz-adv-x="968" 
d="M737 0h161v560q0 111 -32 174q-36 72 -100 112q-74 46 -143 50q-89 8 -179 -20q-53 -16 -116 -61q-63 -44 -97 -101v162h-161v-876h161v498q1 88 62 169q62 82 125 108q32 14 72 16q43 3 80 -6q81 -19 120 -73q46 -64 47 -170v-542zM450 -625q-79 1 -124 48
q-28 29 -32 63q-2 38 29 57q11 5 31 9v0q11 1 21 -6q1 2 1 -1q4 1 2 -2q24 -14 20 -39q2 -11 -9 -22q-7 -10 -17 -17q-8 -3 -10 -12q-3 -3 6 -12q32 -34 85 -31q39 2 63 18q28 18 39 43q15 25 19 49q8 25 7 50q5 34 -5 64q-8 33 -36 59q-26 29 -66 41q-16 4 -57 2v20
q2 15 2 51q4 37 5 71h42l-6 -104q48 2 88 -15q38 -15 62 -36q24 -19 38 -48q18 -28 22 -54q8 -26 6 -47q0 -33 -17 -71q-15 -37 -43 -65q-27 -27 -71 -45q-43 -18 -95 -18z" />
    <glyph glyph-name="Ncaron" unicode="&#x147;" horiz-adv-x="1222" 
d="M80 1306l-10 -1306h139l-9 1130l832 -1130h111l9 1306h-139l10 -1028l-750 1028h-193zM963 1768l-79 61l-274 -277l-272 277l-78 -61l267 -340h166z" />
    <glyph glyph-name="ncaron" unicode="&#x148;" horiz-adv-x="968" 
d="M737 0h161v560q0 111 -32 174q-36 72 -100 112q-74 46 -143 50q-89 8 -179 -20q-53 -16 -116 -61q-63 -44 -97 -101v162h-161v-876h161v498q1 88 62 169q62 82 125 108q32 14 72 16q43 3 80 -6q81 -19 120 -73q46 -64 47 -170v-542zM836 1366l-80 61l-273 -277l-273 277
l-78 -61l268 -340h166z" />
    <glyph glyph-name="Omacron" unicode="&#x14c;" horiz-adv-x="1551" 
d="M1050 1288q-130 56 -274 55q-144 1 -275 -54q-129 -55 -225 -148q-93 -91 -150 -219q-56 -128 -56 -269q0 -140 55 -268q57 -128 150 -221q97 -91 226 -146q131 -54 275 -55q144 0 274 54q132 55 225 147q95 92 150 220q57 128 56 269q1 140 -55 267q-55 129 -150 221
q-94 93 -226 147zM722 1256q122 0 236 -72q116 -70 197 -195q83 -126 109 -279q30 -162 -13 -309t-142 -240t-230 -109q-130 -16 -257 50q-126 69 -216 198q-90 132 -119 294q-45 248 71 442t314 218q18 2 50 2zM344 1576h865v-111h-865v111z" />
    <glyph glyph-name="omacron" unicode="&#x14d;" horiz-adv-x="1088" 
d="M879 766q-139 136 -335 135q-194 1 -335 -135q-139 -136 -139 -328q0 -191 139 -328q141 -135 335 -135q196 0 335 135q140 137 139 328q1 192 -139 328zM512 829q111 0 204 -102q93 -101 117 -253q29 -160 -39 -286q-67 -124 -188 -140q-118 -16 -222 89
q-102 105 -129 265q-27 162 39 286q70 126 188 140q10 2 30 1zM112 1134h865v-110h-865v110z" />
    <glyph glyph-name="Obreve" unicode="&#x14e;" horiz-adv-x="1551" 
d="M1050 1288q-130 56 -274 55q-144 1 -275 -54q-129 -55 -225 -148q-93 -91 -150 -219q-56 -128 -56 -269q0 -140 55 -268q57 -128 150 -221q97 -91 226 -146q131 -54 275 -55q144 0 274 54q132 55 225 147q95 92 150 220q57 128 56 269q1 140 -55 267q-55 129 -150 221
q-94 93 -226 147zM722 1256q122 0 236 -72q116 -70 197 -195q83 -126 109 -279q30 -162 -13 -309t-142 -240t-230 -109q-130 -16 -257 50q-126 69 -216 198q-90 132 -119 294q-45 248 71 442t314 218q18 2 50 2zM449 1789q-3 -129 95 -227q98 -97 230 -93q141 0 231 93
q99 98 96 227h-101q4 -69 -62 -126q-58 -55 -164 -55q-92 0 -160 55q-62 57 -63 126h-102z" />
    <glyph glyph-name="obreve" unicode="&#x14f;" horiz-adv-x="1088" 
d="M879 766q-139 136 -335 135q-194 1 -335 -135q-139 -136 -139 -328q0 -191 139 -328q141 -135 335 -135q196 0 335 135q140 137 139 328q1 192 -139 328zM512 829q111 0 204 -102q93 -101 117 -253q29 -160 -39 -286q-67 -124 -188 -140q-118 -16 -222 89
q-102 105 -129 265q-27 162 39 286q70 126 188 140q10 2 30 1zM218 1348q-3 -129 94 -227q99 -97 231 -94q141 1 230 94q99 98 96 227h-101q4 -69 -62 -126q-58 -55 -163 -56q-93 1 -161 56q-61 57 -62 126h-102z" />
    <glyph glyph-name="Odblacute" unicode="&#x150;" horiz-adv-x="1551" 
d="M1050 1288q-130 56 -274 55q-144 1 -275 -54q-129 -55 -225 -148q-93 -91 -150 -219q-56 -128 -56 -269q0 -140 55 -268q57 -128 150 -221q97 -91 226 -146q131 -54 275 -55q144 0 274 54q132 55 225 147q95 92 150 220q57 128 56 269q1 140 -55 267q-55 129 -150 221
q-94 93 -226 147zM722 1256q122 0 236 -72q116 -70 197 -195q83 -126 109 -279q30 -162 -13 -309t-142 -240t-230 -109q-130 -16 -257 50q-126 69 -216 198q-90 132 -119 294q-45 248 71 442t314 218q18 2 50 2zM716 1964q34 -33 37 -79q5 -45 -39 -89q-36 -26 -123 -116
q-83 -80 -153 -149l-68 -66l-65 57q199 313 253 410q26 54 77 56q48 8 81 -24zM1205 1964q34 -33 37 -79q6 -45 -38 -89q-36 -26 -124 -116q-82 -80 -152 -149l-68 -66l-65 57q199 313 253 410q26 54 77 56q47 8 80 -24z" />
    <glyph glyph-name="odblacute" unicode="&#x151;" horiz-adv-x="1088" 
d="M879 766q-139 136 -335 135q-194 1 -335 -135q-139 -136 -139 -328q0 -191 139 -328q141 -135 335 -135q196 0 335 135q140 137 139 328q1 192 -139 328zM512 829q111 0 204 -102q93 -101 117 -253q29 -160 -39 -286q-67 -124 -188 -140q-118 -16 -222 89
q-102 105 -129 265q-27 162 39 286q70 126 188 140q10 2 30 1zM484 1523q34 -33 37 -79q6 -46 -38 -89q-36 -27 -124 -117q-83 -79 -152 -148l-69 -66l-64 56q198 313 253 410q27 54 77 57q48 9 80 -24zM974 1523q34 -33 37 -79q5 -46 -39 -89q-36 -27 -123 -117
q-83 -79 -153 -148l-68 -66l-65 56q199 313 253 410q26 54 77 57q48 9 81 -24z" />
    <glyph glyph-name="Racute" unicode="&#x154;" horiz-adv-x="1117" 
d="M70 1306v-1306h178v598q75 9 111 -35l473 -561h215q-397 418 -568 620q36 0 60 2q169 18 259 106q92 90 100 210q4 47 -11 97q-13 51 -50 98q-35 51 -91 87q-54 37 -141 60q-85 25 -189 24h-346zM248 1218h206q64 0 114 -26t78 -69q28 -44 43 -90q15 -47 15 -95
q0 -96 -83 -175q-82 -79 -211 -79h-162v534zM742 1927q34 -33 37 -79q6 -46 -38 -89q-36 -27 -124 -116q-83 -79 -152 -149l-67 -66l-65 56q198 314 252 411q29 53 77 56q48 9 80 -24z" />
    <glyph glyph-name="racute" unicode="&#x155;" horiz-adv-x="690" 
d="M464 901q-134 3 -234 -96v71h-160v-876h160v570q0 102 57 163q60 63 141 61q82 -1 145 -66l47 129q-69 43 -156 44zM528 1526q34 -33 38 -79q6 -45 -39 -89q-35 -26 -123 -116q-83 -80 -153 -149l-67 -66l-65 57q198 313 252 410q29 54 77 56q48 8 80 -24z" />
    <glyph glyph-name="Rcedilla" unicode="&#x156;" horiz-adv-x="1117" 
d="M70 1306v-1306h178v598q75 9 111 -35l473 -561h215q-397 418 -568 620q36 0 60 2q169 18 259 106q92 90 100 210q4 47 -11 97q-13 51 -50 98q-35 51 -91 87q-54 37 -141 60q-85 25 -189 24h-346zM248 1218h206q64 0 114 -26t78 -69q28 -44 43 -90q15 -47 15 -95
q0 -96 -83 -175q-82 -79 -211 -79h-162v534zM525 -625q-79 1 -125 48q-28 29 -31 63q-1 38 29 57q10 5 20 8q10 1 11 1q11 1 20 -6q1 2 1 -1q4 1 3 -2q23 -14 19 -39q2 -11 -8 -22q-8 -10 -17 -17q-8 -3 -11 -12q-3 -3 6 -12q32 -34 85 -31q39 2 64 18q27 18 38 43
q15 25 19 49q8 25 8 50q6 34 -5 64q-8 33 -36 59q-27 29 -66 41q-16 4 -58 2v20q3 15 3 51q4 37 4 71h42l-6 -104q48 2 88 -15q38 -15 62 -36q25 -19 39 -48q18 -28 21 -54q8 -26 6 -47q0 -33 -16 -71q-16 -37 -44 -65q-26 -27 -70 -45t-95 -18z" />
    <glyph glyph-name="rcedilla" unicode="&#x157;" horiz-adv-x="690" 
d="M464 901q-134 3 -234 -96v71h-160v-876h160v570q0 102 57 163q60 63 141 61q82 -1 145 -66l47 129q-69 43 -156 44zM311 -625q-79 1 -125 48q-28 29 -31 63q-1 38 29 57q10 5 20 8q10 1 11 1q11 1 21 -6q0 2 1 -1q3 1 2 -2q23 -14 19 -39q2 -11 -8 -22q-8 -10 -17 -17
q-8 -3 -11 -12q-3 -3 6 -12q32 -34 86 -31q39 2 63 18q28 18 39 43q16 25 19 49q7 25 7 50q6 34 -5 64q-8 33 -36 59q-27 29 -66 41q-15 4 -57 2v20q2 15 2 51q4 37 5 71h42l-6 -104q48 2 87 -15q39 -15 63 -36q25 -19 38 -48q19 -28 22 -54q8 -26 6 -47q-1 -33 -17 -71
q-15 -37 -43 -65q-27 -27 -71 -45t-95 -18z" />
    <glyph glyph-name="Rcaron" unicode="&#x158;" horiz-adv-x="1117" 
d="M70 1306v-1306h178v598q75 9 111 -35l473 -561h215q-397 418 -568 620q36 0 60 2q169 18 259 106q92 90 100 210q4 47 -11 97q-13 51 -50 98q-35 51 -91 87q-54 37 -141 60q-85 25 -189 24h-346zM248 1218h206q64 0 114 -26t78 -69q28 -44 43 -90q15 -47 15 -95
q0 -96 -83 -175q-82 -79 -211 -79h-162v534zM780 1768l-79 61l-273 -277l-273 277l-78 -61l268 -340h165z" />
    <glyph glyph-name="rcaron" unicode="&#x159;" horiz-adv-x="843" 
d="M541 901q-134 3 -234 -96v71h-160v-876h160v570q0 102 57 163q60 63 141 61q82 -1 145 -66l47 129q-69 43 -156 44zM773 1367l-79 61l-273 -277l-273 277l-78 -61l268 -340h165z" />
    <glyph glyph-name="Sacute" unicode="&#x15a;" horiz-adv-x="1130" 
d="M557 1342q-224 12 -371 -108q-57 -46 -90 -126q-30 -79 -19 -170q13 -91 76 -156q46 -46 115 -86q70 -40 116 -58q47 -18 136 -48q88 -28 132 -46q45 -16 101 -51q57 -33 87 -77q48 -62 34 -148q-12 -84 -76 -135q-57 -44 -155 -61q-95 -16 -195 0q-94 14 -178 56
q-82 44 -139 108q-7 10 -30 46l-25 -181q15 -4 81 -39q128 -64 264 -87q139 -21 262 -1q123 21 212 84q91 64 131 163q40 107 21 204t-77 159q-40 44 -111 83q-69 40 -120 59q-51 20 -145 50q-80 28 -125 44q-43 18 -99 46q-56 30 -89 63q-39 41 -42 107q-2 68 43 122
q51 58 135 77q85 21 182 6q142 -18 238 -87q61 -40 91 -80l18 142q-194 117 -389 126zM748 1975q34 -33 37 -79q6 -46 -38 -89q-36 -27 -124 -116q-83 -79 -152 -149l-68 -66l-64 56q198 314 252 411q29 53 76 56q48 9 81 -24z" />
    <glyph glyph-name="sacute" unicode="&#x15b;" horiz-adv-x="821" 
d="M387 901q-153 5 -250 -95q-32 -32 -51 -84q-18 -51 -11 -115q9 -63 53 -111q20 -20 46 -39q28 -17 65 -33t63 -27q28 -8 77 -25q51 -16 70 -24q119 -40 147 -97q18 -36 9 -75q-7 -38 -33 -64q-28 -30 -78 -45q-50 -12 -98 -9q-47 4 -94 16q-60 18 -117 56q-57 40 -81 67
l-24 -119q116 -80 253 -98q152 -19 263 31q112 52 138 176q26 122 -35 201q-45 62 -200 115q-27 9 -89 29q-60 20 -83 28q-21 10 -54 27q-30 18 -50 39q-25 28 -25 69q1 43 23 73q25 35 75 50q52 17 115 6q71 -10 135 -50q64 -38 101 -84l22 110q-41 29 -98 57
q-87 43 -184 44zM596 1528q34 -34 37 -80q6 -45 -38 -88q-36 -27 -124 -117q-83 -79 -152 -149l-67 -66l-65 57q198 313 252 410q29 54 77 57q48 8 80 -24z" />
    <glyph glyph-name="Scircumflex" unicode="&#x15c;" horiz-adv-x="1130" 
d="M557 1342q-224 12 -371 -108q-57 -46 -90 -126q-30 -79 -19 -170q13 -91 76 -156q46 -46 115 -86q70 -40 116 -58q47 -18 136 -48q88 -28 132 -46q45 -16 101 -51q57 -33 87 -77q48 -62 34 -148q-12 -84 -76 -135q-57 -44 -155 -61q-95 -16 -195 0q-94 14 -178 56
q-82 44 -139 108q-7 10 -30 46l-25 -181q15 -4 81 -39q128 -64 264 -87q139 -21 262 -1q123 21 212 84q91 64 131 163q40 107 21 204t-77 159q-40 44 -111 83q-69 40 -120 59q-51 20 -145 50q-80 28 -125 44q-43 18 -99 46q-56 30 -89 63q-39 41 -42 107q-2 68 43 122
q51 58 135 77q85 21 182 6q142 -18 238 -87q61 -40 91 -80l18 142q-194 117 -389 126zM916 1537l-79 -61l-274 277l-272 -277l-78 61l267 340h166z" />
    <glyph glyph-name="scircumflex" unicode="&#x15d;" horiz-adv-x="843" 
d="M396 901q-152 5 -250 -95q-32 -32 -51 -84q-19 -51 -11 -115q9 -63 53 -111q19 -20 46 -39q29 -17 65 -33q37 -16 63 -27q29 -8 77 -25q50 -16 70 -24q118 -40 147 -97q18 -36 9 -75q-8 -38 -33 -64q-27 -30 -78 -45q-51 -12 -98 -9q-47 4 -94 16q-60 18 -117 56
q-57 40 -81 67l-24 -119q117 -80 253 -98q152 -19 263 31q111 52 138 176q27 122 -35 201q-46 62 -200 115q-28 9 -89 29q-59 20 -83 28q-21 10 -54 27q-30 18 -50 39q-26 28 -25 69q1 43 23 73q25 35 75 50q52 17 115 6q72 -10 135 -50q65 -38 101 -84l22 110
q-42 29 -98 57q-86 43 -184 44zM773 1090l-79 -62l-274 278l-272 -278l-78 62l268 339h165z" />
    <glyph glyph-name="Scedilla" unicode="&#x15e;" horiz-adv-x="1130" 
d="M557 1342q-224 12 -371 -108q-57 -46 -90 -126q-30 -79 -19 -170q13 -91 76 -156q46 -46 115 -86q70 -40 116 -58q47 -18 136 -48q88 -28 132 -46q45 -16 101 -51q57 -33 87 -77q48 -62 34 -148q-12 -84 -76 -135q-57 -44 -155 -61q-95 -16 -195 0q-94 14 -178 56
q-82 44 -139 108q-7 10 -30 46l-25 -181q15 -4 81 -39q128 -64 264 -87q139 -21 262 -1q123 21 212 84q91 64 131 163q40 107 21 204t-77 159q-40 44 -111 83q-69 40 -120 59q-51 20 -145 50q-80 28 -125 44q-43 18 -99 46q-56 30 -89 63q-39 41 -42 107q-2 68 43 122
q51 58 135 77q85 21 182 6q142 -18 238 -87q61 -40 91 -80l18 142q-194 117 -389 126zM545 -557q-79 1 -125 48q-28 29 -31 64q-1 38 29 56q10 6 20 9q10 2 11 1q11 1 20 -6q1 2 2 -1q3 0 2 -3q23 -13 19 -38q2 -11 -8 -23q-8 -10 -17 -17q-8 -3 -11 -12q-3 -3 6 -12
q32 -34 85 -31q39 2 64 18q27 18 38 43q16 25 20 49q7 26 7 51q6 33 -5 63q-8 33 -36 59q-27 29 -66 41q-16 4 -58 2v21q3 15 3 50q4 37 5 71h42l-6 -103q48 2 87 -16q39 -15 63 -36q25 -19 38 -48q19 -28 22 -54q8 -26 6 -47q-1 -32 -17 -70q-15 -36 -43 -65
q-27 -27 -71 -46q-44 -18 -95 -18z" />
    <glyph glyph-name="scedilla" unicode="&#x15f;" horiz-adv-x="821" 
d="M387 901q-153 5 -250 -95q-32 -32 -51 -84q-18 -51 -11 -115q9 -63 53 -111q20 -20 46 -39q28 -17 65 -33t63 -27q28 -8 77 -25q51 -16 70 -24q119 -40 147 -97q18 -36 9 -75q-7 -38 -33 -64q-28 -30 -78 -45q-50 -12 -98 -9q-47 4 -94 16q-60 18 -117 56q-57 40 -81 67
l-24 -119q116 -80 253 -98q152 -19 263 31q112 52 138 176q26 122 -35 201q-45 62 -200 115q-27 9 -89 29q-60 20 -83 28q-21 10 -54 27q-30 18 -50 39q-25 28 -25 69q1 43 23 73q25 35 75 50q52 17 115 6q71 -10 135 -50q64 -38 101 -84l22 110q-41 29 -98 57
q-87 43 -184 44zM393 -545q-79 1 -124 48q-28 29 -32 64q-1 38 29 56q10 6 21 9q10 2 10 1q11 1 21 -6q0 2 1 -1q3 0 2 -3q23 -13 20 -38q1 -11 -9 -23q-8 -10 -17 -17q-7 -3 -10 -12q-3 -3 6 -12q32 -34 85 -31q39 2 63 18q28 18 39 43q16 25 19 49q7 26 7 51q6 33 -5 63
q-8 33 -36 59q-27 29 -66 41q-15 4 -57 2v21q2 15 2 50q4 37 5 71h42l-6 -103q49 2 88 -16q39 -15 62 -36q25 -19 38 -48q19 -28 22 -54q8 -26 6 -47q-1 -32 -17 -70q-15 -36 -43 -65q-27 -27 -71 -46q-44 -18 -95 -18z" />
    <glyph glyph-name="Scaron" unicode="&#x160;" horiz-adv-x="1130" 
d="M557 1342q-224 12 -371 -108q-57 -46 -90 -126q-30 -79 -19 -170q13 -91 76 -156q46 -46 115 -86q70 -40 116 -58q47 -18 136 -48q88 -28 132 -46q45 -16 101 -51q57 -33 87 -77q48 -62 34 -148q-12 -84 -76 -135q-57 -44 -155 -61q-95 -16 -195 0q-94 14 -178 56
q-82 44 -139 108q-7 10 -30 46l-25 -181q15 -4 81 -39q128 -64 264 -87q139 -21 262 -1q123 21 212 84q91 64 131 163q40 107 21 204t-77 159q-40 44 -111 83q-69 40 -120 59q-51 20 -145 50q-80 28 -125 44q-43 18 -99 46q-56 30 -89 63q-39 41 -42 107q-2 68 43 122
q51 58 135 77q85 21 182 6q142 -18 238 -87q61 -40 91 -80l18 142q-194 117 -389 126zM916 1816l-79 61l-274 -277l-272 277l-78 -61l267 -340h166z" />
    <glyph glyph-name="scaron" unicode="&#x161;" horiz-adv-x="843" 
d="M396 901q-152 5 -250 -95q-32 -32 -51 -84q-19 -51 -11 -115q9 -63 53 -111q19 -20 46 -39q29 -17 65 -33q37 -16 63 -27q29 -8 77 -25q50 -16 70 -24q118 -40 147 -97q18 -36 9 -75q-8 -38 -33 -64q-27 -30 -78 -45q-51 -12 -98 -9q-47 4 -94 16q-60 18 -117 56
q-57 40 -81 67l-24 -119q117 -80 253 -98q152 -19 263 31q111 52 138 176q27 122 -35 201q-46 62 -200 115q-28 9 -89 29q-59 20 -83 28q-21 10 -54 27q-30 18 -50 39q-26 28 -25 69q1 43 23 73q25 35 75 50q52 17 115 6q72 -10 135 -50q65 -38 101 -84l22 110
q-42 29 -98 57q-86 43 -184 44zM773 1368l-79 61l-274 -277l-272 277l-78 -61l268 -340h165z" />
    <glyph glyph-name="Tcedilla" unicode="&#x162;" horiz-adv-x="1268" 
d="M70 1306v-136l475 14v-1184h178v1184l475 -14v136h-1128zM600 -625q-79 1 -124 48q-28 29 -32 63q-2 38 29 57q11 5 31 9v0q11 1 21 -6q1 2 1 -1q4 1 2 -2q24 -14 20 -39q2 -11 -9 -22q-7 -10 -17 -17q-8 -3 -10 -12q-3 -3 6 -12q32 -34 85 -31q39 2 63 18q28 18 39 43
q15 25 19 49q8 25 7 50q5 34 -5 64q-8 33 -36 59q-26 29 -66 41q-16 4 -57 2v20q2 15 2 51q4 37 5 71h42l-6 -104q48 2 88 -15q38 -15 62 -36q24 -19 38 -48q18 -28 22 -54q8 -26 6 -47q0 -33 -17 -71q-15 -37 -43 -65q-27 -27 -71 -45q-43 -18 -95 -18z" />
    <glyph glyph-name="tcedilla" unicode="&#x163;" horiz-adv-x="775" 
d="M249 1086v-210h-179v-86h179q-1 -414 -1 -582q0 -32 2 -58q2 -25 17 -60q13 -34 38 -59q27 -23 75 -41q50 -16 117 -15q100 1 175 45v82q-22 -14 -67 -23q-44 -8 -72 -5q-51 6 -80 38q-29 33 -37 61q-8 29 -8 59l2 558h254v86h-254l-2 312h-51zM478 -547q-80 1 -125 48
q-27 29 -31 63q-2 38 29 57q10 5 31 9v0q10 1 20 -6q1 2 2 -1q4 1 2 -2q23 -14 19 -39q2 -11 -8 -22q-7 -10 -17 -17q-8 -3 -11 -12q-3 -3 6 -12q32 -34 85 -31q40 2 64 18q28 18 38 43q16 25 20 49q8 25 7 50q5 34 -5 64q-8 33 -36 59q-26 29 -66 41q-16 4 -58 2v20
q2 15 3 51q4 37 5 71h42l-6 -104q48 2 87 -15q39 -15 63 -36q24 -19 38 -48q18 -28 22 -54q8 -26 6 -47q0 -33 -17 -71q-15 -37 -43 -65q-27 -27 -71 -45q-43 -18 -95 -18z" />
    <glyph glyph-name="Tcaron" unicode="&#x164;" horiz-adv-x="1268" 
d="M70 1306v-136l475 14v-1184h178v1184l475 -14v136h-1128zM986 1768l-80 61l-273 -277l-273 277l-78 -61l268 -340h166z" />
    <glyph glyph-name="tcaron" unicode="&#x165;" horiz-adv-x="843" 
d="M299 1086v-210h-179v-86h179q-1 -414 -1 -582q0 -32 2 -58q2 -25 17 -60q13 -34 38 -59q27 -23 75 -41q50 -16 117 -15q100 1 175 45v82q-22 -14 -67 -23q-44 -8 -72 -5q-51 6 -80 38q-29 33 -37 61q-8 29 -8 59l2 558h254v86h-254l-2 312h-51zM773 1650l-79 61
l-274 -277l-272 277l-78 -61l267 -340h166z" />
    <glyph glyph-name="Utilde" unicode="&#x168;" horiz-adv-x="1203" 
d="M70 1306v-821q0 -247 148 -388q140 -134 369 -134q232 0 373 134q160 151 164 383l9 826h-139q1 -2 5 -831q3 -92 -29 -174q-30 -81 -86 -133q-107 -100 -280 -100q-158 0 -260 100q-56 56 -76 125q-18 69 -19 163l-1 850h-178zM964 1709q-10 -33 -28 -59
q-14 -26 -28 -44q-14 -16 -32 -27q-16 -7 -31 -14q-11 -6 -33 -4q-18 3 -33 6q-10 3 -36 13q-21 10 -36 18q-11 8 -38 23q-25 17 -40 23q-11 8 -41 22q-26 17 -42 24q-81 46 -168 13t-126 -124l-48 -108l35 -18q14 33 28 59q17 26 29 44q15 18 31 27q21 11 31 14q16 7 34 4
q22 -3 32 -6q15 -3 36 -13q26 -10 36 -18q14 -6 38 -22q29 -14 40 -23q15 -5 41 -23q29 -14 42 -22q83 -46 168 -14q87 33 126 123l48 108z" />
    <glyph glyph-name="utilde" unicode="&#x169;" horiz-adv-x="968" 
d="M231 876h-161v-560q0 -108 32 -173q38 -74 100 -113q74 -44 143 -49q94 -7 179 19q54 18 116 61q64 45 97 101v-85q1 -56 1 -77h160v876h-161v-498q0 -86 -62 -168q-61 -81 -125 -108q-73 -30 -152 -11q-79 21 -120 75q-46 64 -47 168v542zM846 1279q-10 -33 -27 -59
q-15 -26 -29 -44q-14 -16 -31 -26q-16 -8 -31 -15q-12 -5 -34 -3q-18 3 -32 6q-10 4 -36 13q-21 10 -36 18q-11 9 -39 23q-25 17 -39 22q-12 8 -41 22q-26 17 -42 24q-81 46 -168 13q-87 -32 -126 -123l-48 -108l35 -18q14 33 27 58q17 27 29 45q15 17 31 26q21 11 31 15
q16 7 34 3q22 -3 32 -6q15 -3 36 -13q26 -10 36 -18q14 -6 39 -22q29 -14 39 -22q15 -6 41 -23q29 -15 42 -23q83 -46 168 -13q87 33 126 122l48 108z" />
    <glyph glyph-name="Umacron" unicode="&#x16a;" horiz-adv-x="1203" 
d="M70 1306v-821q0 -247 148 -388q140 -134 369 -134q232 0 373 134q160 151 164 383l9 826h-139q1 -2 5 -831q3 -92 -29 -174q-30 -81 -86 -133q-107 -100 -280 -100q-158 0 -260 100q-56 56 -76 125q-18 69 -19 163l-1 850h-178zM170 1538h865v-110h-865v110z" />
    <glyph glyph-name="umacron" unicode="&#x16b;" horiz-adv-x="1005" 
d="M249 876h-161v-560q0 -108 32 -173q38 -74 100 -113q74 -44 143 -49q94 -7 179 19q54 18 116 61q64 45 97 101v-85q1 -56 1 -77h160v876h-161v-498q0 -86 -62 -168q-61 -81 -125 -108q-73 -30 -152 -11q-79 21 -120 75q-46 64 -47 168v542zM70 1109h865v-111h-865v111z
" />
    <glyph glyph-name="Ubreve" unicode="&#x16c;" horiz-adv-x="1203" 
d="M70 1306v-821q0 -247 148 -388q140 -134 369 -134q232 0 373 134q160 151 164 383l9 826h-139q1 -2 5 -831q3 -92 -29 -174q-30 -81 -86 -133q-107 -100 -280 -100q-158 0 -260 100q-56 56 -76 125q-18 69 -19 163l-1 850h-178zM275 1752q-3 -129 95 -227q98 -97 230 -93
q141 0 231 93q99 98 96 227h-101q4 -69 -62 -126q-58 -54 -164 -55q-92 1 -160 55q-62 57 -63 126h-102z" />
    <glyph glyph-name="ubreve" unicode="&#x16d;" horiz-adv-x="968" 
d="M231 876h-161v-560q0 -108 32 -173q38 -74 100 -113q74 -44 143 -49q94 -7 179 19q54 18 116 61q64 45 97 101v-85q1 -56 1 -77h160v876h-161v-498q0 -86 -62 -168q-61 -81 -125 -108q-73 -30 -152 -11q-79 21 -120 75q-46 64 -47 168v542zM158 1322q-3 -128 94 -226
q99 -98 231 -94q141 0 230 94q99 98 96 226h-101q4 -69 -62 -126q-58 -54 -163 -55q-93 1 -161 55q-61 57 -62 126h-102z" />
    <glyph glyph-name="Uring" unicode="&#x16e;" horiz-adv-x="1203" 
d="M70 1306v-821q0 -247 148 -388q140 -134 369 -134q232 0 373 134q160 151 164 383l9 826h-139q1 -2 5 -831q3 -92 -29 -174q-30 -81 -86 -133q-107 -100 -280 -100q-158 0 -260 100q-56 56 -76 125q-18 69 -19 163l-1 850h-178zM600 1938q46 2 93 -20q47 -19 83 -56
q36 -34 57 -80q25 -46 23 -98q2 -54 -22 -100q-22 -46 -58 -82q-36 -33 -82 -54q-47 -20 -94 -20q-46 0 -93 19q-45 21 -82 55q-36 36 -57 81q-22 47 -22 101q0 52 22 97q21 48 57 81q37 37 82 56q47 22 93 20zM604 1831q-55 1 -102 -43q-46 -43 -46 -104q0 -60 46 -105
q47 -43 102 -44q56 -1 102 43t47 106q-1 61 -47 104q-46 44 -102 43z" />
    <glyph glyph-name="uring" unicode="&#x16f;" horiz-adv-x="968" 
d="M231 876h-161v-560q0 -108 32 -173q38 -74 100 -113q74 -44 143 -49q94 -7 179 19q54 18 116 61q64 45 97 101v-85q1 -56 1 -77h160v876h-161v-498q0 -86 -62 -168q-61 -81 -125 -108q-73 -30 -152 -11q-79 21 -120 75q-46 64 -47 168v542zM483 1508q46 2 92 -20
q47 -18 83 -55q36 -34 58 -81q25 -46 22 -98q2 -54 -21 -100q-22 -45 -59 -81q-36 -33 -82 -54t-93 -21q-47 1 -94 20q-45 22 -81 55q-36 35 -58 80q-22 47 -22 101q0 52 22 97q22 49 58 82q36 37 81 55q47 22 94 20zM486 1402q-55 0 -102 -44q-45 -43 -45 -104
q0 -60 45 -104q47 -44 102 -45q56 -1 102 43t47 106q-1 61 -47 104q-46 44 -102 44z" />
    <glyph glyph-name="Udblacute" unicode="&#x170;" horiz-adv-x="1203" 
d="M70 1306v-821q0 -247 148 -388q140 -134 369 -134q232 0 373 134q160 151 164 383l9 826h-139q1 -2 5 -831q3 -92 -29 -174q-30 -81 -86 -133q-107 -100 -280 -100q-158 0 -260 100q-56 56 -76 125q-18 69 -19 163l-1 850h-178zM542 1927q34 -33 37 -79q5 -46 -39 -89
q-36 -27 -123 -116q-83 -79 -153 -149l-68 -66l-65 56q199 314 253 411q26 53 77 56q48 9 81 -24zM1031 1927q34 -33 37 -79q6 -46 -38 -89q-36 -27 -124 -116q-82 -79 -152 -149l-68 -66l-65 56q199 314 253 411q26 53 77 56q47 9 80 -24z" />
    <glyph glyph-name="udblacute" unicode="&#x171;" horiz-adv-x="1081" 
d="M287 876h-161v-560q0 -108 32 -173q38 -74 100 -113q74 -44 143 -49q94 -7 179 19q54 18 116 61q64 45 97 101v-85q1 -56 1 -77h160v876h-161v-498q0 -86 -62 -168q-61 -81 -125 -108q-73 -30 -152 -11q-79 21 -120 75q-46 64 -47 168v542zM480 1498q34 -34 37 -80
q6 -45 -38 -88q-36 -27 -124 -117q-83 -79 -152 -149l-69 -66l-64 57q198 313 253 410q27 54 77 57q48 8 80 -24zM970 1498q34 -34 37 -80q5 -45 -39 -88q-36 -27 -123 -117q-83 -79 -153 -149l-68 -66l-65 57q199 313 253 410q26 54 77 57q48 8 81 -24z" />
    <glyph glyph-name="Wcircumflex" unicode="&#x174;" horiz-adv-x="2110" 
d="M70 1306l484 -1306h99h1h2l397 1078l387 -1078h3h92l505 1306h-145l-378 -1024l-368 998h-171l-336 -1046l-392 1072h-180zM1407 1489l-79 -61l-274 277l-272 -277l-78 61l267 340h166z" />
    <glyph glyph-name="wcircumflex" unicode="&#x175;" horiz-adv-x="1556" 
d="M70 876l322 -876h106l264 698l260 -698h123l341 876h-137l-246 -689l-242 665h-145l-239 -665l-253 689h-154zM1130 1060l-80 -62l-273 278l-273 -278l-78 62l268 339h166z" />
    <glyph glyph-name="Ycircumflex" unicode="&#x176;" horiz-adv-x="1232" 
d="M70 1306l421 -765v-541h171q-1 254 -2 418q0 116 53 196l449 692h-155l-393 -633l-350 633h-194zM968 1489l-80 -61l-273 277l-273 -277l-78 61l268 340h166z" />
    <glyph glyph-name="ycircumflex" unicode="&#x177;" horiz-adv-x="1033" 
d="M70 876q254 -577 386 -876q-62 -150 -115 -239q-53 -87 -105 -87q-38 2 -93 39v-125q47 -32 91 -34q100 -6 171 108q23 38 49 88q27 52 42 86q16 34 42 93q28 61 32 71l393 876h-143l-280 -690l-303 690h-167zM868 1060l-79 -62l-274 278l-272 -278l-78 62l267 339h166z
" />
    <glyph glyph-name="Ydieresis" unicode="&#x178;" horiz-adv-x="1232" 
d="M70 1306l421 -765v-541h171q-1 254 -2 418q0 116 53 196l449 692h-155l-393 -633l-350 633h-194zM419 1632q-34 36 -85 36q-47 0 -84 -35q-36 -34 -36 -85q0 -47 35 -84q39 -36 85 -36q50 0 84 35q36 39 36 85q0 51 -35 84zM983 1632q-34 36 -85 36q-47 0 -84 -35
q-36 -34 -36 -85q0 -47 35 -84q39 -36 85 -36q50 0 84 35q36 39 36 85q0 51 -35 84z" />
    <glyph glyph-name="Zacute" unicode="&#x179;" horiz-adv-x="1249" 
d="M131 1306v-136l774 14l-835 -1119v-65h1102l7 134l-867 -14l836 1120v66h-1017zM808 1927q34 -33 37 -79q6 -46 -38 -89q-36 -27 -124 -116q-83 -79 -152 -149l-67 -66l-65 56q198 314 252 411q29 53 77 56q48 9 80 -24z" />
    <glyph glyph-name="zacute" unicode="&#x17a;" horiz-adv-x="915" 
d="M94 876v-101q90 -1 264 4q176 7 256 6l-544 -723v-62h775v101q-97 3 -285 -4q-188 -6 -276 -6l537 723v62h-727zM641 1498q34 -34 37 -80q6 -45 -38 -88q-36 -27 -124 -117q-82 -79 -152 -149l-67 -66l-65 57q198 313 252 410q30 54 77 57q47 8 80 -24z" />
    <glyph glyph-name="Zcaron" unicode="&#x17d;" horiz-adv-x="1249" 
d="M131 1306v-136l774 14l-835 -1119v-65h1102l7 134l-867 -14l836 1120v66h-1017zM976 1768l-79 61l-274 -277l-272 277l-78 -61l267 -340h166z" />
    <glyph glyph-name="zcaron" unicode="&#x17e;" horiz-adv-x="915" 
d="M94 876v-101q90 -1 264 4q176 7 256 6l-544 -723v-62h775v101q-97 3 -285 -4q-188 -6 -276 -6l537 723v62h-727zM809 1338l-79 61l-274 -277l-272 277l-78 -61l268 -340h165z" />
    <glyph glyph-name="Acaron" unicode="&#x1cd;" 
d="M672 1306l-602 -1306h149l219 494h524l205 -494h194l-565 1306h-124zM699 1086l224 -505h-447zM1082 1768l-80 61l-273 -277l-273 277l-78 -61l268 -340h166z" />
    <glyph glyph-name="acaron" unicode="&#x1ce;" horiz-adv-x="1076" 
d="M1006 872h-53l-109 -62q-134 92 -299 91q-205 1 -339 -134q-136 -134 -136 -329q0 -194 134 -329q136 -134 341 -134q165 1 299 91v-66h162v872zM515 832q115 2 208 -76q93 -76 121 -181v-323q1 -52 -24 -94q-23 -39 -61 -63q-38 -21 -77 -34q-39 -11 -77 -13
q-127 -4 -231 94q-102 97 -129 255q-25 161 45 287q72 128 194 144q2 0 13 1q12 3 18 3zM904 1363l-79 61l-274 -277l-272 277l-78 -61l267 -339h166z" />
    <glyph glyph-name="Icaron" unicode="&#x1cf;" horiz-adv-x="843" 
d="M333 1306v-1306h178v1306h-178zM773 1768l-79 61l-273 -277l-273 277l-78 -61l268 -340h165z" />
    <glyph glyph-name="icaron" unicode="&#x1d0;" horiz-adv-x="843" 
d="M502 367l-292 -24v-48q16 1 19 -1q57 -8 83 -29t29 -69v-586q-3 -48 -28 -68q-23 -18 -83 -27q-6 1 -20 -1v-49h422v49q-14 2 -20 1q-56 9 -82 27q-23 20 -28 68v757zM773 829l-79 61l-274 -277l-272 277l-78 -61l267 -339h166z" />
    <glyph glyph-name="Ocaron" unicode="&#x1d1;" horiz-adv-x="1551" 
d="M1050 1288q-130 56 -274 55q-144 1 -275 -54q-129 -55 -225 -148q-93 -91 -150 -219q-56 -128 -56 -269q0 -140 55 -268q57 -128 150 -221q97 -91 226 -146q131 -54 275 -55q144 0 274 54q132 55 225 147q95 92 150 220q57 128 56 269q1 140 -55 267q-55 129 -150 221
q-94 93 -226 147zM722 1256q122 0 236 -72q116 -70 197 -195q83 -126 109 -279q30 -162 -13 -309t-142 -240t-230 -109q-130 -16 -257 50q-126 69 -216 198q-90 132 -119 294q-45 248 71 442t314 218q18 2 50 2zM1127 1805l-79 61l-274 -277l-272 277l-78 -61l268 -340h165z
" />
    <glyph glyph-name="ocaron" unicode="&#x1d2;" horiz-adv-x="1088" 
d="M879 766q-139 136 -335 135q-194 1 -335 -135q-139 -136 -139 -328q0 -191 139 -328q141 -135 335 -135q196 0 335 135q140 137 139 328q1 192 -139 328zM512 829q111 0 204 -102q93 -101 117 -253q29 -160 -39 -286q-67 -124 -188 -140q-118 -16 -222 89
q-102 105 -129 265q-27 162 39 286q70 126 188 140q10 2 30 1zM896 1363l-80 61l-273 -277l-273 277l-78 -61l268 -339h166z" />
    <glyph glyph-name="Ucaron" unicode="&#x1d3;" horiz-adv-x="1203" 
d="M70 1306v-821q0 -247 148 -388q140 -134 369 -134q232 0 373 134q160 151 164 383l9 826h-139q1 -2 5 -831q3 -92 -29 -174q-30 -81 -86 -133q-107 -100 -280 -100q-158 0 -260 100q-56 56 -76 125q-18 69 -19 163l-1 850h-178zM953 1768l-79 61l-274 -277l-272 277
l-78 -61l268 -340h165z" />
    <glyph glyph-name="ucaron" unicode="&#x1d4;" horiz-adv-x="968" 
d="M231 876h-161v-560q0 -108 32 -173q38 -74 100 -113q74 -44 143 -49q94 -7 179 19q54 18 116 61q64 45 97 101v-85q1 -56 1 -77h160v876h-161v-498q0 -86 -62 -168q-61 -81 -125 -108q-73 -30 -152 -11q-79 21 -120 75q-46 64 -47 168v542zM836 1338l-80 61l-273 -277
l-273 277l-78 -61l268 -340h166z" />
    <glyph glyph-name="Gcaron" unicode="&#x1e6;" horiz-adv-x="1383" 
d="M773 1343q-195 1 -355 -84q-158 -84 -253 -243q-94 -158 -95 -361q-1 -149 60 -276q62 -127 162 -211q102 -83 224 -136q124 -50 257 -64q298 -28 540 94v354v146h-177v-146v-334q-142 -36 -260 -28q-227 20 -382 161q-154 142 -197 385q-27 162 12 305q41 143 135 235
q98 93 226 114q131 22 246 -20q116 -43 179 -132h215q-98 115 -240 177q-142 64 -297 64zM1043 1805l-79 61l-274 -277l-272 277l-78 -61l268 -340h165z" />
    <glyph glyph-name="gcaron" unicode="&#x1e7;" horiz-adv-x="1132" 
d="M542 902q-159 -2 -267 -91t-108 -217q0 -76 42 -142q45 -67 115 -114q-156 -74 -162 -158q-5 -98 140 -149q27 -7 57 -13q-85 -8 -175 -65t-104 -139q-16 -90 46 -158q62 -66 174 -95q88 -21 208 -24q122 -2 228 19q152 30 239 113q90 87 81 215q-12 206 -338 256
q-42 9 -157 20q-110 12 -156 19q-89 15 -96 56q-2 21 19 43q20 21 56 27q92 -35 178 -37q162 -3 278 87q117 92 117 221q1 92 -59 168q-14 20 -44 47h206v85h-355q-89 26 -163 26zM770 646q29 -108 -14 -203q-41 -93 -130 -114q-93 -19 -173 35q-78 56 -106 164
q-29 111 13 204q44 94 130 113q57 12 108 -4q50 -14 84 -49q36 -34 56 -72q22 -38 32 -74zM479 1q89 0 195 -20q122 -21 182 -66q62 -43 60 -112q0 -55 -50 -102q-51 -48 -141 -72q-81 -20 -180 -23q-89 0 -175 23q-64 21 -103 57q-35 36 -42 73q-6 43 2 71q9 32 29 55
q80 91 223 116zM906 1364l-79 62l-273 -278l-273 278l-78 -62l268 -339h165z" />
    <glyph glyph-name="Kcaron" unicode="&#x1e8;" horiz-adv-x="1119" 
d="M70 1306v-1306h178v623q12 1 21 1q9 1 17 0q7 -1 14 -5q9 -3 12 -5t11 -10q9 -8 11 -11q3 -3 12 -15q10 -11 13 -15l475 -563h215l-636 695l535 554l54 57h-141q-393 -423 -498 -539q-27 -28 -51 -43q-20 -13 -64 -14v596h-178zM849 1768l-79 61l-274 -277l-272 277
l-78 -61l267 -340h166z" />
    <glyph glyph-name="kcaron" unicode="&#x1e9;" horiz-adv-x="932" 
d="M231 1350h-161v-1350h161v266l150 150l293 -416h188l-400 498l376 378h-138l-469 -505v979zM818 1812l-80 61l-273 -277l-273 277l-78 -61l268 -340h166z" />
    <glyph glyph-name="jcaron" unicode="&#x1f0;" horiz-adv-x="843" 
d="M337 876q3 -440 0 -1073q1 -62 -21 -108q-21 -47 -54 -68q-32 -21 -65 -29t-61 -2q-36 9 -58 36v-89q44 -11 91 -10q51 3 97 12q48 9 93 36q46 28 80 67q35 39 55 102q21 64 21 143l-1 983h-177zM773 1454l-79 62l-274 -278l-272 278l-78 -62l267 -339h166z" />
    <glyph glyph-name="Gacute" unicode="&#x1f4;" horiz-adv-x="1383" 
d="M773 1343q-195 1 -355 -84q-158 -84 -253 -243q-94 -158 -95 -361q-1 -149 60 -276q62 -127 162 -211q102 -83 224 -136q124 -50 257 -64q298 -28 540 94v354v146h-177v-146v-334q-142 -36 -260 -28q-227 20 -382 161q-154 142 -197 385q-27 162 12 305q41 143 135 235
q98 93 226 114q131 22 246 -20q116 -43 179 -132h215q-98 115 -240 177q-142 64 -297 64zM875 1964q34 -33 37 -79q6 -45 -38 -89q-36 -26 -124 -116q-82 -80 -152 -149l-67 -66l-65 57q198 313 252 410q30 54 77 56q47 8 80 -24z" />
    <glyph glyph-name="gacute" unicode="&#x1f5;" horiz-adv-x="1132" 
d="M542 902q-159 -2 -267 -91t-108 -217q0 -76 42 -142q45 -67 115 -114q-156 -74 -162 -158q-5 -98 140 -149q27 -7 57 -13q-85 -8 -175 -65t-104 -139q-16 -90 46 -158q62 -66 174 -95q88 -21 208 -24q122 -2 228 19q152 30 239 113q90 87 81 215q-12 206 -338 256
q-42 9 -157 20q-110 12 -156 19q-89 15 -96 56q-2 21 19 43q20 21 56 27q92 -35 178 -37q162 -3 278 87q117 92 117 221q1 92 -59 168q-14 20 -44 47h206v85h-355q-89 26 -163 26zM770 646q29 -108 -14 -203q-41 -93 -130 -114q-93 -19 -173 35q-78 56 -106 164
q-29 111 13 204q44 94 130 113q57 12 108 -4q50 -14 84 -49q36 -34 56 -72q22 -38 32 -74zM479 1q89 0 195 -20q122 -21 182 -66q62 -43 60 -112q0 -55 -50 -102q-51 -48 -141 -72q-81 -20 -180 -23q-89 0 -175 23q-64 21 -103 57q-35 36 -42 73q-6 43 2 71q9 32 29 55
q80 91 223 116zM748 1524q34 -33 37 -79q6 -45 -38 -89q-36 -26 -124 -116q-83 -80 -152 -149l-67 -66l-65 56q198 313 252 411q29 54 77 56q48 8 80 -24z" />
    <glyph glyph-name="Adblgrave" unicode="&#x200;" 
d="M672 1306l-602 -1306h149l219 494h524l205 -494h194l-565 1306h-124zM699 1086l224 -505h-447zM777 1927q-33 -33 -37 -79t38 -89q36 -27 124 -116q84 -79 152 -149l68 -66l65 56q-197 314 -253 411q-26 53 -77 56q-47 9 -80 -24zM287 1927q-33 -33 -37 -79t38 -89
q36 -27 124 -116q84 -79 152 -149l69 -66l65 56q-198 314 -254 411q-26 53 -76 56q-47 9 -81 -24z" />
    <glyph glyph-name="adblgrave" unicode="&#x201;" horiz-adv-x="1080" 
d="M1006 872h-53l-109 -62q-134 92 -299 91q-205 1 -339 -134q-136 -134 -136 -329q0 -194 134 -329q136 -134 341 -134q165 1 299 91v-66h162v872zM515 832q115 2 208 -76q93 -76 121 -181v-323q1 -52 -24 -94q-23 -39 -61 -63q-38 -21 -77 -34q-39 -11 -77 -13
q-127 -4 -231 94q-102 97 -129 255q-25 161 45 287q72 128 194 144q2 0 13 1q12 3 18 3zM599 1523q-33 -33 -37 -79t38 -89q36 -27 124 -117q84 -79 152 -148l69 -66l65 56q-198 313 -254 410q-26 54 -76 57q-47 9 -81 -24zM110 1523q-34 -33 -38 -79t39 -89
q36 -27 123 -117q84 -79 153 -148l68 -66l65 56q-198 313 -253 410q-26 54 -77 57q-46 9 -80 -24z" />
    <glyph glyph-name="Edblgrave" unicode="&#x204;" horiz-adv-x="1093" 
d="M70 1306v-1306h953v134l-777 -14v529l526 -5v135l-526 -5v410l706 -14v136h-882zM608 1927q-34 -33 -38 -79t39 -89q36 -27 123 -116q84 -79 153 -149l68 -66l65 56q-198 314 -253 411q-26 53 -77 56q-46 9 -80 -24zM118 1927q-34 -33 -37 -79q-5 -46 38 -89
q37 -27 124 -116q83 -79 152 -149l69 -66l64 56q-198 314 -253 411q-26 53 -77 56q-46 9 -80 -24z" />
    <glyph glyph-name="edblgrave" unicode="&#x205;" horiz-adv-x="1086" 
d="M544 901q-206 1 -340 -133t-134 -329q0 -189 133 -317q134 -128 341 -145q226 -16 395 84l-47 76q-117 -78 -288 -72q-135 5 -235 83q-99 80 -124 231q-6 44 -6 72h604h173q-14 185 -147 317q-133 134 -325 133zM514 816q104 0 188 -70q87 -69 123 -189h-580
q18 110 81 176q64 69 157 81q21 2 31 2zM604 1523q-34 -33 -37 -79q-5 -46 38 -89q37 -27 124 -117q83 -79 152 -148l69 -66l64 56q-198 313 -253 410q-26 54 -77 57q-46 9 -80 -24zM114 1523q-34 -33 -37 -79q-4 -46 39 -89q36 -27 123 -117q84 -79 153 -148l68 -66l65 56
q-197 313 -253 410q-26 54 -77 57q-47 9 -81 -24z" />
    <glyph glyph-name="Idblgrave" unicode="&#x208;" horiz-adv-x="1079" 
d="M449 1306v-1306h178v1306h-178zM599 1927q-33 -33 -37 -79t38 -89q36 -27 124 -116q84 -79 152 -149l69 -66l64 56q-197 314 -253 411q-26 53 -77 56q-47 9 -80 -24zM109 1927q-33 -33 -37 -79t39 -89q36 -27 123 -116q84 -79 153 -149l68 -66l65 56q-198 314 -253 411
q-26 53 -77 56q-47 9 -81 -24z" />
    <glyph glyph-name="idblgrave" unicode="&#x209;" horiz-adv-x="1079" 
d="M618 367l-292 -24v-48q16 1 19 -1q57 -8 83 -29t29 -69v-586q-3 -48 -28 -68q-23 -18 -83 -27q-6 1 -20 -1v-49h422v49q-14 2 -20 1q-56 9 -82 27q-23 20 -28 68v757zM598 989q-34 -33 -37 -79q-4 -46 39 -89q36 -27 123 -117q84 -79 153 -148l68 -66l65 56
q-197 313 -253 410q-26 54 -77 57q-47 9 -81 -24zM109 989q-33 -33 -37 -79t38 -89q36 -27 124 -117q84 -79 152 -148l68 -66l65 56q-197 313 -253 410q-26 54 -77 57q-47 9 -80 -24z" />
    <glyph glyph-name="Odblgrave" unicode="&#x20c;" horiz-adv-x="1551" 
d="M1050 1288q-130 56 -274 55q-144 1 -275 -54q-129 -55 -225 -148q-93 -91 -150 -219q-56 -128 -56 -269q0 -140 55 -268q57 -128 150 -221q97 -91 226 -146q131 -54 275 -55q144 0 274 54q132 55 225 147q95 92 150 220q57 128 56 269q1 140 -55 267q-55 129 -150 221
q-94 93 -226 147zM722 1256q122 0 236 -72q116 -70 197 -195q83 -126 109 -279q30 -162 -13 -309t-142 -240t-230 -109q-130 -16 -257 50q-126 69 -216 198q-90 132 -119 294q-45 248 71 442t314 218q18 2 50 2zM837 1964q-33 -33 -37 -79q-4 -45 38 -89q36 -26 124 -116
q84 -80 152 -149l68 -66l65 57q-197 313 -253 410q-26 54 -77 56q-47 8 -80 -24zM347 1964q-33 -33 -37 -79q-4 -45 38 -89q36 -26 124 -116q84 -80 152 -149l69 -66l65 57q-198 313 -254 410q-26 54 -76 56q-47 8 -81 -24z" />
    <glyph glyph-name="odblgrave" unicode="&#x20d;" horiz-adv-x="1088" 
d="M879 766q-139 136 -335 135q-194 1 -335 -135q-139 -136 -139 -328q0 -191 139 -328q141 -135 335 -135q196 0 335 135q140 137 139 328q1 192 -139 328zM512 829q111 0 204 -102q93 -101 117 -253q29 -160 -39 -286q-67 -124 -188 -140q-118 -16 -222 89
q-102 105 -129 265q-27 162 39 286q70 126 188 140q10 2 30 1zM605 1523q-33 -33 -37 -79t38 -89q36 -27 124 -117q84 -79 152 -148l69 -66l65 56q-198 313 -254 410q-26 54 -76 57q-47 9 -81 -24zM116 1523q-34 -33 -38 -79t39 -89q36 -27 123 -117q84 -79 153 -148l68 -66
l65 56q-198 313 -253 410q-26 54 -77 57q-46 9 -80 -24z" />
    <glyph glyph-name="Rdblgrave" unicode="&#x210;" horiz-adv-x="1117" 
d="M70 1306v-1306h178v598q75 9 111 -35l473 -561h215q-397 418 -568 620q36 0 60 2q169 18 259 106q92 90 100 210q4 47 -11 97q-13 51 -50 98q-35 51 -91 87q-54 37 -141 60q-85 25 -189 24h-346zM248 1218h206q64 0 114 -26t78 -69q28 -44 43 -90q15 -47 15 -95
q0 -96 -83 -175q-82 -79 -211 -79h-162v534zM620 1927q-34 -33 -38 -79t39 -89q36 -27 123 -116q84 -79 153 -149l68 -66l65 56q-198 314 -253 411q-26 53 -77 56q-46 9 -80 -24zM130 1927q-34 -33 -37 -79q-5 -46 38 -89q37 -27 124 -116q83 -79 152 -149l69 -66l64 56
q-198 314 -253 411q-26 53 -77 56q-46 9 -80 -24z" />
    <glyph glyph-name="rdblgrave" unicode="&#x211;" horiz-adv-x="1079" 
d="M657 901q-134 3 -234 -96v71h-160v-876h160v570q0 102 57 163q60 63 141 61q82 -1 145 -66l47 129q-69 43 -156 44zM599 1526q-33 -33 -37 -79q-4 -45 38 -89q36 -26 124 -116q84 -80 152 -149l69 -66l64 57q-197 313 -253 410q-26 54 -77 56q-47 8 -80 -24zM109 1526
q-33 -33 -37 -79q-4 -45 39 -89q36 -26 123 -116q84 -80 153 -149l68 -66l65 57q-198 313 -253 410q-26 54 -77 56q-47 8 -81 -24z" />
    <glyph glyph-name="Udblgrave" unicode="&#x214;" horiz-adv-x="1203" 
d="M70 1306v-821q0 -247 148 -388q140 -134 369 -134q232 0 373 134q160 151 164 383l9 826h-139q1 -2 5 -831q3 -92 -29 -174q-30 -81 -86 -133q-107 -100 -280 -100q-158 0 -260 100q-56 56 -76 125q-18 69 -19 163l-1 850h-178zM663 1927q-33 -33 -37 -79t38 -89
q36 -27 124 -116q84 -79 152 -149l68 -66l65 56q-197 314 -253 411q-26 53 -77 56q-47 9 -80 -24zM173 1927q-33 -33 -37 -79t38 -89q36 -27 124 -116q84 -79 152 -149l69 -66l65 56q-198 314 -254 411q-26 53 -76 56q-47 9 -81 -24z" />
    <glyph glyph-name="udblgrave" unicode="&#x215;" horiz-adv-x="1080" 
d="M285 876h-161v-560q0 -108 32 -173q38 -74 100 -113q74 -44 143 -49q94 -7 179 19q54 18 116 61q64 45 97 101v-85q1 -56 1 -77h160v876h-161v-498q0 -86 -62 -168q-61 -81 -125 -108q-73 -30 -152 -11q-79 21 -120 75q-46 64 -47 168v542zM599 1498q-33 -34 -37 -80
q-4 -45 38 -88q36 -27 124 -117q84 -79 152 -149l69 -66l65 57q-198 313 -254 410q-26 54 -76 57q-47 8 -81 -24zM110 1498q-34 -34 -38 -80q-4 -45 39 -88q36 -27 123 -117q84 -79 153 -149l68 -66l65 57q-198 313 -253 410q-26 54 -77 57q-46 8 -80 -24z" />
    <glyph glyph-name="Hcaron" unicode="&#x21e;" horiz-adv-x="1134" 
d="M70 1306v-1306h178v668h638v-668h178v1306h-178v-551h-638v551h-178zM918 1768l-79 61l-273 -277l-273 277l-78 -61l268 -340h165z" />
    <glyph glyph-name="hcaron" unicode="&#x21f;" horiz-adv-x="970" 
d="M738 0h162v560q0 111 -32 174q-36 72 -100 112q-74 46 -142 50q-90 8 -179 -20q-54 -16 -118 -61q-63 -44 -97 -101q1 28 0 322q0 295 -1 314h-161v-1350h162v498q1 86 62 168q63 82 126 109q32 14 72 16q44 3 81 -6q81 -19 120 -73q45 -62 45 -170v-542zM837 1812
l-79 61l-274 -277l-272 277l-78 -61l267 -340h166z" />
    <glyph glyph-name="Adotabove" unicode="&#x226;" 
d="M672 1306l-602 -1306h149l219 494h524l205 -494h194l-565 1306h-124zM699 1086l224 -505h-447zM801 1632q-34 36 -85 36q-47 0 -84 -35q-36 -34 -36 -85q0 -47 34 -84q39 -36 86 -36q50 0 84 35q36 39 36 85q0 51 -35 84z" />
    <glyph glyph-name="adotabove" unicode="&#x227;" horiz-adv-x="1076" 
d="M1006 872h-53l-109 -62q-134 92 -299 91q-205 1 -339 -134q-136 -134 -136 -329q0 -194 134 -329q136 -134 341 -134q165 1 299 91v-66h162v872zM515 832q115 2 208 -76q93 -76 121 -181v-323q1 -52 -24 -94q-23 -39 -61 -63q-38 -21 -77 -34q-39 -11 -77 -13
q-127 -4 -231 94q-102 97 -129 255q-25 161 45 287q72 128 194 144q2 0 13 1q12 3 18 3zM623 1228q-34 36 -85 36q-47 0 -84 -35q-36 -34 -36 -85q0 -47 35 -84q39 -36 85 -36q50 0 84 34q36 39 36 86q0 51 -35 84z" />
    <glyph glyph-name="Ecedilla" unicode="&#x228;" horiz-adv-x="1093" 
d="M70 1306v-1306h953v134l-777 -14v529l526 -5v135l-526 -5v410l706 -14v136h-882zM513 -524q-79 1 -125 48q-28 28 -31 63q-1 39 29 57q10 6 20 8t11 1q11 1 20 -6q1 2 1 -1q4 0 3 -2q23 -14 19 -39q2 -11 -8 -23q-8 -9 -17 -16q-8 -4 -11 -12q-3 -4 6 -12q32 -34 85 -32
q39 2 64 18q27 18 38 44q15 26 19 49q8 25 8 50q6 33 -5 64q-8 33 -36 59q-27 29 -66 40q-16 4 -58 3v20q3 15 3 51q4 36 4 70h42l-6 -103q48 3 88 -15q38 -15 62 -36q25 -19 39 -48q18 -28 21 -54q8 -26 6 -47q0 -33 -16 -71q-16 -36 -44 -65q-26 -27 -70 -45t-95 -18z" />
    <glyph glyph-name="ecedilla" unicode="&#x229;" horiz-adv-x="1086" 
d="M544 901q-206 1 -340 -133t-134 -329q0 -189 133 -317q134 -128 341 -145q226 -16 395 84l-47 76q-117 -78 -288 -72q-135 5 -235 83q-99 80 -124 231q-6 44 -6 72h604h173q-14 185 -147 317q-133 134 -325 133zM514 816q104 0 188 -70q87 -69 123 -189h-580
q18 110 81 176q64 69 157 81q21 2 31 2zM555 -542q-79 1 -125 48q-28 28 -31 63q-1 39 29 57q10 6 20 8t11 1q11 1 20 -6q1 2 1 -1q4 0 3 -2q23 -14 19 -39q2 -11 -8 -23q-8 -9 -17 -16q-8 -4 -11 -12q-3 -4 6 -12q32 -34 85 -32q39 2 64 18q27 18 38 44q15 26 19 49
q8 25 8 50q6 33 -5 64q-8 33 -36 59q-27 29 -66 40q-16 4 -58 3v20q3 15 3 51q4 36 4 70h42l-6 -103q48 3 88 -15q38 -15 62 -36q25 -19 39 -48q18 -28 21 -54q8 -26 6 -47q0 -33 -16 -71q-16 -36 -44 -65q-26 -27 -70 -45t-95 -18z" />
    <glyph glyph-name="Odotabove" unicode="&#x22e;" horiz-adv-x="1551" 
d="M1050 1288q-130 56 -274 55q-144 1 -275 -54q-129 -55 -225 -148q-93 -91 -150 -219q-56 -128 -56 -269q0 -140 55 -268q57 -128 150 -221q97 -91 226 -146q131 -54 275 -55q144 0 274 54q132 55 225 147q95 92 150 220q57 128 56 269q1 140 -55 267q-55 129 -150 221
q-94 93 -226 147zM722 1256q122 0 236 -72q116 -70 197 -195q83 -126 109 -279q30 -162 -13 -309t-142 -240t-230 -109q-130 -16 -257 50q-126 69 -216 198q-90 132 -119 294q-45 248 71 442t314 218q18 2 50 2zM861 1669q-34 36 -85 36q-47 1 -84 -35q-36 -34 -36 -85
q0 -47 34 -84q39 -36 86 -36q50 1 84 35q36 38 36 85q0 51 -35 84z" />
    <glyph glyph-name="odotabove" unicode="&#x22f;" horiz-adv-x="1088" 
d="M879 766q-139 136 -335 135q-194 1 -335 -135q-139 -136 -139 -328q0 -191 139 -328q141 -135 335 -135q196 0 335 135q140 137 139 328q1 192 -139 328zM512 829q111 0 204 -102q93 -101 117 -253q29 -160 -39 -286q-67 -124 -188 -140q-118 -16 -222 89
q-102 105 -129 265q-27 162 39 286q70 126 188 140q10 2 30 1zM629 1228q-34 36 -85 36q-47 0 -84 -35q-36 -34 -36 -85q0 -47 35 -84q39 -36 85 -36q50 0 84 34q36 39 36 86q0 51 -35 84z" />
    <glyph glyph-name="Ymacron" unicode="&#x232;" horiz-adv-x="1232" 
d="M70 1306l421 -765v-541h171q-1 254 -2 418q0 116 53 196l449 692h-155l-393 -633l-350 633h-194zM184 1538h865v-110h-865v110z" />
    <glyph glyph-name="ymacron" unicode="&#x233;" horiz-adv-x="1033" 
d="M70 876q254 -577 386 -876q-62 -150 -115 -239q-53 -87 -105 -87q-38 2 -93 39v-125q47 -32 91 -34q100 -6 171 108q23 38 49 88q27 52 42 86q16 34 42 93q28 61 32 71l393 876h-143l-280 -690l-303 690h-167zM84 1109h866v-111h-866v111z" />
    <glyph glyph-name="circumflex" unicode="&#x2c6;" horiz-adv-x="843" 
d="M773 1242l-83 -61l-270 277l-283 -277l-67 61l264 339h173z" />
    <glyph glyph-name="caron" unicode="&#x2c7;" horiz-adv-x="843" 
d="M773 985l-79 61l-274 -277l-272 277l-78 -61l268 -339h165z" />
    <glyph glyph-name="firsttonechinese" unicode="&#x2c9;" horiz-adv-x="1005" 
d="M70 968h865v-110h-865v110z" />
    <glyph glyph-name="breve" unicode="&#x2d8;" horiz-adv-x="795" 
d="M71 1036q-3 -129 95 -227q99 -97 231 -94q141 3 230 94q99 98 96 227h-101q4 -64 -62 -126q-58 -55 -163 -56q-93 1 -161 56q-62 57 -63 126h-102z" />
    <glyph glyph-name="dotaccent" unicode="&#x2d9;" horiz-adv-x="380" 
d="M275 1123q-34 36 -85 36q-47 1 -84 -35q-36 -34 -36 -85q0 -47 35 -84q39 -36 85 -36q50 1 84 35q36 38 36 85q0 51 -35 84z" />
    <glyph glyph-name="ring" unicode="&#x2da;" horiz-adv-x="651" 
d="M324 1861q46 1 93 -21q47 -18 83 -55q36 -33 57 -80q25 -47 23 -99q2 -54 -22 -99q-22 -45 -58 -82q-36 -33 -82 -54q-47 -20 -94 -20q-46 1 -93 19q-45 22 -82 55q-36 36 -57 81q-22 46 -22 100q0 52 22 98q21 48 57 81q37 37 82 55q47 22 93 21zM328 1754
q-55 0 -102 -43q-46 -43 -46 -105q0 -60 46 -104q47 -43 102 -44q56 0 102 43q46 44 47 105q-1 62 -47 105t-102 43z" />
    <glyph glyph-name="tilde" unicode="&#x2dc;" horiz-adv-x="934" 
d="M830 574q-10 -32 -28 -59q-14 -27 -29 -45q-14 -16 -31 -26q-16 -7 -31 -14q-11 -6 -34 -4q-17 3 -32 6q-10 4 -36 13q-21 10 -36 18q-11 9 -39 23q-25 18 -39 23q-11 7 -41 21q-26 17 -42 24q-81 46 -168 14t-126 -124l-48 -108l35 -18q13 34 27 59q16 27 29 44
q15 18 31 27q21 10 32 14q15 8 33 4q22 -2 33 -6q15 -3 36 -14q26 -10 36 -18q14 -6 38 -21q29 -15 40 -23q14 -6 40 -23q29 -15 42 -23q83 -46 168 -13q87 33 126 123l48 108z" />
    <glyph glyph-name="hungarumlaut" unicode="&#x2dd;" horiz-adv-x="1081" 
d="M480 1067q37 -33 38 -79q6 -46 -39 -89q-33 -27 -123 -117q-83 -79 -153 -148l-68 -66l-65 56q200 313 253 410q29 54 77 57q48 9 80 -24zM970 1067q36 -33 37 -79q6 -46 -38 -89q-34 -27 -124 -117q-83 -79 -152 -148l-69 -66l-64 56q200 313 253 410q29 54 77 57
q48 9 80 -24z" />
    <glyph glyph-name="gravecmb" unicode="&#x300;" horiz-adv-x="588" 
d="M109 1067q-33 -33 -37 -79t38 -89q36 -27 124 -117q84 -79 152 -148l67 -66l65 56q-198 313 -252 410q-28 54 -77 57q-47 9 -80 -24z" />
    <glyph glyph-name="acutecmb" unicode="&#x301;" horiz-adv-x="590" 
d="M479 1067q34 -33 37 -79q6 -46 -38 -89q-36 -27 -124 -117q-82 -79 -152 -148l-67 -66l-65 56q198 313 252 410q30 54 77 57q47 9 80 -24z" />
    <glyph glyph-name="circumflexcmb" unicode="&#x302;" horiz-adv-x="843" 
d="M773 426l-79 -61l-274 277l-272 -277l-78 61l268 340h165z" />
    <glyph glyph-name="tildecmb" unicode="&#x303;" horiz-adv-x="934" 
d="M830 304q-10 -32 -28 -59q-14 -27 -29 -45q-14 -16 -31 -26q-16 -7 -31 -14q-11 -6 -34 -4q-17 3 -32 6q-10 4 -36 13q-21 10 -36 18q-11 9 -39 23q-25 18 -39 23q-11 7 -41 21q-26 17 -42 24q-81 46 -168 14t-126 -124l-48 -108l35 -18q13 34 27 59q16 27 29 44
q15 18 31 27q21 10 32 14q15 8 33 4q22 -2 33 -6q15 -3 36 -14q26 -10 36 -18q14 -6 38 -21q29 -15 40 -23q14 -6 40 -23q29 -15 42 -23q83 -46 168 -13q87 33 126 123l48 108z" />
    <glyph glyph-name="macroncmb" unicode="&#x304;" horiz-adv-x="1005" 
d="M70 968h865v-110h-865v110z" />
    <glyph glyph-name="overlinecmb" unicode="&#x305;" horiz-adv-x="1551" 
d="M70 968h1411v-110h-1411v110z" />
    <glyph glyph-name="brevecmb" unicode="&#x306;" horiz-adv-x="795" 
d="M71 1036q-3 -129 95 -227q99 -97 231 -94q141 1 230 94q99 98 96 227h-101q4 -69 -62 -126q-58 -55 -163 -56q-93 1 -161 56q-62 57 -63 126h-102z" />
    <glyph glyph-name="dotaccentcmb" unicode="&#x307;" horiz-adv-x="380" 
d="M275 1123q-34 36 -85 36q-47 1 -84 -35q-36 -34 -36 -85q0 -47 35 -84q39 -36 85 -36q50 1 84 35q36 38 36 85q0 51 -35 84z" />
    <glyph glyph-name="dieresiscmb" unicode="&#x308;" horiz-adv-x="944" 
d="M275 1123q-34 36 -85 36q-47 1 -84 -35q-36 -34 -36 -85q0 -47 35 -84q39 -36 85 -36q50 1 84 35q36 38 36 85q0 51 -35 84zM839 1123q-34 36 -85 36q-47 1 -84 -35q-36 -34 -36 -85q0 -47 35 -84q39 -36 85 -36q50 1 84 35q36 38 36 85q0 51 -35 84z" />
    <glyph glyph-name="ringcmb" unicode="&#x30a;" horiz-adv-x="651" 
d="M324 1451q46 1 93 -21q47 -18 83 -55q36 -33 57 -80q25 -47 23 -99q2 -54 -22 -99q-22 -45 -58 -82q-36 -33 -82 -54q-47 -20 -94 -20q-46 1 -93 19q-45 22 -82 55q-36 36 -57 81q-22 46 -22 100q0 52 22 98q21 48 57 81q37 37 82 55q47 22 93 21zM328 1344
q-55 0 -102 -43q-46 -43 -46 -105q0 -60 46 -104q47 -43 102 -44q56 0 102 43q46 44 47 105q-1 62 -47 105t-102 43z" />
    <glyph glyph-name="hungarumlautcmb" unicode="&#x30b;" horiz-adv-x="1081" 
d="M480 1064q34 -33 38 -79q6 -45 -39 -89q-35 -26 -123 -116q-83 -80 -153 -149l-68 -66l-65 57q198 313 253 410q27 54 77 56q48 8 80 -24zM970 1064q34 -33 37 -79q6 -45 -38 -89q-36 -26 -124 -116q-83 -80 -152 -149l-69 -66l-64 57q198 313 253 410q27 54 77 56
q48 8 80 -24z" />
    <glyph glyph-name="caroncmb" unicode="&#x30c;" horiz-adv-x="843" 
d="M773 1722l-79 61l-274 -277l-272 277l-78 -61l268 -340h165z" />
    <glyph glyph-name="dblgravecmb" unicode="&#x30f;" horiz-adv-x="1079" 
d="M599 1064q-34 -33 -38 -79q-4 -45 39 -89q36 -26 123 -116q84 -80 153 -149l68 -66l65 57q-197 313 -253 410q-26 54 -77 56q-47 8 -80 -24zM109 1064q-33 -33 -37 -79q-4 -45 38 -89q36 -26 124 -116q84 -80 152 -149l69 -66l64 57q-197 313 -253 410q-26 54 -77 56
q-47 8 -80 -24z" />
    <glyph glyph-name="candrabinducmb" unicode="&#x310;" horiz-adv-x="795" 
d="M71 1036q-3 -129 95 -227q99 -97 231 -94q141 3 230 94q99 98 96 227h-101q4 -64 -62 -126q-58 -55 -163 -56q-93 1 -161 56q-62 57 -63 126h-102zM482 1195q-35 36 -85 36q-47 1 -84 -35q-36 -34 -36 -85q-1 -47 34 -84q37 -36 86 -36q51 1 84 35q36 38 36 85
q1 51 -35 84z" />
    <glyph glyph-name="breveinvertedcmb" unicode="&#x311;" horiz-adv-x="795" 
d="M71 712q-3 131 95 226q99 98 231 94q141 0 230 -94q99 -95 96 -226h-101q4 69 -62 126q-58 56 -163 55q-93 1 -161 -55q-62 -57 -63 -126h-102z" />
    <glyph glyph-name="commaturnedabovecmb" unicode="&#x312;" horiz-adv-x="388" 
d="M199 842q-31 -50 -85 -170q-25 -61 -39 -104q-7 -46 14 -89q25 -39 67 -54q22 -3 38 -6q44 1 75 26q34 27 42 71q11 54 -21 90q-30 38 -85 41q18 62 80 195h-86z" />
    <glyph glyph-name="commaabovecmb" unicode="&#x313;" horiz-adv-x="389" 
d="M188 420q34 54 86 170q28 63 38 105q12 51 -13 89q-21 44 -67 54q-21 8 -39 6q-39 0 -74 -27q-33 -25 -42 -71q-10 -52 20 -90q32 -36 85 -40q-16 -62 -80 -196h86z" />
    <glyph glyph-name="commareversedabovecmb" unicode="&#x314;" horiz-adv-x="388" 
d="M199 420q-31 54 -85 170q-25 63 -39 105q-7 51 14 89q25 44 67 54q22 8 38 6q44 0 75 -27q34 -25 42 -71q11 -52 -21 -90q-30 -36 -85 -40q18 -62 80 -196h-86z" />
    <glyph glyph-name="horncmb" unicode="&#x31b;" horiz-adv-x="416" 
d="M202 373q36 57 93 190q33 69 44 115q11 54 -15 98q-25 47 -75 60q-21 8 -42 8q-45 2 -83 -29q-36 -28 -47 -79q-10 -56 23 -100q36 -40 95 -46q-19 -70 -89 -217h96z" />
    <glyph glyph-name="cedillacmb" unicode="&#x327;" horiz-adv-x="524" 
d="M227 -1044q-79 1 -124 48q-28 29 -32 64q-1 38 29 56q10 6 31 10v0q11 1 21 -6q0 2 1 -2q3 0 2 -2q23 -14 20 -38q1 -12 -9 -23q-8 -9 -17 -17q-7 -4 -10 -12q-3 -4 6 -12q32 -34 85 -31q39 2 63 18q28 17 39 43q16 26 19 49q7 25 7 51q6 33 -5 63q-8 33 -36 59
q-27 30 -66 41q-15 3 -57 2v21q2 14 2 50q4 36 5 71h42l-6 -103q49 2 88 -16q39 -15 62 -36q25 -19 38 -48q19 -28 22 -54q8 -26 6 -47q-1 -33 -17 -71q-15 -36 -43 -64q-27 -28 -71 -46t-95 -18z" />
    <glyph glyph-name="quoteleft" unicode="&#x2018;" horiz-adv-x="388" 
d="M201 977q-31 53 -86 170q-32 69 -39 104q-8 49 13 88q21 42 67 54q22 7 40 6q42 1 74 -25t41 -71q11 -52 -20 -90q-33 -37 -86 -41q15 -58 82 -195h-86z" />
    <glyph glyph-name="quoteright" unicode="&#x2019;" horiz-adv-x="389" 
d="M188 977q32 53 85 170q32 69 39 104q10 49 -13 88q-21 42 -67 54q-22 7 -40 6q-40 1 -74 -25q-30 -26 -41 -71q-9 -52 21 -90q33 -37 85 -41q-14 -58 -82 -195h87z" />
    <glyph glyph-name="quotesinglbase" unicode="&#x201a;" horiz-adv-x="389" 
d="M187 -211q33 53 85 170q32 69 40 104q12 49 -13 88q-21 42 -67 54q-22 7 -40 6q-42 1 -74 -25t-41 -71q-10 -52 20 -90q32 -37 85 -41q-14 -58 -81 -195h86z" />
    <glyph glyph-name="quoteleftreversed" unicode="&#x201b;" horiz-adv-x="388" 
d="M201 977q-31 53 -86 170q-32 69 -39 104q-8 49 13 88q21 42 67 54q22 7 40 6q42 1 74 -25t41 -71q11 -52 -20 -90q-33 -37 -86 -41q15 -58 82 -195h-86z" />
    <glyph glyph-name="quotedblleft" unicode="&#x201c;" horiz-adv-x="716" 
d="M200 1471q-30 -51 -85 -170q-31 -67 -40 -105q-7 -46 14 -87q25 -39 67 -54q21 -6 39 -6q43 -1 75 25q33 28 41 71q11 54 -21 90q-30 37 -85 40q18 60 82 196h-87zM528 1471q-30 -51 -85 -170q-29 -67 -40 -105q-7 -46 13 -87q24 -39 67 -54q21 -6 40 -6q44 -1 74 25
q33 28 41 71q12 54 -20 90q-30 37 -85 40q17 60 81 196h-86z" />
    <glyph glyph-name="quotedblright" unicode="&#x201d;" horiz-adv-x="717" 
d="M515 977q32 53 85 170q32 69 40 104q10 49 -14 88q-21 42 -67 54q-21 7 -39 6q-40 1 -75 -25q-31 -26 -41 -71q-10 -52 21 -90q33 -37 85 -41q-14 -58 -82 -195h87zM187 977q33 53 85 170q32 69 40 104q12 49 -13 88q-21 42 -67 54q-22 7 -40 6q-42 1 -74 -25t-41 -71
q-10 -52 20 -90q32 -37 85 -41q-14 -58 -81 -195h86z" />
    <glyph glyph-name="quotedblbase" unicode="&#x201e;" horiz-adv-x="717" 
d="M515 -211q32 53 85 170q32 69 40 104q10 49 -14 88q-21 42 -67 54q-21 7 -39 6q-40 1 -75 -25q-31 -26 -41 -71q-10 -52 21 -90q33 -37 85 -41q-14 -58 -82 -195h87zM187 -211q33 53 85 170q32 69 40 104q12 49 -13 88q-21 42 -67 54q-22 7 -40 6q-42 1 -74 -25t-41 -71
q-10 -52 20 -90q32 -37 85 -41q-14 -58 -81 -195h86z" />
    <glyph glyph-name="uni201F" unicode="&#x201f;" horiz-adv-x="715" 
d="M200 977q-30 53 -85 170q-32 69 -39 104q-8 49 13 88q21 42 67 54q22 7 40 6q42 1 74 -25t41 -71q11 -52 -21 -90q-32 -37 -85 -41q15 -58 82 -195h-87zM528 977q-32 53 -85 170q-33 69 -40 104q-11 49 13 88q22 42 68 54q21 7 39 6q43 1 75 -25t40 -71q12 -52 -20 -90
q-30 -37 -85 -41q15 -58 81 -195h-86z" />
    <glyph glyph-name="glyph172" horiz-adv-x="1268" 
d="M70 1306v-136l475 14v-1184h178v1184l475 -14v136h-1128zM628 1428q36 58 94 190q33 69 43 115q11 54 -15 98q-25 47 -75 60q-21 7 -42 7q-45 2 -83 -28q-36 -28 -47 -80q-10 -56 23 -99q36 -39 95 -46q-19 -69 -89 -217h96z" />
    <glyph glyph-name="glyph199" horiz-adv-x="742" 
d="M249 1086v-210h-179v-86h179q-1 -414 -1 -582q0 -32 2 -58q2 -25 17 -60q13 -34 38 -59q27 -23 75 -41q50 -16 117 -15q100 1 175 45v82q-22 -14 -67 -23q-44 -8 -72 -5q-51 6 -80 38q-29 33 -37 61q-8 29 -8 59l2 558h254v86h-254l-2 312h-51zM365 1310q37 58 94 190
q33 69 43 115q11 55 -14 99q-26 47 -76 60q-22 8 -42 7q-45 1 -83 -29q-37 -28 -47 -79q-10 -56 23 -100q35 -39 95 -45q-18 -70 -89 -218h96z" />
    <glyph glyph-name="glyph287" horiz-adv-x="1551" 
d="M1050 1288q-130 56 -274 55q-144 1 -275 -54q-129 -55 -225 -148q-93 -91 -150 -219q-56 -128 -56 -269q0 -140 55 -268q57 -128 150 -221q97 -91 226 -146q131 -54 275 -55q144 0 274 54q132 55 225 147q95 92 150 220q57 128 56 269q1 140 -55 267q-55 129 -150 221
q-94 93 -226 147zM722 1256q122 0 236 -72q116 -70 197 -195q83 -126 109 -279q30 -162 -13 -309t-142 -240t-230 -109q-130 -16 -257 50q-126 69 -216 198q-90 132 -119 294q-45 248 71 442t314 218q18 2 50 2zM770 1465q36 57 93 190q33 69 43 115q11 54 -14 98
q-26 47 -76 60q-22 8 -42 8q-44 2 -82 -29q-36 -28 -47 -79q-10 -56 23 -100q35 -40 94 -46q-18 -70 -88 -217h96z" />
    <glyph glyph-name="glyph288" horiz-adv-x="1088" 
d="M879 766q-139 136 -335 135q-194 1 -335 -135q-139 -136 -139 -328q0 -191 139 -328q141 -135 335 -135q196 0 335 135q140 137 139 328q1 192 -139 328zM512 829q111 0 204 -102q93 -101 117 -253q29 -160 -39 -286q-67 -124 -188 -140q-118 -16 -222 89
q-102 105 -129 265q-27 162 39 286q70 126 188 140q10 2 30 1zM538 1024q36 57 94 189q33 69 43 115q11 54 -15 99q-25 47 -75 60q-21 7 -42 7q-45 2 -83 -29q-36 -28 -47 -79q-10 -56 23 -100q36 -39 95 -45q-19 -69 -89 -217h96z" />
    <glyph glyph-name="glyph289" horiz-adv-x="1203" 
d="M70 1306v-821q0 -247 148 -388q140 -134 369 -134q232 0 373 134q160 151 164 383l9 826h-139q1 -2 5 -831q3 -92 -29 -174q-30 -81 -86 -133q-107 -100 -280 -100q-158 0 -260 100q-56 56 -76 125q-18 69 -19 163l-1 850h-178zM596 1428q36 58 93 190q33 69 43 115
q11 54 -14 98q-26 47 -76 60q-22 7 -42 7q-44 2 -82 -28q-36 -28 -47 -80q-10 -56 23 -99q35 -39 94 -46q-18 -69 -88 -217h96z" />
    <glyph glyph-name="glyph290" horiz-adv-x="968" 
d="M231 876h-161v-560q0 -108 32 -173q38 -74 100 -113q74 -44 143 -49q94 -7 179 19q54 18 116 61q64 45 97 101v-85q1 -56 1 -77h160v876h-161v-498q0 -86 -62 -168q-61 -81 -125 -108q-73 -30 -152 -11q-79 21 -120 75q-46 64 -47 168v542zM478 998q36 58 94 190
q33 69 43 115q11 55 -15 99q-25 47 -75 60q-21 8 -42 7q-45 1 -83 -29q-36 -28 -47 -79q-10 -56 23 -100q36 -39 95 -45q-19 -70 -89 -218h96z" />
    </font>
</defs>
</svg>
